<?xml version="1.0" encoding="iso-8859-1"?>
<!-- Generator: Adobe Illustrator 19.0.0, SVG Export Plug-In . SVG Version: 6.00 Build 0)  -->
<svg version="1.1" fill="#ff3066" id="Capa_1" xmlns="http://www.w3.org/2000/svg" xmlns:xlink="http://www.w3.org/1999/xlink" height="60px" width="60px"
	 viewBox="0 0 511.998 511.998" style="enable-background:new 0 0 511.998 511.998;" xml:space="preserve">
<g>
	<g>
		<path d="M455.811,70.877c-15.2-15.396-40.595-15.662-40.595-15.662c3.998-5.7,6.354-12.632,6.354-20.107
			C421.57,15.749,405.821,0,386.463,0H125.529c-19.358,0-35.107,15.749-35.107,35.107c0,7.476,2.356,14.407,6.354,20.107
			c0,0-22.789-1.295-40.595,15.662c-10.276,9.785-15.447,23.421-15.344,37.595c0.256,35.273,11.493,118.878,108.742,143.51
			c4.622,12.625,11.272,24.31,20.769,34.211c5.887,6.137,12.675,11.345,20.331,15.623c-0.291,1.66-2.151,47.065,63.582,47.065
			c7.955,0,15.526-0.91,22.496-2.579c-1.061,13.385-0.879,29.815,2.875,46.685h-47.27c1.727-7.776,2.824-15.974,3.241-24.506
			c0.202-4.137-2.988-7.655-7.125-7.857c-4.138-0.182-7.655,2.987-7.857,7.125c-0.435,8.897-1.677,17.354-3.673,25.238h-8.46
			c-14.311,0-25.954,11.643-25.954,25.954c0,3.913,0.875,7.624,2.433,10.954h-9.821c-14.262,0-25.865,11.604-25.865,25.865v30.374
			c0,14.262,11.603,25.865,25.865,25.865h158.062c14.262,0,25.865-11.604,25.865-25.865v-30.374
			c0-14.262-11.604-25.865-25.865-25.865h-6.177c1.557-3.331,2.433-7.041,2.433-10.954c0-14.312-11.643-25.954-25.954-25.954h-8.471
			c-4.863-19.172-4.332-38.201-2.672-52.152c25.445-13.208,25.839-36.198,25.714-37.292c8.994-4.577,16.863-10.362,23.568-17.352
			c9.497-9.901,16.148-21.588,20.77-34.214c25.542-6.483,47.063-17.607,64.011-33.115c3.057-2.796,3.267-7.54,0.471-10.596
			c-2.796-3.056-7.54-3.267-10.596-0.471c-13.18,12.059-29.606,21.175-48.939,27.203c1.845-8.166,3.054-16.547,3.817-24.953
			c22.192-9.167,38.808-23.701,49.418-43.296c8.925-16.481,13.449-36.198,13.449-58.603c0-10.871-8.219-15.822-15.854-15.822H373.44
			c1.202-7.522,2.81-14.901,4.818-22.111h39.938c10.206,0,19.786,3.988,26.976,11.23c7.16,7.212,11.063,16.771,10.989,26.917
			c-0.117,16.152-2.871,47.414-19.993,75.315c-2.166,3.53-1.061,8.148,2.47,10.315c1.224,0.751,7.245,2.33,10.315-2.47
			c18.617-29.103,22.051-61.417,22.208-83.052C471.259,94.297,465.78,80.974,455.811,70.877z M72.93,178.685
			c-13.891-25.327-16.963-52.221-17.094-70.322c-0.074-10.146,3.829-19.705,10.989-26.918c7.188-7.241,16.769-11.229,26.975-11.229
			h39.941c2.008,7.209,3.614,14.588,4.816,22.111H93.8c-7.636,0-15.854,4.951-15.854,15.822c0,22.002,4.368,41.425,12.982,57.73
			c10.581,20.027,27.363,34.863,49.885,44.167c0.762,8.409,1.972,16.792,3.818,24.961C111.965,224.839,87.879,205.94,72.93,178.685z
			 M139.816,193.111c-15.833-7.958-27.802-19.432-35.625-34.24c-7.462-14.123-11.245-31.188-11.245-50.723
			c0-0.336,0.027-0.568,0.054-0.718c0.189-0.053,0.477-0.104,0.801-0.104h46.602c0.546,6.288,0.827,12.658,0.827,19.099
			c0,6.913-0.334,14.924-0.688,23.404C139.988,163.115,139.371,177.933,139.816,193.111z M333.205,444.896
			c5.991,0,10.865,4.874,10.865,10.865v30.374c0,5.991-4.874,10.865-10.865,10.865H175.143c-5.991,0-10.865-4.874-10.865-10.865
			v-30.374c0-5.991,4.874-10.865,10.865-10.865H333.205z M303.507,407.987c6.04,0,10.954,4.914,10.954,10.954
			c0,6.04-4.914,10.954-10.954,10.954h-95.021c-6.04,0-10.954-4.914-10.954-10.954c0-6.04,4.914-10.954,10.954-10.954H303.507z
			 M254.259,333.881c-25.575,0-47.32-11.47-48.923-25.399c14.525,5.28,31.443,7.946,50.66,7.946c17.616,0,33.306-2.234,46.986-6.674
			C300.247,323.102,279.051,333.881,254.259,333.881z M418.191,107.325L418.191,107.325c0.324,0.001,0.612,0.053,0.801,0.105
			c0.027,0.149,0.054,0.382,0.054,0.718c0,19.883-3.916,37.196-11.64,51.46c-7.826,14.455-19.65,25.687-35.231,33.516
			c0.446-15.182-0.172-30.005-0.726-43.296c-0.354-8.48-0.688-16.491-0.688-23.404c0-6.438,0.28-12.809,0.827-19.099H418.191z
			 M386.463,55.214H199.471v0.001c-4.142,0-7.5,3.357-7.5,7.5c0,4.143,3.358,7.5,7.5,7.5h163.255
			c-4.619,17.954-6.964,36.813-6.964,56.21c0,7.226,0.424,15.385,0.7,24.029c2.848,89.004-17.41,116.771-25.643,125.354
			c-16.535,17.239-41.01,25.619-74.823,25.619s-58.288-8.38-74.824-25.619c-29.583-30.842-27.305-85.469-25.643-125.354
			c0.36-8.642,0.701-16.804,0.701-24.029c0-19.412-2.343-38.267-6.961-56.21h19.079c4.142,0,7.5-3.357,7.5-7.5s-3.358-7.5-7.5-7.5
			H125.53c-11.087,0-20.107-9.021-20.107-20.107S114.442,15,125.529,15h260.934c11.087,0,20.107,9.021,20.107,20.107
			S397.549,55.214,386.463,55.214z"/>
	</g>
</g>
<g>
	<g>
		<path d="M289.755,448.448h-71.163c-12.406,0-22.5,10.094-22.5,22.5s10.093,22.5,22.5,22.5h71.163c12.406,0,22.5-10.094,22.5-22.5
			S302.161,448.448,289.755,448.448z M289.755,478.448h-71.163c-4.135,0-7.5-3.364-7.5-7.5s3.364-7.5,7.5-7.5h71.163
			c4.135,0,7.5,3.365,7.5,7.5C297.255,475.084,293.891,478.448,289.755,478.448z"/>
	</g>
</g>
<g>
</g>
<g>
</g>
<g>
</g>
<g>
</g>
<g>
</g>
<g>
</g>
<g>
</g>
<g>
</g>
<g>
</g>
<g>
</g>
<g>
</g>
<g>
</g>
<g>
</g>
<g>
</g>
<g>
</g>
</svg>
