<svg id="Line" enable-background="new 0 0 64 64" height="80" fill="#ff3066" viewBox="0 0 64 64" width="80" xmlns="http://www.w3.org/2000/svg"><path d="m31.006 42.035-6.3-2.76-2.209-2.945c1.495-.865 2.503-2.482 2.503-4.33v-9c0-2.757-2.243-5-5-5h-4c-2.757 0-5 2.243-5 5v2c0 .431.275.812.684.949l6 2c.294.098.615.055.871-.117l3-2-1.109-1.664-2.593 1.729-4.853-1.618v-1.279c0-1.654 1.346-3 3-3h4c1.654 0 3 1.346 3 3v9c0 1.654-1.346 3-3 3h-4c-1.654 0-3-1.346-3-3v-4h-2v4c0 1.848 1.008 3.465 2.503 4.33l-2.196 2.928-6.167 2.472c-1.908.764-3.14 2.586-3.14 4.641v16.629c0 .552.447 1 1 1h3v-2h-2v-15.629c0-1.233.739-2.326 1.884-2.785l4.827-1.935-.697 4.184c-.057.338.064.682.32.911.186.166.424.254.666.254.092 0 .185-.013.274-.039l4.509-1.288-1.775 14.203c-.039.311.07.622.295.841l3.083 3c.186.181.436.283.697.283h.014c.266-.004.519-.113.703-.303l2.917-3c.212-.218.313-.52.275-.821l-1.775-14.203 4.509 1.288c.089.026.182.039.274.039.242 0 .48-.088.666-.254.256-.229.377-.572.32-.911l-.686-4.116 4.903 2.148c1.092.478 1.797 1.557 1.797 2.748v7.385h2v-7.385c0-1.985-1.175-3.783-2.994-4.58zm-15.506-5.035h5l2.065 2.754-2.283 1.522-2.282 1.522-2.283-1.522-2.283-1.522zm-2.776 4.742 2.862 1.908-3.339.954zm7.224 17.905-1.885 1.938-2.01-1.955 1.82-14.554.072-.021c.036.002.073.002.109 0l.072.021zm.466-15.997 2.862-1.908.478 2.862z"/><path d="m32 62h-2v2h3c.553 0 1-.448 1-1v-7h-2z"/><path d="m8 50h2v14h-2z"/><path d="m26 50h2v14h-2z"/><path d="m28 14h2v12h-2z"/><path d="m34 14h2v12h-2z"/><path d="m28 30h2v8h-2z"/><path d="m34 30h2v12h-2z"/><path d="m22 14h2v2h-2z"/><path d="m45 34h12c.553 0 1-.448 1-1v-12c0-.552-.447-1-1-1h-12c-.553 0-1 .448-1 1v12c0 .552.447 1 1 1zm11-2h-4v-10h4zm-10-10h4v10h-4z"/><path d="m62 12v-2h-20v-1c0-.552-.447-1-1-1h-3v-7c0-.552-.447-1-1-1h-13c-.288 0-.562.125-.753.341l-7 8c-.159.183-.247.417-.247.659v7h2v-6h15v-2h-13.796l5.25-6h11.546v7c0 .552.447 1 1 1h3v52h-4v2h25c.553 0 1-.448 1-1v-48c0-.549-.442-.996-.991-1l-2.009-.017v-1.983zm-11 1.916v-1.916h2v1.933zm-4-.033v-1.883h2v1.899zm-2-1.883v1.866l-3-.025v-1.841zm3 50v-12h6v12zm8 0v-13c0-.552-.447-1-1-1h-8c-.553 0-1 .448-1 1v13h-4v-18h18v18zm4-24h-4v2h4v2h-18v-2h12v-2h-12v-22.159l18 .151zm-3-24.034-2-.017v-1.949h2z"/></svg>