<?xml version="1.0" encoding="utf-8"?>
<!-- Generator: Adobe Illustrator 21.1.0, SVG Export Plug-In . SVG Version: 6.00 Build 0)  -->
<svg version="1.1" id="Layer_1" xmlns="http://www.w3.org/2000/svg" xmlns:xlink="http://www.w3.org/1999/xlink" x="0px" y="0px"
	 viewBox="0 0 90 1735.7" style="enable-background:new 0 0 90 1735.7;" xml:space="preserve">
<style type="text/css">
	.st0{fill:#ff2c63;}
	.st1{fill:#FFFFFF;}
</style>
<image style="display:none;overflow:visible;enable-background:new    ;" width="90" height="1306" xlink:href="../../../../../shruti%20nakum/functional-icons/functional-sprite.html"  transform="matrix(1 0 0 1 -0.25 -0.25)">
</image>
<g>
	<g>
		<path class="st0" d="M46.2,23.8c-0.4-0.4-1-0.4-1.4,0s-0.4,1,0,1.4s1,0.4,1.4,0C46.6,24.8,46.6,24.1,46.2,23.8z"/>
	</g>
</g>
<g>
	<g>
		<path class="st0" d="M58.7,11.3c-1.9-1.9-5-1.9-6.9,0s-1.9,5,0,6.9c1.9,1.9,5,1.9,6.9,0C60.6,16.3,60.6,13.2,58.7,11.3z
			 M57.3,16.9c-1.1,1.1-3,1.1-4.1,0s-1.1-3,0-4.1s3-1.1,4.1,0C58.4,13.9,58.4,15.7,57.3,16.9z"/>
	</g>
</g>
<g>
	<g>
		<path class="st0" d="M69.7,0.3C69.5,0.1,69.3,0,69,0c-0.2,0-5.5,0.2-11.7,2.4c-5,1.8-9.2,4.3-12.4,7.5c-0.7,0.7-1.4,1.5-2.1,2.3
			c-3.2-1.9-5.7-1.3-7.4-0.4c-3.7,2-6,7.4-6,11.3c0,0.4,0.2,0.8,0.6,0.9c0.1,0.1,0.2,0.1,0.4,0.1c0.3,0,0.5-0.1,0.7-0.3
			c2-2,4.4-1.8,5.2-1.7l0.3,0.3c-0.7,1.6-1.2,3.2-1.6,4.7c-0.1,0.6-0.1,1.2,0.1,1.7c-0.9,0.4-1.8,1.1-2.6,1.9c-2.5,2.5-3,8.6-3,8.9
			s0.1,0.6,0.3,0.8c0.2,0.2,0.4,0.3,0.7,0.3h0.1c0.3,0,6.4-0.5,8.9-3c0.8-0.8,1.4-1.7,1.9-2.6c0.6,0.2,1.2,0.3,1.7,0.1
			c1.5-0.4,3.1-0.9,4.7-1.6l0.3,0.3c0.1,0.8,0.2,3.2-1.7,5.2C46,39.2,45.9,39.7,46,40c0.2,0.4,0.5,0.6,0.9,0.6c3.9,0,9.3-2.3,11.3-6
			c0.9-1.6,1.5-4.2-0.4-7.4c0.8-0.7,1.6-1.4,2.3-2.1c3.2-3.2,5.8-7.4,7.5-12.4C69.8,6.5,70,1.2,70,1C70,0.7,69.9,0.5,69.7,0.3z
			 M31.6,21c0.6-2.9,2.4-6.2,4.8-7.4c1.6-0.9,3.3-0.8,5.2,0.2c-1.6,2.1-3,4.3-4.1,6.7c0,0-0.2-0.2-0.5-0.3
			C36.8,20.1,34.2,19.6,31.6,21z M37.9,36.2c-1.3,1.3-4.5,2.1-6.5,2.3c0.3-2,1-5.1,2.3-6.5c0.8-0.8,1.6-1.3,2.5-1.6l3.3,3.3
			C39.3,34.6,38.7,35.4,37.9,36.2z M42.4,33.2c-0.3,0.1-0.6,0-0.9-0.3c-1.3-1.3-1.8-1.8-1.9-1.9c-0.3-0.3-1-1-2.5-2.5
			c-0.2-0.2-0.3-0.6-0.3-0.9c0.3-1.2,0.7-2.5,1.2-3.7l8.1,8.1C44.9,32.4,43.6,32.9,42.4,33.2z M56.5,33.7c-1.3,2.4-4.5,4.2-7.4,4.8
			c0.9-1.8,1.1-4,0.8-5.4c-0.1-0.3-0.3-0.5-0.3-0.5c2.4-1.1,4.6-2.5,6.7-4.1C57.2,30.3,57.3,32.1,56.5,33.7z M58.7,23.8
			c-0.9,0.9-1.8,1.7-2.8,2.5c-2.4,1.9-5,3.5-7.8,4.8l-9.2-9.2c1.3-2.8,2.9-5.4,4.8-7.8c0.8-1,1.6-1.9,2.5-2.8
			c2.9-2.9,6.6-5.2,11.1-6.9l8.2,8.2C63.9,17.1,61.6,20.9,58.7,23.8z M66.2,10.6l-6.8-6.8c3.7-1.2,7-1.6,8.6-1.7
			C67.8,3.7,67.4,6.9,66.2,10.6z"/>
	</g>
</g>
<g>
	<g>
		<path class="st0" d="M43.5,40.3c-0.4-0.4-1-0.4-1.4,0l-2.8,2.8c-0.4,0.4-0.4,1,0,1.4s1,0.4,1.4,0l2.8-2.8
			C43.9,41.3,43.9,40.7,43.5,40.3z"/>
	</g>
</g>
<g>
	<g>
		<path class="st0" d="M29.7,26.5c-0.4-0.4-1-0.4-1.4,0l-2.8,2.8c-0.4,0.4-0.4,1,0,1.4s1,0.4,1.4,0l2.8-2.8
			C30,27.5,30,26.9,29.7,26.5z"/>
	</g>
</g>
<g>
	<g>
		<path class="st0" d="M36.6,41.7c-0.4-0.4-1-0.4-1.4,0l-6.6,6.6c-0.4,0.4-0.4,1,0,1.4s1,0.4,1.4,0l6.6-6.6
			C36.9,42.7,36.9,42.1,36.6,41.7z"/>
	</g>
</g>
<g>
	<g>
		<path class="st0" d="M28.8,41.7c-0.4-0.4-1-0.4-1.4,0l-6.6,6.6c-0.4,0.4-0.4,1,0,1.4s1,0.4,1.4,0l6.6-6.6
			C29.1,42.7,29.1,42.1,28.8,41.7z"/>
	</g>
</g>
<g>
	<g>
		<path class="st0" d="M28.3,33.4c-0.4-0.4-1-0.4-1.4,0L20.3,40c-0.4,0.4-0.4,1,0,1.4s1,0.4,1.4,0l6.6-6.6
			C28.7,34.4,28.7,33.8,28.3,33.4z"/>
	</g>
</g>
<g>
	<g>
		<path class="st0" d="M50.4,19.6c-0.4-0.4-1-0.4-1.4,0L47.6,21c-0.4,0.4-0.4,1,0,1.4s1,0.4,1.4,0l1.4-1.4
			C50.8,20.6,50.8,20,50.4,19.6z"/>
	</g>
</g>
<g>
	<g>
		<path class="st0" d="M26.8,75.9c-0.5,0-1,0.4-1,1s0.4,1,1,1s1-0.4,1-1S27.4,75.9,26.8,75.9z"/>
	</g>
</g>
<g>
	<g>
		<path class="st0" d="M26.8,81.7c-0.5,0-1,0.4-1,1s0.4,1,1,1s1-0.4,1-1S27.4,81.7,26.8,81.7z"/>
	</g>
</g>
<g>
	<g>
		<path class="st0" d="M57.4,79.5l-8.6-8.6c-0.5-0.5-1.3-0.9-2.1-0.9H22.9c-1.6,0-2.9,1.3-2.9,2.9V117c0,1.6,1.3,2.9,2.9,2.9h32.4
			c1.6,0,2.9-1.3,2.9-2.9V81.6C58.3,80.8,58,80,57.4,79.5z M48.5,73.3l6.4,6.4h-6.4V73.3z M56.3,117.1c0,0.5-0.4,1-1,1H22.9
			c-0.5,0-1-0.4-1-1V72.9c0-0.5,0.4-1,1-1h23.6v8.8c0,0.5,0.4,1,1,1h8.8V117.1z"/>
	</g>
</g>
<g>
	<g>
		<path class="st0" d="M69,75.2v-2.3c0-1.6-1.3-2.9-2.9-2.9s-2.9,1.3-2.9,2.9v2.3c-0.6,0.7-1,1.6-1,2.6v31.4c0,2.7,0.9,5.4,2.5,7.6
			l0.4,0.5v1.6c0,0.5,0.4,1,1,1s1-0.4,1-1v-1.6l0.4-0.5c1.6-2.2,2.5-4.9,2.5-7.6V77.8C70,76.9,69.7,75.9,69,75.2z M65.1,72.9
			c0-0.5,0.4-1,1-1s1,0.4,1,1V74c-0.3-0.1-0.6-0.1-1-0.1s-0.7,0-1,0.1V72.9z M66.1,115.4c-1.1-1.5-1.7-3.3-1.9-5.2H68
			C67.8,112.1,67.2,113.9,66.1,115.4z M68,108.3h-3.9V88.2H68V108.3z M68,86.2h-3.9v-8.4c0-1.1,0.9-2,2-2s2,0.9,2,2L68,86.2L68,86.2
			z"/>
	</g>
</g>
<g>
	<g>
		<path class="st0" d="M48.9,100.5c-1.6,0-2.9,1.3-2.9,2.9c0,0.4,0.1,0.9,0.3,1.3l-3.9,3.9c-0.4-0.2-0.8-0.3-1.3-0.3
			c-0.4,0-0.9,0.1-1.3,0.3l-2-2c0.2-0.4,0.3-0.8,0.3-1.3c0-1.6-1.3-2.9-2.9-2.9s-2.9,1.3-2.9,2.9c0,0.4,0.1,0.9,0.3,1.3l-2,2
			c-0.4-0.2-0.8-0.3-1.3-0.3c-1.6,0-2.9,1.3-2.9,2.9s1.3,2.9,2.9,2.9s2.9-1.3,2.9-2.9c0-0.4-0.1-0.9-0.3-1.3l2-2
			c0.4,0.2,0.8,0.3,1.3,0.3s0.9-0.1,1.3-0.3l2,2c-0.2,0.4-0.3,0.8-0.3,1.3c0,1.6,1.3,2.9,2.9,2.9s2.9-1.3,2.9-2.9
			c0-0.4-0.1-0.9-0.3-1.3l3.9-3.9c0.4,0.2,0.8,0.3,1.3,0.3c1.6,0,2.9-1.3,2.9-2.9C51.8,101.8,50.5,100.5,48.9,100.5z M29.4,112.2
			c-0.5,0-1-0.4-1-1s0.4-1,1-1c0.5,0,1,0.4,1,1C30.4,111.7,29.9,112.2,29.4,112.2z M35.2,106.3c-0.5,0-1-0.4-1-1c0-0.5,0.4-1,1-1
			s1,0.4,1,1S35.8,106.3,35.2,106.3z M41.1,112.2c-0.5,0-1-0.4-1-1c0-0.5,0.4-1,1-1s1,0.4,1,1C42.1,111.7,41.6,112.2,41.1,112.2z
			 M48.9,104.4c-0.2,0-0.4-0.1-0.6-0.2c-0.1-0.1-0.1-0.1-0.2-0.2c-0.1-0.2-0.2-0.4-0.2-0.6c0-0.5,0.4-1,1-1s1,0.4,1,1
			S49.4,104.4,48.9,104.4z"/>
	</g>
</g>
<g>
	<g>
		<path class="st0" d="M41.1,75.9H30.7c-0.5,0-1,0.4-1,1s0.4,1,1,1h10.4c0.5,0,1-0.4,1-1S41.6,75.9,41.1,75.9z"/>
	</g>
</g>
<g>
	<g>
		<path class="st0" d="M41.1,81.7H30.7c-0.5,0-1,0.4-1,1c0,0.5,0.4,1,1,1h10.4c0.5,0,1-0.4,1-1S41.6,81.7,41.1,81.7z"/>
	</g>
</g>
<g>
	<g>
		<path class="st0" d="M51.4,88.2H26.8c-0.5,0-1,0.4-1,1s0.4,1,1,1h24.6c0.5,0,1-0.4,1-1S52,88.2,51.4,88.2z"/>
	</g>
</g>
<g>
	<g>
		<path class="st0" d="M51.4,94H26.8c-0.5,0-1,0.4-1,1c0,0.5,0.4,1,1,1h24.6c0.5,0,1-0.4,1-1S52,94,51.4,94z"/>
	</g>
</g>
<g>
	<g>
		<path class="st0" d="M45.2,184.1c-0.5,0-1,0.4-1,1s0.4,1,1,1c0.5,0,1-0.4,1-1S45.7,184.1,45.2,184.1z"/>
	</g>
</g>
<g>
	<g>
		<path class="st0" d="M47.7,140c-10.5-0.3-19.1,8.1-19.1,18.5c0,0.7,0,1.4,0.1,2l-3.9,6.2c-0.6,0.9-0.6,2-0.1,3s1.5,1.5,2.6,1.5
			h3.3v6.8c0,1.6,1.3,2.9,2.9,2.9h4.9v8c0,0.5,0.4,1,1,1h19.5c0.3,0,0.6-0.1,0.8-0.4c0.2-0.2,0.3-0.5,0.2-0.8
			c-1.2-6.2-0.3-13.8,2.4-19.2c0.8-1.8,3.3-5,3.4-10.7C65.9,148.9,57.7,140.3,47.7,140z M63.7,158.9c-0.1,3-0.9,5.9-2.5,8.4
			c0,0.1,0,0-0.7,1.4c-2.8,5.7-3.8,13-2.8,19.3H40.3v-8c0-0.5-0.4-1-1-1h-5.9c-0.5,0-1-0.4-1-1v-7.8c0-0.5-0.4-1-1-1h-4.3
			c-0.5,0-0.8-0.4-0.9-0.5c-0.1-0.2-0.2-0.6,0-1l4.1-6.5c0.1-0.2,0.2-0.4,0.1-0.6c-0.1-0.7-0.1-1.4-0.1-2.1
			c0-9.3,7.7-16.9,17.1-16.6C56.5,142.2,63.9,150,63.7,158.9z"/>
	</g>
</g>
<g>
	<g>
		<path class="st0" d="M58.7,161.9l-2.1-1.2c0.2-0.7,0.3-1.4,0.3-2.1s-0.1-1.4-0.3-2.1l2.1-1.2c0.5-0.3,0.6-0.9,0.4-1.3l-2-3.4
			c-0.1-0.2-0.3-0.4-0.6-0.5s-0.5,0-0.7,0.1l-2.1,1.2c-1.1-1-2.3-1.7-3.6-2.1v-2.4c0-0.5-0.4-1-1-1h-3.9c-0.5,0-1,0.4-1,1v2.4
			c-1.4,0.4-2.6,1.1-3.6,2.1l-2.1-1.2c-0.2-0.1-0.5-0.2-0.7-0.1c-0.3,0.1-0.5,0.2-0.6,0.5l-2,3.4c-0.3,0.5-0.1,1.1,0.4,1.3l2.1,1.2
			c-0.2,0.7-0.3,1.4-0.3,2.1s0.1,1.4,0.3,2.1l-2.1,1.2c-0.5,0.3-0.6,0.9-0.4,1.3l2,3.4c0.3,0.5,0.9,0.6,1.3,0.4l2.1-1.2
			c1.1,1,2.3,1.7,3.6,2.1v2.4c0,0.5,0.4,1,1,1h3.9c0.5,0,1-0.4,1-1v-2.4c1.4-0.4,2.6-1.1,3.6-2.1l2.1,1.2c0.5,0.3,1.1,0.1,1.3-0.4
			l2-3.4C59.4,162.7,59.2,162.1,58.7,161.9z M55.9,164.8l-1.9-1.1c-0.4-0.2-0.9-0.2-1.2,0.2c-1.1,1.2-2.4,2-4,2.3
			c-0.4,0.1-0.8,0.5-0.8,1v2.2h-2v-2.2c0-0.5-0.3-0.9-0.8-1c-1.5-0.3-2.9-1.1-4-2.3c-0.3-0.3-0.8-0.4-1.2-0.2l-1.9,1.1l-1-1.7
			L39,162c0.4-0.2,0.6-0.7,0.4-1.1c-0.3-0.9-0.4-1.6-0.4-2.3s0.1-1.4,0.4-2.3c0.1-0.4,0-0.9-0.4-1.1l-1.9-1.1l1-1.7l1.9,1.1
			c0.4,0.2,0.9,0.2,1.2-0.2c1.1-1.2,2.4-2,4-2.3c0.4-0.1,0.8-0.5,0.8-1v-2.2h2v2.2c0,0.5,0.3,0.9,0.8,1c1.5,0.3,2.9,1.1,4,2.3
			c0.3,0.3,0.8,0.4,1.2,0.2l1.9-1.1l1,1.7l-1.9,1.1c-0.4,0.2-0.6,0.7-0.4,1.1c0.3,0.9,0.4,1.6,0.4,2.3s-0.1,1.4-0.4,2.3
			c-0.1,0.4,0,0.9,0.4,1.1l1.9,1.1L55.9,164.8z"/>
	</g>
</g>
<g>
	<g>
		<path class="st0" d="M47.1,153.7c-2.7,0-4.9,2.2-4.9,4.9s2.2,4.9,4.9,4.9s4.9-2.2,4.9-4.9S49.8,153.7,47.1,153.7z M47.1,161.5
			c-1.6,0-2.9-1.3-2.9-2.9s1.3-2.9,2.9-2.9c1.6,0,2.9,1.3,2.9,2.9S48.7,161.5,47.1,161.5z"/>
	</g>
</g>
<g>
	<g>
		<path class="st0" d="M53,184.1h-3.9c-0.5,0-1,0.4-1,1c0,0.5,0.4,1,1,1H53c0.5,0,1-0.4,1-1C54,184.6,53.5,184.1,53,184.1z"/>
	</g>
</g>
<g>
	<g>
		<path class="st0" d="M69.2,231.1l-4.2-0.9c-0.5-2.1-1.3-4.1-2.5-6l1.9-3.2c0.2-0.4,0.2-0.9-0.1-1.2l-4.1-4.1
			c-0.3-0.3-0.8-0.4-1.2-0.1l-3.2,1.9c-1.9-1.1-3.9-2-6-2.5l-0.9-4.2c-0.1-0.4-0.5-0.8-1-0.8H42c-0.5,0-0.9,0.3-1,0.8l-0.9,4.2
			c-2.1,0.5-4.1,1.3-6,2.5l-3.2-1.9c-0.4-0.2-0.9-0.2-1.2,0.1l-4.1,4.1c-0.3,0.3-0.4,0.8-0.1,1.2l1.9,3.2c-1.1,1.9-2,3.9-2.5,6
			l-4.2,0.9c-0.4,0.1-0.8,0.5-0.8,1v5.9c0,0.5,0.3,0.9,0.8,1l4.2,0.9c0.5,2.1,1.3,4.1,2.5,5.9l-2,3.3c-0.2,0.4-0.2,0.9,0.1,1.2
			l4.1,4.1c0.3,0.3,0.8,0.4,1.2,0.1l3.3-2c1.8,1.1,3.8,1.9,5.8,2.4c0.3,1.3,0.9,4.1,1,4.3c0.1,0.5,0.5,0.8,1,0.8h5.9
			c0.5,0,0.9-0.3,1-0.8l1-4.4c2.1-0.5,4-1.3,5.8-2.4l3.3,2c0.4,0.2,0.9,0.2,1.2-0.1l4.1-4.1c0.3-0.3,0.4-0.8,0.1-1.2l-2-3.3
			c1.1-1.8,2-3.8,2.5-5.9l4.2-0.9c0.4-0.1,0.8-0.5,0.8-1V232C70,231.6,69.7,231.2,69.2,231.1z M68,237.1l-4,0.9
			c-0.4,0.1-0.7,0.4-0.7,0.8c-0.5,2.3-1.4,4.4-2.7,6.4c-0.2,0.3-0.2,0.7,0,1l1.9,3.1l-3.1,3.1l-3.2-1.9c-0.3-0.2-0.7-0.2-1,0
			c-1.9,1.3-4.1,2.1-6.3,2.6c-0.4,0.1-0.7,0.4-0.8,0.7l-0.9,4.2h-4.3c-0.3-1.4-0.9-4-0.9-4.2c-0.1-0.4-0.4-0.6-0.8-0.7
			c-2.2-0.5-4.4-1.3-6.3-2.6c-0.3-0.2-0.7-0.2-1,0l-3.2,1.9l-3.1-3.1l1.9-3.1c0.2-0.3,0.2-0.7,0-1c-1.3-1.9-2.2-4.1-2.7-6.4
			c-0.1-0.4-0.4-0.7-0.7-0.8l-4.1-0.9v-4.3l4-0.9c0.4-0.1,0.7-0.4,0.7-0.8c0.5-2.3,1.4-4.5,2.7-6.4c0.2-0.3,0.2-0.7,0-1l-1.8-3.1
			l3.1-3.1l3.1,1.8c0.3,0.2,0.7,0.2,1,0c2-1.3,4.1-2.2,6.4-2.7c0.4-0.1,0.7-0.4,0.8-0.7l0.9-4.1h4.3L48,216c0.1,0.4,0.4,0.7,0.8,0.7
			c2.3,0.5,4.5,1.4,6.4,2.7c0.3,0.2,0.7,0.2,1,0l3.1-1.8l3.1,3.1l-1.8,3.1c-0.2,0.3-0.2,0.7,0,1c1.3,2,2.2,4.1,2.7,6.4
			c0.1,0.4,0.4,0.7,0.7,0.8l4.1,0.9L68,237.1L68,237.1z"/>
	</g>
</g>
<g>
	<g>
		<path class="st0" d="M44.9,220.5c-8.1,0-14.6,6.6-14.6,14.6s6.5,14.6,14.6,14.6s14.6-6.6,14.6-14.6C59.6,227,53,220.5,44.9,220.5z
			 M46.9,242.4v5.3c-1.3,0.2-2.6,0.2-3.9,0v-5.3c0-0.4-0.2-0.8-0.6-0.9c-2.6-1.1-4.3-3.5-4.3-6.3c0-2.3,1.1-4.4,2.9-5.6v3.7
			c0,0.2,0.1,0.4,0.2,0.6c0.9,1.2,2.2,1.9,3.7,1.9s2.8-0.7,3.7-1.9c0.1-0.2,0.2-0.4,0.2-0.6v-3.6c2.1,1.5,3.5,4.2,2.7,7.5
			c-0.5,2-2,3.7-4,4.5C47.1,241.6,46.9,242,46.9,242.4z M48.8,247.2V243c2.2-1.1,3.9-3.1,4.6-5.5c1.2-4.5-1.2-8.9-5.2-10.5
			c-0.3-0.1-0.6-0.1-0.9,0.1c-0.3,0.2-0.4,0.5-0.4,0.8v4.9c-0.5,0.5-1.2,0.8-2,0.8s-1.4-0.3-2-0.8v-4.9c0-0.3-0.2-0.6-0.4-0.8
			c-0.3-0.2-0.6-0.2-0.9-0.1c-3.3,1.4-5.5,4.6-5.5,8.1c0,3.4,1.9,6.4,4.9,7.9v4.2c-5.2-1.7-8.8-6.6-8.8-12.1c0-7,5.7-12.7,12.7-12.7
			s12.7,5.7,12.7,12.7C57.6,240.6,54,245.5,48.8,247.2z"/>
	</g>
</g>
<g>
	<g>
		<path class="st0" d="M31.1,318.9c-0.4-0.4-1-0.4-1.4,0s-0.4,1,0,1.4s1,0.4,1.4,0S31.5,319.3,31.1,318.9z"/>
	</g>
</g>
<g>
	<g>
		<g>
			<path class="st0" d="M33.4,294.8L33.4,294.8L33.4,294.8z"/>
			<path class="st0" d="M57.4,307.8c-1.2-1.2-3-1.1-4.1,0l-0.7,0.7l-2.1-2.1l5.4-5.4c3.8,1.2,8,0.2,10.9-2.6c3-3,4-7.5,2.4-11.5
				c-0.1-0.3-0.4-0.5-0.7-0.6c-0.3-0.1-0.7,0-0.9,0.3l-5.9,5.9c-1.9-0.8-3.4-2.3-4.1-4.1l5.9-5.9c0.2-0.2,0.3-0.6,0.3-0.9
				c-0.1-0.3-0.3-0.6-0.6-0.7c-4-1.6-8.5-0.6-11.5,2.4c-2.9,2.9-3.9,7.1-2.6,10.9l-5.4,5.4l-7.2-7.2l-0.9-4.8
				c-0.1-0.3-0.2-0.5-0.4-0.7l-10.8-6.6c-0.4-0.2-0.9-0.2-1.2,0.1l-2.8,2.8c-0.3,0.3-0.4,0.8-0.1,1.2l6.6,10.8
				c0.1,0.2,0.4,0.4,0.7,0.4l4.8,0.9l7.2,7.2l-18,18c-1.9,1.9-1.9,5,0,6.9s5,1.9,6.9,0l18-18l2.1,2.1l-0.7,0.7c-1.1,1.1-1.1,3,0,4.1
				L58.3,328c2.7,2.7,7,2.7,9.7,0s2.7-7,0-9.7L57.4,307.8z M50.9,295c0.3-0.3,0.4-0.7,0.2-1c-1.3-3.3-0.5-7,2-9.4
				c2.1-2.1,5.1-3,7.9-2.4l-5.2,5.2c-0.3,0.3-0.4,0.6-0.2,1c1,2.9,3.3,5.2,6.1,6.1c0.4,0.1,0.7,0,1-0.2l5.2-5.2
				c0.6,2.8-0.3,5.8-2.4,7.9c-2.5,2.5-6.2,3.2-9.4,2c-0.4-0.1-0.8-0.1-1,0.2l-5.9,5.9l-4.1-4.1L50.9,295z M27,327.2
				c-1.1,1.1-3,1.1-4.1,0s-1.1-3,0-4.1l18-18l4.1,4.1L27,327.2z M33.4,294.8c-0.1-0.1-0.3-0.2-0.5-0.3l-4.7-0.9l-6-9.7l1.7-1.7
				l9.7,6l0.9,4.7c0,0.2,0.1,0.4,0.3,0.5l16.4,16.4l-1.4,1.4C34.3,295.7,33.4,294.8,33.4,294.8z M66.6,326.6c-1.9,1.9-5,1.9-6.9,0
				L49.1,316c-0.4-0.4-0.4-1,0-1.4c0.3-0.3,5.2-5.2,5.5-5.5c0.4-0.4,1-0.4,1.4,0l10.6,10.6C68.5,321.6,68.5,324.7,66.6,326.6z"/>
			<path class="st0" d="M33.4,294.8L33.4,294.8L33.4,294.8L33.4,294.8z"/>
		</g>
	</g>
</g>
<g>
	<g>
		<path class="st0" d="M28.3,321.7c-0.4-0.4-1-0.4-1.4,0l-2.8,2.8c-0.4,0.4-0.4,1,0,1.4s1,0.4,1.4,0l2.8-2.8
			C28.7,322.7,28.7,322,28.3,321.7z"/>
	</g>
</g>
<g>
	<g>
		<path class="st0" d="M64.5,320.4l-7.8-7.8c-0.4-0.4-1-0.4-1.4,0s-0.4,1,0,1.4l7.8,7.8c0.4,0.4,1,0.4,1.4,0S64.9,320.8,64.5,320.4z
			"/>
	</g>
</g>
<g>
	<g>
		<path class="st0" d="M61.8,323.2l-7.8-7.8c-0.4-0.4-1-0.4-1.4,0s-0.4,1,0,1.4l7.8,7.8c0.4,0.4,1,0.4,1.4,0S62.2,323.5,61.8,323.2z
			"/>
	</g>
</g>
<path class="st0" d="M36.1,381.5c1.4-1.4,1.4-3.8,0-5.3c-0.7-0.7-1.6-1.1-2.6-1.1c-0.6,0-1.1,0.1-1.6,0.4c-1.8-2.5-2.7-5.5-2.7-8.6
	c0-7.9,6.2-14.5,14.1-15c0.5,0,1-0.5,0.9-1c0-0.5-0.5-0.9-1-0.9c-9,0.5-16,8-16,16.9c0,3.6,1.1,7,3.2,9.9c-0.9,1.4-0.8,3.4,0.5,4.7
	c0.7,0.7,1.6,1.1,2.6,1.1S35.4,382.2,36.1,381.5z M32.2,377.6c0.3-0.3,0.8-0.5,1.2-0.5c0.5,0,0.9,0.2,1.2,0.5c0.7,0.7,0.7,1.8,0,2.5
	s-1.8,0.7-2.5,0C31.5,379.4,31.5,378.3,32.2,377.6z"/>
<path class="st0" d="M59.2,383.9c-0.6,0-1.2,0.2-1.7,0.4c-0.4-1.4-1.8-2.4-3.3-2.4c-1,0-1.9,0.4-2.5,1.1c-0.2-0.2-0.4-0.3-0.6-0.5
	c2.3-1,4.3-2.5,5.9-4.4c2.7-3.1,4.1-7,4.1-11.1c0-3.6-1.1-7-3.2-9.9c0.9-1.4,0.8-3.4-0.5-4.7c-1.4-1.4-3.8-1.4-5.3,0
	c-1.4,1.4-1.4,3.8,0,5.3c0.7,0.7,1.7,1.1,2.6,1.1c0.6,0,1.1-0.1,1.6-0.4c1.8,2.5,2.7,5.5,2.7,8.6c0,7.1-4.8,13-11.6,14.6v-5.3
	c3.9-1.4,6.5-5.2,6.5-9.4c0-5.5-4.5-10-10-10s-10,4.5-10,10c0,2.2,0.7,4.2,2,6c1.1,1.5,2.7,2.7,4.5,3.4v14.4l-1.2-2
	c-1-1.7-3.2-2.2-4.9-1.3c-1.6,0.9-2.3,3-1.4,4.7l3.6,7.4c0.2,0.3,0.5,0.5,0.9,0.5c0.1,0,0.3,0,0.4-0.1c0.5-0.2,0.7-0.8,0.4-1.3
	l-3.6-7.4c-0.4-0.8-0.1-1.7,0.7-2.2c0.8-0.4,1.8-0.2,2.3,0.6l3,5c0.2,0.4,0.7,0.6,1.1,0.4s0.7-0.5,0.7-0.9v-22.4
	c0-0.8,0.7-1.5,1.5-1.5s1.5,0.7,1.5,1.5v3.9l0,0v14.7c0,0.5,0.4,1,1,1s1-0.4,1-1v-4.9c0-0.8,0.7-1.5,1.5-1.5s1.5,0.7,1.5,1.5v5.3
	c0,0.5,0.4,1,1,1c0.5,0,1-0.4,1-1v-5.3c0-0.8,0.7-1.5,1.5-1.5s1.5,0.7,1.5,1.5v5.3c0,0.5,0.4,1,1,1s1-0.4,1-1v-3.3
	c0-0.8,0.7-1.5,1.5-1.5s1.5,0.7,1.5,1.5V399c0,0.5,0.4,1,1,1s1-0.4,1-1v-11.7C62.7,385.4,61.1,383.9,59.2,383.9z M53.6,356.3
	c-0.7-0.7-0.7-1.8,0-2.5c0.3-0.3,0.8-0.5,1.2-0.5s0.9,0.2,1.2,0.5c0.7,0.7,0.7,1.8,0,2.5C55.4,357,54.3,357,53.6,356.3z M36.1,366.9
	c0-4.4,3.6-8,8-8s8,3.6,8,8c0,3.1-1.8,5.9-4.6,7.2v-2.5c0-0.5-0.1-1.1-0.4-1.5c0.9-0.8,1.4-2,1.4-3.2c0-2.5-2-4.5-4.5-4.5
	s-4.5,2-4.5,4.5c0,1.2,0.5,2.3,1.3,3.2c-0.2,0.5-0.4,1-0.4,1.6v2.4C37.9,372.8,36.1,370.1,36.1,366.9z M42.3,368.7
	c-0.5-0.5-0.7-1.1-0.7-1.7c0-1.4,1.1-2.5,2.5-2.5s2.5,1.1,2.5,2.5c0,0.7-0.3,1.3-0.7,1.8c-0.5-0.3-1.2-0.5-1.8-0.5
	C43.4,368.2,42.8,368.4,42.3,368.7z"/>
<path class="st0" d="M47.6,352.3c0.3,0,0.5-0.1,0.7-0.3c0.2-0.2,0.3-0.4,0.3-0.7c0-0.3-0.1-0.5-0.3-0.7s-0.4-0.3-0.7-0.3
	s-0.5,0.1-0.7,0.3c-0.2,0.2-0.3,0.4-0.3,0.7c0,0.3,0.1,0.5,0.3,0.7S47.3,352.3,47.6,352.3z"/>
<g>
	<g>
		<path class="st0" d="M55.5,454.1c-0.4-0.4-1-0.4-1.4,0s-0.4,1,0,1.4s1,0.4,1.4,0C55.8,455.1,55.8,454.5,55.5,454.1z"/>
	</g>
</g>
<g>
	<g>
		<path class="st0" d="M35.9,434.5c-0.4-0.4-1-0.4-1.4,0s-0.4,1,0,1.4s1,0.4,1.4,0C36.3,435.5,36.3,434.9,35.9,434.5z"/>
	</g>
</g>
<g>
	<g>
		<path class="st0" d="M67.1,440.1h-4.2c-0.4-1.5-1-2.9-1.8-4.3l2.5-2.5c0.6-0.6,0.9-1.3,0.9-2.1c0-0.8-0.3-1.5-0.9-2.1l-2.8-2.8
			c-0.6-0.6-1.3-0.9-2.1-0.9s-1.5,0.3-2.1,0.9l-2.5,2.6c-1.4-0.8-2.8-1.4-4.3-1.8v-4.2c0-1.6-1.3-2.9-2.9-2.9H43
			c-1.6,0-2.9,1.3-2.9,2.9v4.2c-1.5,0.4-2.9,1-4.3,1.8l-2.5-2.5c-1.1-1.1-3-1.1-4.1,0l-2.8,2.8c-1.1,1.1-1.1,3,0,4.1l2.5,2.5
			c-0.8,1.4-1.4,2.8-1.8,4.3h-4.2c-1.6,0-2.9,1.3-2.9,2.9v3.9c0,1.6,1.3,2.9,2.9,2.9h4.2c0.4,1.5,1,2.9,1.8,4.3l-2.5,2.5
			c-1.1,1.1-1.1,3,0,4.1l2.8,2.8c1.1,1.1,3,1.1,4.1,0l2.5-2.5c1.4,0.8,2.8,1.4,4.3,1.8v4.2c0,1.6,1.3,2.9,2.9,2.9h4
			c1.6,0,2.9-1.3,2.9-2.9v-4.2c1.5-0.4,2.9-1,4.3-1.8l2.5,2.5c0.6,0.6,1.3,0.9,2.1,0.9s1.5-0.3,2.1-0.9l2.8-2.8
			c0.6-0.6,0.9-1.3,0.9-2.1s-0.3-1.5-0.9-2.1l-2.5-2.5c0.8-1.4,1.4-2.8,1.8-4.3h4.2c1.6,0,2.9-1.3,2.9-2.9V443
			C70,441.4,68.7,440.1,67.1,440.1z M68,447c0,0.5-0.4,1-1,1h-4.9c-0.5,0-0.9,0.3-1,0.8c-0.4,1.8-1.1,3.5-2.1,5.1
			c-0.2,0.4-0.2,0.9,0.1,1.2l3.1,3.1c0.2,0.2,0.3,0.4,0.3,0.7s-0.1,0.5-0.3,0.7l-2.8,2.8c-0.2,0.2-0.4,0.3-0.7,0.3s-0.5-0.1-0.7-0.3
			l-3.1-3.1c-0.3-0.3-0.8-0.4-1.2-0.1c-1.6,1-3.3,1.7-5.1,2.1c-0.4,0.1-0.8,0.5-0.8,1v4.9c0,0.5-0.4,1-1,1H43c-0.5,0-1-0.4-1-1v-4.9
			c0-0.5-0.3-0.9-0.8-1c-1.8-0.4-3.5-1.1-5.1-2.1c-0.2-0.1-0.3-0.2-0.5-0.2c-0.3,0-0.5,0.1-0.7,0.3l-3.1,3.1c-0.4,0.4-1,0.4-1.4,0
			l-2.8-2.8c-0.4-0.4-0.4-1,0-1.4l3.1-3.1c0.3-0.3,0.4-0.8,0.1-1.2c-1-1.6-1.7-3.3-2.1-5.1c-0.1-0.4-0.5-0.8-1-0.8h-4.9
			c-0.5,0-1-0.4-1-1v-4c0-0.5,0.4-1,1-1h4.9c0.5,0,0.9-0.3,1-0.8c0.4-1.8,1.1-3.5,2.1-5.1c0.2-0.4,0.2-0.9-0.1-1.2l-3.1-3.1
			c-0.4-0.4-0.4-1,0-1.4l2.8-2.8c0.4-0.4,1-0.4,1.4,0l3.1,3.1c0.3,0.3,0.8,0.4,1.2,0.1c1.6-1,3.3-1.7,5.1-2.1c0.4-0.1,0.8-0.5,0.8-1
			v-4.9c0-0.5,0.4-1,1-1h4c0.5,0,1,0.4,1,1v4.9c0,0.5,0.3,0.9,0.8,1c1.8,0.4,3.5,1.1,5.1,2.1c0.4,0.2,0.9,0.2,1.2-0.1l3.1-3.1
			c0.2-0.2,0.4-0.3,0.7-0.3s0.5,0.1,0.7,0.3l2.8,2.8c0.2,0.2,0.3,0.4,0.3,0.7s-0.1,0.5-0.3,0.7l-3.1,3.1c-0.3,0.3-0.4,0.8-0.1,1.2
			c1,1.6,1.7,3.3,2.1,5.1c0.1,0.4,0.5,0.8,1,0.8h4.9c0.5,0,1,0.4,1,1v4H68z"/>
	</g>
</g>
<g>
	<g>
		<path class="st0" d="M49.6,442.4c-0.4-0.4-1-0.4-1.4,0l-4.2,4.2l-2.2-2.2c-0.4-0.4-1-0.4-1.4,0s-0.4,1,0,1.4l2.9,2.9
			c0.2,0.2,0.4,0.3,0.7,0.3s0.5-0.1,0.7-0.3l4.9-4.9C50,443.4,50,442.7,49.6,442.4z"/>
	</g>
</g>
<g>
	<g>
		<path class="st0" d="M45,434.3c-5.9,0-10.7,4.8-10.7,10.7s4.8,10.7,10.7,10.7s10.7-4.8,10.7-10.7S50.9,434.3,45,434.3z M45,453.8
			c-4.8,0-8.8-3.9-8.8-8.8s3.9-8.8,8.8-8.8s8.8,3.9,8.8,8.8S49.8,453.8,45,453.8z"/>
	</g>
</g>
<g>
	<g>
		<path class="st0" d="M45,430.4c-0.5,0-1,0.4-1,1s0.4,1,1,1c7,0,12.7,5.7,12.7,12.7c0,2.1-0.5,4.2-1.6,6.1
			c-0.3,0.5-0.1,1.1,0.4,1.3c0.1,0.1,0.3,0.1,0.5,0.1c0.3,0,0.7-0.2,0.9-0.5c1.2-2.1,1.8-4.6,1.8-7C59.6,436.9,53.1,430.4,45,430.4z
			"/>
	</g>
</g>
<g>
	<g>
		<path class="st0" d="M45,457.7c-7,0-12.7-5.7-12.7-12.7c0-2.1,0.5-4.2,1.6-6.1c0.3-0.5,0.1-1.1-0.4-1.3c-0.5-0.3-1.1-0.1-1.3,0.4
			c-1.2,2.1-1.8,4.6-1.8,7c0,8.1,6.6,14.6,14.6,14.6c0.5,0,1-0.4,1-1S45.5,457.7,45,457.7z"/>
	</g>
</g>
<g>
	<g>
		<path class="st0" d="M69,514h-4.3v-1.9c0-0.4-0.3-0.8-0.7-0.9l-2.9-0.7l-1.5-3.6l1.5-2.6c0.2-0.4,0.2-0.9-0.1-1.2l-4-4
			c-0.3-0.3-0.8-0.4-1.2-0.1l-2.6,1.5l-3.6-1.5l-0.7-2.9c-0.1-0.4-0.5-0.7-0.9-0.7h-2V491c0-0.5-0.4-1-1-1s-1,0.4-1,1v4.3h-1.9
			c-0.4,0-0.8,0.3-0.9,0.7l-0.7,2.9l-3.6,1.5l-2.6-1.5c-0.4-0.2-0.9-0.2-1.2,0.1l-4,4c-0.3,0.3-0.4,0.8-0.1,1.2l1.5,2.6l-1.5,3.6
			l-2.9,0.7c-0.4,0.1-0.7,0.5-0.7,0.9v1.9H21c-0.5,0-1,0.4-1,1c0,0.5,0.4,1,1,1h4.3v1.9c0,0.4,0.3,0.8,0.7,0.9l2.9,0.7l1.5,3.6
			l-1.5,2.6c-0.2,0.4-0.2,0.9,0.1,1.2l4,4c0.3,0.3,0.8,0.4,1.2,0.1l2.6-1.5l3.6,1.5l0.7,2.9c0.1,0.4,0.5,0.7,0.9,0.7h2v4.3
			c0,0.5,0.4,1,1,1c0.5,0,1-0.4,1-1v-4.3h1.9c0.4,0,0.8-0.3,0.9-0.7l0.7-2.9l3.6-1.5l2.6,1.5c0.4,0.2,0.9,0.2,1.2-0.1l4-4
			c0.3-0.3,0.4-0.8,0.1-1.2l-1.5-2.6l1.5-3.6l2.9-0.7c0.4-0.1,0.7-0.5,0.7-0.9V516H69c0.5,0,1-0.4,1-1C70,514.5,69.6,514,69,514z
			 M62.8,517.1l-2.6,0.7c-0.3,0.1-0.5,0.3-0.7,0.6l-1.9,4.6c-0.1,0.3-0.1,0.6,0.1,0.9l1.4,2.3l-3,3l-2.3-1.4
			c-0.3-0.2-0.6-0.2-0.9-0.1l-4.6,1.9c-0.3,0.1-0.5,0.4-0.6,0.7l-0.7,2.6h-4.2l-0.7-2.6c-0.1-0.3-0.3-0.5-0.6-0.7l-4.6-1.9
			c-0.3-0.1-0.6-0.1-0.9,0.1l-2.3,1.4l-3-3l1.4-2.3c0.2-0.3,0.2-0.6,0.1-0.9l-1.9-4.6c-0.1-0.3-0.4-0.5-0.7-0.6l-2.6-0.7v-4.2
			l2.6-0.7c0.3-0.1,0.5-0.3,0.7-0.6l1.9-4.6c0.1-0.3,0.1-0.6-0.1-0.9l-1.4-2.3l3-3l2.3,1.4c0.3,0.2,0.6,0.2,0.9,0.1l4.6-1.9
			c0.3-0.1,0.5-0.4,0.6-0.7l0.7-2.6H47l0.7,2.6c0.1,0.3,0.3,0.5,0.6,0.7l4.6,1.9c0.3,0.1,0.6,0.1,0.9-0.1l2.3-1.4l3,3l-1.4,2.3
			c-0.2,0.3-0.2,0.6-0.1,0.9l1.9,4.6c0.1,0.3,0.4,0.5,0.7,0.6l2.6,0.7L62.8,517.1L62.8,517.1z"/>
	</g>
</g>
<g>
	<g>
		<path class="st0" d="M49.3,503.3c-0.5-0.2-1.1,0.1-1.3,0.6s0.1,1.1,0.6,1.3c4.1,1.5,6.9,5.5,6.9,9.9c0,5.8-4.7,10.5-10.5,10.5
			s-10.5-4.7-10.5-10.5c0-4.2,2.5-8,6.3-9.6c0.5-0.2,0.7-0.8,0.5-1.3s-0.8-0.7-1.3-0.5c-4.5,2-7.4,6.5-7.4,11.4
			c0,6.9,5.6,12.5,12.5,12.5s12.5-5.6,12.5-12.5C57.5,509.8,54.2,505.1,49.3,503.3z"/>
	</g>
</g>
<g>
	<g>
		<path class="st0" d="M45.1,502.5L45.1,502.5c-0.6,0-1,0.4-1,1s0.4,1,1,1l0,0l0,0c0.5,0,1-0.4,1-1C46,502.9,45.6,502.5,45.1,502.5z
			"/>
	</g>
</g>
<g>
	<g>
		<path class="st0" d="M51.8,511.1c-0.5,0-1,0.4-1,1v5.7c0,0.5,0.4,1,1,1s1-0.4,1-1v-5.7C52.8,511.6,52.3,511.1,51.8,511.1z"/>
	</g>
</g>
<g>
	<g>
		<path class="st0" d="M47.1,511.1h-2c-0.5,0-1,0.4-1,1v1.9v1.3v2.4c0,0.5,0.4,1,1,1s1-0.4,1-1v-1.4h1c1.4,0,2.5-1.1,2.5-2.5v-0.3
			C49.5,512.2,48.4,511.1,47.1,511.1z M47.6,513.9c0,0.3-0.2,0.5-0.5,0.5h-1V514v-1h1c0.3,0,0.5,0.2,0.5,0.5V513.9z"/>
	</g>
</g>
<g>
	<g>
		<path class="st0" d="M43,517.5l-2.5-5.8c-0.2-0.4-0.5-0.6-0.9-0.6s-0.7,0.2-0.9,0.6l-2.5,5.8c-0.2,0.5,0,1.1,0.5,1.3
			s1.1,0,1.3-0.5l1.6-3.7l1.6,3.7c0.2,0.4,0.5,0.6,0.9,0.6c0.1,0,0.3,0,0.4-0.1C43,518.6,43.2,518,43,517.5z"/>
	</g>
</g>
<g>
	<g>
		<path class="st0" d="M66.7,490c-1.8,0-3.3,1.5-3.3,3.3c0,0.6,0.1,1.1,0.4,1.6l-3.7,3.7c-0.4,0.4-0.4,1,0,1.4
			c0.2,0.2,0.4,0.3,0.7,0.3s0.5-0.1,0.7-0.3l3.7-3.7c0.5,0.2,1,0.4,1.6,0.4c1.8,0,3.3-1.5,3.3-3.3C70,491.5,68.5,490,66.7,490z
			 M66.7,494.7c-0.8,0-1.4-0.6-1.4-1.4s0.6-1.4,1.4-1.4s1.4,0.6,1.4,1.4C68,494.1,67.4,494.7,66.7,494.7z"/>
	</g>
</g>
<g>
	<g>
		<path class="st0" d="M30,530c-0.4-0.4-1-0.4-1.4,0l-3.7,3.7c-0.5-0.2-1-0.4-1.6-0.4c-1.8,0-3.3,1.5-3.3,3.3s1.5,3.3,3.3,3.3
			s3.3-1.5,3.3-3.3c0-0.6-0.1-1.1-0.4-1.6l3.7-3.7C30.4,531,30.4,530.4,30,530z M23.3,538c-0.8,0-1.4-0.6-1.4-1.4
			c0-0.8,0.6-1.4,1.4-1.4s1.4,0.6,1.4,1.4C24.7,537.4,24.1,538,23.3,538z"/>
	</g>
</g>
<g>
	<g>
		<path class="st0" d="M61.4,530c-0.2-0.2-0.4-0.3-0.7-0.3s-0.5,0.1-0.7,0.3s-0.3,0.4-0.3,0.7s0.1,0.5,0.3,0.7s0.4,0.3,0.7,0.3
			s0.5-0.1,0.7-0.3s0.3-0.4,0.3-0.7S61.6,530.2,61.4,530z"/>
	</g>
</g>
<g>
	<g>
		<path class="st0" d="M66.7,533.4c-0.6,0-1.1,0.1-1.6,0.4l-1.6-1.6c-0.4-0.4-1-0.4-1.4,0s-0.4,1,0,1.4l1.7,1.7
			c-0.2,0.5-0.4,1-0.4,1.6c0,1.8,1.5,3.3,3.3,3.3s3.3-1.5,3.3-3.3S68.5,533.4,66.7,533.4z M66.7,538c-0.8,0-1.4-0.6-1.4-1.4
			c0-0.8,0.6-1.4,1.4-1.4s1.4,0.6,1.4,1.4C68,537.4,67.4,538,66.7,538z"/>
	</g>
</g>
<g>
	<g>
		<path class="st0" d="M30,498.6l-3.7-3.7c0.2-0.5,0.4-1,0.4-1.6c0-1.8-1.5-3.3-3.3-3.3s-3.3,1.5-3.3,3.3s1.5,3.3,3.3,3.3
			c0.6,0,1.1-0.1,1.6-0.4l3.7,3.7c0.2,0.2,0.4,0.3,0.7,0.3c0.2,0,0.5-0.1,0.7-0.3C30.4,499.6,30.4,499,30,498.6z M23.3,494.7
			c-0.8,0-1.4-0.6-1.4-1.4s0.6-1.4,1.4-1.4s1.4,0.6,1.4,1.4S24.1,494.7,23.3,494.7z"/>
	</g>
</g>
<g>
	<g>
		<g>
			<path class="st0" d="M62.9,560H27.1c-0.5,0-1,0.4-1,1v48c0,0.6,0.4,1,1,1H63c0.5,0,1-0.4,1-1v-48C63.9,560.4,63.5,560,62.9,560z
				 M61.9,608H28.1v-46H62L61.9,608L61.9,608z"/>
			<path class="st0" d="M32.5,576.4h8.7c0.5,0,1-0.4,1-1v-8.7c0-0.6-0.4-1-1-1h-8.7c-0.6,0-1,0.4-1,1v8.7
				C31.6,576,32,576.4,32.5,576.4z M33.5,567.8h6.7v6.7h-6.7V567.8z"/>
			<path class="st0" d="M32.5,590.5h8.7c0.5,0,1-0.4,1-1v-1.9c0-0.6-0.4-1-1-1s-1,0.4-1,1v0.9h-6.7v-6.7h6.2c0.5,0,1-0.4,1-1
				s-0.4-1-1-1h-7.2c-0.6,0-1,0.4-1,1v8.7C31.6,590,32,590.5,32.5,590.5z"/>
			<path class="st0" d="M32.5,604.4h8.7c0.5,0,1-0.4,1-1v-8.7c0-0.6-0.4-1-1-1h-8.7c-0.6,0-1,0.4-1,1v8.7
				C31.6,604,32,604.4,32.5,604.4z M33.5,595.8h6.7v6.7h-6.7V595.8z"/>
			<path class="st0" d="M52.6,569.9h5c0.5,0,1-0.4,1-1s-0.4-1-1-1h-5c-0.5,0-1,0.4-1,1C51.6,569.4,52,569.9,52.6,569.9z"/>
			<path class="st0" d="M46.7,569.9h1.7c0.5,0,1-0.4,1-1s-0.4-1-1-1h-1.7c-0.5,0-1,0.4-1,1C45.7,569.4,46.1,569.9,46.7,569.9z"/>
			<path class="st0" d="M46.7,573.9h10.9c0.5,0,1-0.4,1-1s-0.4-1-1-1H46.7c-0.5,0-1,0.4-1,1S46.1,573.9,46.7,573.9z"/>
			<path class="st0" d="M57.5,582h-5c-0.5,0-1,0.4-1,1s0.4,1,1,1h5c0.5,0,1-0.4,1-1C58.5,582.5,58.1,582,57.5,582z"/>
			<path class="st0" d="M46.7,584h1.7c0.5,0,1-0.4,1-1s-0.4-1-1-1h-1.7c-0.5,0-1,0.4-1,1S46.1,584,46.7,584z"/>
			<path class="st0" d="M46.7,588.1h10.9c0.5,0,1-0.4,1-1s-0.4-1-1-1H46.7c-0.5,0-1,0.4-1,1S46.1,588.1,46.7,588.1z"/>
			<path class="st0" d="M57.5,595.9h-5c-0.5,0-1,0.4-1,1s0.4,1,1,1h5c0.5,0,1-0.4,1-1S58.1,595.9,57.5,595.9z"/>
			<path class="st0" d="M46.7,597.8h1.7c0.5,0,1-0.4,1-1s-0.4-1-1-1h-1.7c-0.5,0-1,0.4-1,1S46.1,597.8,46.7,597.8z"/>
			<path class="st0" d="M46.7,601.9h10.9c0.5,0,1-0.4,1-1s-0.4-1-1-1H46.7c-0.5,0-1,0.4-1,1S46.1,601.9,46.7,601.9z"/>
			<path class="st0" d="M36.1,583.5c-0.4-0.4-1-0.4-1.4,0s-0.4,1,0,1.4l2.5,2.4c0.2,0.2,0.4,0.3,0.7,0.3s0.5-0.1,0.7-0.3l5.9-5.9
				c0.4-0.4,0.4-1,0-1.4s-1-0.4-1.4,0l-5.2,5.2L36.1,583.5z"/>
		</g>
	</g>
</g>
<g>
	<g>
		<path class="st0" d="M60.2,635.5H40c-0.5,0-1,0.4-1,1c0,0.5,0.4,1,1,1h20.2c0.5,0,1-0.4,1-1S60.7,635.5,60.2,635.5z"/>
	</g>
</g>
<g>
	<g>
		<path class="st0" d="M30.1,635.8c-0.2-0.2-0.4-0.3-0.7-0.3c-0.3,0-0.5,0.1-0.7,0.3s-0.3,0.4-0.3,0.7s0.1,0.5,0.3,0.7
			c0.2,0.2,0.4,0.3,0.7,0.3c0.3,0,0.5-0.1,0.7-0.3s0.3-0.4,0.3-0.7S30.3,636,30.1,635.8z"/>
	</g>
</g>
<g>
	<g>
		<path class="st0" d="M26.5,635.8c-0.2-0.2-0.4-0.3-0.7-0.3c-0.3,0-0.5,0.1-0.7,0.3s-0.3,0.4-0.3,0.7s0.1,0.5,0.3,0.7
			c0.2,0.2,0.4,0.3,0.7,0.3c0.3,0,0.5-0.1,0.7-0.3s0.3-0.4,0.3-0.7S26.7,636,26.5,635.8z"/>
	</g>
</g>
<g>
	<g>
		<path class="st0" d="M33.7,635.8c-0.2-0.2-0.4-0.3-0.7-0.3s-0.5,0.1-0.7,0.3s-0.3,0.4-0.3,0.7s0.1,0.5,0.3,0.7s0.4,0.3,0.7,0.3
			s0.5-0.1,0.7-0.3s0.3-0.4,0.3-0.7C33.9,636.2,33.8,636,33.7,635.8z"/>
	</g>
</g>
<g>
	<g>
		<path class="st0" d="M69.7,672.6l-7.7-7.7l1.2-1.2l0,0l0,0l1.2-1.2l3.8,3.8c0.4,0.4,1,0.4,1.4,0s0.4-1,0-1.4l-4.5-4.5
			c-0.4-0.4-1-0.4-1.4,0l-1.2,1.2l-0.6-0.6c1.7-2,2.7-4.6,2.7-7.3c0-6.3-5.1-11.4-11.4-11.4c-3.2,0-6.2,1.4-8.3,3.5l0,0H26.2
			c-0.5,0-1,0.4-1,1v13.6c0,0.5,0.4,1,1,1h18.6c2.1,2.3,5.1,3.7,8.4,3.7c2.8,0,5.4-1,7.3-2.7l0.6,0.6l-1.2,1.2
			c-0.2,0.2-0.3,0.4-0.3,0.7s0.1,0.5,0.3,0.7l4.1,4.1v4.2c0,1.2-1,2.1-2.1,2.1H24.1c-1.2,0-2.1-1-2.1-2.1V641l0,0h42.1v4.4
			c0,0.5,0.4,1,1,1c0.5,0,1-0.4,1-1v-9.3c0-2.3-1.8-4.1-4.1-4.1H24.1c-2.3,0-4.1,1.8-4.1,4.1v37.8c0,2.3,1.8,4.1,4.1,4.1h37.8
			c2.3,0,4.1-1.8,4.1-4.1v-2.3l2.3,2.3c0.2,0.2,0.4,0.3,0.7,0.3c0.2,0,0.5-0.1,0.7-0.3C70.1,673.6,70.1,673,69.7,672.6z M41.8,654
			l-1.2-2.4c-0.2-0.5-0.8-0.7-1.3-0.4c-0.5,0.2-0.7,0.8-0.4,1.3l2.3,4.4c0.2,0.3,0.5,0.5,0.9,0.5c0.1,0,0.3,0,0.4-0.1
			c0.3,0.7,0.6,1.4,1,2.1H27.2v-11.7h16.3c-1.1,1.7-1.7,3.8-1.7,5.9C41.8,653.8,41.8,653.9,41.8,654z M53.2,663.2
			c-5.2,0-9.5-4.2-9.5-9.5c0-0.1,0-0.1,0-0.2l1.8,3.5c0.2,0.3,0.5,0.5,0.9,0.5l0,0c0.4,0,0.7-0.2,0.9-0.6l2.1-4.4
			c0.2-0.5,0-1.1-0.5-1.3s-1.1,0-1.3,0.5l-1.3,2.7l-1.4-2.7c-0.2-0.3-0.5-0.5-0.9-0.5c1.1-4,4.8-6.9,9.1-6.9c5.2,0,9.5,4.2,9.5,9.5
			S58.5,663.2,53.2,663.2z M21.9,636.1c0-1.2,1-2.1,2.1-2.1h37.8c1.2,0,2.1,1,2.1,2.1v2.9H22l0,0v-2.9H21.9z"/>
	</g>
</g>
<g>
	<g>
		<path class="st0" d="M37.8,651.2c-0.5-0.2-1.1,0-1.3,0.5l-1.3,2.7l-1.4-2.7c-0.2-0.3-0.5-0.5-0.9-0.5s-0.7,0.2-0.9,0.6l-1.3,2.7
			l-1.4-2.7c-0.2-0.5-0.8-0.7-1.3-0.4c-0.5,0.2-0.7,0.8-0.4,1.3L30,657c0.2,0.3,0.5,0.5,0.9,0.5s0.7-0.2,0.9-0.6l1.3-2.7l1.4,2.7
			c0.2,0.3,0.5,0.5,0.9,0.5l0,0c0.4,0,0.7-0.2,0.9-0.6l2.1-4.4C38.5,652,38.3,651.4,37.8,651.2z"/>
	</g>
</g>
<g>
	<g>
		<path class="st0" d="M60.2,651.2c-0.5-0.2-1.1,0-1.3,0.5l-1.3,2.7l-1.4-2.7c-0.2-0.3-0.5-0.5-0.9-0.5s-0.7,0.2-0.9,0.6l-1.3,2.7
			l-1.4-2.7c-0.2-0.5-0.8-0.7-1.3-0.4c-0.5,0.2-0.7,0.8-0.4,1.3l2.3,4.4c0.2,0.3,0.5,0.5,0.9,0.5l0,0c0.4,0,0.7-0.2,0.9-0.6l1.3-2.7
			l1.4,2.7c0.2,0.3,0.5,0.5,0.9,0.5l0,0c0.4,0,0.7-0.2,0.9-0.6l2.1-4.4C60.8,652,60.6,651.4,60.2,651.2z"/>
	</g>
</g>
<g>
	<g>
		<path class="st0" d="M26.9,669.1c-0.2-0.2-0.4-0.3-0.7-0.3s-0.5,0.1-0.7,0.3s-0.3,0.4-0.3,0.7s0.1,0.5,0.3,0.7
			c0.2,0.2,0.4,0.3,0.7,0.3s0.5-0.1,0.7-0.3s0.3-0.4,0.3-0.7S27.1,669.3,26.9,669.1z"/>
	</g>
</g>
<g>
	<g>
		<path class="st0" d="M48.6,668.8h-19c-0.5,0-1,0.4-1,1s0.4,1,1,1h19c0.5,0,1-0.4,1-1C49.5,669.3,49.1,668.8,48.6,668.8z"/>
	</g>
</g>
<g>
	<g>
		<path class="st0" d="M45,664.2h-5.8c-0.5,0-1,0.4-1,1c0,0.5,0.4,1,1,1H45c0.5,0,1-0.4,1-1C45.9,664.6,45.5,664.2,45,664.2z"/>
	</g>
</g>
<g>
	<g>
		<path class="st0" d="M34.8,664.2h-8.6c-0.5,0-1,0.4-1,1c0,0.5,0.4,1,1,1h8.6c0.5,0,1-0.4,1-1C35.8,664.6,35.4,664.2,34.8,664.2z"
			/>
	</g>
</g>
<g>
	<g>
		<path class="st0" d="M65.9,700c-0.2,0-0.7,0-0.8,0H35.6c-0.5,0-1,0.4-1,1c0,0.5,0.4,1,1,1h26.8c-0.4,0.6-0.6,1.4-0.6,2.1v12.8
			c0,0.5,0.4,1,1,1c0.5,0,1-0.4,1-1v-3H69c0.5,0,1-0.4,1-1v-8.8C70,701.8,68.2,700,65.9,700z M68,711.9h-4.3v-7.8
			c0-1.2,1-2.1,2.1-2.1s2.1,1,2.1,2.1L68,711.9L68,711.9z"/>
	</g>
</g>
<g>
	<g>
		<path class="st0" d="M68.9,739.8l-6.4-6.4c0.7-1.5,1.2-3.2,1.2-5c0-6.2-5.1-11.3-11.3-11.3S41,722.2,41,728.5
			c0,1.4,0.3,2.8,0.8,4.1l-1.1,1.1L36,729c-0.2-0.2-0.4-0.3-0.7-0.3s-0.5,0.1-0.7,0.3l-1.1,1.1v-8.9c0-0.5-0.4-1-1-1
			c-0.5,0-1,0.4-1,1V732l-8.8,8.8c-0.4,0.4-0.4,1,0,1.4c0.2,0.2,0.4,0.3,0.7,0.3c0.2,0,0.5-0.1,0.7-0.3l7.4-7.4v7h-4.3
			c-0.5,0-1,0.4-1,1v3.1c0,2.3,1.8,4.1,4.1,4.1h29.3c2.3,0,4.1-1.8,4.1-4.1v-0.8c0.7,0.7,1.6,1,2.5,1l0,0c1,0,1.9-0.4,2.6-1.1
			C70.4,743.6,70.4,741.2,68.9,739.8z M52.4,719.1c5.2,0,9.4,4.2,9.4,9.4s-4.2,9.4-9.4,9.4c-3.5,0-6.6-2-8.2-4.9l5.6-5.6v2.2
			c0,0.5,0.4,1,1,1s1-0.4,1-1v-4.7c0-0.5-0.4-1-1-1h-4.7c-0.5,0-1,0.4-1,1c0,0.5,0.4,1,1,1h2.4l-5.2,5.2c-0.2-0.8-0.3-1.6-0.3-2.5
			C43,723.3,47.2,719.1,52.4,719.1z M30.4,748c-1.2,0-2.1-1-2.1-2.1v-2.1h27.3v1.2v0.1v0.1v0.8c0,0.8,0.2,1.5,0.6,2.1L30.4,748
			L30.4,748z M61.8,745.9c0,1.2-1,2.1-2.1,2.1c-1.2,0-2.1-1-2.1-2.1v-0.8V745v-0.1v-2.1c0-0.5-0.4-1-1-1h-23v-9l1.8-1.8l4.7,4.7
			c0.2,0.2,0.4,0.3,0.7,0.3s0.5-0.1,0.7-0.3l1.4-1.4c2,3.3,5.6,5.4,9.7,5.4c1.8,0,3.5-0.4,4.9-1.1l4.5,4.5v2.8H61.8z M67.5,743.6
			c-0.3,0.3-0.8,0.5-1.2,0.5l0,0c-0.5,0-0.9-0.2-1.2-0.5l-6-6c0.9-0.7,1.8-1.5,2.5-2.5l6,6C68.2,741.8,68.2,742.9,67.5,743.6z"/>
	</g>
</g>
<g>
	<g>
		<path class="st0" d="M58.6,727.5c-0.5,0-1,0.4-1,1c0,2.9-2.3,5.2-5.2,5.2c-0.5,0-1,0.4-1,1c0,0.5,0.4,1,1,1c3.9,0,7.2-3.2,7.2-7.2
			C59.5,727.9,59.1,727.5,58.6,727.5z"/>
	</g>
</g>
<g>
	<g>
		<path class="st0" d="M45,716.8h-0.9v-6.5c0-0.5-0.4-1-1-1h-4.5c-0.5,0-1,0.4-1,1v6.5H36v-10.5c0-0.5-0.4-1-1-1h-4.3
			c-0.5,0-1,0.4-1,1v10.5h-1.6v-4.3c0-0.5-0.4-1-1-1H23c-0.5,0-1,0.4-1,1v4.3h-1c-0.5,0-1,0.4-1,1c0,0.5,0.4,1,1,1h24
			c0.5,0,1-0.4,1-1S45.6,716.8,45,716.8z M26.3,716.8H24v-3.3h2.3V716.8z M34.2,716.8h-2.3v-9.6h2.3V716.8z M42.2,716.8h-2.5v-5.6
			h2.5V716.8z"/>
	</g>
</g>
<g>
	<g>
		<path class="st0" d="M53,705.3h-7.6c-0.5,0-1,0.4-1,1s0.4,1,1,1H53c0.5,0,1-0.4,1-1C53.9,705.7,53.5,705.3,53,705.3z"/>
	</g>
</g>
<g>
	<g>
		<path class="st0" d="M58.5,705.6c-0.2-0.2-0.4-0.3-0.7-0.3s-0.5,0.1-0.7,0.3s-0.3,0.4-0.3,0.7s0.1,0.5,0.3,0.7s0.4,0.3,0.7,0.3
			s0.5-0.1,0.7-0.3s0.3-0.4,0.3-0.7S58.7,705.7,58.5,705.6z"/>
	</g>
</g>
<g>
	<g>
		<path class="st0" d="M49.2,709.6h-1.6c-0.5,0-1,0.4-1,1c0,0.5,0.4,1,1,1h1.6c0.5,0,1-0.4,1-1C50.1,710,49.7,709.6,49.2,709.6z"/>
	</g>
</g>
<g>
	<g>
		<path class="st0" d="M57.8,709.6H53c-0.5,0-1,0.4-1,1c0,0.5,0.4,1,1,1h4.8c0.5,0,1-0.4,1-1S58.3,709.6,57.8,709.6z"/>
	</g>
</g>
<g>
	<g>
		<path class="st0" d="M21.7,743.2c-0.2-0.2-0.4-0.3-0.7-0.3c-0.3,0-0.5,0.1-0.7,0.3s-0.3,0.4-0.3,0.7s0.1,0.5,0.3,0.7
			c0.2,0.2,0.4,0.3,0.7,0.3c0.3,0,0.5-0.1,0.7-0.3s0.3-0.4,0.3-0.7C22,743.7,21.8,743.4,21.7,743.2z"/>
	</g>
</g>
<g>
	<g>
		<path class="st0" d="M65,796.2c0.4-0.7,0.7-1.4,0.7-2.3v-0.8c0-2.3-1.8-4.1-4.1-4.1c-1.1,0-2.2,0.5-2.9,1.2
			c-1.9-5.7-7.3-9.9-13.7-9.9s-11.8,4.1-13.7,9.9c-0.7-0.7-1.8-1.2-2.9-1.2c-2.3,0-4.1,1.8-4.1,4.1v0.8c0,0.8,0.3,1.6,0.7,2.3
			c-2.8,0.6-5,3.1-5,6.1v2c0,0.5,0.4,1,1,1h5.1c0.5,0,1-0.4,1-1s-0.4-1-1-1H22v-1c0-2.4,1.9-4.3,4.3-4.3h4.6c0.4,1.6,1,3.2,1.9,4.6
			l-11.1,11.1c-1.4,1.4-1.4,3.7,0,5.2c0.7,0.7,1.7,1.1,2.6,1.1s1.9-0.4,2.6-1.1l6.1-6.1c0.4-0.4,0.4-1,0-1.4s-1-0.4-1.4,0l-6.1,6.1
			c-0.7,0.7-1.7,0.7-2.4,0c-0.7-0.7-0.7-1.7,0-2.4L34,804.2c2.7,3.1,6.6,5.1,11,5.1c6.9,0,12.6-4.8,14.1-11.2h4.6
			c2.4,0,4.3,1.9,4.3,4.3v1h-9.2c-0.5,0-1,0.4-1,1s0.4,1,1,1H69c0.5,0,1-0.4,1-1v-2C70,799.3,67.9,796.8,65,796.2z M30.6,793.9
			c0,1.2-1,2.2-2.2,2.2s-2.2-1-2.2-2.2v-0.8c0-1.2,1-2.2,2.2-2.2s2.2,1,2.2,2.2V793.9z M45,807.3c-6.9,0-12.5-5.6-12.5-12.5
			s5.6-12.5,12.5-12.5s12.5,5.6,12.5,12.5S51.9,807.3,45,807.3z M63.8,793.9c0,1.2-1,2.2-2.2,2.2s-2.2-1-2.2-2.2v-0.8
			c0-1.2,1-2.2,2.2-2.2s2.2,1,2.2,2.2V793.9z"/>
	</g>
</g>
<g>
	<g>
		<path class="st0" d="M45,784.3c-5.8,0-10.5,4.7-10.5,10.5c0,3,1.3,5.7,3.3,7.7l0.1,0.1c1.9,1.7,4.4,2.8,7.1,2.8s5.2-1.1,7.1-2.8
			l0.1-0.1c2-1.9,3.3-4.7,3.3-7.7C55.5,789,50.8,784.3,45,784.3z M45,803.4c-2,0-3.9-0.7-5.3-1.9c1-2,3.1-3.2,5.3-3.2
			s4.3,1.2,5.3,3.2C48.9,802.7,47,803.4,45,803.4z M42.9,794.4v-0.8c0-1.1,0.9-2.1,2.1-2.1s2.1,0.9,2.1,2.1v0.8
			c0,1.1-0.9,2.1-2.1,2.1S42.9,795.5,42.9,794.4z M51.8,800.1c-0.9-1.4-2.2-2.5-3.7-3.1c0.6-0.7,1-1.6,1-2.6v-0.8c0-2.2-1.8-4-4-4
			s-4,1.8-4,4v0.8c0,1,0.4,1.9,1,2.6c-1.5,0.6-2.8,1.7-3.7,3.1c-1.2-1.5-1.8-3.3-1.8-5.3c0-4.7,3.9-8.6,8.6-8.6s8.6,3.9,8.6,8.6
			C53.6,796.8,52.9,798.7,51.8,800.1z"/>
	</g>
</g>
<g>
	<g>
		<path class="st0" d="M35.6,808.8c-0.2-0.2-0.4-0.3-0.7-0.3s-0.5,0.1-0.7,0.3s-0.3,0.4-0.3,0.7s0.1,0.5,0.3,0.7s0.4,0.3,0.7,0.3
			s0.5-0.1,0.7-0.3s0.3-0.4,0.3-0.7S35.8,809,35.6,808.8z"/>
	</g>
</g>
<g>
	<g>
		<path class="st0" d="M45,770c-0.5,0-1,0.4-1,1v3.3c0,0.5,0.4,1,1,1s1-0.4,1-1V771C46,770.4,45.6,770,45,770z"/>
	</g>
</g>
<g>
	<g>
		<path class="st0" d="M45.7,776.8c-0.2-0.2-0.4-0.3-0.7-0.3s-0.5,0.1-0.7,0.3s-0.3,0.4-0.3,0.7s0.1,0.5,0.3,0.7s0.4,0.3,0.7,0.3
			s0.5-0.1,0.7-0.3s0.3-0.4,0.3-0.7S45.9,777,45.7,776.8z"/>
	</g>
</g>
<g>
	<g>
		<path class="st0" d="M53.3,773.8c-0.4-0.4-1-0.4-1.4,0l-1.7,1.7c-0.4,0.4-0.4,1,0,1.4c0.2,0.2,0.4,0.3,0.7,0.3s0.5-0.1,0.7-0.3
			l1.7-1.7C53.7,774.8,53.7,774.2,53.3,773.8z"/>
	</g>
</g>
<g>
	<g>
		<path class="st0" d="M39.8,775.6l-1.7-1.7c-0.4-0.4-1-0.4-1.4,0s-0.4,1,0,1.4l1.7,1.7c0.2,0.2,0.4,0.3,0.7,0.3
			c0.2,0,0.5-0.1,0.7-0.3C40.2,776.6,40.2,775.9,39.8,775.6z"/>
	</g>
</g>
<path class="st0" d="M26.3,865c0,0.1,0.1,0.1,0.1,0.2c0,0.1,0.1,0.1,0.1,0.1l0.1,0.1c0.1,0,0.1,0.1,0.2,0.1s0.1,0,0.2,0.1
	c0.1,0,0.1,0,0.2,0s0.1,0,0.2,0s0.1,0,0.2-0.1c0.1,0,0.1-0.1,0.2-0.1s0.1-0.1,0.1-0.1l0.1-0.1c0-0.1,0.1-0.1,0.1-0.2
	c0-0.1,0-0.1,0.1-0.2c0-0.1,0-0.1,0-0.2c0-0.1,0-0.1,0-0.2s0-0.1-0.1-0.2c0-0.1-0.1-0.1-0.1-0.2c0-0.1-0.1-0.1-0.1-0.1
	c-0.2-0.2-0.6-0.3-0.9-0.3c-0.1,0-0.1,0-0.2,0.1c-0.1,0-0.1,0.1-0.2,0.1s-0.1,0.1-0.1,0.1l-0.1,0.1c0,0.1-0.1,0.1-0.1,0.2
	c0,0.1,0,0.1-0.1,0.2c0,0.1,0,0.1,0,0.2c0,0.1,0,0.1,0,0.2C26.3,864.9,26.3,865,26.3,865z"/>
<path class="st0" d="M53.2,874.3c-0.1,0-0.1-0.1-0.2-0.1c-0.1,0-0.1,0-0.2-0.1c-0.3-0.1-0.7,0-0.9,0.3l-0.1,0.1
	c0,0.1-0.1,0.1-0.1,0.2c0,0.1,0,0.1-0.1,0.2c0,0.1,0,0.1,0,0.2c0,0.1,0,0.1,0,0.2c0,0.1,0,0.1,0.1,0.2c0,0.1,0.1,0.1,0.1,0.2
	c0,0.1,0.1,0.1,0.1,0.1l0.1,0.1c0.1,0,0.1,0.1,0.2,0.1c0.1,0,0.1,0,0.2,0.1c0.1,0,0.1,0,0.2,0c0.1,0,0.1,0,0.2,0
	c0.1,0,0.1,0,0.2-0.1c0.1,0,0.1-0.1,0.2-0.1c0.1,0,0.1-0.1,0.1-0.1l0.1-0.1c0-0.1,0.1-0.1,0.1-0.2c0-0.1,0-0.1,0.1-0.2
	c0-0.1,0-0.1,0-0.2c0-0.3-0.1-0.5-0.3-0.7C53.3,874.4,53.3,874.3,53.2,874.3z"/>
<path class="st0" d="M54.4,851h-3.5c-0.5,0-1,0.4-1,1c0,0.5,0.4,1,1,1h3.5c0.5,0,1-0.4,1-1S54.9,851,54.4,851z"/>
<path class="st0" d="M63.5,874.7c0-0.1-0.1-0.1-0.1-0.2c0-0.1-0.1-0.1-0.1-0.1l-0.1-0.1c-0.1,0-0.1-0.1-0.2-0.1
	c-0.1,0-0.1,0-0.2-0.1c-0.1,0-0.3,0-0.4,0c-0.1,0-0.1,0-0.2,0.1c-0.1,0-0.1,0.1-0.2,0.1c-0.1,0-0.1,0.1-0.1,0.1
	c-0.2,0.2-0.3,0.4-0.3,0.7c0,0.1,0,0.1,0,0.2c0,0.1,0,0.1,0.1,0.2c0,0.1,0.1,0.1,0.1,0.2c0,0.1,0.1,0.1,0.1,0.1l0.1,0.1
	c0.1,0,0.1,0.1,0.2,0.1c0.1,0,0.1,0,0.2,0.1c0.1,0,0.1,0,0.2,0c0.1,0,0.1,0,0.2,0c0.1,0,0.1,0,0.2-0.1c0.1,0,0.1-0.1,0.2-0.1
	c0.1,0,0.1-0.1,0.1-0.1l0.1-0.1c0-0.1,0.1-0.1,0.1-0.2c0-0.1,0-0.1,0.1-0.2c0-0.1,0-0.1,0-0.2c0-0.1,0-0.1,0-0.2
	C63.5,874.9,63.5,874.8,63.5,874.7z"/>
<path class="st0" d="M69,880.5c-0.5,0-1,0.4-1,1v1H57.1v-1c0-0.5-0.4-1-1-1c-0.5,0-1,0.4-1,1v1H43.4v-1c0-0.5-0.4-1-1-1
	c-0.5,0-1,0.4-1,1v1H22v-1c0-0.5-0.4-1-1-1c-0.5,0-1,0.4-1,1v1.8c0,0.1,0,0.1,0,0.2s0,0.1,0,0.2v1.8c0,0.5,0.4,1,1,1
	c0.5,0,1-0.4,1-1v-1h19.5v1c0,0.5,0.4,1,1,1c0.5,0,1-0.4,1-1v-1h11.7v1c0,0.5,0.4,1,1,1c0.5,0,1-0.4,1-1v-1H68v1c0,0.5,0.4,1,1,1
	c0.5,0,1-0.4,1-1v-3.9C70,880.9,69.6,880.5,69,880.5z"/>
<path class="st0" d="M23.9,871.6h9.3l-0.5,5h-2.2c-0.5,0-1,0.4-1,1c0,0.5,0.4,1,1,1h3.1l0,0l0,0h12.2c0.1,0,0.2,0,0.3,0h13.5H66
	c2.3,0,4.1-1.8,4.1-4.1v-16v-0.3c0-2.3-1.8-4.1-4.1-4.1h-2.4v-1.7c0-2.3-1.8-4.1-4.1-4.1H59v-2c0-2.1-1.7-3.9-3.9-3.9H23.9
	c-2.1,0-3.9,1.7-3.9,3.9v21.6C20,869.8,21.7,871.6,23.9,871.6z M35.1,871.6h6.7v2.8c0,0.8,0.2,1.5,0.6,2.1h-7.9L35.1,871.6z M68,872
	H57.1v-12.7H68V872z M55.2,858v14H43.8v-16.2h12C55.4,856.4,55.2,857.2,55.2,858z M46,876.5c-0.1,0-0.1,0-0.2,0c-1.1-0.1-2-1-2-2.2
	V874h11.4v0.4c0,0.8,0.2,1.5,0.6,2.2L46,876.5z M65.9,876.5h-6.4l0,0h-0.2c-1.2,0-2.2-1-2.2-2.2V874H68v0.4
	C68,875.5,67.1,876.5,65.9,876.5z M68,857.3H57.2c0.3-0.9,1.1-1.5,2.1-1.5h3.3l0,0H66C66.9,855.8,67.7,856.4,68,857.3z M61.5,852.2
	v1.7h-2.3l0,0H43.8v-1.7c0-1.2,1-2.2,2.2-2.2h13.4C60.6,850,61.5,851,61.5,852.2z M23.9,844.2h31.3c1.1,0,1.9,0.9,1.9,1.9v2H46
	c-2.3,0-4.1,1.8-4.1,4.1v11.5H31.2c-0.5,0-1,0.4-1,1c0,0.5,0.4,1,1,1h10.7v3.9h-7.6l0,0H23.9c-1.1,0-1.9-0.9-1.9-1.9v-2h1.4
	c0.5,0,1-0.4,1-1c0-0.5-0.4-1-1-1H22v-17.6C22,845.1,22.8,844.2,23.9,844.2z"/>
<g>
	<g>
		<path class="st0" d="M52.1,946c-0.5-0.3-1.1-0.6-1.6-0.9c0.1-1.1,0.1-2.2,0-3.3c0.5-0.3,1.1-0.6,1.6-0.9c0.9-0.5,1.2-1.6,0.9-2.6
			l0,0l-1.1-2.8c-0.4-1-1.4-1.5-2.4-1.2c-0.6,0.1-1.2,0.3-1.8,0.5c-0.7-0.9-1.4-1.6-2.3-2.3c0.2-0.6,0.3-1.2,0.5-1.8
			c0.2-1-0.3-2-1.2-2.4l-2.8-1.1c-1-0.4-2.1,0-2.6,0.9c-0.3,0.5-0.6,1.1-0.9,1.6c-1.1-0.1-2.2-0.1-3.3,0c-0.3-0.5-0.6-1.1-0.9-1.6
			c-0.5-0.9-1.6-1.2-2.6-0.9l-2.8,1.1c-1,0.4-1.5,1.4-1.2,2.4c0.1,0.6,0.3,1.2,0.5,1.8c-0.9,0.7-1.6,1.4-2.3,2.3
			c-0.6-0.2-1.2-0.3-1.8-0.5c-1-0.2-2,0.3-2.4,1.2l-1.1,2.8c-0.4,1,0,2.1,0.9,2.6c0.5,0.3,1.1,0.6,1.6,0.9c-0.1,1.1-0.1,2.2,0,3.3
			c-0.5,0.3-1.1,0.6-1.6,0.9c-0.9,0.5-1.2,1.6-0.9,2.6l1.1,2.8c0.4,1,1.4,1.5,2.4,1.2c0.6-0.1,1.2-0.3,1.8-0.5
			c0.7,0.9,1.4,1.6,2.3,2.3c-0.2,0.6-0.3,1.2-0.5,1.8c-0.2,1,0.3,2,1.2,2.4l2.8,1.1c0.3,0.1,0.5,0.2,0.8,0.2c0.7,0,1.4-0.4,1.8-1
			c0.3-0.5,0.6-1.1,0.9-1.6c1.1,0.1,2.2,0.1,3.3,0c0.3,0.5,0.6,1.1,0.9,1.6c0.5,0.9,1.6,1.2,2.6,0.9l2.8-1.1c1-0.4,1.5-1.4,1.2-2.4
			c-0.1-0.6-0.3-1.2-0.5-1.8c0.9-0.7,1.6-1.4,2.3-2.3c0.6,0.2,1.2,0.3,1.8,0.5c1,0.2,2-0.3,2.4-1.2l1.1-2.8
			C53.4,947.7,53,946.5,52.1,946z M49.8,950.4c-0.6-0.1-1.2-0.3-1.7-0.4c-0.8-0.2-1.7,0.1-2.2,0.7c-0.6,0.8-1.3,1.5-2,2
			s-1,1.4-0.7,2.2c0.2,0.6,0.3,1.2,0.4,1.7l-2.6,1.1c-0.3-0.5-0.6-1-0.9-1.5c-0.4-0.7-1.2-1.1-2.1-1c-1,0.1-1.9,0.1-2.9,0
			c-0.8-0.1-1.7,0.3-2.1,1c-0.3,0.5-0.6,1-0.9,1.5l-2.6-1.1c0.1-0.6,0.3-1.1,0.4-1.7c0.2-0.8-0.1-1.7-0.7-2.2c-0.8-0.6-1.5-1.3-2-2
			s-1.4-1-2.2-0.7c-0.6,0.2-1.2,0.3-1.7,0.4l-1.1-2.6c0.5-0.3,1-0.6,1.5-0.9c0.7-0.4,1.1-1.2,1-2.1c-0.1-1-0.1-1.9,0-2.9
			c0.1-0.8-0.3-1.7-1-2.1c-0.5-0.3-1-0.6-1.5-0.9l1.1-2.6c0.6,0.1,1.1,0.3,1.7,0.4c0.8,0.2,1.7-0.1,2.2-0.7c0.6-0.8,1.3-1.5,2-2
			s1-1.4,0.7-2.2c-0.2-0.6-0.3-1.2-0.4-1.7l2.6-1.1c0.3,0.5,0.6,1,0.9,1.5c0.4,0.7,1.2,1.1,2.1,1c1-0.1,1.9-0.1,2.9,0
			c0.8,0.1,1.7-0.3,2.1-1c0.3-0.5,0.6-1,0.9-1.5l2.6,1.1c-0.1,0.6-0.3,1.2-0.4,1.7c-0.2,0.8,0.1,1.7,0.7,2.2c0.8,0.6,1.5,1.3,2,2
			s1.4,1,2.2,0.7c0.6-0.2,1.2-0.3,1.7-0.4l1.1,2.6c-0.5,0.3-1,0.6-1.5,0.9c-0.7,0.4-1.1,1.2-1,2.1c0.1,1,0.1,1.9,0,2.9
			c-0.1,0.8,0.3,1.7,1,2.1c0.5,0.3,1,0.6,1.5,0.9L49.8,950.4z"/>
	</g>
</g>
<g>
	<g>
		<path class="st0" d="M43.6,940.5L43.6,940.5c-1.6-3.9-6.1-5.7-10-4.1c-3.9,1.6-5.7,6.1-4.1,10c0.8,1.9,2.2,3.3,4.1,4.1
			c0.9,0.4,1.9,0.6,2.9,0.6s2-0.2,2.9-0.6C43.4,948.9,45.2,944.4,43.6,940.5z M38.6,948.4c-1.3,0.6-2.8,0.6-4.1,0s-2.4-1.6-2.9-2.9
			c-1.1-2.7,0.2-5.9,2.9-7c0.7-0.3,1.4-0.4,2.1-0.4c2.1,0,4.1,1.3,5,3.3C42.7,944.1,41.4,947.3,38.6,948.4z"/>
	</g>
</g>
<g>
	<g>
		<path class="st0" d="M68.5,919.9c-0.4-0.1-0.8-0.1-1.2-0.2c-0.2-0.7-0.5-1.3-0.8-1.9c0.2-0.3,0.5-0.6,0.7-1
			c0.5-0.7,0.4-1.7-0.2-2.3l-1.5-1.5c-0.6-0.6-1.6-0.7-2.3-0.2c-0.3,0.2-0.6,0.5-1,0.7c-0.6-0.3-1.3-0.6-1.9-0.8
			c-0.1-0.4-0.1-0.8-0.2-1.2c-0.1-0.9-0.9-1.5-1.8-1.5h-2.2c-0.9,0-1.6,0.6-1.8,1.5c-0.1,0.4-0.1,0.8-0.2,1.2
			c-0.7,0.2-1.3,0.5-1.9,0.8c-0.3-0.2-0.6-0.5-1-0.7c-0.7-0.5-1.7-0.4-2.3,0.2l-1.5,1.5c-0.6,0.6-0.7,1.6-0.2,2.3
			c0.2,0.3,0.5,0.6,0.7,1c-0.3,0.6-0.6,1.3-0.8,1.9c-0.4,0.1-0.8,0.1-1.2,0.2c-0.9,0.1-1.5,0.9-1.5,1.8v2.2c0,0.9,0.6,1.6,1.5,1.8
			c0.4,0.1,0.8,0.1,1.2,0.2c0.2,0.7,0.5,1.3,0.8,1.9c-0.2,0.3-0.5,0.6-0.7,1c-0.5,0.7-0.4,1.7,0.2,2.3l1.5,1.5
			c0.6,0.6,1.6,0.7,2.3,0.2c0.3-0.2,0.6-0.5,1-0.7c0.6,0.3,1.3,0.6,1.9,0.8c0.1,0.4,0.1,0.8,0.2,1.2c0.1,0.9,0.9,1.5,1.8,1.5h2.2
			c0.9,0,1.6-0.6,1.8-1.5c0.1-0.4,0.1-0.8,0.2-1.2c0.7-0.2,1.3-0.5,1.9-0.8c0.3,0.2,0.6,0.5,1,0.7c0.7,0.5,1.7,0.4,2.3-0.2l1.5-1.5
			c0.6-0.6,0.7-1.6,0.2-2.3c-0.2-0.3-0.5-0.6-0.7-1c0.3-0.6,0.6-1.3,0.8-1.9c0.4-0.1,0.8-0.1,1.2-0.2c0.9-0.1,1.5-0.9,1.5-1.8v-2.2
			C70,920.7,69.4,920,68.5,919.9z M67.9,923.5c-0.4,0.1-0.7,0.1-1.1,0.1c-0.7,0.1-1.3,0.6-1.5,1.3s-0.4,1.3-0.8,1.9
			c-0.4,0.6-0.3,1.4,0.1,2c0.2,0.3,0.4,0.6,0.7,0.9l-1.1,1.1c-0.3-0.2-0.6-0.4-0.9-0.7c-0.6-0.4-1.3-0.5-2-0.1
			c-0.6,0.3-1.2,0.6-1.9,0.8s-1.2,0.8-1.3,1.5c0,0.4-0.1,0.7-0.1,1.1h-1.6c-0.1-0.4-0.1-0.7-0.1-1.1c-0.1-0.7-0.6-1.3-1.3-1.5
			s-1.3-0.4-1.9-0.8c-0.6-0.4-1.4-0.3-2,0.1c-0.3,0.2-0.6,0.4-0.9,0.7l-1.1-1.1c0.2-0.3,0.4-0.6,0.7-0.9c0.4-0.6,0.5-1.3,0.1-2
			c-0.3-0.6-0.6-1.2-0.8-1.9s-0.8-1.2-1.5-1.3c-0.4,0-0.7-0.1-1.1-0.1v-1.6c0.4-0.1,0.7-0.1,1.1-0.1c0.7-0.1,1.3-0.6,1.5-1.3
			s0.4-1.3,0.8-1.9c0.4-0.6,0.3-1.4-0.1-2c-0.2-0.3-0.4-0.6-0.7-0.9l1.1-1.1c0.3,0.2,0.6,0.4,0.9,0.7c0.6,0.4,1.3,0.5,2,0.1
			c0.6-0.3,1.2-0.6,1.9-0.8s1.2-0.8,1.3-1.5c0-0.4,0.1-0.7,0.1-1.1H58c0.1,0.4,0.1,0.7,0.1,1.1c0.1,0.7,0.6,1.3,1.3,1.5
			s1.3,0.4,1.9,0.8c0.6,0.4,1.4,0.3,2-0.1c0.3-0.2,0.6-0.4,0.9-0.7l1.1,1.1c-0.2,0.3-0.4,0.6-0.7,0.9c-0.4,0.6-0.5,1.3-0.1,2
			c0.3,0.6,0.6,1.2,0.8,1.9c0.2,0.7,0.8,1.2,1.5,1.3c0.4,0,0.7,0.1,1.1,0.1V923.5L67.9,923.5z"/>
	</g>
</g>
<g>
	<g>
		<path class="st0" d="M57.3,918.2c-2.5,0-4.5,2-4.5,4.5s2,4.5,4.5,4.5s4.5-2,4.5-4.5S59.8,918.2,57.3,918.2z M57.3,925.2
			c-1.4,0-2.5-1.1-2.5-2.5s1.1-2.5,2.5-2.5s2.5,1.1,2.5,2.5C59.8,924.1,58.7,925.2,57.3,925.2z"/>
	</g>
</g>
<g>
	<g>
		<path class="st0" d="M42.2,1263.8c-2.5-2.5-5.7-3.8-9.2-3.8s-6.7,1.4-9.2,3.8c-2.5,2.5-3.8,5.7-3.8,9.2s1.4,6.7,3.8,9.2
			c2.5,2.5,5.7,3.8,9.2,3.8s6.7-1.4,9.2-3.8c2.5-2.5,3.8-5.7,3.8-9.2S44.6,1266.3,42.2,1263.8z M33,1284.5
			c-6.3,0-11.5-5.1-11.5-11.5s5.1-11.5,11.5-11.5s11.5,5.1,11.5,11.5S39.3,1284.5,33,1284.5z"/>
	</g>
</g>
<g>
	<g>
		<path class="st0" d="M39.2,1268.8c-0.3-0.3-0.8-0.3-1.1,0l-6.7,6.7l-3.5-3.5c-0.3-0.3-0.8-0.3-1.1,0c-0.3,0.3-0.3,0.8,0,1.1
			l4.1,4.1c0.1,0.1,0.3,0.2,0.5,0.2s0.4-0.1,0.5-0.2l7.3-7.3C39.5,1269.6,39.5,1269.1,39.2,1268.8z"/>
	</g>
</g>
<path class="st1" d="M29.8,1018.7c-0.7,0-1.4,0.2-2,0.5c-3.1-4-4.9-9-4.9-14.2c0-12.7,10.3-23,23-23c1.5,0,3.1,0.2,4.6,0.5
	c0.5,0.1,1-0.2,1.2-0.8c0.1-0.5-0.2-1-0.8-1.2c-1.6-0.3-3.3-0.5-5-0.5c-6.7,0-13,2.6-17.7,7.3s-7.3,11-7.3,17.7
	c0,5.6,1.9,11.1,5.4,15.5c-0.4,0.7-0.7,1.5-0.7,2.3c0,1.1,0.4,2.1,1.2,2.9c0.8,0.8,1.8,1.2,2.9,1.2s2.1-0.4,2.9-1.2
	c0.8-0.8,1.2-1.8,1.2-2.9c0-1.1-0.4-2.1-1.2-2.9C31.9,1019.1,30.9,1018.7,29.8,1018.7z M31.3,1024.3c-0.4,0.4-0.9,0.6-1.5,0.6
	s-1.1-0.2-1.5-0.6s-0.6-0.9-0.6-1.5s0.2-1.1,0.6-1.5s0.9-0.6,1.5-0.6s1.1,0.2,1.5,0.6c0.4,0.4,0.6,0.9,0.6,1.5
	C31.9,1023.3,31.7,1023.9,31.3,1024.3z"/>
<path class="st1" d="M65.6,989.5c1.1-1.6,0.9-3.8-0.5-5.2c-0.8-0.8-1.8-1.2-2.9-1.2s-2.1,0.4-2.9,1.2c-0.8,0.8-1.2,1.8-1.2,2.9
	s0.4,2.1,1.2,2.9s1.8,1.2,2.9,1.2c0.7,0,1.4-0.2,2-0.5c3.1,4,4.9,9,4.9,14.2c0,12.7-10.3,23-23,23c-1.5,0-3.1-0.2-4.5-0.4
	c-0.5-0.1-1,0.2-1.1,0.8c-0.1,0.5,0.2,1,0.8,1.1c1.6,0.3,3.3,0.5,4.9,0.5c6.7,0,13-2.6,17.7-7.3s7.3-11,7.3-17.7
	C71,999.4,69.1,993.9,65.6,989.5z M60.7,988.8c-0.4-0.4-0.6-0.9-0.6-1.5s0.2-1.1,0.6-1.5c0.4-0.4,0.9-0.6,1.5-0.6s1.1,0.2,1.5,0.6
	c0.8,0.8,0.8,2.2,0,3c-0.4,0.4-0.9,0.6-1.5,0.6C61.6,989.4,61.1,989.2,60.7,988.8z"/>
<path class="st1" d="M42,1021.8c0,0.5,0.4,1,1,1h6.1c0.5,0,1-0.4,1-1v-1.9c1.3-0.3,2.5-0.9,3.7-1.5l1.3,1.3c0.2,0.2,0.4,0.3,0.7,0.3
	s0.5-0.1,0.7-0.3l4.3-4.3c0.4-0.4,0.4-1,0-1.4l-1.3-1.3c0.7-1.2,1.2-2.4,1.5-3.7h1.9c0.5,0,1-0.4,1-1v-6.1c0-0.5-0.4-1-1-1H61
	c-0.3-1.3-0.9-2.5-1.5-3.7l1.3-1.3c0.2-0.2,0.3-0.4,0.3-0.7s-0.1-0.5-0.3-0.7l-4.3-4.3c-0.4-0.4-1-0.4-1.4,0l-1.3,1.3
	c-1.2-0.7-2.4-1.2-3.7-1.5v-1.9c0-0.5-0.4-1-1-1H43c-0.5,0-1,0.4-1,1v1.9c-1.3,0.3-2.5,0.9-3.7,1.5l-1.3-1.3c-0.4-0.4-1-0.4-1.4,0
	l-4.3,4.3c-0.2,0.2-0.3,0.4-0.3,0.7s0.1,0.5,0.3,0.7l1.3,1.3c-0.7,1.2-1.2,2.4-1.5,3.7h-1.9c-0.5,0-1,0.4-1,1v6.1
	c0,0.3,0.1,0.5,0.3,0.7s0.4,0.3,0.7,0.3h1.9c0.3,1.3,0.9,2.5,1.5,3.7l-1.3,1.3c-0.4,0.4-0.4,1,0,1.4l4.3,4.3
	c0.2,0.2,0.4,0.3,0.7,0.3l0,0c0.3,0,0.5-0.1,0.7-0.3l1.3-1.3c1.2,0.7,2.4,1.2,3.7,1.5V1021.8z M38.7,1016.3
	c-0.4-0.2-0.9-0.2-1.2,0.1l-1.2,1.2l-2.9-2.9l1.2-1.2c0.3-0.3,0.4-0.8,0.1-1.2c-0.9-1.4-1.5-2.9-1.8-4.5c-0.1-0.4-0.5-0.8-1-0.8
	h-1.7v-4.2h1.7c0.5,0,0.9-0.3,1-0.8c0.3-1.6,1-3.1,1.8-4.5c0.2-0.4,0.2-0.9-0.1-1.2l-1.2-1.2l2.9-2.9l1.2,1.2
	c0.3,0.3,0.8,0.4,1.2,0.1c1.4-0.9,2.9-1.5,4.5-1.8c0.4-0.1,0.8-0.5,0.8-1V989h4.2v1.7c0,0.5,0.3,0.9,0.8,1c1.6,0.3,3.1,1,4.5,1.8
	c0.4,0.2,0.9,0.2,1.2-0.1l1.2-1.2l2.9,2.9l-1.2,1.2c-0.3,0.3-0.4,0.8-0.1,1.2c0.9,1.4,1.5,2.9,1.8,4.5c0.1,0.5,0.5,0.8,1,0.8H62v4.2
	h-1.7c-0.5,0-0.9,0.3-1,0.8c-0.3,1.6-1,3.1-1.8,4.5c-0.2,0.4-0.2,0.9,0.1,1.2l1.2,1.2l-2.9,2.9l-1.2-1.2c-0.3-0.3-0.8-0.4-1.2-0.1
	c-1.4,0.9-2.9,1.5-4.5,1.8c-0.5,0.1-0.8,0.5-0.8,1v1.7H44v-1.7c0-0.5-0.3-0.9-0.8-1C41.6,1017.8,40.1,1017.2,38.7,1016.3z"/>
<path class="st1" d="M54.1,1005c0-4.4-3.6-8.1-8.1-8.1s-8.1,3.6-8.1,8.1s3.6,8.1,8.1,8.1S54.1,1009.4,54.1,1005z M39.9,1005
	c0-3.4,2.7-6.1,6.1-6.1s6.1,2.7,6.1,6.1s-2.7,6.1-6.1,6.1S39.9,1008.4,39.9,1005z"/>
<path class="st1" d="M55,983.7c0.3,0,0.5-0.1,0.7-0.3s0.3-0.4,0.3-0.7s-0.1-0.5-0.3-0.7s-0.4-0.3-0.7-0.3s-0.5,0.1-0.7,0.3
	s-0.3,0.4-0.3,0.7s0.1,0.5,0.3,0.7C54.5,983.6,54.7,983.7,55,983.7z"/>
<path class="st1" d="M37.1,1026.3c-0.3,0-0.5,0.1-0.7,0.3c-0.2,0.2-0.3,0.4-0.3,0.7c0,0.3,0.1,0.5,0.3,0.7s0.4,0.3,0.7,0.3
	s0.5-0.1,0.7-0.3c0.2-0.2,0.3-0.4,0.3-0.7c0-0.3-0.1-0.5-0.3-0.7C37.6,1026.4,37.3,1026.3,37.1,1026.3z"/>
<g>
	<g>
		<path class="st1" d="M55.5,1084.1c-0.4-0.4-1-0.4-1.4,0s-0.4,1,0,1.4s1,0.4,1.4,0C55.8,1085.1,55.8,1084.5,55.5,1084.1z"/>
	</g>
</g>
<g>
	<g>
		<path class="st1" d="M35.9,1064.5c-0.4-0.4-1-0.4-1.4,0s-0.4,1,0,1.4s1,0.4,1.4,0C36.3,1065.5,36.3,1064.9,35.9,1064.5z"/>
	</g>
</g>
<g>
	<g>
		<path class="st1" d="M67.1,1070.1h-4.2c-0.4-1.5-1-2.9-1.8-4.3l2.5-2.5c0.6-0.6,0.9-1.3,0.9-2.1c0-0.8-0.3-1.5-0.9-2.1l-2.8-2.8
			c-0.6-0.6-1.3-0.9-2.1-0.9s-1.5,0.3-2.1,0.9l-2.5,2.5c-1.4-0.8-2.8-1.4-4.3-1.8v-4.2c0-1.6-1.3-2.9-2.9-2.9H43
			c-1.6,0-2.9,1.3-2.9,2.9v4.2c-1.5,0.4-2.9,1-4.3,1.8l-2.5-2.6c-1.1-1.1-3-1.1-4.1,0l-2.8,2.8c-1.1,1.1-1.1,3,0,4.1l2.5,2.5
			c-0.8,1.4-1.4,2.8-1.8,4.3h-4.2c-1.6,0-2.9,1.3-2.9,2.9v3.9c0,1.6,1.3,2.9,2.9,2.9h4.2c0.4,1.5,1,2.9,1.8,4.3l-2.5,2.5
			c-1.1,1.1-1.1,3,0,4.1l2.8,2.8c1.1,1.1,3,1.1,4.1,0l2.5-2.6c1.4,0.8,2.8,1.4,4.3,1.8v4.2c0,1.6,1.3,2.9,2.9,2.9h4
			c1.6,0,2.9-1.3,2.9-2.9v-4.2c1.5-0.4,2.9-1,4.3-1.8l2.5,2.6c0.6,0.6,1.3,0.9,2.1,0.9s1.5-0.3,2.1-0.9l2.8-2.8
			c0.6-0.6,0.9-1.3,0.9-2.1c0-0.8-0.3-1.5-0.9-2.1l-2.5-2.5c0.8-1.4,1.4-2.8,1.8-4.3h4.2c1.6,0,2.9-1.3,2.9-2.9v-3.9
			C70,1071.4,68.7,1070.1,67.1,1070.1z M68,1077c0,0.5-0.4,1-1,1h-4.9c-0.5,0-0.9,0.3-1,0.8c-0.4,1.8-1.1,3.5-2.1,5.1
			c-0.2,0.4-0.2,0.9,0.1,1.2l3.1,3.1c0.2,0.2,0.3,0.4,0.3,0.7s-0.1,0.5-0.3,0.7l-2.8,2.8c-0.2,0.2-0.4,0.3-0.7,0.3s-0.5-0.1-0.7-0.3
			l-3.1-3.1c-0.3-0.3-0.8-0.4-1.2-0.1c-1.6,1-3.3,1.7-5.1,2.1c-0.4,0.1-0.8,0.5-0.8,1v4.9c0,0.5-0.4,1-1,1H43c-0.5,0-1-0.4-1-1v-4.9
			c0-0.5-0.3-0.9-0.8-1c-1.8-0.4-3.5-1.1-5.1-2.1c-0.2-0.1-0.3-0.2-0.5-0.2c-0.3,0-0.5,0.1-0.7,0.3l-3.1,3.1c-0.4,0.4-1,0.4-1.4,0
			l-2.8-2.8c-0.4-0.4-0.4-1,0-1.4l3.1-3.1c0.3-0.3,0.4-0.8,0.1-1.2c-1-1.6-1.7-3.3-2.1-5.1c-0.1-0.4-0.5-0.8-1-0.8h-4.9
			c-0.5,0-1-0.4-1-1v-3.9c0-0.5,0.4-1,1-1h4.9c0.5,0,0.9-0.3,1-0.8c0.4-1.8,1.1-3.5,2.1-5.1c0.2-0.4,0.2-0.9-0.1-1.2l-3.1-3.1
			c-0.4-0.4-0.4-1,0-1.4l2.8-2.8c0.4-0.4,1-0.4,1.4,0l3.1,3.1c0.3,0.3,0.8,0.4,1.2,0.1c1.6-1,3.3-1.7,5.1-2.1c0.4-0.1,0.8-0.5,0.8-1
			v-4.9c0-0.5,0.4-1,1-1h4c0.5,0,1,0.4,1,1v4.9c0,0.5,0.3,0.9,0.8,1c1.8,0.4,3.5,1.1,5.1,2.1c0.4,0.2,0.9,0.2,1.2-0.1l3.1-3.1
			c0.2-0.2,0.4-0.3,0.7-0.3s0.5,0.1,0.7,0.3l2.8,2.8c0.2,0.2,0.3,0.4,0.3,0.7s-0.1,0.5-0.3,0.7l-3.1,3.1c-0.3,0.3-0.4,0.8-0.1,1.2
			c1,1.6,1.7,3.3,2.1,5.1c0.1,0.4,0.5,0.8,1,0.8h4.9c0.5,0,1,0.4,1,1v3.9H68z"/>
	</g>
</g>
<g>
	<g>
		<path class="st1" d="M49.6,1072.4c-0.4-0.4-1-0.4-1.4,0l-4.2,4.2l-2.2-2.2c-0.4-0.4-1-0.4-1.4,0s-0.4,1,0,1.4l2.9,2.9
			c0.2,0.2,0.4,0.3,0.7,0.3s0.5-0.1,0.7-0.3l4.9-4.9C50,1073.4,50,1072.7,49.6,1072.4z"/>
	</g>
</g>
<g>
	<g>
		<path class="st1" d="M45,1064.3c-5.9,0-10.7,4.8-10.7,10.7s4.8,10.7,10.7,10.7s10.7-4.8,10.7-10.7S50.9,1064.3,45,1064.3z
			 M45,1083.8c-4.8,0-8.8-3.9-8.8-8.8s3.9-8.8,8.8-8.8s8.8,3.9,8.8,8.8S49.8,1083.8,45,1083.8z"/>
	</g>
</g>
<g>
	<g>
		<path class="st1" d="M45,1060.4c-0.5,0-1,0.4-1,1s0.4,1,1,1c7,0,12.7,5.7,12.7,12.7c0,2.1-0.5,4.2-1.6,6.1
			c-0.3,0.5-0.1,1.1,0.4,1.3c0.1,0.1,0.3,0.1,0.5,0.1c0.3,0,0.7-0.2,0.9-0.5c1.2-2.1,1.8-4.6,1.8-7
			C59.6,1066.9,53.1,1060.4,45,1060.4z"/>
	</g>
</g>
<g>
	<g>
		<path class="st1" d="M45,1087.7c-7,0-12.7-5.7-12.7-12.7c0-2.1,0.5-4.2,1.6-6.1c0.3-0.5,0.1-1.1-0.4-1.3c-0.5-0.3-1.1-0.1-1.3,0.4
			c-1.2,2.1-1.8,4.6-1.8,7c0,8.1,6.6,14.6,14.6,14.6c0.5,0,1-0.4,1-1S45.5,1087.7,45,1087.7z"/>
	</g>
</g>
<path class="st1" d="M36.1,1151.5c1.4-1.4,1.4-3.8,0-5.3c-0.7-0.7-1.6-1.1-2.6-1.1c-0.6,0-1.1,0.1-1.6,0.4c-1.8-2.5-2.7-5.5-2.7-8.6
	c0-7.9,6.2-14.5,14.1-15c0.5,0,1-0.5,0.9-1c0-0.5-0.5-0.9-1-0.9c-9,0.5-16,8-16,16.9c0,3.6,1.1,7,3.2,9.9c-0.9,1.4-0.8,3.4,0.5,4.7
	c0.7,0.7,1.6,1.1,2.6,1.1S35.4,1152.2,36.1,1151.5z M32.2,1147.6c0.3-0.3,0.8-0.5,1.2-0.5c0.5,0,0.9,0.2,1.2,0.5
	c0.7,0.7,0.7,1.8,0,2.5s-1.8,0.7-2.5,0C31.5,1149.4,31.5,1148.3,32.2,1147.6z"/>
<path class="st1" d="M59.2,1153.9c-0.6,0-1.2,0.2-1.7,0.4c-0.4-1.4-1.8-2.4-3.3-2.4c-1,0-1.9,0.4-2.5,1.1c-0.2-0.2-0.4-0.3-0.6-0.5
	c2.3-1,4.3-2.5,5.9-4.4c2.7-3.1,4.1-7,4.1-11.1c0-3.6-1.1-7-3.2-9.9c0.9-1.4,0.8-3.4-0.5-4.7c-1.4-1.4-3.8-1.4-5.3,0
	c-1.4,1.4-1.4,3.8,0,5.3c0.7,0.7,1.7,1.1,2.6,1.1c0.6,0,1.1-0.1,1.6-0.4c1.8,2.5,2.7,5.5,2.7,8.6c0,7.1-4.8,13-11.6,14.6v-5.3
	c3.9-1.4,6.5-5.2,6.5-9.4c0-5.5-4.5-10-10-10s-10,4.5-10,10c0,2.2,0.7,4.2,2,6c1.1,1.5,2.7,2.7,4.5,3.4v14.4l-1.2-2
	c-1-1.7-3.2-2.2-4.9-1.3c-1.6,0.9-2.3,3-1.4,4.7l3.6,7.4c0.2,0.3,0.5,0.5,0.9,0.5c0.1,0,0.3,0,0.4-0.1c0.5-0.2,0.7-0.8,0.4-1.3
	l-3.6-7.4c-0.4-0.8-0.1-1.7,0.7-2.2c0.8-0.4,1.8-0.2,2.3,0.6l3,5c0.2,0.4,0.7,0.6,1.1,0.4c0.4-0.1,0.7-0.5,0.7-0.9v-22.4
	c0-0.8,0.7-1.5,1.5-1.5s1.5,0.7,1.5,1.5v3.9l0,0v14.7c0,0.5,0.4,1,1,1s1-0.4,1-1v-4.9c0-0.8,0.7-1.5,1.5-1.5s1.5,0.7,1.5,1.5v5.3
	c0,0.5,0.4,1,1,1c0.5,0,1-0.4,1-1v-5.3c0-0.8,0.7-1.5,1.5-1.5s1.5,0.7,1.5,1.5v5.3c0,0.5,0.4,1,1,1s1-0.4,1-1v-3.3
	c0-0.8,0.7-1.5,1.5-1.5s1.5,0.7,1.5,1.5v11.7c0,0.5,0.4,1,1,1s1-0.4,1-1v-11.7C62.7,1155.4,61.1,1153.9,59.2,1153.9z M53.6,1126.3
	c-0.7-0.7-0.7-1.8,0-2.5c0.3-0.3,0.8-0.5,1.2-0.5s0.9,0.2,1.2,0.5c0.7,0.7,0.7,1.8,0,2.5C55.4,1127,54.3,1127,53.6,1126.3z
	 M36.1,1136.9c0-4.4,3.6-8,8-8s8,3.6,8,8c0,3.1-1.8,5.9-4.6,7.2v-2.5c0-0.5-0.1-1.1-0.4-1.5c0.9-0.8,1.4-2,1.4-3.2
	c0-2.5-2-4.5-4.5-4.5s-4.5,2-4.5,4.5c0,1.2,0.5,2.3,1.3,3.2c-0.2,0.5-0.4,1-0.4,1.6v2.4C37.9,1142.8,36.1,1140.1,36.1,1136.9z
	 M42.3,1138.7c-0.5-0.5-0.7-1.1-0.7-1.7c0-1.4,1.1-2.5,2.5-2.5s2.5,1.1,2.5,2.5c0,0.7-0.3,1.3-0.7,1.8c-0.5-0.3-1.2-0.5-1.8-0.5
	C43.4,1138.2,42.8,1138.4,42.3,1138.7z"/>
<path class="st1" d="M47.6,1122.3c0.3,0,0.5-0.1,0.7-0.3c0.2-0.2,0.3-0.4,0.3-0.7c0-0.3-0.1-0.5-0.3-0.7s-0.4-0.3-0.7-0.3
	s-0.5,0.1-0.7,0.3c-0.2,0.2-0.3,0.4-0.3,0.7c0,0.3,0.1,0.5,0.3,0.7S47.3,1122.3,47.6,1122.3z"/>
<g>
	<g>
		<path class="st1" d="M65,1216.2c0.4-0.7,0.7-1.4,0.7-2.3v-0.8c0-2.3-1.8-4.1-4.1-4.1c-1.1,0-2.2,0.5-2.9,1.2
			c-1.9-5.7-7.3-9.9-13.7-9.9s-11.8,4.1-13.7,9.9c-0.7-0.7-1.8-1.2-2.9-1.2c-2.3,0-4.1,1.8-4.1,4.1v0.8c0,0.8,0.3,1.6,0.7,2.3
			c-2.8,0.6-5,3.1-5,6.1v2c0,0.5,0.4,1,1,1h5.1c0.5,0,1-0.4,1-1s-0.4-1-1-1H22v-1c0-2.4,1.9-4.3,4.3-4.3h4.6c0.4,1.6,1,3.2,1.9,4.6
			l-11.1,11.1c-1.4,1.4-1.4,3.7,0,5.2c0.7,0.7,1.7,1.1,2.6,1.1s1.9-0.4,2.6-1.1l6.1-6.1c0.4-0.4,0.4-1,0-1.4s-1-0.4-1.4,0l-6.1,6.1
			c-0.7,0.7-1.7,0.7-2.4,0c-0.7-0.7-0.7-1.7,0-2.4l10.9-10.9c2.7,3.1,6.6,5.1,11,5.1c6.9,0,12.6-4.8,14.1-11.2h4.6
			c2.4,0,4.3,1.9,4.3,4.3v1h-9.2c-0.5,0-1,0.4-1,1s0.4,1,1,1H69c0.5,0,1-0.4,1-1v-2C70,1219.3,67.9,1216.8,65,1216.2z M30.6,1213.9
			c0,1.2-1,2.2-2.2,2.2s-2.2-1-2.2-2.2v-0.8c0-1.2,1-2.2,2.2-2.2s2.2,1,2.2,2.2V1213.9z M45,1227.3c-6.9,0-12.5-5.6-12.5-12.5
			s5.6-12.5,12.5-12.5s12.5,5.6,12.5,12.5S51.9,1227.3,45,1227.3z M63.8,1213.9c0,1.2-1,2.2-2.2,2.2s-2.2-1-2.2-2.2v-0.8
			c0-1.2,1-2.2,2.2-2.2s2.2,1,2.2,2.2V1213.9z"/>
	</g>
</g>
<g>
	<g>
		<path class="st1" d="M45,1204.3c-5.8,0-10.5,4.7-10.5,10.5c0,3,1.3,5.7,3.3,7.7l0.1,0.1c1.9,1.7,4.4,2.8,7.1,2.8s5.2-1.1,7.1-2.8
			l0.1-0.1c2-1.9,3.3-4.7,3.3-7.7C55.5,1209,50.8,1204.3,45,1204.3z M45,1223.4c-2,0-3.9-0.7-5.3-1.9c1-2,3.1-3.2,5.3-3.2
			s4.3,1.2,5.3,3.2C48.9,1222.7,47,1223.4,45,1223.4z M42.9,1214.4v-0.8c0-1.1,0.9-2.1,2.1-2.1s2.1,0.9,2.1,2.1v0.8
			c0,1.1-0.9,2.1-2.1,2.1S42.9,1215.5,42.9,1214.4z M51.8,1220.1c-0.9-1.4-2.2-2.5-3.7-3.1c0.6-0.7,1-1.6,1-2.6v-0.8
			c0-2.2-1.8-4-4-4s-4,1.8-4,4v0.8c0,1,0.4,1.9,1,2.6c-1.5,0.6-2.8,1.7-3.7,3.1c-1.2-1.5-1.8-3.3-1.8-5.3c0-4.7,3.9-8.6,8.6-8.6
			s8.6,3.9,8.6,8.6C53.6,1216.8,52.9,1218.7,51.8,1220.1z"/>
	</g>
</g>
<g>
	<g>
		<path class="st1" d="M35.6,1228.8c-0.2-0.2-0.4-0.3-0.7-0.3s-0.5,0.1-0.7,0.3c-0.2,0.2-0.3,0.4-0.3,0.7s0.1,0.5,0.3,0.7
			s0.4,0.3,0.7,0.3s0.5-0.1,0.7-0.3c0.2-0.2,0.3-0.4,0.3-0.7S35.8,1229,35.6,1228.8z"/>
	</g>
</g>
<g>
	<g>
		<path class="st1" d="M45,1190c-0.5,0-1,0.4-1,1v3.3c0,0.5,0.4,1,1,1s1-0.4,1-1v-3.3C46,1190.4,45.6,1190,45,1190z"/>
	</g>
</g>
<g>
	<g>
		<path class="st1" d="M45.7,1196.8c-0.2-0.2-0.4-0.3-0.7-0.3s-0.5,0.1-0.7,0.3c-0.2,0.2-0.3,0.4-0.3,0.7s0.1,0.5,0.3,0.7
			s0.4,0.3,0.7,0.3s0.5-0.1,0.7-0.3c0.2-0.2,0.3-0.4,0.3-0.7S45.9,1197,45.7,1196.8z"/>
	</g>
</g>
<g>
	<g>
		<path class="st1" d="M53.3,1193.8c-0.4-0.4-1-0.4-1.4,0l-1.7,1.7c-0.4,0.4-0.4,1,0,1.4c0.2,0.2,0.4,0.3,0.7,0.3s0.5-0.1,0.7-0.3
			l1.7-1.7C53.7,1194.8,53.7,1194.2,53.3,1193.8z"/>
	</g>
</g>
<g>
	<g>
		<path class="st1" d="M39.8,1195.6l-1.7-1.7c-0.4-0.4-1-0.4-1.4,0s-0.4,1,0,1.4l1.7,1.7c0.2,0.2,0.4,0.3,0.7,0.3
			c0.2,0,0.5-0.1,0.7-0.3C40.2,1196.6,40.2,1195.9,39.8,1195.6z"/>
	</g>
</g>
<g>
	<path class="st0" d="M70.5,1317.9h-7.4v-4.4c0-0.8-0.7-1.5-1.5-1.5H32.4c-0.8,0-1.5,0.7-1.5,1.5v4.4h-7.4c-0.8,0-1.5,0.7-1.5,1.5
		v32.2c0,0.8,0.7,1.5,1.5,1.5h16.2v6.1h-4.4c-0.8,0-1.5,0.7-1.5,1.5s0.7,1.5,1.5,1.5h23.4c0.8,0,1.5-0.7,1.5-1.5s-0.7-1.5-1.5-1.5
		h-4.4v-6.1h16.2c0.8,0,1.5-0.7,1.5-1.5v-32.2C72,1318.5,71.3,1317.9,70.5,1317.9z M69.1,1320.8v23.4h-6v-23.4H69.1z M33.8,1314.9
		h26.4v29.3H33.8V1314.9z M30.9,1320.8v23.4h-6v-23.4H30.9z M51.4,1359.1h-8.8v-6.1h8.8V1359.1z M24.9,1350.1v-2.9h44.1v2.9H24.9z"
		/>
	<path class="st0" d="M40.1,1324.8c0.3,0.3,0.7,0.4,1,0.4s0.7-0.1,1-0.4l4.4-4.4c0.6-0.6,0.6-1.5,0-2.1c-0.6-0.6-1.5-0.6-2.1,0
		l-3.4,3.4l-1.9-1.9c-0.6-0.6-1.5-0.6-2.1,0c-0.6,0.6-0.6,1.5,0,2.1L40.1,1324.8z"/>
	<path class="st0" d="M40.1,1333.5c0.3,0.3,0.7,0.4,1,0.4s0.7-0.1,1-0.4l4.4-4.4c0.6-0.6,0.6-1.5,0-2.1c-0.6-0.6-1.5-0.6-2.1,0
		l-3.4,3.4l-1.9-1.9c-0.6-0.6-1.5-0.6-2.1,0c-0.6,0.6-0.6,1.5,0,2.1L40.1,1333.5z"/>
	<path class="st0" d="M40.1,1342.3c0.3,0.3,0.7,0.4,1,0.4s0.7-0.1,1-0.4l4.4-4.4c0.6-0.6,0.6-1.5,0-2.1c-0.6-0.6-1.5-0.6-2.1,0
		l-3.4,3.4l-1.9-1.9c-0.6-0.6-1.5-0.6-2.1,0c-0.6,0.6-0.6,1.5,0,2.1L40.1,1342.3z"/>
	<path class="st0" d="M49.9,1323.7h5.9c0.8,0,1.5-0.7,1.5-1.5s-0.7-1.5-1.5-1.5h-5.9c-0.8,0-1.5,0.7-1.5,1.5
		S49.1,1323.7,49.9,1323.7z"/>
	<path class="st0" d="M49.9,1332.5h5.9c0.8,0,1.5-0.7,1.5-1.5s-0.7-1.5-1.5-1.5h-5.9c-0.8,0-1.5,0.7-1.5,1.5
		S49.1,1332.5,49.9,1332.5z"/>
	<path class="st0" d="M49.9,1341.3h5.9c0.8,0,1.5-0.7,1.5-1.5s-0.7-1.5-1.5-1.5h-5.9c-0.8,0-1.5,0.7-1.5,1.5
		S49.1,1341.3,49.9,1341.3z"/>
</g>
<path class="st0" d="M63.1,1380.4c0,0.8-0.7,1.5-1.5,1.5s-1.5-0.7-1.5-1.5s0.7-1.5,1.5-1.5S63.1,1379.6,63.1,1380.4z"/>
<path class="st0" d="M57.3,1380.4c0,0.8-0.7,1.5-1.5,1.5s-1.5-0.7-1.5-1.5s0.7-1.5,1.5-1.5S57.3,1379.6,57.3,1380.4z"/>
<path class="st0" d="M51.4,1380.4c0,0.8-0.7,1.5-1.5,1.5s-1.5-0.7-1.5-1.5s0.7-1.5,1.5-1.5S51.4,1379.6,51.4,1380.4z"/>
<path class="st0" d="M69.1,1412.2v-33.9c0-3-2.4-5.4-5.4-5.4H27.4c-3,0-5.4,2.4-5.4,5.4v36.3c0,3,2.4,5.4,5.4,5.4h12.3
	c0,0.5-0.1,1-0.1,1.5c0,0.8,0.7,1.5,1.5,1.5h29.4c0.8,0,1.5-0.7,1.5-1.5C72,1418.1,70.9,1414.9,69.1,1412.2z M27.4,1375.9h36.3
	c1.3,0,2.4,1.1,2.4,2.4v6.4H24.9v-6.4C24.9,1377,26,1375.9,27.4,1375.9z M27.4,1417.1c-1.3,0-2.4-1.1-2.4-2.4v-27h41.2v21.3
	c-9-7.5-22.7-3.2-25.9,8.1H27.4z M57.8,1420.1l2.1-6.5c0.3-0.8-0.2-1.6-0.9-1.8c-0.8-0.3-1.6,0.2-1.8,0.9l-2.4,7.4H42.7
	c0.7-6.6,6.4-11.8,13.2-11.8c6.8,0,12.4,5.2,13.2,11.8H57.8z"/>
<path class="st0" d="M29.4,1399.5h32.3c0.8,0,1.5-0.7,1.5-1.5v-5.9c0-0.8-0.7-1.5-1.5-1.5H29.4c-0.8,0-1.5,0.7-1.5,1.5v5.9
	C28,1398.8,28.6,1399.5,29.4,1399.5z M30.9,1393.6h29.4v2.9H30.9V1393.6z"/>
<path class="st0" d="M29.4,1405.4h16.1c0.8,0,1.5-0.7,1.5-1.5s-0.7-1.5-1.5-1.5H29.4c-0.8,0-1.5,0.7-1.5,1.5
	S28.6,1405.4,29.4,1405.4z"/>
<path class="st0" d="M39.7,1408.3H29.4c-0.8,0-1.5,0.7-1.5,1.5s0.7,1.5,1.5,1.5h10.3c0.8,0,1.5-0.7,1.5-1.5S40.5,1408.3,39.7,1408.3
	z"/>
<g>
	<g>
		<path class="st0" d="M59.9,1445.3l-8.8-8.9c-0.3-0.3-0.7-0.4-1-0.4H23.5c-0.8,0-1.5,0.7-1.5,1.5v47.1c0,0.8,0.7,1.5,1.5,1.5h35.4
			c0.8,0,1.5-0.7,1.5-1.5v-38.2C60.3,1446,60.1,1445.6,59.9,1445.3z M51.5,1441l3.8,3.9h-3.8V1441z M57.4,1483.1H24.9v-44.1h23.6
			v7.4c0,0.8,0.7,1.5,1.5,1.5h7.3V1483.1z"/>
	</g>
</g>
<g>
	<g>
		<path class="st0" d="M53,1450.7h-9c-0.8,0-1.5,0.7-1.5,1.5s0.7,1.5,1.5,1.5h9c0.8,0,1.5-0.7,1.5-1.5S53.8,1450.7,53,1450.7z"/>
	</g>
</g>
<g>
	<g>
		<path class="st0" d="M53,1462.5h-9c-0.8,0-1.5,0.7-1.5,1.5s0.7,1.5,1.5,1.5h9c0.8,0,1.5-0.7,1.5-1.5S53.8,1462.5,53,1462.5z"/>
	</g>
</g>
<g>
	<g>
		<path class="st0" d="M53,1474.2h-9c-0.8,0-1.5,0.7-1.5,1.5s0.7,1.5,1.5,1.5h9c0.8,0,1.5-0.7,1.5-1.5S53.8,1474.2,53,1474.2z"/>
	</g>
</g>
<g>
	<g>
		<path class="st0" d="M39.1,1445.3c-0.6-0.6-1.5-0.6-2.1,0l-4.8,4.8l-1.9-1.9c-0.6-0.6-1.5-0.6-2.1,0c-0.6,0.6-0.6,1.5,0,2.1
			l2.9,2.9c0.6,0.6,1.5,0.6,2.1,0l5.9-5.9C39.7,1446.8,39.7,1445.9,39.1,1445.3z"/>
	</g>
</g>
<g>
	<g>
		<path class="st0" d="M39.1,1457c-0.6-0.6-1.5-0.6-2.1,0l-4.8,4.8l-1.9-1.9c-0.6-0.6-1.5-0.6-2.1,0c-0.6,0.6-0.6,1.5,0,2.1l2.9,2.9
			c0.6,0.6,1.5,0.6,2.1,0l5.9-5.9C39.7,1458.5,39.7,1457.6,39.1,1457z"/>
	</g>
</g>
<g>
	<g>
		<path class="st0" d="M39.1,1468.8c-0.6-0.6-1.5-0.6-2.1,0l-4.8,4.8l-1.9-1.9c-0.6-0.6-1.5-0.6-2.1,0c-0.6,0.6-0.6,1.5,0,2.1
			l2.9,2.9c0.6,0.6,1.5,0.6,2.1,0l5.9-5.9C39.7,1470.3,39.7,1469.3,39.1,1468.8z"/>
	</g>
</g>
<g>
	<g>
		<path class="st0" d="M67.6,1444.9c-2.4,0-4.4,2-4.4,4.4c0,1,0,25.2,0,26.4c0,0.2,0.1,0.5,0.2,0.7l2.9,5.9c0.2,0.5,0.8,0.8,1.3,0.8
			s1.1-0.3,1.3-0.8l2.9-5.9c0.1-0.2,0.2-0.4,0.2-0.7c0-0.9,0-25.3,0-26.4C72,1446.9,70,1444.9,67.6,1444.9z M69.1,1475.3l-1.5,2.9
			l-1.5-2.9v-1.1h2.9V1475.3z M69.1,1471.3h-2.9v-11.7h2.9V1471.3z M69.1,1456.6h-2.9v-2.9h2.9V1456.6z M69.1,1450.7h-2.9v-1.5
			c0-0.8,0.7-1.5,1.5-1.5s1.5,0.7,1.5,1.5V1450.7z"/>
	</g>
</g>
<path class="st0" d="M44.5,1518.1c0,0.8-0.7,1.5-1.5,1.5s-1.5-0.7-1.5-1.5s0.7-1.5,1.5-1.5S44.5,1517.3,44.5,1518.1z"/>
<path class="st0" d="M50.4,1518.1c0,0.8-0.7,1.5-1.5,1.5s-1.5-0.7-1.5-1.5s0.7-1.5,1.5-1.5S50.4,1517.3,50.4,1518.1z"/>
<path class="st0" d="M56.3,1518.1c0,0.8-0.7,1.5-1.5,1.5s-1.5-0.7-1.5-1.5s0.7-1.5,1.5-1.5S56.3,1517.3,56.3,1518.1z"/>
<path class="st0" d="M66.4,1535.9l4.1-4.1c0.6-0.6,0.6-1.5,0-2.1l-3.1-3.1l1-1c0.4-0.4,0.5-0.9,0.4-1.5c-0.2-0.5-0.6-0.9-1.1-1
	l-5.6-1.1v-9.8c0-0.8-0.7-1.5-1.5-1.5h-9.2c-2.7-5.4-8.3-8.8-14.4-8.8c-8.9,0-16.1,7.2-16.1,16.1s7.2,16.1,16.1,16.1
	c6.1,0,11.6-3.4,14.4-8.8h4.7l1.5,7.7c0.1,0.5,0.5,1,1,1.1c0.5,0.2,1.1,0,1.5-0.4l1-1l3.1,3.1C64.9,1536.5,65.9,1536.5,66.4,1535.9z
	 M59.2,1521.4l-1.8-0.4c-0.5-0.1-1,0.1-1.3,0.4c-0.3,0.3-0.4,0.7-0.4,1c-2,0-15.2,0-17,0v-8.8h20.5V1521.4z M37.1,1531.3
	c-0.9,0-2-1.3-2.8-3.4c-0.9-2.3-1.5-5.2-1.6-8.3h3v4.4c0,0.8,0.7,1.5,1.5,1.5h3.5C39.7,1529.2,38.2,1531.3,37.1,1531.3z
	 M37.1,1504.9c1.1,0,2.6,2,3.6,5.9h-3.5c-0.8,0-1.5,0.7-1.5,1.5v4.4h-3c0.1-3.2,0.7-6.1,1.6-8.3
	C35.1,1506.2,36.2,1504.9,37.1,1504.9z M48.1,1510.7h-4.4c-0.4-1.9-1-3.6-1.7-4.9C44.5,1506.8,46.6,1508.5,48.1,1510.7z
	 M32.2,1505.8c-0.2,0.4-0.4,0.9-0.6,1.3c-1,2.6-1.7,5.9-1.8,9.4H24C24.6,1511.7,27.8,1507.6,32.2,1505.8z M24,1519.5h5.8
	c0.1,3.5,0.8,6.9,1.8,9.4c0.2,0.5,0.4,0.9,0.6,1.3C27.8,1528.5,24.6,1524.4,24,1519.5z M42,1530.3c0.7-1.3,1.3-3,1.7-4.9h4.4
	C46.6,1527.6,44.5,1529.3,42,1530.3z M61.2,1529.3c-0.4,0-0.7,0.1-1,0.4l-0.1,0.1l-1.1-5.5c1.4,0.3,4.1,0.8,5.5,1.1l-0.1,0.1
	c-0.6,0.6-0.6,1.5,0,2.1l3.1,3.1l-2.1,2.1l-3.1-3.1C62,1529.4,61.6,1529.3,61.2,1529.3z"/>
<path class="st0" d="M22.5,1504.9c0.8,0,1.5-0.7,1.5-1.5v-4.4h4.4c0.8,0,1.5-0.7,1.5-1.5s-0.7-1.5-1.5-1.5h-5.9
	c-0.8,0-1.5,0.7-1.5,1.5v5.9C21,1504.2,21.7,1504.9,22.5,1504.9z"/>
<path class="st0" d="M69.5,1496.1h-5.9c-0.8,0-1.5,0.7-1.5,1.5s0.7,1.5,1.5,1.5h4.4v4.4c0,0.8,0.7,1.5,1.5,1.5s1.5-0.7,1.5-1.5v-5.9
	C71,1496.8,70.3,1496.1,69.5,1496.1z"/>
<path class="st0" d="M28.3,1543h-4.4v-4.2c0-0.8-0.7-1.5-1.5-1.5s-1.5,0.7-1.5,1.5v5.7c0,0.8,0.7,1.5,1.5,1.5h5.9
	c0.8,0,1.5-0.7,1.5-1.5S29.1,1543,28.3,1543z"/>
<path class="st0" d="M69.5,1537.3c-0.8,0-1.5,0.7-1.5,1.5v4.2h-4.4c-0.8,0-1.5,0.7-1.5,1.5s0.7,1.5,1.5,1.5h5.9
	c0.8,0,1.5-0.7,1.5-1.5v-5.7C71,1538,70.3,1537.3,69.5,1537.3z"/>
<path class="st0" d="M37.2,1572.7h-5.9c-0.8,0-1.5,0.7-1.5,1.5v5.9c0,0.8,0.7,1.5,1.5,1.5h5.9c0.8,0,1.5-0.7,1.5-1.5v-5.9
	C38.7,1573.3,38,1572.7,37.2,1572.7z M35.7,1578.5h-2.9v-2.9h2.9V1578.5z"/>
<path class="st0" d="M37.2,1584.4h-5.9c-0.8,0-1.5,0.7-1.5,1.5v5.9c0,0.8,0.7,1.5,1.5,1.5h5.9c0.8,0,1.5-0.7,1.5-1.5v-5.9
	C38.7,1585.1,38,1584.4,37.2,1584.4z M35.7,1590.3h-2.9v-2.9h2.9V1590.3z"/>
<path class="st0" d="M48.9,1572.7h-5.9c-0.8,0-1.5,0.7-1.5,1.5v5.9c0,0.8,0.7,1.5,1.5,1.5h5.9c0.8,0,1.5-0.7,1.5-1.5v-5.9
	C50.4,1573.3,49.7,1572.7,48.9,1572.7z M47.5,1578.5h-2.9v-2.9h2.9V1578.5z"/>
<path class="st0" d="M65.2,1596.8l-1.4-0.8c-1-0.6-1-2,0-2.5l1.4-0.8c0.7-0.4,0.9-1.3,0.5-2l-2.9-5.1c-0.4-0.7-1.3-0.9-2-0.5
	l-1.4,0.8c-1,0.6-2.2-0.1-2.2-1.3v-1.6c0-0.8-0.7-1.5-1.5-1.5h-1.6v-18.2c0-3-2.4-5.4-5.4-5.4H27.4c-3,0-5.4,2.4-5.4,5.4v39.2
	c0,3,2.4,5.4,5.4,5.4h28.4c0.8,0,1.5-0.7,1.5-1.5v-1.6c0-1.1,1.2-1.8,2.2-1.3l1.4,0.8c0.7,0.4,1.6,0.2,2-0.5l2.9-5.1
	C66.2,1598.2,65.9,1597.3,65.2,1596.8z M50,1581.6c-0.8,0-1.5,0.7-1.5,1.5v1.6c0,1.1-1.2,1.8-2.2,1.3l-1.4-0.8
	c-0.7-0.4-1.6-0.2-2,0.5l-2.9,5.1c-0.4,0.7-0.2,1.6,0.5,2l1.4,0.8c1,0.6,1,2,0,2.5l-0.2,0.1H25v-26.4h26.4v11.8H50z M27.4,1560.9
	h21.5c1.3,0,2.4,1.1,2.4,2.4v3.4H25v-3.4C25,1562,26.1,1560.9,27.4,1560.9z M25,1602.6v-3.5h15.2l2.8,4.8c0.4,0.7,1.3,0.9,2,0.5
	l1.4-0.8c0.9-0.5,2.2,0,2.2,1.4H27.4C26.1,1605.1,25,1604,25,1602.6z M62.5,1598.7l-1.5,2.5c-3-1.8-6.7,0.3-6.7,3.9
	c-1.3,0-2,0-2.9,0c0-3.6-3.6-5.6-6.7-3.9l-1.5-2.5c3.1-1.8,3.1-6,0-7.7l1.5-2.5c3,1.8,6.7-0.3,6.7-3.9h2.9c0,3.5,3.6,5.6,6.7,3.9
	l1.5,2.5C59.5,1592.7,59.4,1596.9,62.5,1598.7z"/>
<path class="st0" d="M54.9,1590.4c-2.4,0-4.4,2-4.4,4.4c0,2.4,2,4.4,4.4,4.4s4.4-2,4.4-4.4C59.3,1592.4,57.3,1590.4,54.9,1590.4z
	 M54.9,1596.3c-0.8,0-1.5-0.7-1.5-1.5c0-0.8,0.7-1.5,1.5-1.5c0.8,0,1.5,0.7,1.5,1.5C56.4,1595.6,55.7,1596.3,54.9,1596.3z"/>
<path class="st0" d="M69,1647.9h-1.2v-24.4c0-1.9-1.5-3.5-3.5-3.5H29.6c-1.9,0-3.5,1.5-3.5,3.5v24.4H25c-1.6,0-3,1.3-3,3v2.7
	c0,3.5,2.8,6.3,6.3,6.3h37.4c3.5,0,6.3-2.8,6.3-6.3v-2.7C72,1649.2,70.7,1647.9,69,1647.9L69,1647.9z M29.1,1623.6
	c0-0.3,0.2-0.5,0.5-0.5h34.8c0.3,0,0.5,0.2,0.5,0.5v24.4H29.1V1623.6z M69,1653.6c0,1.8-1.5,3.4-3.4,3.4H28.3
	c-1.8,0-3.4-1.5-3.4-3.4v-2.7c2.1,0,42.3,0,44.1,0c0,0,0,0,0,0V1653.6z"/>
<path class="st0" d="M59.7,1630.6h-7.2c-0.8,0-1.5,0.7-1.5,1.5c0,0.8,0.7,1.5,1.5,1.5h7.2c0.8,0,1.5-0.7,1.5-1.5
	C61.2,1631.2,60.5,1630.6,59.7,1630.6z"/>
<path class="st0" d="M59.7,1637.5h-7.2c-0.8,0-1.5,0.7-1.5,1.5c0,0.8,0.7,1.5,1.5,1.5h7.2c0.8,0,1.5-0.7,1.5-1.5
	C61.2,1638.1,60.5,1637.5,59.7,1637.5z"/>
<path class="st0" d="M42.3,1627.4c-3.2,0-5.7,2.6-5.7,5.7c0,1,0.3,2,0.8,2.9l-4.1,4.1c-0.6,0.6-0.6,1.5,0,2.1c0.6,0.6,1.5,0.6,2.1,0
	l4.1-4.1c0.8,0.5,1.8,0.8,2.9,0.8c3.2,0,5.7-2.6,5.7-5.7C48,1630,45.5,1627.4,42.3,1627.4L42.3,1627.4z M42.3,1635.9
	c-1.5,0-2.8-1.3-2.8-2.8c0-1.5,1.3-2.8,2.8-2.8c1.5,0,2.8,1.3,2.8,2.8S43.8,1635.9,42.3,1635.9z"/>
<path class="st0" d="M58.5,1682.9c-1.6-5.8-6.9-9.8-12.9-9.8c-7.1,0-13,5.6-13.4,12.7c-6,0.7-10.6,5.9-10.6,12.1
	c0,6.4,5,11.8,11.4,12.1l0,0l25.1,0c7.4,0,13.4-6.1,13.4-13.5C71.5,1689.2,65.7,1683.2,58.5,1682.9z M58.1,1707.1l-25,0
	c-4.8-0.3-8.6-4.3-8.6-9.2c0-4.9,3.8-9,8.7-9.2c1.1-0.1,1.9-0.9,1.9-2c0-5.9,4.7-10.6,10.5-10.6c4.8,0,9,3.3,10.2,8
	c0.3,1.1,1.2,1.8,2.3,1.8h0c5.8,0,10.5,4.8,10.5,10.6C68.6,1702.3,63.9,1707.1,58.1,1707.1z"/>
<path class="st0" d="M50.9,1698c1.6-2.5,1.3-5.8-0.9-8c-2.5-2.5-6.6-2.5-9.1,0c-2.5,2.5-2.5,6.6,0,9.1c1.3,1.3,2.9,1.9,4.5,1.9
	c1.2,0,2.3-0.3,3.3-0.9l2.7,2.7c0.3,0.3,0.7,0.4,1,0.4c0.4,0,0.7-0.1,1-0.4c0.6-0.6,0.6-1.5,0-2.1L50.9,1698z M43,1697
	c-1.4-1.4-1.4-3.6,0-4.9c0.7-0.7,1.6-1,2.5-1c0.9,0,1.8,0.3,2.5,1c1.4,1.4,1.4,3.6,0,4.9S44.3,1698.4,43,1697z"/>
</svg>
