<?xml version="1.0" encoding="iso-8859-1"?>
<!-- Generator: Adobe Illustrator 19.0.0, SVG Export Plug-In . SVG Version: 6.00 Build 0)  -->
<svg xmlns="http://www.w3.org/2000/svg" fill="#ff3066" xmlns:xlink="http://www.w3.org/1999/xlink" version="1.1" id="Layer_1" x="0px" y="0px" viewBox="0 0 512 512" style="enable-background:new 0 0 512 512;" xml:space="preserve" width="80" height="80">
<g>
	<g>
		<g>
			<g>
				<g>
					<g>
						<g>
							<g>
								<g>
									<path d="M185.489,222.255c-1.34,0-2.688-0.268-3.96-0.818l-11.833-5.106c-5.071-2.188-7.408-8.073-5.22-13.144           c2.188-5.071,8.074-7.409,13.144-5.22l6.365,2.747l8.593-6.766c4.34-3.417,10.627-2.669,14.043,1.67           c3.417,4.34,2.669,10.627-1.671,14.043l-13.272,10.45C189.882,221.524,187.696,222.255,185.489,222.255z"/>
								</g>
							</g>
						</g>
					</g>
				</g>
			</g>
			<g>
				<g>
					<g>
						<g>
							<g>
								<g>
									<path d="M84.549,222.255c-2.207,0-4.394-0.73-6.188-2.143l-13.272-10.45c-4.339-3.416-5.087-9.703-1.671-14.043           c3.417-4.34,9.704-5.09,14.043-1.67l8.593,6.766l6.365-2.747c5.07-2.184,10.956,0.149,13.144,5.22           c2.188,5.07-0.149,10.955-5.22,13.144l-11.833,5.106C87.237,221.985,85.889,222.255,84.549,222.255z"/>
								</g>
							</g>
						</g>
					</g>
				</g>
			</g>
		</g>
		<g>
			<g>
				<g>
					<g>
						<g>
							<g>
								<path d="M145.846,275.58h-21.653c-5.523,0-10-4.478-10-10s4.477-10,10-10h21.653c5.523,0,10,4.478,10,10          S151.369,275.58,145.846,275.58z"/>
							</g>
						</g>
					</g>
				</g>
			</g>
		</g>
		<g>
			<g>
				<g>
					<g>
						<g>
							<g>
								<g>
									<path d="M186.21,67.39c-0.65,0-1.31-0.07-1.95-0.2c-0.64-0.13-1.27-0.319-1.87-0.569c-0.61-0.25-1.19-0.561-1.73-0.92           c-0.55-0.36-1.06-0.78-1.52-1.24c-0.46-0.46-0.88-0.98-1.24-1.521c-0.36-0.55-0.67-1.13-0.92-1.729           c-0.25-0.601-0.45-1.23-0.57-1.87c-0.13-0.65-0.2-1.3-0.2-1.95c0-0.66,0.07-1.309,0.2-1.96c0.12-0.64,0.32-1.27,0.57-1.87           c0.25-0.6,0.56-1.18,0.92-1.729c0.36-0.54,0.78-1.061,1.24-1.521c0.46-0.46,0.97-0.87,1.52-1.24           c0.54-0.359,1.12-0.67,1.73-0.92c0.6-0.25,1.23-0.439,1.87-0.569c1.29-0.261,2.61-0.261,3.9,0           c0.64,0.13,1.27,0.319,1.88,0.569c0.6,0.25,1.18,0.561,1.72,0.92c0.55,0.37,1.06,0.78,1.52,1.24           c0.46,0.46,0.88,0.98,1.24,1.521c0.36,0.55,0.67,1.13,0.92,1.729c0.25,0.601,0.45,1.23,0.58,1.87           c0.13,0.65,0.19,1.3,0.19,1.96c0,0.65-0.06,1.3-0.2,1.95c-0.12,0.64-0.32,1.27-0.57,1.87c-0.25,0.6-0.56,1.18-0.92,1.729           c-0.36,0.54-0.78,1.061-1.24,1.521c-0.46,0.46-0.97,0.88-1.52,1.24c-0.54,0.359-1.12,0.67-1.72,0.92           c-0.61,0.25-1.24,0.439-1.88,0.569C187.52,67.32,186.86,67.39,186.21,67.39z"/>
								</g>
							</g>
						</g>
					</g>
				</g>
			</g>
		</g>
		<g>
			<path d="M233.152,334.519h-66.821v-9.526c17.164-4.379,29.53-10.221,37.177-14.588c25.463-14.542,38.953-35.188,39.023-59.718     l0.567-15.242c11.117-2.86,18.428-13.102,18.428-26.84c0-12.942-6.488-22.78-16.534-26.27l0.165-5.861     c2.325-1.831,3.819-4.672,3.819-7.861v-62.212c0-0.004,0-0.009,0-0.013c9.16-14.122,14.483-30.952,14.483-49.003     c0-5.522-4.477-10-10-10h-29.425c-5.523,0-10,4.478-10,10c0,5.522,4.477,10,10,10h18.716     c-4.87,34.042-34.221,60.297-69.588,60.297h-42.62c-5.523,0-10,4.478-10,10c0,5.523,4.477,10,10,10h42.62     c5.479,0,10.846-0.491,16.059-1.43c0.138,17.868,14.715,32.361,32.614,32.361h3.254l-0.339,12.064     c-0.076,2.7,0.944,5.316,2.827,7.252c1.882,1.937,4.469,3.029,7.169,3.029h1.821c4.098,0,4.958,4.157,4.958,7.646     c0,3.487-0.86,7.645-4.958,7.645h-3.134c-5.378,0-9.793,4.254-9.993,9.628l-0.902,24.243c-0.004,0.124-0.007,0.248-0.007,0.372     c0,38.031-47.093,52.232-67.34,56.573c-0.53,0.113-0.923,0.199-1.167,0.257c-4.51,1.068-7.694,5.096-7.694,9.73v17.466h-22.625     v-17.465c0-4.635-3.185-8.663-7.696-9.73c-0.231-0.056-0.6-0.136-1.093-0.242c-20.269-4.385-67.412-18.675-67.412-56.589     c0-0.124-0.002-0.248-0.007-0.372l-0.902-24.243c-0.2-5.374-4.615-9.628-9.993-9.628h-3.732c-4.098,0-4.958-4.157-4.958-7.645     c0-3.488,0.86-7.646,4.958-7.646h2.418c2.701,0,5.287-1.093,7.17-3.029c1.883-1.936,2.902-4.552,2.827-7.252l-0.339-12.064h3.253     c17.985,0,32.617-14.632,32.617-32.617v-8.314c0-5.522-4.477-10-10-10c-5.523,0-10,4.478-10,10v8.314     c0,6.957-5.66,12.617-12.617,12.617h-7.104l0.183-50.384c3.545-30.104,30.724-40.844,55.077-40.844h49.488     c5.523,0,10-4.477,10-10c0-5.522-4.477-10-10-10H96.357c-41.673,0-71.119,23.232-75.017,59.185     c-0.038,0.346-0.057,0.694-0.058,1.042l-0.221,60.965c-0.01,2.658,1.04,5.211,2.916,7.095c0.286,0.287,0.587,0.554,0.902,0.802     l0.159,5.665c-10.381,3.303-17.125,13.271-17.125,26.466c0,13.984,7.577,24.346,19.031,26.986l0.561,15.096     c0.071,24.463,13.595,45.095,39.121,59.677c7.65,4.37,19.998,10.217,37.079,14.613v9.542h-66.82     C16.547,334.519,0,351.066,0,371.405v83.21c0,5.522,4.477,10,10,10h250.038c5.523,0,10-4.478,10-10v-83.21     C270.038,351.066,253.491,334.519,233.152,334.519z M209.221,145.997v-5.827c7.107-3.107,13.74-7.104,19.757-11.849v30.293     h-7.141C214.88,158.614,209.221,152.954,209.221,145.997z M178.215,354.519l-9.725,15.055l-13.236-15.055H178.215z      M114.188,354.519l-13.236,15.055l-9.725-15.055H114.188z M250.038,444.615H20v-73.21c0-9.31,7.575-16.886,16.886-16.886h30.531     l23.912,37.017c1.701,2.633,4.537,4.315,7.662,4.547c3.129,0.235,6.179-1.017,8.248-3.37l27.482-31.258l27.482,31.258     c1.906,2.168,4.646,3.397,7.509,3.397c0.245,0,0.492-0.009,0.739-0.027c3.125-0.231,5.961-1.914,7.662-4.547l23.912-37.017     h31.128c9.311,0,16.886,7.575,16.886,16.886V444.615z"/>
		</g>
	</g>
	<g>
		<path d="M357.89,278.733c-1.814-2.981-5.052-4.802-8.542-4.802c-3.49,0-6.728,1.82-8.543,4.802l-45.357,74.535    c-1.879,3.087-1.946,6.947-0.175,10.098c1.771,3.15,5.104,5.101,8.717,5.101h11.346v86.148c0,5.522,4.477,10,10,10h48.022    c5.523,0,10-4.478,10-10v-86.148h11.346c3.614,0,6.947-1.95,8.717-5.101c1.771-3.15,1.704-7.011-0.175-10.098L357.89,278.733z     M373.358,348.466c-5.523,0-10,4.478-10,10v86.148h-28.022v-76.148h5.488c5.523,0,10-4.478,10-10c0-5.522-4.477-10-10-10h-19.043    l27.566-45.299l27.565,45.299H373.358z"/>
		<path d="M510.542,266.089l-48.461-79.635c-1.814-2.981-5.052-4.802-8.542-4.802c-3.49,0-6.728,1.82-8.543,4.802l-48.461,79.635    c-1.879,3.087-1.946,6.947-0.175,10.098c1.771,3.15,5.104,5.101,8.717,5.101h12.807v173.328c0,5.522,4.477,10,10,10    c5.523,0,10-4.478,10-10V281.287h6.548c5.523,0,10-4.478,10-10c0-5.522-4.477-10-10-10H422.87l30.669-50.398l30.669,50.398h-5.015    c-5.523,0-10,4.478-10,10v183.328c0,5.522,4.477,10,10,10c5.523,0,10-4.478,10-10V281.287H502c3.614,0,6.947-1.95,8.717-5.101    C512.488,273.036,512.421,269.175,510.542,266.089z"/>
	</g>
</g>















</svg>
