<svg height="119px" viewBox="0 -32 512.00533 512" width="119px" fill="#ff3066" xmlns="http://www.w3.org/2000/svg"><path d="m437.332031 448.003906c-2.730469 0-5.460937-1.046875-7.550781-3.117187-4.160156-4.160157-4.160156-10.921875 0-15.082031l56.46875-56.46875-56.449219-56.449219c-4.15625-4.160157-4.15625-10.921875 0-15.082031 4.160157-4.160157 10.925781-4.160157 15.085938 0l64 64c4.160156 4.160156 4.160156 10.921874 0 15.082031l-64 64c-2.09375 2.070312-4.824219 3.117187-7.554688 3.117187zm0 0"/><path d="m10.667969 384.003906c-5.890625 0-10.667969-4.78125-10.667969-10.667968 0-5.886719 4.777344-10.667969 10.667969-10.667969h213.332031c89.429688-5.246094 160-80.210938 160-170.664063 0-94.101562-76.566406-170.667968-170.667969-170.667968-94.101562 0-170.664062 76.566406-170.664062 170.667968 0 50.386719 22.164062 97.941406 60.820312 130.515625 4.5 3.796875 5.078125 10.519531 1.300781 15.039063-3.859374 4.480468-10.539062 5.058594-15.039062 1.28125-43.476562-36.628906-68.417969-90.15625-68.417969-146.835938 0-105.855468 86.125-191.99999975 192-191.99999975 105.878907 0 192 86.14453175 192 191.99999975 0 101.738282-79.378906 186.066406-180.714843 191.976563zm0 0"/><path d="m501.332031 384.003906h-160c-5.886719 0-10.664062-4.78125-10.664062-10.667968 0-5.886719 4.777343-10.667969 10.664062-10.667969h160c5.890625 0 10.667969 4.78125 10.667969 10.667969 0 5.886718-4.777344 10.667968-10.667969 10.667968zm0 0"/></svg>