<?xml version="1.0" encoding="utf-8"?>
<!-- Generator: Adobe Illustrator 21.1.0, SVG Export Plug-In . SVG Version: 6.00 Build 0)  -->
<svg version="1.1" id="Layer_1" xmlns="http://www.w3.org/2000/svg" xmlns:xlink="http://www.w3.org/1999/xlink" x="0px" y="0px"
	 viewBox="0 0 167 648" style="enable-background:new 0 0 167 648;" xml:space="preserve">
<style type="text/css">
	.st0{display:none;fill:#1E1A1A;stroke:#000000;stroke-miterlimit:10;}
	.st1{fill:#E01E5A;}
	.st2{fill:#36C5F0;}
	.st3{fill:#2EB67D;}
	.st4{fill:#ECB22E;}
	.st5{fill:#003366;}
	.st6{fill:#F1F2F2;}
	.st7{fill:#ff3066;}
	.st8{fill:#FFFFFF;}
	.st9{display:none;}
	.st10{fill:#ff3066;}
</style>
<rect x="-24" y="-13" class="st0" width="221" height="556"/>
<image style="display:none;overflow:visible;enable-background:new    ;" width="167" height="492" xlink:href="../../../../shruti%20nakum/menu-modal-sprite.html"  transform="matrix(1 0 0 1 -20.7656 0.4766)">
</image>
<path d="M60.6,84.2l1.6-3.7c1.7,1.3,4,1.9,6.2,1.9c1.7,0,2.7-0.6,2.7-1.6c0-2.7-10-0.6-10-7.4c0-3.5,3-6.1,7.4-6.1
	c2.6,0,5.2,0.6,7,2.1L74,73.2c-1.7-1.1-3.8-1.8-5.8-1.8c-1.4,0-2.3,0.6-2.3,1.5c0,2.7,10,1.2,10.1,7.7c0,3.5-3,6-7.3,6
	C65.7,86.6,62.8,85.8,60.6,84.2 M121.5,79.2c-0.8,1.4-2.3,2.3-4,2.3c-2.5,0-4.6-2-4.6-4.6c0-2.5,2-4.6,4.6-4.6c1.7,0,3.2,0.9,4,2.3
	l4.4-2.4c-1.6-2.9-4.8-4.9-8.4-4.9c-5.3,0-9.6,4.3-9.6,9.6c0,5.3,4.3,9.6,9.6,9.6c3.6,0,6.7-2,8.4-4.9L121.5,79.2z M78.4,59.4h5.5
	v26.8h-5.5V59.4z M128,59.4v26.8h5.5v-8l6.5,8h7l-8.3-9.5l7.6-8.9h-6.7l-6.2,7.4V59.4H128z"/>
<path d="M100.1,79.3c-0.8,1.3-2.4,2.3-4.3,2.3c-2.5,0-4.6-2-4.6-4.6c0-2.5,2-4.6,4.6-4.6c1.8,0,3.5,1,4.3,2.4V79.3L100.1,79.3z
	 M100.1,67.8V70c-0.9-1.5-3.1-2.6-5.4-2.6c-4.8,0-8.6,4.2-8.6,9.6c0,5.3,3.8,9.6,8.6,9.6c2.3,0,4.6-1,5.4-2.6v2.2h5.5V67.8H100.1
	L100.1,67.8z"/>
<g>
	<path class="st1" d="M26.8,79.2c0,1.9-1.5,3.4-3.4,3.4S20,81.1,20,79.2s1.5-3.4,3.4-3.4h3.4V79.2z M28.5,79.2
		c0-1.9,1.5-3.4,3.4-3.4s3.4,1.5,3.4,3.4v8.4c0,1.9-1.5,3.4-3.4,3.4s-3.4-1.5-3.4-3.4C28.5,87.7,28.5,79.2,28.5,79.2z"/>
	<path class="st2" d="M31.8,65.7c-1.9,0-3.4-1.5-3.4-3.4s1.5-3.4,3.4-3.4c1.9,0,3.4,1.5,3.4,3.4v3.4H31.8z M31.8,67.4
		c1.9,0,3.4,1.5,3.4,3.4s-1.5,3.4-3.4,3.4h-8.5c-1.9,0-3.4-1.5-3.4-3.4s1.5-3.4,3.4-3.4H31.8z"/>
	<path class="st3" d="M45.4,70.8c0-1.9,1.5-3.4,3.4-3.4s3.4,1.5,3.4,3.4s-1.5,3.4-3.4,3.4h-3.4V70.8z M43.7,70.8
		c0,1.9-1.5,3.4-3.4,3.4s-3.4-1.5-3.4-3.4v-8.5c0-1.9,1.5-3.4,3.4-3.4s3.4,1.5,3.4,3.4V70.8z"/>
	<path class="st4" d="M40.3,84.3c1.9,0,3.4,1.5,3.4,3.4s-1.5,3.4-3.4,3.4s-3.4-1.5-3.4-3.4v-3.4H40.3z M40.3,82.6
		c-1.9,0-3.4-1.5-3.4-3.4s1.5-3.4,3.4-3.4h8.5c1.9,0,3.4,1.5,3.4,3.4s-1.5,3.4-3.4,3.4H40.3z"/>
</g>
<g>
	<rect x="79.5" y="10.6" class="st5" width="5.4" height="25.8"/>
	<path class="st5" d="M104.5,36.4h5.9l-6.3-8.9c2-0.7,3.3-3.1,3.3-5.4v-6.6c0-2.9-2-4.9-4.9-4.9h-8.4l0,0h-5.7v25.8h5.4v-8.5H99
		L104.5,36.4z M93.9,15.4h6.3c1.6,0,2.4,0.8,2.4,2.4v2.3c0,1.5-0.9,3.2-2.4,3.2h-6.3V15.4z"/>
	<polygon class="st5" points="130.5,36.4 122.9,10.6 120.9,10.6 117.5,10.6 115.6,10.6 108,36.4 113.3,36.4 119.2,16.3 122.2,26.5 
		119.2,26.5 117.2,31 123.6,31 125.2,36.4 	"/>
	<path class="st5" d="M75.6,30.9V10.6h-5.4v19c0,3-1.4,3.2-1.8,3.4c-0.7,0.3-1.8,0.4-1.8,0.4L68,38C76.5,37.8,75.6,30.9,75.6,30.9z"
		/>
	<path class="st5" d="M38.5,10.7c0,0-0.2,5.3,7.5,12.9c7.8,7.6,8.7,10.8,8.2,12.9h5.7c0,0,0.5-8.9-8.3-15.1c0,0-6.1-5.4-7-9.6
		c0,0-2.9,0-5-1.6C39.6,10.1,38.5,9.4,38.5,10.7z"/>
	<g>
		<path class="st5" d="M50.5,22.8c1.6,1.1,2.8,2.3,3.8,3.5c0.7-0.8,1.6-1.6,2.5-2.6c7.8-7.6,7.5-13,7.5-13c0-1.3-1.1-0.6-1.1-0.6
			c-2.1,1.6-5,1.7-5,1.7c-1,4.2-7,9.7-7,9.7c-0.4,0.3-0.8,0.6-1.1,0.9C50.3,22.7,50.5,22.8,50.5,22.8z"/>
		<path class="st5" d="M50.4,31.1c-1-1.3-2.3-2.8-4.1-4.6C42.7,31.7,43,36.8,43,36.8h5.7C48.4,35.5,48.6,33.8,50.4,31.1z"/>
	</g>
	<path class="st5" d="M48.6,12.2h5.6c0,0,0.7-0.1,0.6,0.8c-0.3,1.4-3.3,4.2-3.3,4.2s-2.2-2-3.2-4C48.2,13.3,47.8,12.2,48.6,12.2z"/>
	<circle class="st5" cx="58.8" cy="6.4" r="2.4"/>
	<circle class="st5" cx="44.4" cy="6.4" r="2.4"/>
	<circle class="st5" cx="51.8" cy="4.4" r="2.4"/>
</g>
<circle class="st6" cx="66" cy="157" r="45"/>
<path class="st7" d="M103,157.5c0,20.2-16.3,36.5-36.5,36.5S30,177.7,30,157.5S46.3,121,66.5,121S103,137.3,103,157.5z M39.1,157.5
	c0,15.2,12.3,27.4,27.4,27.4c15.2,0,27.4-12.3,27.4-27.4s-12.3-27.4-27.4-27.4S39.1,142.3,39.1,157.5z"/>
<path d="M55.5,157c1.5-6.5,6.5-8,10.5-8c4.5,0,10.5,3,10.5,8H55.5z M53,172l-1-13h28l-1,13H53z M66,166c0.6,0,1-0.4,1-1s-0.4-1-1-1
	s-1,0.4-1,1S65.4,166,66,166z"/>
<circle cx="66" cy="143" r="5"/>
<circle class="st6" cx="66" cy="268" r="45"/>
<path class="st8" d="M102,268c0,19.9-16.1,36-36,36s-36-16.1-36-36s16.1-36,36-36S102,248.1,102,268z M38.9,268
	c0,14.9,12.1,27.1,27.1,27.1S93.1,283,93.1,268S80.9,240.9,66,240.9S38.9,253.1,38.9,268z"/>
<path class="st7" d="M101.9,276.9c1.4-5.5,1.5-11.3,0.2-16.9s-3.8-10.7-7.5-15.1c-3.7-4.4-8.3-7.8-13.5-10s-10.9-3.2-16.6-2.8
	l0.7,10c4.1-0.3,8.2,0.4,12,2s7.1,4.1,9.8,7.2c2.6,3.2,4.5,6.9,5.4,10.9s0.9,8.2-0.1,12.2L101.9,276.9z"/>
<path d="M55.5,268c1.5-6.5,6.5-8,10.5-8c4.5,0,10.5,3,10.5,8H55.5z M53,283l-1-13h28l-1,13H53z M66,277c0.6,0,1-0.4,1-1s-0.4-1-1-1
	s-1,0.4-1,1S65.4,277,66,277z"/>
<circle cx="66" cy="254" r="5"/>
<circle class="st6" cx="66" cy="377" r="45"/>
<path class="st8" d="M102,377c0,19.9-16.1,36-36,36s-36-16.1-36-36s16.1-36,36-36S102,357.1,102,377z M38.9,377
	c0,14.9,12.1,27.1,27.1,27.1S93.1,392,93.1,377S80.9,349.9,66,349.9S38.9,362.1,38.9,377z"/>
<path class="st7" d="M68.2,413c9.3-0.3,18.2-4.2,24.7-10.9s10.1-15.7,10.1-25s-3.6-18.3-10.1-25s-15.3-10.6-24.7-11l-0.3,10
	c6.7,0.2,13.1,3.1,17.8,7.9c4.7,4.8,7.3,11.3,7.3,18.1c0,6.7-2.6,13.2-7.3,18.1c-4.7,4.8-11.1,7.7-17.8,7.9L68.2,413z"/>
<path d="M55.5,377c1.5-6.5,6.5-8,10.5-8c4.5,0,10.5,3,10.5,8H55.5z M53,392l-1-13h28l-1,13H53z M66,386c0.6,0,1-0.4,1-1s-0.4-1-1-1
	s-1,0.4-1,1S65.4,386,66,386z"/>
<circle cx="66" cy="363" r="5"/>
<g>
	<path d="M36,443.9c7.2,0,13.1,5.9,13.1,13.1s-5.9,13.1-13.1,13.1s-13.1-5.9-13.1-13.1S28.8,443.9,36,443.9 M36,442
		c-8.3,0-15,6.7-15,15s6.7,15,15,15s15-6.7,15-15S44.3,442,36,442L36,442z M44.4,462l-0.1-0.3c-0.2-0.6-0.8-1.2-1.5-1.4l-2.2-0.6
		c-0.6-0.2-1.5,0.1-1.9,0.5l-0.8,0.8c-2.9-0.8-5.2-3.1-6-6l0.8-0.8c0.4-0.4,0.7-1.3,0.5-1.9l-0.6-2.2c-0.2-0.6-0.8-1.3-1.4-1.5
		l-0.3-0.1c-0.6-0.2-1.4,0-1.9,0.4l-1.2,1.2c-0.2,0.2-0.4,0.8-0.4,0.8c0,3.8,1.5,7.5,4.1,10.2c2.7,2.7,6.3,4.2,10.1,4.1
		c0,0,0.6-0.1,0.9-0.3l1.2-1.2C44.4,463.4,44.6,462.6,44.4,462z"/>
</g>
<g>
	<path d="M98.3,445.8H75.8c-2.1,0-3.8,1.7-3.8,3.8v15c0,2.1,1.7,3.8,3.8,3.8h22.5c2.1,0,3.8-1.7,3.8-3.8v-15
		C102,447.4,100.3,445.8,98.3,445.8z M92.1,455.8l7.9-6.8c0.1,0.2,0.1,0.4,0.1,0.5v15c0,0.1-0.1,0.2-0.1,0.4L92.1,455.8z
		 M98.3,447.6c0.1,0,0.2,0,0.4,0.1L87,457.6l-11.6-9.9c0.1,0,0.2-0.1,0.4-0.1H98.3L98.3,447.6z M73.9,464.9c0-0.1-0.1-0.2-0.1-0.4
		v-15c0-0.2,0.1-0.4,0.1-0.5l7.9,6.8L73.9,464.9z M75.8,466.4c-0.2,0-0.4-0.1-0.5-0.1l8.1-9.3l3,2.6c0.2,0.2,0.4,0.2,0.6,0.2
		s0.4-0.1,0.6-0.2l3-2.6l8.1,9.3c-0.2,0.1-0.3,0.1-0.5,0.1H75.8z"/>
</g>
<g>
	<path class="st8" d="M43.8,492H24.3c-1.8,0-3.3,1.5-3.3,3.3v13c0,1.8,1.5,3.3,3.3,3.3h19.5c1.8,0,3.3-1.5,3.3-3.3v-13
		C47,493.5,45.5,492,43.8,492z M38.4,500.7l6.9-5.9c0,0.1,0.1,0.3,0.1,0.5v13c0,0.1,0,0.2-0.1,0.3L38.4,500.7z M43.8,493.6
		c0.1,0,0.2,0,0.3,0.1L34,502.3l-10.1-8.6c0.1,0,0.2-0.1,0.3-0.1L43.8,493.6L43.8,493.6z M22.7,508.6c0-0.1-0.1-0.2-0.1-0.3v-13
		c0-0.2,0-0.3,0.1-0.5l6.9,5.9L22.7,508.6z M24.3,509.9c-0.2,0-0.3,0-0.5-0.1l7-8.1l2.6,2.3c0.2,0.1,0.3,0.2,0.5,0.2
		s0.4-0.1,0.5-0.2l2.6-2.3l7,8.1c-0.1,0-0.3,0.1-0.5,0.1H24.3z"/>
</g>
<rect x="27.3" y="511.5" class="st9" width="10.8" height="19.5"/>
<path class="st8" d="M80.1,497.8l-8.3-5.7c-0.1-0.1-0.2-0.1-0.3,0c-0.1,0-0.2,0.1-0.2,0.3v11.4c0,0.1,0.1,0.2,0.2,0.3h0.1
	c0.1,0,0.1,0,0.2-0.1l8.3-5.7c0.1-0.1,0.1-0.1,0.1-0.2C80.2,497.9,80.2,497.8,80.1,497.8z"/>
<g>
	<g>
		<path class="st8" d="M127.7,500.2l-7.2-7.2c-0.2-0.2-0.5-0.3-0.8-0.3s-0.6,0.1-0.8,0.3l-0.7,0.7c-0.2,0.2-0.3,0.5-0.3,0.8
			s0.1,0.6,0.3,0.8l4.2,4.2H109c-0.6,0-1.1,0.5-1.1,1.1v0.9c0,0.6,0.5,1.1,1.1,1.1h13.4l-4.3,4.2c-0.2,0.2-0.3,0.5-0.3,0.8
			s0.1,0.6,0.3,0.8l0.7,0.7c0.2,0.2,0.5,0.3,0.8,0.3s0.6-0.1,0.8-0.3l7.2-7.2c0.2-0.2,0.3-0.5,0.3-0.8
			C128,500.7,127.9,500.4,127.7,500.2z"/>
	</g>
</g>
<g>
	<g>
		<path d="M30.3,541.9h5c0.3,0,0.5-0.2,0.5-0.5s-0.2-0.5-0.5-0.5h-5c-0.3,0-0.5,0.2-0.5,0.5S30,541.9,30.3,541.9z"/>
		<path d="M37,573.4h-8.4c-0.3,0-0.5,0.2-0.5,0.5s0.2,0.5,0.5,0.5H37c0.3,0,0.5-0.2,0.5-0.5C37.5,573.6,37.3,573.4,37,573.4z"/>
		<path d="M53.9,548h-9.1v-7.9c0-1.2-1-2.2-2.2-2.2H23c-0.6,0-1.1,0.2-1.6,0.7c-0.4,0.4-0.6,1-0.6,1.6V576c0,0.6,0.2,1.1,0.6,1.6
			c0.4,0.4,1,0.7,1.6,0.7h19.5c1.2,0,2.2-1,2.2-2.2v-9.6h9.1c0.1,0,0.3,0,0.3-0.1c0.1-0.1,0.1-0.2,0.1-0.3v-17.3
			c0-0.1,0-0.3-0.1-0.3C54.2,548.1,54.1,548,53.9,548z M40.6,560.3l-12-11.2h24L40.6,560.3z M35.8,557.1l-7.9,7.5v-14.9L35.8,557.1z
			 M36.5,557.8l3.8,3.5c0.1,0.1,0.2,0.1,0.3,0.1s0.3,0,0.3-0.1l3.9-3.7l7.8,7.6h-24L36.5,557.8z M45.6,557l7.8-7.3v14.8L45.6,557z
			 M23,538.9h19.5c0.7,0,1.2,0.5,1.2,1.2v3.1H21.9v-3.1c0-0.3,0.1-0.6,0.3-0.8C22.4,539,22.7,538.9,23,538.9z M42.6,577.1H23
			c-0.3,0-0.6-0.1-0.8-0.4c-0.2-0.2-0.3-0.5-0.3-0.8v-4.4h21.9v4.4C43.8,576.5,43.2,577.1,42.6,577.1z M43.8,570.4H21.9v-26.2h21.9
			v3.7H27.4c-0.3,0-0.5,0.2-0.5,0.5v17.3c0,0.3,0.3,0.5,0.5,0.5h16.4C43.8,566.3,43.8,570.4,43.8,570.4z"/>
	</g>
	<g>
		<path d="M60.5,558.2L60.5,558.2L60.5,558.2z"/>
		<path d="M60.5,558.2h-8.9l1.3-1.3c0.1-0.1,0.1-0.1,0.1-0.2s0-0.2-0.1-0.2l-0.2-0.2c-0.1-0.1-0.1-0.1-0.2-0.1c-0.1,0-0.2,0-0.2,0.1
			l-2.2,2.2c-0.1,0.1-0.1,0.1-0.1,0.2c0,0.1,0,0.2,0.1,0.2l2.2,2.2c0.1,0.1,0.1,0.1,0.2,0.1s0.2,0,0.2-0.1l0.2-0.2
			c0.1-0.1,0.1-0.1,0.1-0.2c0-0.1,0-0.2-0.1-0.2l-1.3-1.3h8.9c0.2,0,0.3-0.2,0.3-0.3v-0.3C60.8,558.4,60.7,558.2,60.5,558.2z"/>
		<path d="M50.2,554.7h8.9l-1.3,1.3c-0.1,0.1-0.1,0.2-0.1,0.2s0,0.2,0.1,0.2l0.2,0.2c0.1,0.1,0.1,0.1,0.2,0.1c0.1,0,0.2,0,0.2-0.1
			l2.2-2.2c0.1-0.1,0.1-0.1,0.1-0.2c0-0.1,0-0.2-0.1-0.2l-2.2-2.2c-0.1-0.1-0.1-0.1-0.2-0.1c-0.1,0-0.2,0-0.2,0.1l-0.2,0.2
			c-0.1,0.1-0.1,0.1-0.1,0.2c0,0.1,0,0.2,0.1,0.2l1.3,1.3h-8.9c-0.2,0-0.3,0.2-0.3,0.3v0.3C49.9,554.6,50,554.7,50.2,554.7z"/>
		<path d="M50.2,554.7L50.2,554.7L50.2,554.7z"/>
	</g>
</g>
<g>
	<g>
		<g>
			<rect x="94.4" y="569" width="1.3" height="1.3"/>
			<path d="M95.7,543.4h20.5v1.3h1.3v-3.2c0-1.8-1.4-3.2-3.2-3.2H97.6c-1.8,0-3.2,1.4-3.2,3.2v3.2h1.3L95.7,543.4L95.7,543.4z
				 M95.7,541.5c0-1.1,0.9-1.9,1.9-1.9h16.7c1.1,0,1.9,0.9,1.9,1.9v0.6H95.7V541.5z"/>
			<rect x="116.2" y="569" width="1.3" height="1.3"/>
			<path d="M94.4,574.8c0,1.8,1.4,3.2,3.2,3.2h16.7c1.8,0,3.2-1.4,3.2-3.2v-3.2H94.4V574.8L94.4,574.8z M95.7,572.9h20.5v1.9
				c0,1.1-0.9,1.9-1.9,1.9H97.6c-1.1,0-1.9-0.9-1.9-1.9V572.9L95.7,572.9z"/>
			<rect x="102.7" y="574.2" width="6.4" height="1.3"/>
			<path d="M107.9,556.9c0-6-4.9-10.9-10.9-10.9s-10.9,4.9-10.9,10.9S91,567.8,97,567.8S107.9,562.9,107.9,556.9z M87.3,556.9
				c0-5.3,4.3-9.6,9.6-9.6c5.3,0,9.6,4.3,9.6,9.6s-4.3,9.6-9.6,9.6C91.7,566.5,87.3,562.2,87.3,556.9z"/>
			<path d="M100.2,563.3v-5.1h-2.6v-2.6h2.6v-5.1H97c-1.8,0-3.2,1.4-3.2,3.2v6.4c0,1.8,1.4,3.2,3.2,3.2L100.2,563.3L100.2,563.3z
				 M95,560.1v-6.4c0-1.1,0.9-1.9,1.9-1.9h1.9v2.6h-2.6v5.1h2.6v2.6H97C95.9,562,95,561.1,95,560.1z"/>
			<path d="M110.4,552.4v2.6c0,1.1,0.9,1.9,1.9,1.9c0,1,0.5,2,1.3,2.6l1.2,0.9c0.3,0.2,0.7,0.4,1.2,0.4h1.7c0.4,0,0.8-0.1,1.2-0.4
				l1.2-0.9c0.8-0.6,1.3-1.6,1.3-2.6c1.1,0,1.9-0.9,1.9-1.9v-2.6c0-3.5-2.9-6.4-6.4-6.4C113.3,546,110.4,548.8,110.4,552.4z
				 M112.4,555.6c-0.4,0-0.6-0.3-0.6-0.6c0-0.4,0.3-0.6,0.6-0.6V555.6z M120.1,556.9c0,0.6-0.3,1.2-0.8,1.5l-1.2,0.9
				c-0.1,0.1-0.2,0.1-0.4,0.1H116c-0.1,0-0.3,0-0.4-0.1l-1.2-0.9c-0.5-0.4-0.8-0.9-0.8-1.5v-2.7c1.2-0.2,2.3-0.8,3.2-1.6
				c0.9,0.8,2,1.3,3.2,1.6L120.1,556.9L120.1,556.9z M121.3,555.6v-1.3c0.4,0,0.6,0.3,0.6,0.6C122,555.3,121.7,555.6,121.3,555.6z
				 M122,552.4v0.8c-0.2-0.1-0.4-0.1-0.6-0.1h-0.1c-1.5,0-2.8-0.6-3.9-1.6l-0.6-0.6l-0.6,0.6c-1,1-2.4,1.6-3.9,1.6
				c-0.2,0-0.4,0-0.6,0.1v-0.8c0-2.8,2.3-5.1,5.1-5.1C119.7,547.2,122,549.5,122,552.4z"/>
			<path d="M120.7,560.9v-0.8h-1.3v1c-0.7,0.6-1.5,0.9-2.4,0.9h-0.3c-0.9,0-1.8-0.3-2.5-0.9v-1H113v0.8l-2.1,0.7
				c-1,0.3-1.8,1.1-2.1,2.2l-1.1,4h18.4l-1.2-4c-0.3-1-1.1-1.8-2.1-2.1L120.7,560.9z M123.6,564.1l0.7,2.4h-15l0.7-2.4
				c0.2-0.6,0.6-1.1,1.2-1.3l2.2-0.7c0.9,0.8,2.1,1.2,3.2,1.2h0.3c1.2,0,2.3-0.4,3.2-1.2l2.2,0.7C123,563,123.5,563.5,123.6,564.1z"
				/>
		</g>
	</g>
</g>
<g>
	<path class="st8" d="M40.2,609.2c-0.2-0.2-0.4-0.3-0.7-0.3H35v-4.4c0-0.3-0.1-0.5-0.3-0.7s-0.4-0.3-0.7-0.3h-2
		c-0.3,0-0.5,0.1-0.7,0.3s-0.3,0.4-0.3,0.7v4.4h-4.4c-0.3,0-0.5,0.1-0.7,0.3s-0.3,0.4-0.3,0.7v2c0,0.3,0.1,0.5,0.3,0.7
		c0.2,0.2,0.4,0.3,0.7,0.3H31v4.4c0,0.3,0.1,0.5,0.3,0.7c0.2,0.2,0.4,0.3,0.7,0.3h2c0.3,0,0.5-0.1,0.7-0.3s0.3-0.4,0.3-0.7V613h4.4
		c0.3,0,0.5-0.1,0.7-0.3s0.3-0.4,0.3-0.7v-2C40.5,609.7,40.4,609.4,40.2,609.2z"/>
</g>
<g>
	<g>
		<path class="st10" d="M105.2,608.2c-0.2-0.2-0.4-0.3-0.7-0.3h-13c-0.3,0-0.5,0.1-0.7,0.3s-0.3,0.4-0.3,0.7v2
			c0,0.3,0.1,0.5,0.3,0.7c0.2,0.2,0.4,0.3,0.7,0.3h13c0.3,0,0.5-0.1,0.7-0.3s0.3-0.4,0.3-0.7v-2
			C105.5,608.7,105.4,608.4,105.2,608.2z"/>
	</g>
</g>
<path d="M148.2,457c0.2-1,0.3-2,0.3-3c0-3.9-1.5-7.5-4.2-10.3c-2.7-2.7-6.4-4.2-10.3-4.2c-1,0-2,0.1-3,0.3c-1.1-0.5-2.4-0.8-3.6-0.8
	c-4.6,0-8.4,3.8-8.4,8.4c0,1.2,0.3,2.5,0.8,3.6c-0.2,1-0.3,2-0.3,3c0,3.9,1.5,7.5,4.2,10.3c2.7,2.7,6.4,4.2,10.3,4.2
	c1,0,2-0.1,3-0.3c1.1,0.5,2.4,0.8,3.6,0.8c4.6,0,8.4-3.8,8.4-8.4C149,459.4,148.7,458.1,148.2,457z M140.6,467.2
	c-1.1,0-2.1-0.3-3.1-0.8c-0.1-0.1-0.3-0.1-0.4-0.1c-0.1,0-0.1,0-0.2,0c-1,0.2-1.9,0.3-2.9,0.3c-7,0-12.7-5.7-12.7-12.7
	c0-1,0.1-2,0.3-2.9c0-0.2,0-0.4-0.1-0.6c-0.5-1-0.8-2-0.8-3.1c0-3.7,3-6.6,6.6-6.6c1.1,0,2.1,0.3,3.1,0.8c0.2,0.1,0.4,0.1,0.6,0.1
	c1-0.2,1.9-0.3,2.9-0.3c7,0,12.7,5.7,12.7,12.7c0,1-0.1,2-0.3,2.9c0,0.2,0,0.4,0.1,0.6c0.5,1,0.8,2,0.8,3.1
	C147.2,464.3,144.3,467.2,140.6,467.2z"/>
<path d="M134,447.2c2.6,0,4.8,1.4,4.8,3c0,0.5,0.4,0.9,0.9,0.9c0.5,0,0.9-0.4,0.9-0.9c0-1.3-0.7-2.5-2-3.4c-1.2-0.8-2.8-1.3-4.5-1.3
	s-3.3,0.5-4.5,1.3c-1.3,0.9-2,2.1-2,3.4s0.7,2.5,2,3.4c1.2,0.8,2.8,1.3,4.5,1.3c2.6,0,4.8,1.4,4.8,3c0,1.6-2.2,3-4.8,3
	c-2.6,0-4.8-1.4-4.8-3c0-0.5-0.4-0.9-0.9-0.9c-0.5,0-0.9,0.4-0.9,0.9c0,1.3,0.7,2.5,2,3.4c1.2,0.8,2.8,1.3,4.5,1.3s3.3-0.5,4.5-1.3
	c1.3-0.9,2-2.1,2-3.4c0-1.3-0.7-2.5-2-3.4c-1.2-0.8-2.8-1.3-4.5-1.3c-2.6,0-4.8-1.4-4.8-3C129.2,448.6,131.4,447.2,134,447.2z"/>
</svg>
