<?xml version="1.0" encoding="utf-8"?>
<!-- Generator: Adobe Illustrator 16.0.0, SVG Export Plug-In . SVG Version: 6.00 Build 0)  -->
<!DOCTYPE svg PUBLIC "-//W3C//DTD SVG 1.1//EN" "http://www.w3.org/Graphics/SVG/1.1/DTD/svg11.dtd">
<svg version="1.1" id="Layer_1" xmlns="http://www.w3.org/2000/svg" xmlns:xlink="http://www.w3.org/1999/xlink" x="0px" y="0px"
	 width="240.644px" height="239.988px" viewBox="0 0 240.644 239.988" enable-background="new 0 0 240.644 239.988"
	 xml:space="preserve">
<rect y="-1.011" display="none" fill="#110A07" width="240.667" height="242"/>
<image display="none" overflow="visible" width="240" height="240" xlink:href="ml-sprite-png.html"  transform="matrix(1 0 0 1 0.644 -0.0112)">
</image>
<path fill="#FFFFFF" d="M138.495,71.523c-3.234,0-5.859,2.625-5.859,5.859v6.141c-0.727-0.32-1.523-0.484-2.344-0.484
	c-1.563,0-3.039,0.609-4.141,1.719l-5.234,5.234v12h9.375v-4.117l9.375-9.375V71.523H138.495z M137.323,87.531l-9.375,9.375v2.75
	h-4.688v-8.695l4.547-4.547c0.664-0.664,1.547-1.031,2.484-1.031c0.531,0,1.047,0.117,1.516,0.344l-4.305,4.305l1.656,1.656
	l6.102-6.102l-0.281-0.281v-7.922c0-1.531,0.977-2.828,2.344-3.313V87.531z"/>
<path fill="#FFFFFF" d="M109.042,83.047c-0.82,0-1.617,0.164-2.344,0.484v-6.141c0-3.234-2.625-5.859-5.859-5.859h-1.172v16.977
	l9.375,9.375V102h9.375V89.992l-5.234-5.234C112.081,83.656,110.604,83.047,109.042,83.047z M116.073,99.648h-4.688v-2.75
	l-9.375-9.375V74.07c1.367,0.484,2.344,1.789,2.344,3.313v7.922l-0.281,0.281l6.102,6.102l1.656-1.656l-4.305-4.305
	c0.469-0.227,0.984-0.344,1.516-0.344c0.938,0,1.82,0.367,2.484,1.031l4.547,4.547V99.648z"/>
<path fill="#FFFFFF" d="M127.87,67.375L119.667,62l-8.203,5.375v10.641l8.203,5.469l8.203-5.469V67.375z M124.573,68.016
	l-4.906,3.273l-4.906-3.273l4.906-3.211L124.573,68.016z M113.807,70.203l4.688,3.125v6.555l-4.688-3.125V70.203z M120.838,79.883
	v-6.555l4.688-3.125v6.555L120.838,79.883z"/>
<path fill="#FFFFFF" d="M208.12,17.281l-3.672,1.836V7.094h-0.008c0.008-0.078,0.008-0.156,0.008-0.234
	c0-1.766-1.477-3.328-4.172-4.406C197.932,1.516,194.831,1,191.557,1s-6.375,0.516-8.719,1.453
	c-2.695,1.078-4.172,2.641-4.172,4.406v21.094c0,1.766,1.477,3.328,4.172,4.406c2.352,0.938,5.445,1.453,8.719,1.453
	c2.93,0,5.703-0.414,7.938-1.172c0.242,0.477,0.5,0.945,0.781,1.406c1.773,2.867,4.305,5.18,7.313,6.688L208.112,41l0.523-0.266
	c3.016-1.508,5.547-3.82,7.313-6.688c1.781-2.859,2.719-6.156,2.719-9.531v-1.961L208.12,17.281z M183.706,4.633
	c2.078-0.828,4.867-1.289,7.852-1.289s5.773,0.461,7.852,1.289c1.641,0.656,2.695,1.531,2.695,2.227s-1.055,1.57-2.695,2.227
	c-2.078,0.828-4.867,1.289-7.852,1.289s-5.773-0.461-7.852-1.289c-1.641-0.656-2.695-1.531-2.695-2.227S182.065,5.289,183.706,4.633
	z M181.01,10.344c0.523,0.336,1.133,0.641,1.828,0.922c2.352,0.938,5.445,1.453,8.719,1.453s6.375-0.516,8.719-1.453
	c0.688-0.273,1.297-0.586,1.828-0.922v3.547c0,0.695-1.055,1.57-2.695,2.227c-2.078,0.828-4.867,1.289-7.852,1.289
	s-5.773-0.461-7.852-1.289c-1.641-0.656-2.695-1.531-2.695-2.227V10.344z M181.01,17.375c0.523,0.336,1.133,0.641,1.828,0.922
	c2.352,0.938,5.445,1.453,8.719,1.453s6.375-0.516,8.719-1.453c0.688-0.273,1.297-0.586,1.828-0.922v2.914l-4.531,2.266v1.18
	c-1.789,0.461-3.852,0.703-6.016,0.703c-2.984,0-5.773-0.461-7.852-1.289c-1.641-0.656-2.695-1.531-2.695-2.227V17.375z
	 M191.557,31.469c-2.984,0-5.773-0.461-7.852-1.289c-1.641-0.656-2.695-1.531-2.695-2.227v-3.547
	c0.523,0.336,1.133,0.641,1.828,0.922c2.352,0.938,5.445,1.453,8.719,1.453c2.156,0,4.234-0.227,6.086-0.648
	c0.133,1.484,0.445,2.945,0.938,4.344C196.627,31.109,194.127,31.469,191.557,31.469z M216.323,24.516
	c0,5.82-3.125,11.07-8.203,13.844c-5.078-2.766-8.203-8.023-8.203-13.844V24l8.203-4.094l8.203,4.102V24.516z"/>
<path fill="#FFFFFF" d="M202.268,25.453l0.109,0.828c0.453,3.508,2.242,6.641,5.023,8.82l0.719,0.563l0.719-0.563
	c2.781-2.18,4.57-5.305,5.023-8.82l0.109-0.828l-5.852-2.93L202.268,25.453z M208.12,32.633c-1.68-1.563-2.828-3.594-3.289-5.844
	l3.289-1.641l3.289,1.641C210.948,29.047,209.799,31.07,208.12,32.633z"/>
<path fill="#FFFFFF" d="M51.776,157.861l-2.188,1.641h-0.25c-0.547-2.664-2.906-4.68-5.734-4.68h-4.875l-1.219-0.813
	c-3.5-2.336-8.297-2.016-11.461,0.813h-5.383v11.703h5.734l12.148,2.422h10.266l11.852-8.984l-0.695-0.93
	C58.026,156.447,54.362,155.924,51.776,157.861z M25.346,164.182H23.01v-7.023h2.344v7.023H25.346z M48.026,166.604h-9.242
	l-11.094-2.211v-7.891c2.336-2.031,5.922-2.281,8.523-0.547l1.805,1.203h5.578c1.523,0,2.828,0.977,3.313,2.344H36.034v2.344H50.37
	l2.805-2.109c1.219-0.914,2.852-0.914,4.055-0.109L48.026,166.604z"/>
<path fill="#FFFFFF" d="M39.549,128.994v23.484h18.727v-15.781l-7.711-7.703H39.549z M51.252,132.986l3.023,3.023h-3.023V132.986z
	 M41.885,150.143v-18.805h7.023v7.023h7.023v11.781H41.885z"/>
<path fill="#FFFFFF" d="M44.229,140.775h4.68v2.344h-4.68V140.775z"/>
<path fill="#FFFFFF" d="M51.252,140.775h2.344v2.344h-2.344V140.775z"/>
<path fill="#FFFFFF" d="M44.229,145.455h4.68v2.344h-4.68V145.455z"/>
<path fill="#FFFFFF" d="M51.252,145.455h2.344v2.344h-2.344V145.455z"/>
<g>
	<path fill="#ff3066" d="M54.655,200.025v-5.551h4.536V192H21.667v2.475h4.536v5.551c0,4.906,2.507,9.393,6.54,11.975
		c-4.041,2.59-6.54,7.076-6.54,11.975v5.551h-4.536V232h37.524v-2.475h-4.536v-5.551c0-4.906-2.507-9.393-6.541-11.975
		C52.148,209.41,54.655,204.924,54.655,200.025z M45.055,210.829l-0.75,0.32v1.701l0.75,0.32c4.33,1.856,7.126,6.095,7.126,10.804
		v5.551H28.676v-5.551c0-4.709,2.796-8.947,7.126-10.804l0.75-0.32v-1.701l-0.75-0.32c-4.33-1.856-7.126-6.095-7.126-10.804v-5.551
		h23.505v5.551C52.182,204.726,49.385,208.973,45.055,210.829z"/>
	<path fill="#ff3066" d="M31.976,200.025c0,4.239,3.142,7.761,7.215,8.362v14.359h-7.215v3.479h16.906v-3.488h-7.215v-14.351
		c4.073-0.602,7.215-4.123,7.215-8.362v-1.238H31.976V200.025z M46.275,201.262c-0.569,2.706-2.977,4.743-5.847,4.743
		s-5.278-2.037-5.847-4.743H46.275z"/>
</g>
<path fill="#ff3066" d="M199.377,198.229c-7.619,0-13.824,6.204-13.824,13.824c0,2.444,0.65,4.839,1.868,6.945
	c1.062,1.826,2.543,3.398,4.304,4.566v10.5h15.306v-10.5c1.761-1.168,3.242-2.74,4.304-4.566c1.226-2.099,1.868-4.501,1.868-6.945
	C213.203,204.434,206.998,198.229,199.377,198.229z M194.194,231.597v-5.266h10.368v5.266H194.194z M205.163,221.821l-0.601,0.362
	v1.679h-1.728v-7.274l1.818-2.23l-1.909-1.563l-2.378,2.913v8.155h-1.852v-8.155l-2.378-2.913l-1.909,1.563l1.818,2.23v7.274h-1.852
	v-1.679l-0.601-0.362c-3.432-2.041-5.571-5.785-5.571-9.768c0-6.262,5.094-11.355,11.355-11.355c6.263,0,11.356,5.094,11.356,11.355
	C210.734,216.036,208.602,219.78,205.163,221.821z"/>
<path fill="#ff3066" d="M198.144,191.935h2.468v4.032h-2.468V191.935z"/>
<path fill="#ff3066" d="M206.348,197.547l2.023-3.489l2.14,1.234l-2.016,3.488L206.348,197.547z"/>
<path fill="#ff3066" d="M212.659,203.035l3.498-2.008l1.226,2.14l-3.497,2.008L212.659,203.035z"/>
<path fill="#ff3066" d="M215.367,213.411l0.008-2.469l4.032,0.017l-0.008,2.469L215.367,213.411z"/>
<path fill="#ff3066" d="M212.519,221.278l1.243-2.132l3.48,2.033L216,223.311L212.519,221.278z"/>
<path fill="#ff3066" d="M188.302,195.3l2.14-1.234l2.023,3.489l-2.139,1.234L188.302,195.3z"/>
<path fill="#ff3066" d="M181.422,203.167l1.227-2.14l3.497,2.008l-1.226,2.14L181.422,203.167z"/>
<path fill="#ff3066" d="M179.407,210.959l4.032-0.017l0.009,2.469l-4.033,0.017L179.407,210.959z"/>
<path fill="#ff3066" d="M181.571,221.18l3.48-2.033l1.243,2.132l-3.481,2.032L181.571,221.18z"/>
<path fill="#FFFFFF" d="M40.667,73.024c-5.602,0-10.162,4.561-10.162,10.162c0,2.659,1.023,5.18,2.878,7.082
	c1.553,1.602,2.406,3.748,2.406,6.049v6.057h2.438v2.439h4.879v-2.439h2.438v-6.057c0-2.301,0.854-4.456,2.406-6.049
	c1.854-1.911,2.878-4.423,2.878-7.082C50.829,77.585,46.268,73.024,40.667,73.024z M38.227,99.935v-2.438h4.879v2.438H38.227z
	 M46.203,88.569c-1.707,1.756-2.764,4.024-3.032,6.487h-5.016c-0.269-2.463-1.317-4.731-3.033-6.487
	c-1.406-1.447-2.179-3.358-2.179-5.383c0-4.26,3.464-7.723,7.724-7.723s7.724,3.463,7.724,7.723
	C48.39,85.211,47.618,87.122,46.203,88.569z"/>
<path fill="#FFFFFF" d="M54.975,81.968h5.691v2.438h-5.691V81.968z"/>
<path fill="#FFFFFF" d="M53.943,68.179l1.724,1.724l-4.024,4.024l-1.724-1.724L53.943,68.179z"/>
<path fill="#FFFFFF" d="M39.447,63.187h2.439v5.691h-2.439V63.187z"/>
<path fill="#FFFFFF" d="M27.39,68.179l4.024,4.024l-1.724,1.724l-4.033-4.017L27.39,68.179z"/>
<path fill="#FFFFFF" d="M20.667,81.968h5.691v2.438h-5.691V81.968z"/>
<path fill="#FFFFFF" d="M27.39,98.195l-1.724-1.724l4.024-4.024l1.724,1.724L27.39,98.195z"/>
<path fill="#FFFFFF" d="M53.943,98.195l-4.024-4.024l1.724-1.724l4.024,4.024L53.943,98.195z"/>
<path fill="#FFFFFF" d="M40.667,85.724l-2.585-2.585l-1.724,1.723l4.309,4.31l4.309-4.31l-1.724-1.723L40.667,85.724z"/>
<path fill="#FFFFFF" d="M109.018,14.894l-0.993-1.188l-1.797,1.5l2.548,3.047l4.234-3.797l-1.563-1.743L109.018,14.894z"/>
<path fill="#FFFFFF" d="M114.777,14.612h9.064v2.344h-9.064V14.612z"/>
<path fill="#FFFFFF" d="M109.018,21.637l-0.993-1.188l-1.797,1.5l2.548,3.047l4.234-3.798l-1.563-1.742L109.018,21.637z"/>
<path fill="#FFFFFF" d="M114.777,21.356h9.064V23.7h-9.064V21.356z"/>
<path fill="#FFFFFF" d="M107.018,28.373l-0.993-1.18l-1.797,1.5l2.548,3.048l4.234-3.798l-1.563-1.743L107.018,28.373z"/>
<path fill="#FFFFFF" d="M112.777,28.091h9.064v2.344h-9.064V28.091z"/>
<path fill="#FFFFFF" d="M122.294,0h-2.345v2.383h-3.023V0h-2.345v2.383h-3.023V0h-2.345v2.383h-3.016V0h-2.345v2.383h-5.196v37.625
	h28.834V2.383h-5.196V0z M125.146,4.728v32.937h-24.145V4.728h2.852v2.383h2.345V4.728h3.023v2.383h2.345V4.728h3.023v2.383h2.345
	V4.728h3.023v2.383h2.345V4.728H125.146z"/>
<path fill="#FFFFFF" d="M130.256,2.071v32.249l3.509,5.688h1.383l3.509-5.688V2.071H130.256z M136.321,4.415v4.071h-3.72V4.415
	H136.321z M132.601,10.83h3.72v19.098h-3.72V10.83z M134.46,36.663l-1.859-3.008v-1.383h3.72v1.383L134.46,36.663z"/>
<g>
	<g>
		<path fill="#FFFFFF" d="M178.667,62v40h40V62H178.667z M181.01,64.344h16.484l-0.039,4.906v0.008v0.008
			c0.008,1.453,1.195,2.625,2.648,2.625h0.641l0.344-0.539c0.422-0.656,1.133-1.031,1.906-1c1.117,0.047,2.023,0.953,2.07,2.07
			c0.023,0.594-0.188,1.156-0.602,1.586s-0.961,0.664-1.555,0.664c-0.742,0-1.422-0.375-1.82-1l-0.344-0.539h-0.641
			c-1.453,0-2.641,1.188-2.641,2.633l-0.031,5.016l-4.93-0.016l0,0c0.789-0.828,1.242-1.938,1.234-3.109
			c0-1.234-0.5-2.383-1.391-3.242c-0.891-0.852-2.063-1.297-3.297-1.242c-2.336,0.094-4.227,2-4.313,4.336
			c-0.047,1.234,0.422,2.422,1.258,3.289c0,0,0,0-0.008,0l-4.977-0.031V64.344z M181.01,99.656V83.109l4.984,0.023h0.008h0.008
			c1.453-0.016,2.625-1.203,2.617-2.648l-0.008-0.648l-0.539-0.344c-0.656-0.414-1.031-1.133-1-1.906
			c0.039-1.117,0.945-2.031,2.063-2.078c0.594-0.023,1.156,0.188,1.586,0.594s0.664,0.961,0.664,1.555
			c0,0.742-0.367,1.422-0.992,1.82l-0.539,0.344v0.641c0.008,1.453,1.188,2.633,2.641,2.633l0,0l4.914,0.016l-0.031,5.109v0.008
			c-0.875-0.836-2.063-1.297-3.289-1.25c-2.336,0.094-4.234,1.992-4.32,4.328c-0.047,1.234,0.398,2.406,1.258,3.297
			s2.008,1.383,3.242,1.383c1.18,0,2.281-0.453,3.109-1.242l0,0l0.008,4.906H181.01V99.656z M216.323,99.656h-16.586l-0.008-4.906
			c0-1.453-1.188-2.641-2.641-2.641h-0.641l-0.344,0.539c-0.398,0.625-1.078,1-1.82,1c-0.594,0-1.148-0.234-1.555-0.664
			c-0.414-0.43-0.625-0.992-0.602-1.586c0.039-1.117,0.953-2.031,2.07-2.07c0.773-0.031,1.492,0.344,1.906,1l0.352,0.539h0.641
			c1.453,0,2.633-1.18,2.641-2.625l0.031-5.117l5.211,0.016h0.008c-0.828,0.875-1.289,2.063-1.242,3.297
			c0.102,2.336,2,4.227,4.336,4.305c0.055,0,0.109,0,0.164,0c1.172,0,2.281-0.445,3.133-1.266c0.891-0.859,1.375-2.016,1.375-3.25
			c0-1.18-0.461-2.281-1.25-3.102l0,0l4.828-0.023L216.323,99.656L216.323,99.656z M216.323,80.773l-4.836,0.023
			c-1.453,0.008-2.633,1.195-2.633,2.648v0.641l0.539,0.344c0.625,0.398,1,1.078,1.008,1.82c0,0.594-0.234,1.148-0.656,1.555
			c-0.422,0.414-0.984,0.625-1.578,0.609c-1.117-0.039-2.031-0.945-2.078-2.063c-0.031-0.773,0.336-1.492,0.992-1.914l0.539-0.344
			v-0.648c-0.008-1.453-1.188-2.633-2.633-2.633l-5.203-0.016l0.031-5.016l0,0c0.828,0.789,1.93,1.242,3.109,1.242
			c1.234,0,2.391-0.492,3.242-1.383c0.859-0.891,1.305-2.063,1.258-3.297c-0.086-2.336-1.984-4.234-4.32-4.328
			c-1.234-0.047-2.422,0.414-3.289,1.25c0,0,0,0,0-0.008l0.023-4.914h16.484V80.773z"/>
	</g>
</g>
<g>
	<g>
		<path fill="#ff3066" d="M117.75,192c-8.171,0-14.828,6.595-14.938,14.734l-3.765,10.82h3.757v8.063h7.297V232h17.148v-13.547
			c1.579-1.313,2.899-2.953,3.821-4.773c1.062-2.102,1.602-4.367,1.602-6.742C132.688,198.703,125.985,192,117.75,192z
			 M125.352,216.938l-0.469,0.359v12.328h-12.398v-6.391h-7.297v-8.063h-2.797l2.797-8.039v-0.203
			c0-6.93,5.633-12.563,12.563-12.563s12.563,5.633,12.563,12.563C130.313,210.891,128.5,214.539,125.352,216.938z"/>
	</g>
</g>
<g>
	<g>
		<path fill="#ff3066" d="M127.438,208.125v-2.375h-2.125c-0.195-1.227-0.68-2.359-1.375-3.32l1.508-1.508l-1.688-1.68l-1.5,1.508
			c-0.96-0.703-2.093-1.188-3.32-1.375v-2.125h-2.375v2.125c-1.227,0.195-2.36,0.68-3.321,1.375l-1.508-1.508l-1.68,1.68
			l1.508,1.508c-0.704,0.961-1.188,2.094-1.375,3.32h-2.133v2.375h2.125c0.195,1.227,0.68,2.359,1.375,3.32l-1.507,1.508l1.68,1.68
			l1.507-1.508c0.961,0.703,2.094,1.188,3.32,1.375v2.125h2.375V214.5c1.227-0.195,2.359-0.68,3.321-1.375l1.507,1.508l1.681-1.68
			l-1.508-1.508c0.703-0.961,1.187-2.094,1.375-3.32H127.438L127.438,208.125z M117.75,212.219c-2.914,0-5.281-2.367-5.281-5.281
			s2.367-5.281,5.281-5.281c2.915,0,5.281,2.367,5.281,5.281S120.657,212.219,117.75,212.219z"/>
	</g>
</g>
<g>
	<g>
		<path fill="#ff3066" d="M117.75,203.242c-2.039,0-3.695,1.656-3.695,3.695s1.656,3.695,3.695,3.695s3.695-1.656,3.695-3.695
			S119.79,203.242,117.75,203.242z M117.75,208.258c-0.727,0-1.32-0.594-1.32-1.32s0.593-1.32,1.32-1.32s1.32,0.594,1.32,1.32
			S118.477,208.258,117.75,208.258z"/>
	</g>
</g>
<g>
	<g>
		<rect x="107.194" y="148.922" fill="#FFFFFF" width="2.347" height="13.845"/>
	</g>
</g>
<g>
	<g>
		<path fill="#FFFFFF" d="M138.637,153.302v-8.683h-5.412c-0.306-1.016-0.712-1.994-1.221-2.925l3.81-3.81l-6.086-6.084
			l-3.809,3.809c-0.954-0.523-1.964-0.938-3.004-1.244v-5.389h-8.604v1.877l-1.087-1.877h-2.676v6.141l-2.189,2.033l-2.19-2.033
			v-6.141h-2.667l-4.865,8.447l4.404,7.658v18.623c0,2.933,2.385,5.318,5.319,5.318c2.933,0,5.318-2.386,5.318-5.318v-0.267
			c0.203,0.07,0.415,0.141,0.626,0.196v5.389h8.604v-5.389c1.048-0.306,2.05-0.72,3.004-1.244l3.809,3.81l6.086-6.086l-3.81-3.809
			c0.524-0.954,0.938-1.964,1.244-3.004H138.637z M111.339,163.705c0,1.643-1.329,2.972-2.972,2.972s-2.973-1.329-2.973-2.972
			v-17.834h5.944V163.705z M112.888,141.758l-0.008,0.008v0.008l-1.009,1.752h-7.016l-3.504-6.102l2.479-4.31v3.019l4.537,4.225
			l4.536-4.225v-3.019l2.479,4.31L112.888,141.758z M123.479,144.135c2.683,2.684,2.683,7.047,0,9.738
			c-2.683,2.683-7.048,2.683-9.738,0l-0.063,0.063v-8.854l0.993-1.729C117.393,141.452,121.101,141.758,123.479,144.135z
			 M132.49,160.114l-2.77,2.77l-3.457-3.457l-0.79,0.5c-1.228,0.774-2.581,1.33-4.005,1.658l-0.915,0.203v4.889h-3.91v-4.889
			l-0.916-0.203c-0.703-0.156-1.392-0.375-2.057-0.649v-4.129c1.502,0.945,3.215,1.423,4.928,1.423c2.362,0,4.725-0.899,6.523-2.698
			c3.598-3.598,3.598-9.457,0-13.055c-2.3-2.299-5.53-3.152-8.525-2.487l1.493-2.565l-1.431-2.487v-3.613h3.91v4.888l0.915,0.212
			c1.424,0.321,2.77,0.884,4.005,1.658l0.79,0.501l3.457-3.457l2.77,2.768l-3.466,3.442l0.501,0.79
			c0.759,1.212,1.314,2.534,1.643,3.926l0.203,0.916h4.896v3.988h-4.889l-0.203,0.916c-0.32,1.423-0.884,2.769-1.658,4.004
			l-0.493,0.79L132.49,160.114z"/>
	</g>
</g>
<path fill="#ff3066" d="M178.667,168h40v-40h-40V168z M216.323,165.656H181.01v-25.938h22.93l7.031-9.375h5.352V165.656z
	 M208.042,130.344l-5.273,7.031H181.01v-7.031H208.042z"/>
<path fill="#ff3066" d="M188.12,132.688h2.344v2.344h-2.344V132.688z"/>
<path fill="#ff3066" d="M192.807,132.688h2.344v2.344h-2.344V132.688z"/>
<path fill="#ff3066" d="M183.432,132.688h2.344v2.344h-2.344V132.688z"/>
<path fill="#ff3066" d="M206.042,144.367l-2.75,1.586c-0.352-0.242-0.727-0.461-1.117-0.648v-3.164h-7.031v3.164
	c-0.391,0.188-0.758,0.398-1.117,0.648l-2.75-1.586l-3.516,6.086l2.719,1.57c-0.023,0.227-0.031,0.445-0.031,0.656
	s0.008,0.43,0.031,0.656l-2.719,1.57l3.516,6.086l2.75-1.586c0.352,0.242,0.727,0.461,1.117,0.648v3.18h7.031v-3.164
	c0.391-0.188,0.758-0.398,1.117-0.648l2.75,1.586l3.516-6.086l-2.719-1.57c0.023-0.227,0.031-0.445,0.031-0.656
	s-0.008-0.43-0.031-0.656l2.719-1.57L206.042,144.367z M204.526,152.688c0,0.68-0.156,1.242-0.258,1.883l2.094,1.211l-1.172,2.031
	l-2.109-1.219c-0.438,0.328-1.109,1.117-2.453,1.602l-0.781,0.281v2.414h-2.344v-2.43l-0.781-0.281
	c-1.352-0.484-2.031-1.273-2.453-1.602l-2.109,1.219l-1.172-2.031l2.094-1.211c-0.109-0.633-0.258-1.195-0.258-1.883
	c0-0.68,0.156-1.242,0.258-1.883l-2.094-1.211l1.172-2.031l2.109,1.219c0.43-0.328,1.109-1.117,2.453-1.602l0.781-0.281v-2.398
	h2.344v2.43l0.781,0.281c1.344,0.477,2.016,1.266,2.453,1.602l2.109-1.219l1.172,2.031l-2.094,1.211
	C204.37,151.445,204.526,152.008,204.526,152.688z"/>
<path fill="#ff3066" d="M198.667,149.172c-1.938,0-3.516,1.578-3.516,3.516s1.578,3.516,3.516,3.516s3.516-1.578,3.516-3.516
	S200.604,149.172,198.667,149.172z M198.667,153.859c-0.648,0-1.172-0.523-1.172-1.172s0.523-1.172,1.172-1.172
	s1.172,0.523,1.172,1.172S199.315,153.859,198.667,153.859z"/>
<g>
	<path fill="#FFFFFF" d="M43.315,0C35.01,0,28.229,6.719,28.081,15.039l-5.414,10.828h5.414v7.031h7.031v4.688h2.344V40h2.344
		v-2.406h2.344V40h2.344v-2.406h2.344V40h2.344v-2.406h2.344v-9.445c2.016-1.289,3.711-3.047,4.93-5.109
		c1.375-2.328,2.102-5,2.102-7.719C58.557,6.875,51.721,0,43.315,0z M37.456,35.25v-2.891l6.219-4.141h5.508v7.031H37.456z
		 M50.706,25.867h-7.742l-7.031,4.688h-5.508V28.21h4.688v-2.343h-4.688v-2.344h-3.969l3.961-7.93V15.32
		c0-7.156,5.781-12.977,12.898-12.977s12.898,5.82,12.898,12.977C56.213,19.523,54.127,23.469,50.706,25.867z"/>
	<path fill="#FFFFFF" d="M49.182,7.109h-2.344v2.344h-2.344V7.109h-2.344v2.344h-2.344V7.109h-2.343v2.344H35.12v2.344h2.345v2.344
		H35.12v2.344h2.345v2.344H35.12v2.344h2.345V23.5h2.343v-2.328h2.344V23.5h2.344v-2.328h2.344V23.5h2.344v-2.328h2.344v-2.344
		h-2.344v-2.344h2.344v-2.344h-2.344v-2.344h2.344V9.453h-2.344V7.109z M46.838,18.836h-7.031v-7.031h7.031V18.836z"/>
	<rect x="42.143" y="14.148" fill="#FFFFFF" width="2.344" height="2.344"/>
</g>
</svg>
