<svg id="Capa_1" fill="#ff3066" enable-background="new 0 0 512 512" height="512" viewBox="0 0 512 512" width="512" xmlns="http://www.w3.org/2000/svg"><g><path d="m477.376 305.339h-78.532v-32.904c0-18.313-14.899-33.213-33.213-33.213h-82.602c-2.917-7.86-9.169-14.112-17.029-17.029v-15.531h78.532c19.091 0 34.624-15.532 34.624-34.624 0-16.453 0-118.742 0-134.699 0-19.091-15.532-34.624-34.624-34.624h-177.064c-19.091 0-34.624 15.532-34.624 34.624v134.699c0 19.091 15.532 34.624 34.624 34.624h78.532v15.531c-7.86 2.917-14.112 9.169-17.029 17.029h-82.602c-18.313 0-33.213 14.899-33.213 33.213v32.904h-78.532c-19.092 0-34.624 15.532-34.624 34.623v134.699c0 19.091 15.532 34.624 34.624 34.624h177.064c19.091 0 34.623-15.532 34.623-34.624 0-16.453 0-118.742 0-134.699 0-19.091-15.532-34.624-34.623-34.624h-78.532v-32.904c0-7.286 5.927-13.213 13.213-13.213h82.602c4.074 10.977 14.652 18.82 27.029 18.82s22.955-7.844 27.029-18.82h82.602c7.286 0 13.213 5.927 13.213 13.213v32.904h-78.532c-19.091 0-34.623 15.532-34.623 34.624v134.699c0 19.091 15.532 34.624 34.623 34.624h177.064c19.091 0 34.624-15.532 34.624-34.624 0-16.453 0-118.742 0-134.699 0-19.091-15.532-34.623-34.624-34.623zm-251.065 169.322c0 8.063-6.56 14.624-14.623 14.624h-177.064c-8.063 0-14.624-6.56-14.624-14.624v-98.581h206.311zm-14.623-149.322c8.063 0 14.623 6.56 14.623 14.624v16.118h-206.311v-16.118c0-8.063 6.56-14.624 14.624-14.624zm-44.22-138.678c-8.063 0-14.624-6.56-14.624-14.624v-98.58h8.948c5.523 0 10-4.477 10-10s-4.477-10-10-10h-8.948v-16.118c0-8.063 6.56-14.624 14.624-14.624h177.064c8.063 0 14.624 6.56 14.624 14.624v16.118h-117.364c-5.523 0-10 4.477-10 10s4.477 10 10 10h117.363v98.581c0 8.063-6.56 14.624-14.624 14.624h-177.063zm88.532 71.381c-4.864 0-8.82-3.957-8.82-8.82s3.957-8.821 8.82-8.821 8.82 3.957 8.82 8.821-3.956 8.82-8.82 8.82zm236 216.619c0 8.063-6.56 14.624-14.624 14.624h-177.064c-8.063 0-14.623-6.56-14.623-14.624v-98.581h206.311zm0-118.581h-206.311v-16.118c0-8.063 6.56-14.624 14.623-14.624h177.064c8.063 0 14.624 6.56 14.624 14.624z"/><path d="m256 82c-25.916 0-47 21.084-47 47s21.084 47 47 47 47-21.084 47-47-21.084-47-47-47zm0 74c-14.888 0-27-12.112-27-27s12.112-27 27-27 27 12.112 27 27-12.112 27-27 27z"/><path d="m78.427 473.115h89.458c7.939 0 12.727-8.848 8.354-15.496l-44.729-68c-3.943-5.996-12.76-6.004-16.709 0l-44.729 68c-4.355 6.622.381 15.496 8.355 15.496zm44.729-59.803 26.181 39.803h-52.363z"/><path d="m354.922 476.844h67.844c5.523 0 10-4.477 10-10v-67.844c0-5.523-4.477-10-10-10h-67.844c-5.523 0-10 4.477-10 10v67.844c0 5.523 4.477 10 10 10zm10-67.844h47.844v47.844h-47.844z"/><path d="m201.817 53.457h-.025c-5.523 0-9.987 4.477-9.987 10s4.489 10 10.012 10 10-4.477 10-10-4.477-10-10-10z"/></g></svg>