<svg class="ai-pythn" xmlns="http://www.w3.org/2000/svg"
xmlns:xlink="http://www.w3.org/1999/xlink" version="1.1" id="Layer_13" x="0px" y="0px"
viewBox="0 0 60 60" style="enable-background:new 0 0 60 60;" xml:space="preserve">
<style type="text/css">
  .ai-pythn .st0 {
    fill: url(#SVGID_1_);
  }

  .ai-pythn .st1 {
    fill: url(#SVGID_2_);
  }
</style>
<g>

  <linearGradient id="SVGID_1_" gradientUnits="userSpaceOnUse" x1="9832.5215" y1="30856.668"
    x2="9835.998" y2="30859.6582"
    gradientTransform="matrix(9.2563 0 0 9.3468 -91013.4922 -288408.9688)">
    <stop offset="0" style="stop-color:#5CA0D5"></stop>
    <stop offset="1" style="stop-color:#316A99"></stop>
  </linearGradient>
  <path class="st0"
    d="M29.6,0.5c-2.4,0-4.7,0.2-6.7,0.6c-6,1-7,3.2-7,7.3v5.4h14.1v1.8H10.6c-4,0-7.6,2.5-8.8,7.1   c-1.3,5.4-1.3,8.7,0,14.3c1,4.2,3.4,7.1,7.5,7.1h4.9v-6.4c0-4.6,4-8.8,8.8-8.8h14c3.9,0,7-3.2,7-7.2V8.4c0-3.8-3.2-6.7-7-7.3   C34.5,0.7,32,0.4,29.6,0.5z M22,4.8c1.4,0,2.6,1.2,2.6,2.7s-1.2,2.7-2.6,2.7S19.3,9,19.3,7.5S20.5,4.8,22,4.8z">
  </path>

  <linearGradient id="SVGID_2_" gradientUnits="userSpaceOnUse" x1="9837.3486" y1="30861.4668"
    x2="9836.1074" y2="30859.709"
    gradientTransform="matrix(9.2563 0 0 9.3468 -91013.4922 -288408.9688)">
    <stop offset="0" style="stop-color:#FFD43E"></stop>
    <stop offset="1" style="stop-color:#FFE975"></stop>
  </linearGradient>
  <path class="st1"
    d="M45.7,15.5v6.2c0,4.9-4.1,8.9-8.8,8.9h-14c-3.8,0-7,3.3-7,7.2v13.4c0,3.8,3.3,6.1,7,7.2   c4.4,1.3,8.7,1.6,14.1,0c3.5-1,7-3.1,7-7.2v-5.4H29.9V44H51c4,0,5.6-2.8,7-7.1c1.5-4.4,1.4-8.6,0-14.3c-1-4-2.9-7.1-7-7.1   L45.7,15.5z M37.8,49.4c1.4,0,2.6,1.2,2.6,2.7s-1.2,2.7-2.6,2.7c-1.4,0-2.6-1.2-2.6-2.7S36.3,49.4,37.8,49.4z">
  </path>
</g>
</svg>