<?xml version="1.0" encoding="utf-8"?>
<!-- Generator: Adobe Illustrator 21.1.0, SVG Export Plug-In . SVG Version: 6.00 Build 0)  -->
<svg version="1.1" id="Layer_1" xmlns="http://www.w3.org/2000/svg" xmlns:xlink="http://www.w3.org/1999/xlink" x="0px" y="0px"
	 viewBox="0 0 270 280" style="enable-background:new 0 0 270 280;" xml:space="preserve">
<style type="text/css">
	.st0{fill:#FFFFFF;}
	.st1{fill:#ff3066;}
</style>
<image style="display:none;overflow:visible;" width="270" height="280" xlink:href="qa-sprite-1.html"  transform="matrix(1 0 0 1 0.25 0)">
</image>
<path class="st0" d="M71,3.1H21v36.3h30.8v6.3l5.5-2.7l5.5,2.7v-6.3H71V3.1z M57.2,33.5c-2.7,0-5-2.2-5-5s2.2-5,5-5c2.7,0,5,2.2,5,5
	S60,33.5,57.2,33.5z M57.2,39.8L54.7,41v-5c0.8,0.3,1.6,0.4,2.5,0.4c0.9,0,1.7-0.1,2.5-0.4v5L57.2,39.8z M68.1,36.5h-5.4v-2.2
	c1.5-1.4,2.4-3.5,2.4-5.7c0-4.4-3.5-7.9-7.9-7.9s-7.9,3.5-7.9,7.9c0,2.2,0.9,4.3,2.4,5.7v2.2H23.9V6h44.1V36.5z"/>
<path class="st0" d="M26.9,14.8h38.3v2.9H26.9V14.8z"/>
<path class="st0" d="M31.3,8.9h29.5v2.9H31.3V8.9z"/>
<path class="st0" d="M26.9,30.6h14.3v2.9H26.9V30.6z"/>
<path class="st0" d="M26.9,24.7h14.3v2.9H26.9V24.7z"/>
<path class="st1" d="M141,3.1H91v36.3h30.8v6.3l5.5-2.7l5.5,2.7v-6.3h8.3V3.1z M127.2,33.5c-2.7,0-5-2.2-5-5s2.2-5,5-5
	c2.7,0,5,2.2,5,5S130,33.5,127.2,33.5z M127.2,39.8l-2.5,1.2v-5c0.8,0.3,1.6,0.4,2.5,0.4c0.9,0,1.7-0.1,2.5-0.4v5L127.2,39.8z
	 M138.1,36.5h-5.4v-2.2c1.5-1.4,2.4-3.5,2.4-5.7c0-4.4-3.5-7.9-7.9-7.9s-7.9,3.5-7.9,7.9c0,2.2,0.9,4.3,2.4,5.7v2.2H93.9V6h44.1
	V36.5z"/>
<path class="st1" d="M96.9,14.8h38.3v2.9H96.9V14.8z"/>
<path class="st1" d="M101.3,8.9h29.5v2.9h-29.5V8.9z"/>
<path class="st1" d="M96.9,30.6h14.3v2.9H96.9V30.6z"/>
<path class="st1" d="M96.9,24.7h14.3v2.9H96.9V24.7z"/>
<g>
	<g>
		<path class="st0" d="M188.4,0c-10.2,0-18.5,8.2-18.7,18.4L165,31.9h4.7V42h9.1v8h21.4V33.1c2-1.6,3.6-3.7,4.8-6
			c1.3-2.6,2-5.5,2-8.4C207,8.4,198.6,0,188.4,0z M197.9,31.2l-0.6,0.4V47h-15.5v-8h-9.1V29h-3.5l3.5-10v-0.3
			c0-8.7,7-15.7,15.7-15.7c8.7,0,15.7,7,15.7,15.7C204.1,23.6,201.8,28.2,197.9,31.2z"/>
	</g>
</g>
<g>
	<g>
		<path class="st0" d="M200.5,20.2v-3h-2.7c-0.2-1.5-0.8-2.9-1.7-4.1l1.9-1.9l-2.1-2.1l-1.9,1.9c-1.2-0.9-2.6-1.5-4.1-1.7V6.6h-3
			v2.7c-1.5,0.2-2.9,0.8-4.1,1.7l-1.9-1.9l-2.1,2.1l1.9,1.9c-0.9,1.2-1.5,2.6-1.7,4.1h-2.7v3h2.7c0.2,1.5,0.8,2.9,1.7,4.1l-1.9,1.9
			l2.1,2.1l1.9-1.9c1.2,0.9,2.6,1.5,4.1,1.7v2.7h3v-2.7c1.5-0.2,2.9-0.8,4.1-1.7l1.9,1.9l2.1-2.1l-1.9-1.9c0.9-1.2,1.5-2.6,1.7-4.1
			L200.5,20.2L200.5,20.2z M188.4,25.3c-3.6,0-6.6-3-6.6-6.6s3-6.6,6.6-6.6c3.6,0,6.6,3,6.6,6.6S192,25.3,188.4,25.3z"/>
	</g>
</g>
<g>
	<g>
		<path class="st0" d="M188.4,14c-2.5,0-4.6,2.1-4.6,4.6s2.1,4.6,4.6,4.6s4.6-2.1,4.6-4.6S190.9,14,188.4,14z M188.4,20.3
			c-0.9,0-1.7-0.7-1.7-1.7c0-0.9,0.7-1.7,1.7-1.7s1.7,0.7,1.7,1.7S189.3,20.3,188.4,20.3z"/>
	</g>
</g>
<g>
	<g>
		<path class="st1" d="M48.4,70c-10.2,0-18.5,8.2-18.7,18.4L25,101.9h4.7V112h9.1v8h21.4v-16.9c2-1.6,3.6-3.7,4.8-6
			c1.3-2.6,2-5.5,2-8.4C67,78.4,58.6,70,48.4,70z M57.9,101.2l-0.6,0.4V117H41.8v-8h-9.1V99h-3.5l3.5-10v-0.3
			c0-8.7,7-15.7,15.7-15.7c8.7,0,15.7,7,15.7,15.7C64.1,93.6,61.8,98.2,57.9,101.2z"/>
	</g>
</g>
<g>
	<g>
		<path class="st1" d="M60.5,90.2v-3h-2.7c-0.2-1.5-0.8-2.9-1.7-4.1l1.9-1.9l-2.1-2.1L54,80.9c-1.2-0.9-2.6-1.5-4.1-1.7v-2.7h-3v2.7
			c-1.5,0.2-2.9,0.8-4.1,1.7l-1.9-1.9l-2.1,2.1l1.9,1.9c-0.9,1.2-1.5,2.6-1.7,4.1h-2.7v3h2.7c0.2,1.5,0.8,2.9,1.7,4.1l-1.9,1.9
			l2.1,2.1l1.9-1.9c1.2,0.9,2.6,1.5,4.1,1.7v2.7h3v-2.7c1.5-0.2,2.9-0.8,4.1-1.7l1.9,1.9l2.1-2.1l-1.9-1.9c0.9-1.2,1.5-2.6,1.7-4.1
			L60.5,90.2L60.5,90.2z M48.4,95.3c-3.6,0-6.6-3-6.6-6.6s3-6.6,6.6-6.6c3.6,0,6.6,3,6.6,6.6S52,95.3,48.4,95.3z"/>
	</g>
</g>
<g>
	<g>
		<path class="st1" d="M48.4,84c-2.5,0-4.6,2.1-4.6,4.6c0,2.5,2.1,4.6,4.6,4.6s4.6-2.1,4.6-4.6C53,86.1,50.9,84,48.4,84z M48.4,90.3
			c-0.9,0-1.7-0.7-1.7-1.7c0-0.9,0.7-1.7,1.7-1.7c0.9,0,1.7,0.7,1.7,1.7S49.3,90.3,48.4,90.3z"/>
	</g>
</g>
<g>
	<g>
		<path class="st0" d="M91,72.5v35.6h18.8v6.5h-6.2v2.9h24.7v-2.9h-6.2v-6.5H141V72.5H91z M119.2,114.6h-6.5v-6.5h6.5V114.6z
			 M138.1,105.2H93.9V75.4h44.1V105.2z"/>
	</g>
</g>
<g>
	<g>
		<path class="st0" d="M106,80.6l-8.6,4.4v10.5l8.6,4.4l8.6-4.4V85.1L106,80.6z M104.5,95.9l-4.2-2.2v-5.4l4.2,2.2V95.9z M102,86
			l3.9-2l3.9,2l-3.9,2L102,86z M111.6,93.7l-4.2,2.2v-5.4l4.2-2.2V93.7z"/>
	</g>
</g>
<g>
	<g>
		<polygon class="st0" points="123.5,88.1 121.4,86.1 117.2,90.3 121.4,94.5 123.5,92.5 121.3,90.3 		"/>
	</g>
</g>
<g>
	<g>
		<polygon class="st0" points="130.8,86.1 128.7,88.1 130.9,90.3 128.7,92.5 130.8,94.5 135.1,90.3 		"/>
	</g>
</g>
<g>
	<g>
		
			<rect x="121.2" y="88.8" transform="matrix(0.2244 -0.9745 0.9745 0.2244 9.8215 192.9502)" class="st0" width="9.8" height="2.9"/>
	</g>
</g>
<g>
	<g>
		<path class="st1" d="M161,72.5v35.6h18.8v6.5h-6.2v2.9h24.7v-2.9h-6.2v-6.5H211V72.5H161z M189.2,114.6h-6.5v-6.5h6.5V114.6z
			 M208.1,105.2h-44.1V75.4h44.1V105.2z"/>
	</g>
</g>
<g>
	<g>
		<path class="st1" d="M176,80.6l-8.6,4.4v10.5l8.6,4.4l8.6-4.4V85.1L176,80.6z M174.5,95.9l-4.2-2.2v-5.4l4.2,2.2V95.9z M172,86
			l3.9-2l3.9,2l-3.9,2L172,86z M181.6,93.7l-4.2,2.2v-5.4l4.2-2.2V93.7z"/>
	</g>
</g>
<g>
	<g>
		<polygon class="st1" points="193.5,88.1 191.4,86.1 187.2,90.3 191.4,94.5 193.5,92.5 191.3,90.3 		"/>
	</g>
</g>
<g>
	<g>
		<polygon class="st1" points="200.8,86.1 198.7,88.1 200.9,90.3 198.7,92.5 200.8,94.5 205.1,90.3 		"/>
	</g>
</g>
<g>
	<g>
		
			<rect x="191.2" y="88.8" transform="matrix(0.2244 -0.9745 0.9745 0.2244 64.1136 261.165)" class="st1" width="9.8" height="2.9"/>
	</g>
</g>
<path class="st1" d="M26.9,140v6H21v38.2h22.1v5.9h8.8v-5.9h13.3v-5.9H71V140H26.9z M23.9,148.9h38.3v8.8h-4.5c-2-3.6-5.9-6-10.3-6
	s-8.2,2.4-10.3,6H23.9V148.9z M47.5,172.4c-4.9,0-8.9-4-8.9-8.9s4-8.9,8.9-8.9s8.9,4,8.9,8.9S52.4,172.4,47.5,172.4z M23.9,181.2
	v-20.6H36c-0.2,0.9-0.4,1.9-0.4,2.9c0,5,3.1,9.2,7.4,11v6.7H23.9z M46,187.1v-11.8c0.5,0.1,1,0.1,1.5,0.1s1,0,1.5-0.1v11.8H46z
	 M62.2,181.2H51.9v-6.7c4.3-1.7,7.4-6,7.4-11c0-1-0.1-2-0.4-2.9h3.3V181.2z M68.1,175.4h-2.9v-20.7h2.9V175.4z M65.1,151.7V146H29.8
	v-3h38.3v8.8H65.1z"/>
<path class="st1" d="M42.7,163.5H52v2.9h-9.3V163.5z"/>
<path class="st1" d="M26.9,163.5h4.9v2.9h-4.9V163.5z"/>
<path class="st1" d="M55.2,175.4h3.9v2.9h-3.9V175.4z"/>
<path class="st1" d="M26.9,169.4h7.3v2.9h-7.3V169.4z"/>
<path class="st1" d="M26.9,175.4h11.7v2.9H26.9V175.4z"/>
<path class="st1" d="M27,151.7h2.9v2.9H27V151.7z"/>
<path class="st1" d="M32.7,151.7h2.9v2.9h-2.9V151.7z"/>
<path class="st1" d="M135.6,151.9h-1.7v-5.9H131v-2.9h-2.9v2.9h-2.9v29.5c0,2.9,1,5.5,2.9,7.7v3.8h2.9v-3.8c1.9-2.1,2.9-4.8,2.9-7.7
	v-20.8h1.7c0.8,0,1.5,0.7,1.5,1.5v7.3h2.9v-7.3C140,153.9,138,151.9,135.6,151.9z M131,149v2.9h-2.9V149H131z M128.1,166.6h2.9v2.9
	h-2.9V166.6z M129.6,180.4c-1-1.4-1.5-3.1-1.5-4.8v-3.2h2.9v3.2C131,177.3,130.5,179,129.6,180.4z M131,163.6h-2.9v-8.8h2.9V163.6z"
	/>
<path class="st1" d="M110.3,142.9c-0.6-1.7-2.2-2.9-4.1-2.9s-3.5,1.2-4.1,2.9c-1.5,0-11.6,0-12,0V190h32.2v-47.1
	C119.4,142.9,113.1,142.9,110.3,142.9z M101.7,145.9h2.9v-1.5c0-0.8,0.7-1.5,1.5-1.5s1.5,0.7,1.5,1.5v1.5h2.9v2.9h-8.8V145.9z
	 M119.3,145.9v41.2H92.9v-41.2h5.9v5.9h14.6v-5.9H119.3z"/>
<path class="st1" d="M106.5,159.5l2.1,2.1l1.9-1.9v6.7H98.8v9c-1.7,0.6-2.9,2.2-2.9,4.1c0,2.4,2,4.4,4.4,4.4s4.4-2,4.4-4.4
	c0-1.9-1.2-3.5-2.9-4.1v-6.1h11.7v-9.6l1.9,1.9l2.1-2.1L112,154L106.5,159.5z M100.3,181c-0.8,0-1.5-0.7-1.5-1.5s0.7-1.5,1.5-1.5
	s1.5,0.7,1.5,1.5S101.1,181,100.3,181z"/>
<path class="st1" d="M98.4,163l1.9-1.9l1.9,1.9l2.1-2.1l-1.9-1.9l1.9-1.9l-2.1-2.1l-1.9,1.9l-1.9-1.9l-2.1,2.1l1.9,1.9l-1.9,1.9
	L98.4,163z"/>
<path class="st1" d="M113.9,175.6l-1.9,1.9l-1.9-1.9l-2.1,2.1l1.9,1.9l-1.9,1.9l2.1,2.1l1.9-1.9l1.9,1.9l2.1-2.1l-1.9-1.9l1.9-1.9
	L113.9,175.6z"/>
<g>
	<g>
		<path class="st1" d="M196.7,140h-21.5c-3,0-5.4,2.4-5.4,5.4v39.3c0,3,2.4,5.4,5.4,5.4h21.5c3,0,5.4-2.4,5.4-5.4v-39.3
			C202.1,142.4,199.7,140,196.7,140z M180.3,142.9h11.3v1.5c0,0.3-0.2,0.5-0.5,0.5h-10.4c-0.3,0-0.5-0.2-0.5-0.5V142.9z
			 M199.2,184.6c0,1.3-1.1,2.4-2.4,2.4h-21.5c-1.3,0-2.4-1.1-2.4-2.4v-39.3c0-1.3,1.1-2.4,2.4-2.4h2.1v1.5c0,1.9,1.5,3.4,3.4,3.4
			h10.4c1.9,0,3.4-1.5,3.4-3.4v-1.5h2.1c1.3,0,2.4,1.1,2.4,2.4V184.6z"/>
	</g>
</g>
<g>
	<g>
		<path class="st1" d="M178.2,158.6c0.1-0.2,0.2-0.4,0.2-0.7v-2.3h0.8v-2.2h-3c-0.1,0-0.1,0-0.2,0.1c-0.1,0.1-0.1,0.2-0.1,0.4v3.1
			c0,0.1,0,0.3-0.1,0.4c-0.1,0.1-0.1,0.2-0.2,0.4c-0.1,0.1-0.2,0.2-0.3,0.2c-0.1,0.1-0.2,0.1-0.3,0.1v1.9c0.2,0,0.4,0.2,0.6,0.4
			c0.2,0.2,0.3,0.4,0.3,0.8v3.2c0,0.2,0,0.3,0.1,0.4c0.1,0.1,0.2,0.1,0.2,0.1h3v-2.2h-0.8v-2.4c0-0.3-0.1-0.5-0.2-0.7
			c-0.1-0.2-0.3-0.3-0.4-0.5C177.9,158.9,178.1,158.8,178.2,158.6z"/>
	</g>
</g>
<g>
	<g>
		<path class="st1" d="M196.7,158c-0.1-0.1-0.2-0.1-0.3-0.2c-0.1-0.1-0.2-0.2-0.2-0.4c-0.1-0.1-0.1-0.3-0.1-0.4V154
			c0-0.2,0-0.3-0.1-0.4c-0.1-0.1-0.2-0.1-0.2-0.1h-3v2.2h0.8v2.3c0,0.3,0.1,0.5,0.2,0.7c0.1,0.2,0.3,0.3,0.4,0.5
			c-0.1,0.1-0.3,0.3-0.4,0.5c-0.1,0.2-0.2,0.4-0.2,0.7v2.4h-0.8v2.2h3c0.1,0,0.1,0,0.2-0.1c0.1-0.1,0.1-0.2,0.1-0.4v-3.2
			c0-0.3,0.1-0.6,0.3-0.8c0.2-0.2,0.4-0.3,0.6-0.4v-1.9C196.9,158.1,196.8,158.1,196.7,158z"/>
	</g>
</g>
<g>
	<g>
		<rect x="180.9" y="157.7" class="st1" width="10.2" height="2.9"/>
	</g>
</g>
<g>
	<g>
		<rect x="180.9" y="151.8" class="st1" width="8.2" height="2.9"/>
	</g>
</g>
<g>
	<g>
		<rect x="180.9" y="163.5" class="st1" width="6.3" height="2.9"/>
	</g>
</g>
<g>
	<g>
		<path class="st1" d="M190.4,177.7c0-0.3,0-0.5-0.1-0.8l1.5-0.9l-1.5-2.5l-1.5,0.9c-0.4-0.3-0.9-0.6-1.4-0.8v-1.7h-2.9v1.7
			c-0.5,0.2-1,0.5-1.4,0.8l-1.5-0.9l-1.5,2.5l1.5,0.9c0,0.3-0.1,0.5-0.1,0.8s0,0.5,0.1,0.8l-1.5,0.9l1.5,2.5l1.5-0.9
			c0.4,0.3,0.9,0.6,1.4,0.8v1.7h2.9v-1.7c0.5-0.2,1-0.5,1.4-0.8l1.5,0.9l1.5-2.5l-1.5-0.9C190.4,178.2,190.4,178,190.4,177.7z
			 M186,179.2c-0.8,0-1.5-0.7-1.5-1.5s0.7-1.5,1.5-1.5s1.5,0.7,1.5,1.5S186.8,179.2,186,179.2z"/>
	</g>
</g>
<g>
	<g>
		<path class="st1" d="M66.3,218c-3.6,0-6.5-2.9-6.5-6.5V210H30.2v1.5c0,3.6-2.9,6.5-6.5,6.5h-1.5v9.8c0,7,2.1,13.8,6.1,19.5
			c4,5.8,9.6,10.1,16.2,12.6L45,260l0.5-0.2c6.6-2.5,12.2-6.8,16.2-12.6c4-5.8,6.1-12.5,6.1-19.5V218H66.3z M64.8,227.7L64.8,227.7
			c0,6.4-1.9,12.6-5.6,17.9c-3.5,5.1-8.5,9-14.3,11.3c-5.8-2.3-10.7-6.2-14.3-11.3c-3.7-5.3-5.6-11.4-5.6-17.9v-6.9
			c4-0.6,7.2-3.8,7.8-7.8h24c0.6,4,3.8,7.2,7.8,7.8V227.7L64.8,227.7z"/>
	</g>
</g>
<g>
	<g>
		<path class="st1" d="M51.5,223.8l-9.7,9.7l-3.4-3.4l-6.2,6.2l9.6,9.6L57.8,230L51.5,223.8z M36.4,236.3l2.1-2.1l3.4,3.4l9.7-9.7
			l2.1,2.1l-11.8,11.8L36.4,236.3z"/>
	</g>
</g>
<path class="st1" d="M138.1,218.8v-5.9h-28.8l-1-2.9H91v44.1h14.4l1.8,3.2l3-2c0.4,0.3,0.9,0.5,1.3,0.8v4h8.8v-4
	c0.5-0.2,0.9-0.5,1.3-0.8l3,2l1.8-3.2H141v-35.4H138.1z M135.1,215.9v2.9h-23.9l-1-2.9H135.1z M106.2,212.9l2.9,8.8h29v2.9H93.9
	v-11.7H106.2z M123.3,246.8c0,0.8-0.2,1.5-0.3,2.3l2.2,1.5l-1.5,2.5l-2.2-1.5c-0.6,0.5-1.4,1.4-3.1,2l-1,0.3v3h-2.9v-3l-1-0.3
	c-1.7-0.6-2.5-1.6-3.1-2l-2.2,1.5l-1.5-2.5l2.2-1.5c-0.1-0.7-0.3-1.4-0.3-2.3c0-0.8,0.2-1.5,0.3-2.3l-2.2-1.5l1.5-2.5l2.2,1.5
	c0.6-0.5,1.4-1.4,3.1-2l1-0.3v-3h2.9v3l1,0.3c1.7,0.6,2.5,1.6,3.1,2l2.2-1.5l1.5,2.5l-2.2,1.5C123.1,245.3,123.3,246,123.3,246.8z
	 M128.3,251.2l0.9-1.5l-2.9-2c0-0.3,0-0.6,0-0.9s0-0.6,0-0.9l2.9-2l-4.4-7.6l-3,2c-0.4-0.3-0.9-0.5-1.3-0.8v-4h-8.8v4
	c-0.5,0.2-0.9,0.5-1.3,0.8l-3-2l-4.4,7.6l2.9,2c0,0.3,0,0.6,0,0.9s0,0.6,0,0.9l-2.9,2l0.9,1.5h-9.8v-23.6h44.1v23.6H128.3z"/>
<path class="st1" d="M116,242.4c-2.4,0-4.4,2-4.4,4.4s2,4.4,4.4,4.4s4.4-2,4.4-4.4S118.4,242.4,116,242.4z M116,248.3
	c-0.8,0-1.5-0.7-1.5-1.5s0.7-1.5,1.5-1.5s1.5,0.7,1.5,1.5S116.8,248.3,116,248.3z"/>
<path class="st1" d="M195.7,232.6c2.4-3.2,3.6-7,3.6-11V210h-26.6v11.5c0,4,1.3,7.8,3.6,11c2.3,3.1,5.5,5.5,9.2,6.7l0.5,0.1l0.5-0.1
	C190.2,238,193.3,235.7,195.7,232.6z M186,236.3c-6.2-2.2-10.4-8.1-10.4-14.8v-8.6h20.7v8.6C196.4,228.2,192.2,234,186,236.3z"/>
<path class="st1" d="M178.6,221.5c0,4.7,2.6,9,6.7,11.2l0.7,0.4l0.7-0.4c4.2-2.2,6.7-6.5,6.7-11.2v-5.7h-14.8V221.5z M186,229.8
	c-1.9-1.2-3.3-3-4-5.1h8C189.3,226.7,187.9,228.6,186,229.8z M181.5,218.8h9v2.7c0,0.1,0,0.1,0,0.2h-9c0-0.1,0-0.1,0-0.2V218.8z"/>
<path class="st1" d="M174.4,235c-1.2-1.2-3-1.6-4.6-1v-9.7c0-2.4-2-4.4-4.4-4.4s-4.4,2-4.4,4.4V243l5.9,10.1v6.9h17.7v-11.8
	c0-2-0.8-3.8-2.1-5.2L174.4,235z M181.6,257.1h-11.8v-4.8l-5.9-10.1v-18c0-0.8,0.7-1.5,1.5-1.5s1.5,0.7,1.5,1.5v13.9
	c0,1.2,0.5,2.2,1.3,3.1l8,8l2.1-2.1l-8-8c-0.3-0.3-0.4-0.6-0.4-1s0.2-0.8,0.4-1c0.6-0.6,1.5-0.6,2.1,0l8,8c0.8,0.8,1.3,1.9,1.3,3.1
	V257.1z"/>
<path class="st1" d="M206.6,219.9c-2.4,0-4.4,2-4.4,4.4v9.7c-1.5-0.5-3.3-0.2-4.6,1l-8,8c-1.4,1.4-2.1,3.2-2.1,5.2V260h17.7v-6.9
	L211,243v-18.8C211,221.8,209,219.9,206.6,219.9z M208.1,242.2l-5.9,10.1v4.8h-11.8v-8.9c0-1.2,0.5-2.3,1.3-3.1l8-8
	c0.6-0.6,1.5-0.6,2.1,0c0.3,0.3,0.4,0.6,0.4,1s-0.2,0.8-0.4,1l-8,8l2.1,2.1l8-8c0.8-0.8,1.3-1.9,1.3-3.1l0-13.9
	c0-0.8,0.7-1.5,1.5-1.5s1.5,0.7,1.5,1.5V242.2z"/>
</svg>
