<svg xmlns="http://www.w3.org/2000/svg" viewBox="0 0 39.9 39.6"><path d="M29 8l-.9-.3c.1-.2.1-.4.2-.6.7-3.4.3-6-1.3-6.9-1.4-.8-3.9 0-6.3 2.2-.3.2-.5.4-.7.7-.2-.2-.3-.3-.5-.4C17 .4 14.4-.5 12.9.3c-1.4.8-1.9 3.4-1.3 6.6.1.3.2.6.2.9-.3.1-.7.3-1 .3-3 .8-4.9 2.5-4.9 4.2 0 1.8 2 3.5 5.1 4.5l.8.3-.3 1c-.6 3.1-.2 5.5 1.3 6.4 1.5.8 4 0 6.6-2.2.2-.2.4-.3.6-.5.3.3.5.5.8.7 2.4 2.1 4.8 2.9 6.2 2 1.5-.8 2-3.5 1.3-6.7-.1-.3-.1-.5-.2-.8.2-.1.3-.1.5-.2 3.2-1.1 5.3-2.8 5.3-4.5C34 10.7 32 9.1 29 8zm-7.5-4.7c2.1-1.8 4-2.5 4.9-2s1.3 2.8.8 5.6c0 .2-.1.3-.2.6-1.2-.2-2.4-.5-3.8-.5-.8-1.2-1.6-2.1-2.4-3l.7-.7zm-7.3 10.6c.3.5.5 1 .8 1.4l.9 1.4-2.6-.4c.2-.7.6-1.5.9-2.4zm0-2.8l-.9-2.4c.8-.2 1.7-.3 2.5-.4-.3.5-.6.9-.8 1.4-.3.4-.5.9-.8 1.4zm.7 1.4c.3-.8.8-1.5 1.2-2.3h0L17.4 8H20l2.6.1c.5.7.9 1.4 1.3 2.2l1.2 2.3c-.3.8-.8 1.5-1.2 2.3h0c-.4.8-.8 1.4-1.3 2.2-.8-.1-1.7-.1-2.6-.1-.8 0-1.8 0-2.5-.1-.5-.7-.9-1.4-1.3-2.2-.6-.7-1-1.4-1.3-2.2zM25 15.4c.3-.5.6-1 .8-1.5l.9 2.4c-.8.2-1.7.3-2.6.4.3-.3.5-.8.9-1.3zm.7-4.3c-.3-.5-.5-1-.8-1.4-.3-.5-.6-.9-.8-1.4l2.6.4-1 2.4zM20 4.8h0c.6.6 1.1 1.3 1.7 2-1.1-.1-2.2-.1-3.4 0a16.32 16.32 0 0 1 1.7-2zm-6.5-3.4c.9-.5 3 .3 5.2 2.2.2.1.3.2.5.4-.8.8-1.6 1.8-2.4 2.9-1.4.1-2.7.4-3.8.6-.1-.3-.2-.6-.2-.8h0c-.5-2.8-.2-4.8.7-5.3zm-1.4 14.7c-.3-.1-.5-.2-.7-.3-1.3-.5-2.5-1.1-3.3-1.8-.7-.6-1.1-1.2-1.1-1.7 0-1 1.5-2.4 4.1-3.2.3-.1.7-.3 1-.3.3 1.2.8 2.4 1.3 3.5-.4 1.5-.9 2.6-1.3 3.8zm6.6 5.5c-1.1.9-2.2 1.6-3.2 1.9h0c-.8.3-1.6.3-2 .1-.9-.5-1.3-2.5-.8-5.1.1-.3.2-.6.2-.9 1.2.3 2.4.4 3.8.6l2.4 3c-.1 0-.3.2-.4.4zm1.3-1.4a16.32 16.32 0 0 1-1.7-2h3.4c-.6.8-1.1 1.4-1.7 2zm7.3 1.7c-.2.9-.5 1.5-.9 1.8-.9.5-2.8-.2-4.9-1.9-.3-.2-.5-.4-.7-.7.8-.8 1.6-1.8 2.4-3 1.3-.1 2.7-.3 3.8-.6l.2.7c.3 1.4.3 2.7.1 3.7zm1-6h0c-.1.1-.3.1-.5.2a17.05 17.05 0 0 0-1.4-3.5c.6-1.2 1-2.4 1.3-3.5l.8.3c2.6.9 4.2 2.2 4.2 3.3.2.9-1.6 2.3-4.4 3.2zM20 10c1.4 0 2.5 1.1 2.5 2.5S21.4 15 20 15s-2.5-1.1-2.5-2.5S18.6 10 20 10" fill="#00d8ff"/><path d="M4.2 35.3H2.3v4.2H0V28.1h4.2c1.3 0 2.4.3 3.1.9s1.1 1.4 1.1 2.5c0 .8-.2 1.4-.5 1.9s-.8.9-1.5 1.2l2.5 4.6v.1H6.3l-2.1-4zm-1.9-1.9h1.9c.6 0 1-.1 1.4-.4s.5-.7.5-1.2-.2-1-.5-1.3-.7-.5-1.4-.5H2.3v3.4zM14 39.6c-1.2 0-2.2-.4-3-1.1s-1.2-1.8-1.2-3v-.2c0-.8.2-1.6.5-2.3a2.94 2.94 0 0 1 1.4-1.5 4.65 4.65 0 0 1 2.1-.5c1.2 0 2.1.4 2.7 1.1.7.7 1 1.8 1 3.1v.8H12c.1.6.3 1 .7 1.3s.8.5 1.4.5c.9 0 1.5-.3 2-.9l1.1 1.2c-.3.5-.8.9-1.4 1.1s-1.1.4-1.8.4zm-.3-6.9c-.4 0-.8.2-1.1.5s-.5.7-.5 1.3h3.1v-.2c0-.5-.1-.9-.4-1.2s-.6-.4-1.1-.4zm9.9 6.8c-.1-.2-.2-.5-.2-.8-.5.6-1.3.9-2.1.9s-1.5-.2-2.1-.7-.8-1.1-.8-1.8c0-.9.3-1.6 1-2.1s1.6-.7 2.9-.7h1v-.5c0-.4-.1-.7-.3-.9s-.5-.4-.9-.4-.7.1-.9.3-.3.4-.3.8h-2.3c0-.5.2-.9.5-1.4.3-.4.7-.7 1.3-1s1.2-.4 1.9-.4c1 0 1.9.3 2.5.8s.9 1.3.9 2.2v3.7c0 .8.1 1.4.3 1.8v.1h-2.4zm-1.9-1.6c.3 0 .6-.1.9-.2a.9.9 0 0 0 .6-.6v-1.5h-.8c-1.1 0-1.7.4-1.8 1.2v.1c0 .3.1.5.3.7s.5.3.8.3zm9.1-.1c.4 0 .8-.1 1-.3s.4-.5.4-.9h2.1c0 .6-.2 1.1-.5 1.6s-.7.8-1.3 1.1-1.1.4-1.8.4c-1.2 0-2.2-.4-2.9-1.2s-1-1.8-1-3.2v-.1c0-1.3.3-2.3 1-3.1s1.6-1.2 2.9-1.2c1.1 0 1.9.3 2.5.9a3.31 3.31 0 0 1 1 2.4h-2.1c0-.4-.1-.8-.4-1.1s-.6-.4-1-.4c-.5 0-.9.2-1.2.6s-.4 1-.4 1.9v.2c0 .9.1 1.5.4 1.9s.8.5 1.3.5zm7.5-8.9V31h1.4v1.7h-1.4v4.2c0 .3.1.5.2.7s.3.2.7.2c.3 0 .5 0 .7-.1v1.7c-.4.1-.9.2-1.4.2-1.6 0-2.4-.8-2.4-2.4v-4.6h-1.2V31h1.2v-2.1h2.2z" fill="#00d7ff"/></svg>