 <svg version="1.1" id="Layer_1" width="20" height="20" fill="#ff3066" xmlns="http://www.w3.org/2000/svg" x="0" y="0" viewBox="0 0 24.1 25.9" xml:space="preserve">
                <path class="st0" d="M23.4 9.1l-4.8-1.4h-.5l-1.1.4V3.5C17 1.2 12.7 0 8.5 0S0 1.2 0 3.5v18.9c0 2.3 4.3 3.5 8.5 3.5s8.5-1.2 8.5-3.5v-1.2h.1c.4.2.8.3 1.2.3.5 0 .8-.1 1.2-.3l3.1-1.9c.9-.5 1.5-1.4 1.5-2.4v-6.8c.1-.5-.3-.9-.7-1M3.3 2.2c1.4-.5 3.3-.7 5.2-.7s3.8.3 5.2.7c1.2.5 1.8.9 1.8 1.3s-.6.8-1.8 1.3c-1.4.5-3.3.7-5.2.7s-3.8-.3-5.2-.7c-1.2-.5-1.8-.9-1.8-1.3s.6-.8 1.8-1.3M1.6 5.5c1.6.9 4.3 1.4 7 1.4s5.3-.5 7-1.4v2.8l-2.1.7c-.5.1-.8.6-.8 1-1.2.3-2.5.5-4 .5-2 0-3.8-.3-5.2-.7-1.2-.5-1.8-.9-1.8-1.3v-3h-.1zm0 5.1c1.6.9 4.3 1.5 7 1.5 1.4 0 2.7-.1 3.9-.4v3.2c-1.2.3-2.6.5-4 .5-2 0-3.8-.3-5.2-.7-1.2-.5-1.8-.9-1.8-1.3l.1-2.8zm0 4.7c1.6.9 4.3 1.4 7 1.4 1.4 0 2.8-.1 4-.4v.6c0 .9.5 1.8 1.3 2.3-1.3.6-3.2.8-5.2.8s-3.8-.3-5.2-.7c-1.2-.5-1.8-.9-1.8-1.3v-.2l-.1-2.5zm12.1 8.3c-1.4.5-3.3.7-5.2.7s-3.8-.3-5.2-.7c-1.2-.5-1.8-.9-1.8-1.3v-2.2c1.6.9 4.3 1.5 7 1.5 2.8 0 5.3-.6 6.8-1.4l.1.1v2.1c.1.3-.5.8-1.7 1.2M22 18l-3.2 1.9c-.4.2-.7.2-1 0L14.7 18c-.4-.2-.7-.7-.7-1.1v-6.5l2.4-.7 1.9-.6 4.3 1.3v6.5c.1.5-.2.9-.6 1.1">
                </path>
                <path class="st0" d="M21.1 12.6c-.3-.3-.7-.4-1.1 0L17.4 15l-.8-.8c-.3-.3-.7-.3-1.1 0-.3.3-.3.7 0 1.1l1.4 1.4h.5l3.1-2.9c.9-.4.9-.9.6-1.2">
                </path>
              </svg>