<svg xmlns="http://www.w3.org/2000/svg" fill="#ff3066"
                viewBox=" 0 0 22 26" width="20" height="20">
                <path
                  d="M18.5 1.4C16.5.5 13.8 0 11 0S5.5.5 3.5 1.4C1.3 2.4 0 3.8 0 5.4v15.5c0 1.5 1.2 2.9 3.5 3.8 2 .8 4.7 1.3 7.5 1.3s5.5-.5 7.5-1.3c2.2-.9 3.5-2.3 3.5-3.8V5.4c.1-1.6-1.2-3-3.5-4M4.2 3c1.9-.8 4.3-1.2 6.9-1.2 2.6 0 5 .5 6.9 1.2 1.6.7 2.5 1.6 2.5 2.4s-.9 1.8-2.5 2.4c-1.9.8-4.3 1.2-6.9 1.2-5.3 0-9.3-2-9.3-3.7-.1-.8.8-1.7 2.4-2.3m16.2 17.9c0 .7-.9 1.6-2.4 2.2-1.9.7-4.3 1.2-6.9 1.2-2.6 0-5-.4-6.9-1.2-1.6-.7-2.5-1.5-2.5-2.2v-2.3c.5.4 1.1.7 1.9 1 2 .8 4.7 1.3 7.5 1.3s5.5-.5 7.5-1.3c.7-.3 1.3-.7 1.8-1v2.3zM17.9 18c-1.9.7-4.3 1.2-6.9 1.2-2.6 0-5-.4-6.9-1.2-1.6-.7-2.4-1.5-2.4-2.2v-2.3c.5.4 1.1.7 1.9 1 2 .8 4.7 1.3 7.5 1.3s5.5-.5 7.5-1.3c.7-.3 1.3-.7 1.8-1v2.3c0 .8-1 1.6-2.5 2.2m0-5c-1.9.7-4.3 1.2-6.9 1.2-2.6 0-5-.4-6.9-1.2-1.6-.7-2.5-1.5-2.5-2.2V8.4c.5.4 1.1.7 1.9 1 2 .9 4.7 1.4 7.5 1.4s5.5-.5 7.5-1.4c.7-.3 1.3-.7 1.9-1v2.4c0 .7-1 1.5-2.5 2.2">
                </path>
              </svg>