<svg version="1.1" id="Layer_9" fill="#ff3066"
                xmlns="http://www.w3.org/2000/svg" width="20" height="20" x="0" y="0" viewBox="0 0 26 26"
                xml:space="preserve">
                <path class="st0"
                  d="M25.4 10l-3.2-.3c-.1-.3-.3-.7-.4-.9l2-2.4c.3-.3.2-.7-.1-1l-3.1-3.1c-.3-.3-.7-.3-1-.1l-2 1.7c-.3.2-.6.3-.9.1-.3-.1-.5-.4-.6-.7L15.8.7c0-.4-.4-.7-.7-.7h-4.3c-.4 0-.7.3-.7.7l-.3 2.6c0 .3-.2.6-.6.7-.2.1-.6.1-.7-.1l-2-1.7c-.4-.2-.8-.2-1.1.1L2.3 5.4c-.3.3-.3.7-.1 1l1.7 2c.2.3.3.6.1.9-.1.3-.4.5-.7.5l-2.6.3c-.4 0-.7.4-.7.7v4.3c0 .4.3.7.7.7l2.6.3c.3 0 .6.2.7.6.1.3.1.7-.1.8l-1.7 2c-.3.3-.2.7.1 1l3.1 3.1c.3.3.7.3 1 .1l2-1.7c.3-.1.6-.2.9 0 .3.1.5.4.6.7l.3 2.6c0 .4.4.7.7.7h4.3c.4 0 .7-.3.7-.7l.3-2.6c0-.3.2-.6.6-.7.3-.1.7-.1.8.1l2 1.7c.3.3.7.2 1-.1l3.1-3.1c.3-.3.3-.7.1-1l-1.7-2c-.2-.3-.3-.6-.1-.8.1-.3.4-.5.7-.6l2.6-.3c.4 0 .7-.4.7-.7v-4.3c0-.5-.3-.9-.6-.9m-1 4.4l-2 .2c-.8.1-1.6.7-2 1.5-.4.8-.2 1.8.4 2.4L22 20l-2 2-1.5-1.2c-.7-.6-1.6-.7-2.4-.4-.8.4-1.4 1.1-1.5 2l-.2 2h-2.9l-.2-2c-.1-.8-.7-1.6-1.5-2-.8-.4-1.8-.2-2.4.4L6 22l-2-2 1.2-1.5c.6-.7.7-1.6.4-2.4-.4-.8-1.1-1.4-2-1.5l-2-.2v-2.9l2-.2c.8-.1 1.6-.7 2-1.5.3-.8.2-1.7-.4-2.4L4 5.9l2-2L7.4 5c.7.6 1.6.7 2.4.4.8-.4 1.4-1.1 1.5-2l.2-2h2.9l.2 2c.1.8.7 1.6 1.5 2 .8.4 1.8.2 2.4-.4L20 3.8l2 2-1.9 2.3c-.1.4-.1.6 0 .9.3.5.5 1 .7 1.6.1.3.4.6.7.6l3 .3-.1 2.9z">
                </path>
                <path class="st0"
                  d="M14.7 11l-2.2 2.2-1-1c-.3-.3-.8-.3-1.1 0s-.3.8 0 1.1l1.6 1.6c.2.2.4.2.6.2.2 0 .4-.1.6-.2l2.8-2.8c.3-.3.3-.8 0-1.1-.6-.3-1-.3-1.3 0">
                </path>
                <path class="st0"
                  d="M13 6.7c-3.4 0-6.2 2.8-6.2 6.2s2.8 6.2 6.2 6.2 6.2-2.8 6.2-6.2-2.8-6.2-6.2-6.2m0 10.9c-2.6 0-4.6-2.1-4.6-4.6 0-2.6 2.1-4.6 4.6-4.6 2.6 0 4.6 2.1 4.6 4.6 0 2.5-2 4.6-4.6 4.6">
                </path>
              </svg>