<svg xmlns="http://www.w3.org/2000/svg" viewBox="0 0 27.6 26"
                fill="#ff3066" width=" 20" height="20">
                <path
                  d="M20.7 26h-.2c-.2 0-.3-.2-.4-.3l-4.2-7.6c-.2-.3-.1-.6.2-.8 1.3-.7 2-2 2-3.5 0-2.2-1.8-4.1-4.1-4.1s-4.1 1.8-4.1 4.1c0 1.5.8 2.8 2 3.5.3.2.4.6.2.8l-4.2 7.6c-.1.1-.2.3-.4.3s-.3 0-.5-.1c-4.3-2.5-7-7.1-7-12.1C0 6.1 6.2 0 13.8 0s13.8 6.2 13.8 13.8c.2 5-2.4 9.6-6.9 12.2.2 0 .1 0 0 0m-3.5-7.9l3.7 6.5c3.7-2.3 6-6.4 6-10.7 0-7-5.7-12.6-12.6-12.6S1.6 6.9 1.6 13.8c0 4.3 2.3 8.4 6 10.7l3.7-6.5a5.16 5.16 0 013.1-9.3c2.9 0 5.2 2.3 5.2 5.2a6.9 6.9 0 01-2.4 4.2">
                </path>
              </svg>