<svg version="1.1" id="Layer_4" xmlns="http://www.w3.org/2000/svg"
                fill="#ff3066" x=" 0" y="0" viewBox="0 0 16.3 26" width="20" height="20" xml:space="preserve">
                <path class="st0"
                  d="M13.9 0H2.4C1.1 0 0 1.1 0 2.4v21.2C0 24.9 1.1 26 2.4 26h11.5c1.3 0 2.4-1.1 2.4-2.4V2.5c0-1.3-1.1-2.5-2.4-2.5M2.4 1.7h11.5c.5 0 .8.4.8.8v17.1h-13v-17c-.1-.5.3-.9.7-.9m11.5 22.9H2.4c-.5 0-.8-.4-.8-.8v-2.4h13v2.4c0 .4-.3.8-.7.8">
                </path>
                <path class="st0" d="M8.8 22.3c.3.3.3.8 0 1.1s-.8.3-1.1 0-.3-.8 0-1.1c.2-.3.7-.3 1.1 0"></path>
              </svg>