<svg version="1.1" id="Layer_3" xmlns="http://www.w3.org/2000/svg"
                fill="#ff3066" x="0" y="0" viewBox="0 0 26.2 26.2" width="20" height="20" xml:space="preserve">
                <path class="st0" d="M0 0v26.2h26.2V0H0zm24.9 24.9H1.3V1.3h23.6v23.6z"></path>
                <path class="st0"
                  d="M6.9 21.4l1.9-1.1c.4.6.7 1.2 1.5 1.2s1.2-.3 1.2-1.5v-7.9h2.3V20c0 2.4-1.4 3.5-3.5 3.5-1.7 0-2.8-.9-3.4-2.1m8.3-.2l1.8-1.1c.5.8 1.1 1.4 2.3 1.4 1 0 1.6-.5 1.6-1.1 0-.8-.6-1.1-1.7-1.5l-.6-.2c-1.7-.7-2.8-1.6-2.8-3.5 0-1.7 1.3-3.1 3.4-3.1 1.5 0 2.5.5 3.3 1.9l-1.8 1.2c-.4-.7-.8-1-1.5-1s-1.1.4-1.1 1c0 .7.4 1 1.4 1.4l.6.2c2 .8 3.1 1.7 3.1 3.7 0 2.1-1.6 3.2-3.9 3.2-2.1-.2-3.5-1.2-4.1-2.5">
                </path>
              </svg>