<svg version="1.1" id="Layer_8" fill="#ff3066"
                xmlns="http://www.w3.org/2000/svg" width="20" height="20" x="0" y="0" viewBox="0 0 25.8 25.8"
                xml:space="preserve">
                <path class="st0"
                  d="M25.8 9.3c0-.6-.6-.9-1.1-.6l-1.5.7c-1 .5-2.1.5-3.1.1l-3.2-1.2c-1.6-.6-3.2 0-4.3 1.2l-.9-1A6.12 6.12 0 006.1 0C2.8 0 0 2.7 0 6.1s2.7 6.1 6.1 6.1c.8 0 1.7-.2 2.3-.5l1.9 2-1.8.8c-1.1.6-1.7 1.8-1.1 3 .3.6.6.9 1.2 1.1-.2.6-.1 1.1.1 1.7.4.8 1.2 1.3 2 1.3h.4c0 .3.1.6.2.8.5.9 1.5 1.5 2.4 1.3 0 .3.1.6.2.8.6 1.1 1.8 1.7 3 1.1l4-1.8c1.8-.8 3.4-2 4.7-3.6.1-.1.2-.3.2-.5V9.3M6.1 10.6c-2.5 0-4.5-2-4.5-4.5s2-4.5 4.5-4.5 4.5 2 4.5 4.5-2 4.5-4.5 4.5m3.7.3c.4-.3.7-.6 1.1-1.1l2.4 2.6-1.5.6-2-2.1zm10.5 11.5l-4 1.8c-.4.2-.8 0-1-.4s0-.8.4-1l1.4-.6c.4-.2.6-.6.4-1-.2-.4-.6-.6-1-.4-.3.1-2.5 1.1-2.8 1.3-.4.2-.8 0-1-.4s0-.8.4-1l1.4-.6c.4-.2.6-.6.4-1-.2-.4-.6-.6-1-.4L11.1 20c-.4.2-.8 0-1-.4s0-.8.4-1l2.8-1.3c.4-.2.6-.6.4-1s-.6-.6-1-.4l-2.8 1.3c-.4.2-.8 0-1-.4s0-.8.4-1l7.2-3.3c.4-.2.6-.6.4-1-.2-.4-.6-.6-1-.4l-1 .5-1-1.1c.6-.8 1.7-1.2 2.7-.8l3.1 1.2c1.4.6 3 .6 4.3-.1l.5-.2v9a17.1 17.1 0 01-4.2 2.8">
                </path>
                <path class="st0"
                  d="M8.8 4c-.3-.3-.7-.3-1.1 0L5.2 6.5l-1-1c-.3-.3-.7-.3-1.1 0-.3.3-.3.7 0 1.1l1.5 1.5c.3.3.7.3 1.1 0l3-3c.4-.3.4-.8.1-1.1">
                </path>
              </svg>