<svg xmlns="http://www.w3.org/2000/svg" fill="#ff3066"
                viewBox=" 0 0 26.2 25.9" width="20" height="20">
                <path
                  d="M25.9 9.4L23 6.6V3.9c0-.3-.2-.5-.4-.7L16.5.1c-.3-.2-.6-.1-.9.2l-2.5 2.5L10.6.3C10.3 0 10 0 9.7.1L3.6 3.2c-.3.1-.4.4-.4.7v2.7L.3 9.4c-.2.2-.3.4-.3.5V16c0 .2.1.4.3.5l2.9 2.8V22c0 .3.2.5.4.7l6.1 3.1c.3.2.6.1.9-.2l2.5-2.5 2.5 2.5c.3.3.6.3.9.2l6.1-3.1c.3-.1.4-.4.4-.7v-2.7l2.9-2.8c.2-.2.3-.4.3-.5V9.9c-.1-.1-.1-.3-.3-.5m-13.5 2.9H9.2c-.4-.9-1.2-1.5-2.2-1.5-1.3 0-2.2 1-2.2 2.2s1 2.2 2.2 2.2c1 0 1.9-.6 2.2-1.5h3.1v8.1l-2.4 2.5-5.2-2.6v-1.8h1.6c.4.9 1.2 1.5 2.2 1.5 1.3 0 2.2-1 2.2-2.2S9.7 17 8.5 17c-1 0-1.9.6-2.2 1.5H4.2l-2.7-2.6v-2h.8c.4 0 .8-.4.8-.7 0-.4-.4-.7-.8-.7h-.8v-2l2.7-2.6h2.1c.4.9 1.2 1.5 2.2 1.5 1.3 0 2.2-1 2.2-2.2S9.7 5 8.5 5c-1 0-1.9.6-2.2 1.5H4.7V4.7l5.2-2.6 2.4 2.5v7.7h.1zm-4.6.7c0 .4-.4.7-.7.7-.4 0-.7-.4-.7-.7 0-.4.4-.7.7-.7.4 0 .7.3.7.7m0 6.1c0-.4.4-.7.7-.7.4 0 .7.4.7.7 0 .4-.4.7-.7.7-.3.1-.7-.3-.7-.7m0-12.2c0-.4.4-.7.7-.7.4 0 .7.4.7.7s-.3.7-.7.7c-.3.1-.7-.2-.7-.7m16.8 5.4h-.8c-.4 0-.8.4-.8.7 0 .4.4.7.8.7h.8v2l-2.7 2.6h-2.1c-.4-.9-1.2-1.5-2.2-1.5-1.3 0-2.2 1-2.2 2.2s1 2.2 2.2 2.2c1 0 1.9-.6 2.2-1.5h1.6v1.8l-5.2 2.6-2.4-2.5v-8.1h3.1c.4.9 1.2 1.5 2.2 1.5 1.3 0 2.2-1 2.2-2.2s-1-2.2-2.2-2.2c-1 0-1.9.6-2.2 1.5h-3.1V4l2.4-2.5 5.2 2.6v1.8h-1.6c-.4-.9-1.2-1.5-2.2-1.5-1.3 0-2.2 1-2.2 2.2s1 2.2 2.2 2.2c1 0 1.9-.6 2.2-1.5h2.1l2.7 2.6v2.4zm-6.1 6.8c0 .4-.4.7-.7.7-.4 0-.7-.4-.7-.7 0-.4.4-.7.7-.7.3 0 .7.3.7.7m0-6.1c0-.4.4-.7.7-.7.4 0 .7.4.7.7 0 .4-.4.7-.7.7-.4.1-.7-.3-.7-.7m0-6.1c0 .4-.4.7-.7.7-.4 0-.7-.4-.7-.7s.4-.7.7-.7c.3 0 .7.3.7.7">
                </path>
              </svg>