<svg version="1.1" id="Layer_7" fill="#ff3066"
                xmlns="http://www.w3.org/2000/svg" x="0" y="0" viewBox="0 0 26.3 25.9" xml:space="preserve" width="20"
                height="20">
                <path class="st0"
                  d="M9.5 13.1c0 .5-.4.7-.7.7-.5 0-.7-.4-.7-.7s.4-.7.7-.7c.3-.1.7.2.7.7M9.5 16.1c0 .5-.4.7-.7.7-.5 0-.7-.4-.7-.7 0-.4.4-.7.7-.7.3-.1.7.3.7.7M18.7 13.1c0 .5-.4.7-.7.7-.5 0-.7-.4-.7-.7s.4-.7.7-.7c.3-.1.7.2.7.7M18.7 16.1c0 .5-.4.7-.7.7-.5 0-.7-.4-.7-.7 0-.4.4-.7.7-.7.3-.1.7.3.7.7">
                </path>
                <path class="st0"
                  d="M25.5 23.1H20c-.2-.7-.7-1.2-1.4-1.4v-1.8h2.3c.5 0 .7-.4.7-.7v-.9c2.7-.7 4.7-3.2 4.7-6s-2-5.2-4.7-5.9c-.3-1.9-1.9-3.3-3.8-3.3h-.5A6.94 6.94 0 0011.6 0C8 0 5 2.8 4.7 6.3 2 7 0 9.4 0 12.2c0 2.8 2 5.2 4.7 6v.9c0 .5.4.7.7.7h2.3v1.8c-.7.2-1.2.7-1.4 1.4H.8c-.5 0-.7.4-.7.7 0 .4.4.7.7.7h5.5c.3.9 1.2 1.5 2.1 1.5s1.9-.7 2.1-1.5h4.8c.3.9 1.2 1.5 2.1 1.5 1 0 1.9-.7 2.1-1.5H25c.5 0 .7-.4.7-.7.5-.3.3-.6-.2-.6m-5.3-4.7h-4.6v-7.6h4.6v7.6zM1.8 12.3c0-2.2 1.7-4.2 4-4.5.4-.1.7-.4.7-.7V7a5.27 5.27 0 019.9-2.6c.1.3.4.4.7.4h.8c1.3 0 2.3 1 2.3 2.3v.1c0 .4.3.7.7.7 2.2.4 4 2.2 4 4.5 0 2-1.3 3.7-3.1 4.3v-6.6c0-.5-.4-.7-.7-.7h-6.2c-.5 0-.7.4-.7.7V17h-1.5v-6.9c0-.5-.4-.7-.7-.7H5.8c-.5 0-.7.4-.7.7v6.5C3 16 1.8 14.2 1.8 12.3m4.6-1.5H11v7.6H6.4v-7.6zm5.4 9.1c.5 0 .7-.4.7-.7v-.7H14v.7c0 .5.4.7.7.7H17v1.8c-.7.2-1.2.7-1.4 1.4h-4.8c-.2-.7-.7-1.2-1.4-1.4v-1.8h2.4zm-3.1 4.8c-.5 0-.7-.4-.7-.7 0-.4.4-.7.7-.7.4 0 .7.4.7.7.1.3-.3.7-.7.7m9.2 0c-.5 0-.7-.4-.7-.7 0-.4.4-.7.7-.7.5 0 .7.4.7.7 0 .3-.3.7-.7.7">
                </path>
              </svg>