<?xml version="1.0" encoding="utf-8"?>
<!-- Generator: Adobe Illustrator 21.1.0, SVG Export Plug-In . SVG Version: 6.00 Build 0)  -->
<svg version="1.1" id="Layer_1" xmlns="http://www.w3.org/2000/svg" xmlns:xlink="http://www.w3.org/1999/xlink" x="0px" y="0px"
	 viewBox="0 0 148.1 459" style="enable-background:new 0 0 148.1 459;" xml:space="preserve">
<style type="text/css">
	.st0{fill:#54A0FF;}
	.st1{fill:#338DEF;}
	.st2{fill:#1C78D3;}
	.st3{fill:#CCD2DB;}
	.st4{fill:#E4EAF8;}
	.st5{fill:#BCC2CC;}
	.st6{fill:#FECA57;}
	.st7{fill:#F4B537;}
	.st8{fill:#FFFFFF;}
	.st9{fill:#E4E3E1;}
	.st10{fill:#D1D0CF;}
	.st11{fill:#3E4151;}
	.st12{fill:#353744;}
	.st13{fill:#C1C1C1;}
	.st14{fill:#525468;}
	.st15{fill:#EA3F3F;}
	.st16{fill:#D4352F;}
	.st17{fill:#ED5454;}
	.st18{fill:#FF933B;}
	.st19{fill:#F27D27;}
	.st20{fill:#FECCC1;}
	.st21{fill:#F9B3A7;}
	.st22{fill:#636363;}
	.st23{fill:#494949;}
	.st24{fill:#DDF5FF;}
	.st25{fill:#8DB0FF;}
	.st26{fill:#669AF7;}
	.st27{fill:#FFD664;}
	.st28{fill:#F9C646;}
	.st29{fill:#4B98D4;}
	.st30{fill:#2472B2;}
	.st31{fill:#FFC964;}
	.st32{fill:#F3A334;}
	.st33{fill:#9AD14B;}
	.st34{fill:#76AB29;}
	.st35{fill:#EA7F2F;}
	.st36{fill:#B4E1F9;}
	.st37{fill:#72BDF6;}
	.st38{fill:#FF4081;}
	.st39{fill:#FFFFFF;fill-opacity:0.2;}
	.st40{fill:#FFFFFF;fill-opacity:0.1;}
	.st41{fill-opacity:0.1;}
	.st42{fill-opacity:0.2;}
	.st43{fill-opacity:0.3;}
	.st44{fill-opacity:0.4;}
	.st45{fill-opacity:0.5;}
	.st46{fill:#536DFE;}
	.st47{fill:none;}
	.st48{fill:#303F9F;}
	.st49{fill:#3F51B5;}
	.st50{fill:#7986CB;}
	.st51{fill:#FFFFFF;fill-opacity:0.2;stroke:#FFFFFF;stroke-miterlimit:10;}
	.st52{fill:url(#SVGID_1_);}
	.st53{fill:url(#SVGID_2_);}
	.st54{fill:url(#SVGID_3_);}
</style>
<g>
	<g>
		<path class="st0" d="M36.4,17.9h-2.2c-0.2,0-0.4-0.1-0.4-0.3c-0.3-1.2-0.8-2.4-1.4-3.4c-0.1-0.2-0.1-0.4,0.1-0.5l1.6-1.6
			c0.3-0.3,0.3-0.8,0-1.1l-1.8-1.8c-0.3-0.3-0.8-0.3-1.1,0l-1.6,1.6c-0.1,0.1-0.3,0.2-0.5,0.1c-1-0.7-2.2-1.2-3.4-1.4
			c-0.2,0-0.3-0.2-0.3-0.4V6.7c0-0.4-0.4-0.8-0.8-0.8h-2.5c-0.4,0-0.8,0.4-0.8,0.8v2.2c0,0.2-0.1,0.4-0.3,0.4
			c-1.2,0.3-2.4,0.8-3.4,1.4c-0.2,0.1-0.4,0.1-0.5-0.1L15.5,9c-0.3-0.3-0.8-0.3-1.1,0l-1.8,1.8c-0.3,0.3-0.3,0.8,0,1.1l1.6,1.6
			c0.1,0.1,0.2,0.3,0.1,0.5c-0.7,1-1.2,2.2-1.4,3.4c0,0.2-0.2,0.3-0.4,0.3H9.8c-0.4,0-0.8,0.4-0.8,0.8V21c0,0.4,0.4,0.8,0.8,0.8H12
			c0.2,0,0.4,0.1,0.4,0.3c0.3,1.2,0.8,2.4,1.4,3.4c0.1,0.2,0.1,0.4-0.1,0.5l-1.6,1.6c-0.3,0.3-0.3,0.8,0,1.1l1.8,1.8
			c0.3,0.3,0.8,0.3,1.1,0l1.6-1.6c0.1-0.1,0.3-0.2,0.5-0.1c1,0.7,2.2,1.2,3.4,1.4c0.2,0,0.3,0.2,0.3,0.4v2.2c0,0.4,0.4,0.8,0.8,0.8
			h2.5c0.4,0,0.8-0.4,0.8-0.8v-2.2c0-0.2,0.1-0.4,0.3-0.4c1.2-0.3,2.4-0.8,3.4-1.4c0.2-0.1,0.4-0.1,0.5,0.1l1.6,1.6
			c0.3,0.3,0.8,0.3,1.1,0l1.8-1.8c0.3-0.3,0.3-0.8,0-1.1L32,26c-0.1-0.1-0.2-0.3-0.1-0.5c0.7-1,1.2-2.2,1.4-3.4
			c0-0.2,0.2-0.3,0.4-0.3h2.2c0.4,0,0.8-0.4,0.8-0.8v-2.5C37.2,18.3,36.9,17.9,36.4,17.9z"/>
		<path class="st1" d="M15.1,29.1c-0.3-0.3-0.3-0.8,0-1.1l1.6-1.6c0.1-0.1,0.2-0.3,0.1-0.5c-0.7-1-1.2-2.2-1.4-3.4
			c0-0.2-0.2-0.3-0.4-0.3h-2.2c-0.4,0-0.8-0.4-0.8-0.8v-2.5c0-0.4,0.4-0.8,0.8-0.8H15c0.2,0,0.4-0.1,0.4-0.3
			c0.3-1.2,0.8-2.4,1.4-3.4c0.1-0.2,0.1-0.4-0.1-0.5l-1.6-1.6c-0.3-0.3-0.3-0.8,0-1.1l1-1l-0.8-0.8c-0.3-0.3-0.8-0.3-1.1,0l-1.8,1.8
			c-0.3,0.3-0.3,0.8,0,1.1l1.6,1.6c0.1,0.1,0.2,0.3,0.1,0.5c-0.7,1-1.2,2.2-1.4,3.4c0,0.2-0.2,0.3-0.4,0.3H9.8
			c-0.4,0-0.8,0.4-0.8,0.8v2.5c0,0.4,0.4,0.8,0.8,0.8H12c0.2,0,0.4,0.1,0.4,0.3c0.3,1.2,0.8,2.4,1.4,3.4c0.1,0.2,0.1,0.4-0.1,0.5
			L12.1,28c-0.3,0.3-0.3,0.8,0,1.1l1.8,1.8c0.3,0.3,0.8,0.3,1.1,0l1-0.9L15.1,29.1z"/>
		<circle class="st1" cx="23.1" cy="20" r="7.9"/>
		<path class="st2" d="M18,20c0-3.9,2.8-7.1,6.5-7.8c-0.5-0.1-0.9-0.1-1.4-0.1c-4.4,0-7.9,3.5-7.9,7.9s3.5,7.9,7.9,7.9
			c0.5,0,0.9,0,1.4-0.1C20.8,27.1,18,23.9,18,20z"/>
		<path class="st3" d="M34.5,8.5c-0.4,0-0.7-0.3-0.7-0.7v-6c0-0.4,0.3-0.7,0.7-0.7h9.1c0.4,0,0.7,0.3,0.7,0.7S44,2.5,43.6,2.5h-8.4
			v5.3C35.2,8.2,34.9,8.5,34.5,8.5z"/>
		<path class="st3" d="M43.6,38.9h-9.1c-0.4,0-0.7-0.3-0.7-0.7v-6c0-0.4,0.3-0.7,0.7-0.7s0.7,0.3,0.7,0.7v5.3h8.4
			c0.4,0,0.7,0.3,0.7,0.7S44,38.9,43.6,38.9z"/>
		<path class="st3" d="M11.7,8.5c-0.4,0-0.7-0.3-0.7-0.7V2.5H2.6c-0.4,0-0.7-0.3-0.7-0.7s0.3-0.7,0.7-0.7h9.1c0.4,0,0.7,0.3,0.7,0.7
			v6C12.4,8.2,12.1,8.5,11.7,8.5z"/>
		<path class="st3" d="M11.7,38.9H2.6c-0.4,0-0.7-0.3-0.7-0.7s0.3-0.7,0.7-0.7H11v-5.3c0-0.4,0.3-0.7,0.7-0.7s0.7,0.3,0.7,0.7v6
			C12.4,38.6,12.1,38.9,11.7,38.9z"/>
		<path class="st3" d="M43.6,20.7h-3.7c-0.4,0-0.7-0.3-0.7-0.7s0.3-0.7,0.7-0.7h3.7c0.4,0,0.7,0.3,0.7,0.7
			C44.3,20.4,44,20.7,43.6,20.7z"/>
		<path class="st3" d="M6.3,20.7H2.6c-0.4,0-0.7-0.3-0.7-0.7s0.3-0.7,0.7-0.7h3.7C6.7,19.3,7,19.6,7,20S6.7,20.7,6.3,20.7z"/>
		<path class="st4" d="M27.2,19.6l-1.7-2.9c-0.2-0.3-0.4-0.4-0.7-0.4h-3.3c-0.3,0-0.6,0.2-0.7,0.4l-1.7,2.9c-0.2,0.3-0.2,0.6,0,0.8
			l1.7,2.9c0.2,0.3,0.4,0.4,0.7,0.4h3.3c0.3,0,0.6-0.2,0.7-0.4l1.7-2.9C27.3,20.2,27.3,19.8,27.2,19.6z"/>
		<path class="st3" d="M23.7,23.3L22,20.4c-0.2-0.3-0.2-0.6,0-0.8l1.7-2.9c0.2-0.3,0.4-0.4,0.7-0.4h-2.9c-0.3,0-0.6,0.2-0.7,0.4
			l-1.7,2.9c-0.2,0.3-0.2,0.6,0,0.8l1.7,2.9c0.2,0.3,0.4,0.4,0.7,0.4h2.9C24.1,23.7,23.8,23.6,23.7,23.3z"/>
		<circle class="st5" cx="23.1" cy="20" r="1.2"/>
		<circle class="st6" cx="1.8" cy="1.8" r="1.8"/>
		<path class="st7" d="M2.4,1.8c0-0.5,0.2-1,0.6-1.3C2.7,0.2,2.3,0,1.8,0C0.8,0,0,0.8,0,1.8s0.8,1.8,1.8,1.8c0.5,0,0.9-0.2,1.2-0.5
			C2.7,2.8,2.4,2.4,2.4,1.8z"/>
		<circle class="st6" cx="1.8" cy="20" r="1.8"/>
		<path class="st7" d="M2.4,20c0-0.5,0.2-1,0.6-1.3c-0.3-0.3-0.7-0.5-1.2-0.5C0.8,18.2,0,19,0,20s0.8,1.8,1.8,1.8
			c0.5,0,0.9-0.2,1.2-0.5C2.7,21,2.4,20.5,2.4,20z"/>
		<circle class="st6" cx="1.8" cy="38.2" r="1.8"/>
		<path class="st7" d="M2.4,38.2c0-0.5,0.2-1,0.6-1.3c-0.3-0.3-0.7-0.5-1.2-0.5c-1,0-1.8,0.8-1.8,1.8S0.8,40,1.8,40
			c0.5,0,0.9-0.2,1.2-0.5C2.7,39.2,2.4,38.7,2.4,38.2z"/>
		<circle class="st6" cx="44.4" cy="1.8" r="1.8"/>
		<path class="st7" d="M45.1,1.8c0-0.5,0.2-1,0.6-1.3C45.3,0.2,44.9,0,44.4,0c-1,0-1.8,0.8-1.8,1.8s0.8,1.8,1.8,1.8
			c0.5,0,0.9-0.2,1.2-0.5C45.3,2.8,45.1,2.4,45.1,1.8z"/>
		<circle class="st6" cx="44.4" cy="20" r="1.8"/>
		<path class="st7" d="M45.1,20c0-0.5,0.2-1,0.6-1.3c-0.3-0.3-0.7-0.5-1.2-0.5c-1,0-1.8,0.8-1.8,1.8s0.8,1.8,1.8,1.8
			c0.5,0,0.9-0.2,1.2-0.5C45.3,21,45.1,20.5,45.1,20z"/>
		<circle class="st6" cx="44.4" cy="38.2" r="1.8"/>
		<path class="st7" d="M45.1,38.2c0-0.5,0.2-1,0.6-1.3c-0.3-0.3-0.7-0.5-1.2-0.5c-1,0-1.8,0.8-1.8,1.8s0.8,1.8,1.8,1.8
			c0.5,0,0.9-0.2,1.2-0.5C45.3,39.2,45.1,38.7,45.1,38.2z"/>
		<path class="st1" d="M24.4,5.9h-2.5c-0.4,0-0.8,0.4-0.8,0.8v2.2c0,0.2-0.1,0.4-0.3,0.4L23.3,9c0.3,0,0.5-0.3,0.5-0.6V6.7
			c0-0.4,0.3-0.7,0.7-0.8C24.5,5.9,24.4,5.9,24.4,5.9z"/>
		<path class="st1" d="M23.9,33.3v-1.7c0-0.3-0.2-0.6-0.5-0.6l-2.6-0.3c0.2,0,0.3,0.2,0.3,0.4v2.2c0,0.4,0.4,0.8,0.8,0.8h2.5h0.1
			C24.1,34,23.9,33.7,23.9,33.3z"/>
	</g>
	<g>
		<path class="st8" d="M135.7,27.9l-1.6-1.6c-0.1-0.1-0.2-0.3-0.1-0.5c0.7-1,1.2-2.2,1.4-3.4c0-0.2,0.2-0.3,0.4-0.3h2.2
			c0.4,0,0.8-0.4,0.8-0.8v-2.5c0-0.4-0.4-0.8-0.8-0.8h-2.2c-0.2,0-0.4-0.1-0.4-0.3c-0.3-1.2-0.8-2.4-1.4-3.4
			c-0.1-0.2-0.1-0.4,0.1-0.5l1.6-1.6c0.3-0.3,0.3-0.8,0-1.1l-1.8-1.8c-0.3-0.3-0.8-0.3-1.1,0l-1.6,1.6c-0.1,0.1-0.3,0.2-0.5,0.1
			c-1-0.7-2.2-1.2-3.4-1.4c-0.2,0-0.3-0.2-0.3-0.4V6.7c0-0.4-0.3-0.7-0.7-0.8l0,0h-0.1h-2.5c-0.4,0-0.8,0.4-0.8,0.8v2.2
			c0,0.2-0.1,0.4-0.3,0.4l0,0l0,0c-1.2,0.3-2.4,0.8-3.4,1.4c-0.2,0.1-0.4,0.1-0.5-0.1L117.1,9c-0.3-0.3-0.8-0.3-1.1,0l-1.8,1.8
			c-0.3,0.3-0.3,0.8,0,1.1l1.6,1.6c0.1,0.1,0.2,0.3,0.1,0.5c-0.7,1-1.2,2.2-1.4,3.4c0,0.2-0.2,0.3-0.4,0.3h-2.2
			c-0.4,0-0.8,0.4-0.8,0.8V21c0,0.4,0.4,0.8,0.8,0.8h2.2c0.2,0,0.4,0.1,0.4,0.3c0.3,1.2,0.8,2.4,1.4,3.4c0.1,0.2,0.1,0.4-0.1,0.5
			l-1.6,1.6c-0.3,0.3-0.3,0.8,0,1.1l1.8,1.8c0.3,0.3,0.8,0.3,1.1,0l1.6-1.6c0.1-0.1,0.3-0.2,0.5-0.1c1,0.7,2.2,1.2,3.4,1.4
			c0.2,0,0.3,0.2,0.3,0.4v2.2c0,0.3,0.2,0.6,0.5,0.7h0.1c0.1,0,0.1,0,0.2,0l0,0h2.5l0,0l0,0h0.1l0,0c0.4-0.1,0.7-0.4,0.7-0.8v-2.2
			c0-0.2,0.1-0.4,0.3-0.4c1.2-0.3,2.4-0.8,3.4-1.4c0.2-0.1,0.4-0.1,0.5,0.1l1.6,1.6c0.3,0.3,0.8,0.3,1.1,0l1.8-1.8
			C136,28.8,136,28.2,135.7,27.9z M124.9,27.9c-4.4,0-7.9-3.5-7.9-7.9s3.5-7.9,7.9-7.9c0.5,0,0.9,0,1.4,0.1
			c-3.7,0.7-6.5,3.9-6.5,7.8s2.8,7.1,6.5,7.8C125.8,27.9,125.3,27.9,124.9,27.9z M128.9,20.4l-1.7,2.9c-0.2,0.3-0.4,0.4-0.7,0.4
			h-3.3c-0.3,0-0.6-0.2-0.7-0.4l-1.7-2.9c-0.2-0.3-0.2-0.6,0-0.8l1.7-2.9c0.2-0.3,0.4-0.4,0.7-0.4h3.3c0.3,0,0.6,0.2,0.7,0.4
			l1.7,2.9C129.1,19.8,129.1,20.2,128.9,20.4z"/>
		<path class="st8" d="M136.3,8.5c0.4,0,0.7-0.3,0.7-0.7V2.5h7.5c0.2,0.4,0.5,0.8,1,1c0.2,0.1,0.5,0.1,0.7,0.1c0.1,0,0.2,0,0.4,0
			h0.1c0.1,0,0.1,0,0.2-0.1c0.1,0,0.1-0.1,0.2-0.1c0,0,0.1,0,0.1-0.1c0.1,0,0.1-0.1,0.2-0.1c0,0,0.1,0,0.1-0.1l0,0
			c0.4-0.3,0.6-0.8,0.6-1.3s-0.2-1-0.6-1.3l0,0c0,0-0.1,0-0.1-0.1c-0.1,0-0.1-0.1-0.2-0.1c0,0-0.1,0-0.1-0.1c-0.1,0-0.1-0.1-0.2-0.1
			c-0.1,0-0.1,0-0.2-0.1h-0.1c-0.1,0-0.2,0-0.4,0s-0.3,0-0.5,0.1c-0.5,0.1-1,0.5-1.2,1l0,0h-8.2c-0.4,0-0.7,0.3-0.7,0.7v6
			C135.6,8.2,135.9,8.5,136.3,8.5z"/>
		<path class="st8" d="M113.5,31.5c-0.4,0-0.7,0.3-0.7,0.7v5.3h-7.5c-0.1-0.2-0.3-0.5-0.5-0.6l0,0c0,0-0.1,0-0.1-0.1
			c-0.1,0-0.1-0.1-0.2-0.1c0,0-0.1,0-0.1-0.1c-0.1,0-0.1-0.1-0.2-0.1s-0.1,0-0.2-0.1h-0.1c-0.1,0-0.2,0-0.4,0
			c-0.6,0-1.2,0.3-1.5,0.8c-0.2,0.3-0.3,0.6-0.3,1c0,0.3,0.1,0.5,0.1,0.7c0.2,0.5,0.7,1,1.3,1.1c0.1,0,0.2,0,0.4,0
			c0.1,0,0.2,0,0.4,0h0.1c0.1,0,0.1,0,0.2-0.1c0.1,0,0.1-0.1,0.2-0.1c0,0,0.1,0,0.1-0.1c0.1,0,0.1-0.1,0.2-0.1c0,0,0.1,0,0.1-0.1
			l0,0c0.2-0.2,0.4-0.4,0.5-0.6h8.2c0.4,0,0.7-0.3,0.7-0.7v-6C114.2,31.8,113.9,31.5,113.5,31.5z"/>
		<circle class="st8" cx="124.9" cy="20" r="1.2"/>
		<path class="st8" d="M103.6,3.6c0.1,0,0.2,0,0.4,0h0.1c0.1,0,0.1,0,0.2-0.1c0.1,0,0.1-0.1,0.2-0.1c0,0,0.1,0,0.1-0.1
			c0.1,0,0.1-0.1,0.2-0.1c0,0,0.1,0,0.1-0.1l0,0c0.2-0.2,0.4-0.4,0.5-0.6h7.5v5.3c0,0.4,0.3,0.7,0.7,0.7c0.4,0,0.7-0.3,0.7-0.7v-6
			c0-0.4-0.3-0.7-0.7-0.7h-8.2c-0.1-0.2-0.3-0.5-0.5-0.6l0,0c0,0-0.1,0-0.1-0.1c-0.1,0-0.1-0.1-0.2-0.1c0,0-0.1,0-0.1-0.1
			c-0.1,0-0.1-0.1-0.2-0.1s-0.1,0-0.2-0.1H104c-0.1,0-0.2,0-0.4,0c-0.6,0-1.2,0.3-1.5,0.8c-0.2,0.3-0.3,0.6-0.3,1s0.1,0.7,0.3,1
			C102.4,3.3,102.9,3.6,103.6,3.6z"/>
		<path class="st8" d="M103.2,21.8c0.1,0,0.2,0,0.4,0c0.1,0,0.2,0,0.4,0h0.1c0.1,0,0.1,0,0.2-0.1c0.1,0,0.1-0.1,0.2-0.1
			c0,0,0.1,0,0.1-0.1c0.1,0,0.1-0.1,0.2-0.1c0,0,0.1,0,0.1-0.1l0,0c0.2-0.2,0.4-0.4,0.5-0.6h2.8c0.4,0,0.7-0.3,0.7-0.7
			c0-0.4-0.3-0.7-0.7-0.7h-2.8c-0.1-0.2-0.3-0.5-0.5-0.6l0,0c0,0-0.1,0-0.1-0.1c-0.1,0-0.1-0.1-0.2-0.1c0,0-0.1,0-0.1-0.1
			c-0.1,0-0.1-0.1-0.2-0.1s-0.1,0-0.2-0.1H104c-0.1,0-0.2,0-0.4,0c-1,0-1.8,0.8-1.8,1.8c0,0.3,0.1,0.5,0.1,0.7
			C102.1,21.3,102.6,21.7,103.2,21.8z"/>
		<path class="st8" d="M147.4,18.7L147.4,18.7C147.4,18.6,147.3,18.6,147.4,18.7c-0.1-0.1-0.2-0.1-0.2-0.2c0,0-0.1,0-0.1-0.1
			c-0.1,0-0.1-0.1-0.2-0.1c-0.1,0-0.1,0-0.2-0.1h-0.1c-0.1,0-0.2,0-0.4,0c-0.4,0-0.7,0.1-1,0.3c-0.3,0.2-0.5,0.5-0.7,0.8h-2.8
			c-0.4,0-0.7,0.3-0.7,0.7c0,0.4,0.3,0.7,0.7,0.7h2.8c0.2,0.5,0.7,1,1.3,1.1c0.1,0,0.2,0,0.4,0c0.1,0,0.2,0,0.4,0h0.1
			c0.1,0,0.1,0,0.2-0.1c0.1,0,0.1-0.1,0.2-0.1c0,0,0.1,0,0.1-0.1c0.1,0,0.1-0.1,0.2-0.1c0,0,0.1,0,0.1-0.1l0,0
			c0.4-0.3,0.6-0.8,0.6-1.3S147.8,19,147.4,18.7z"/>
		<path class="st8" d="M147.4,36.8L147.4,36.8C147.4,36.8,147.3,36.8,147.4,36.8c-0.1-0.1-0.2-0.1-0.2-0.2c0,0-0.1,0-0.1-0.1
			c-0.1,0-0.1-0.1-0.2-0.1c-0.1,0-0.1,0-0.2-0.1h-0.1c-0.1,0-0.2,0-0.4,0s-0.3,0-0.5,0.1c-0.5,0.1-1,0.5-1.2,1l0,0H137v-5.3
			c0-0.4-0.3-0.7-0.7-0.7s-0.7,0.3-0.7,0.7v6c0,0.4,0.3,0.7,0.7,0.7h8.2c0.2,0.5,0.7,1,1.3,1.1c0.1,0,0.2,0,0.4,0c0.1,0,0.2,0,0.4,0
			h0.1c0.1,0,0.1,0,0.2-0.1c0.1,0,0.1-0.1,0.2-0.1c0,0,0.1,0,0.1-0.1c0.1,0,0.1-0.1,0.2-0.1c0,0,0.1,0,0.1-0.1l0,0
			c0.4-0.3,0.6-0.8,0.6-1.3S147.8,37.2,147.4,36.8z"/>
	</g>
	<g>
		<path class="st9" d="M39.2,65.3c-0.1-0.3-0.4-0.4-0.6-0.2l-4.1,4.1c-0.1,0.1-0.4,0.2-0.6,0.2l-2.8-0.7c-0.2-0.1-0.4-0.2-0.4-0.4
			L30,65.5c-0.1-0.2,0-0.4,0.2-0.6l4.1-4.1c0.2-0.2,0.1-0.5-0.2-0.6C29,59,24.5,64,26.3,69c0.1,0.2,0,0.5-0.1,0.6
			C25.5,70.3,10.5,85.3,9.8,86c-0.2,0.2-0.6,0.3-0.9,0.2c-5-1.6-9.8,2.8-8.7,7.9c0.1,0.3,0.4,0.3,0.6,0.2l4.1-4.1
			C5,90,5.2,90,5.4,90l2.8,0.7c0.2,0.1,0.4,0.2,0.4,0.4L9.4,94c0.1,0.2,0,0.4-0.2,0.6l-4.1,4.1c-0.2,0.2-0.1,0.5,0.2,0.6
			c5.1,1.1,9.5-3.8,7.8-8.7c-0.1-0.3,0-0.6,0.2-0.8c0.6-0.6,15.8-15.8,16.5-16.5c0.2-0.2,0.4-0.2,0.6-0.1
			C35.4,74.9,40.4,70.5,39.2,65.3z"/>
		<g>
			<path class="st10" d="M10,87.4c0.3,0.1,0.6,0,0.9-0.2c0.8-0.8,15.8-15.8,16.4-16.4c0.2-0.2,0.2-0.4,0.1-0.6
				c-1.6-4.6,1.9-9.1,6.5-9l0.4-0.4c0.2-0.2,0.1-0.5-0.2-0.6C29,59,24.5,64,26.3,69c0.1,0.2,0,0.5-0.1,0.6
				C25.5,70.3,10.5,85.3,9.8,86c-0.2,0.2-0.6,0.3-0.9,0.2c-5-1.6-9.8,2.8-8.7,7.9c0.1,0.3,0.4,0.3,0.6,0.2l0.4-0.4
				C1.1,89.4,5.5,85.9,10,87.4z"/>
			<path class="st10" d="M23.1,76.3c-0.2-0.2-0.2-0.6,0-0.9l3.8-3.8c0.2-0.2,0.6-0.2,0.9,0c0.2,0.2,0.2,0.6,0,0.9L24,76.3
				C23.7,76.5,23.4,76.5,23.1,76.3z"/>
			<path class="st10" d="M11.6,87.8c-0.2-0.2-0.2-0.6,0-0.9l3.8-3.8c0.2-0.2,0.6-0.2,0.9,0c0.2,0.2,0.2,0.6,0,0.9l-3.8,3.8
				C12.2,88,11.8,88,11.6,87.8z"/>
		</g>
		<path class="st11" d="M18.2,80.5l2.3-2.3l2,2l-2.3,2.3L18.2,80.5z"/>
		<path class="st12" d="M18.2,80.5l1.1-1.1l2,2l-1.1,1.1L18.2,80.5z"/>
		<path class="st9" d="M5.1,66.8l1.6-1.6l13.4,13.4l-1.6,1.6L5.1,66.8z"/>
		<path class="st10" d="M5.1,66.8l1.1-1.1l13.4,13.4l-1.1,1.1L5.1,66.8z"/>
		<path class="st10" d="M4.7,63.5c-0.2-0.1-0.5-0.1-0.6,0l-0.6,0.6c-0.1,0.1-0.2,0.4,0,0.5l1.7,2.1l1.6-1.6L4.7,63.5z"/>
		<path class="st13" d="M4.5,63.5C4.5,63.5,4.5,63.4,4.5,63.5c-0.2-0.1-0.4-0.1-0.5,0l-0.6,0.6c-0.1,0.1-0.2,0.4,0,0.5l1.7,2.1
			l1.1-1.1L4.5,63.5z"/>
		<path class="st14" d="M17.5,81.2c-0.2-0.2-0.2-0.6,0-0.9l2.9-2.9c0.2-0.2,0.6-0.2,0.9,0c0.2,0.2,0.2,0.6,0,0.9l-2.9,2.9
			C18.1,81.5,17.7,81.5,17.5,81.2z"/>
		<path class="st15" d="M22.5,79.1l-3.4,3.4c-0.7,0.7-0.7,1.8,0,2.4l14.6,14.6c0.7,0.7,1.8,0.7,2.4,0l3.4-3.4c0.7-0.7,0.7-1.8,0-2.4
			L24.9,79.1C24.2,78.5,23.2,78.5,22.5,79.1z"/>
		<path class="st16" d="M35,98.6l-14.9-15c-0.4-0.4-0.6-1-0.6-1.5l-0.4,0.4c-0.7,0.7-0.7,1.8,0,2.4l14.6,14.6c0.7,0.7,1.8,0.7,2.4,0
			l0.4-0.4C36,99.2,35.4,99,35,98.6z"/>
		<path class="st17" d="M22.5,79.1l-3.4,3.4c-0.7,0.7-0.7,1.8,0,2.4l0.8,0.8l5.8-5.8l-0.8-0.8C24.2,78.5,23.2,78.5,22.5,79.1z"/>
		<path class="st15" d="M19.1,82.5c-0.7,0.7-0.7,1.7,0,2.4l0.8,0.8l1.1-1.1l-1-1c-0.4-0.4-0.6-1-0.6-1.5L19.1,82.5z"/>
		<path class="st16" d="M34.7,97.2c-0.2,0-0.3-0.1-0.4-0.2L23.1,85.9c-0.2-0.2-0.2-0.6,0-0.9c0.2-0.2,0.6-0.2,0.9,0l11.2,11.2
			c0.2,0.2,0.2,0.6,0,0.9C35,97.2,34.9,97.2,34.7,97.2z"/>
		<path class="st16" d="M36.6,95.3c-0.2,0-0.3-0.1-0.4-0.2L25,84c-0.2-0.2-0.2-0.6,0-0.9c0.2-0.2,0.6-0.2,0.9,0L37,94.3
			c0.2,0.2,0.2,0.6,0,0.9C36.9,95.3,36.8,95.3,36.6,95.3z"/>
	</g>
	<path class="st8" d="M147.5,93.7l-14.6-14.6c-0.2-0.2-0.4-0.3-0.6-0.4c2.9-2.9,5.3-5.3,5.5-5.5s0.4-0.2,0.6-0.1
		c5,1.8,10-2.6,8.8-7.8c-0.1-0.3-0.4-0.4-0.6-0.2l-4.1,4.1c-0.1,0.1-0.4,0.2-0.6,0.2l-2.8-0.7c-0.2-0.1-0.4-0.2-0.4-0.4l-0.7-2.8
		c-0.1-0.2,0-0.4,0.2-0.6l3.8-3.8l0,0l0.4-0.4c0,0,0.1-0.1,0.1-0.2c0-0.2-0.1-0.4-0.3-0.4c-3.2-0.7-6.2,0.9-7.5,3.5
		c-0.5,1-0.8,2.2-0.7,3.4c0,0.6,0.2,1.2,0.4,1.9c0,0.1,0,0.1,0,0.2s0,0.1,0,0.2s-0.1,0.2-0.2,0.3c-0.2,0.2-1.7,1.7-3.6,3.6
		c-1.1,1.1-2.5,2.5-3.8,3.8l-11.9-11.9l-2.1-1.6c-0.1,0-0.1-0.1-0.2-0.1l0,0l0,0c-0.1,0-0.1,0-0.2,0c0,0,0,0-0.1,0s-0.1,0.1-0.2,0.1
		l-0.6,0.6c-0.1,0.1-0.2,0.4,0,0.5l1.7,2.1l11.9,11.9c-3.4,3.4-6.5,6.5-7.2,7.2c-0.1,0.1-0.1,0.1-0.1,0.1c-0.1,0.1-0.3,0.2-0.4,0.2
		c-0.2,0-0.3,0-0.5,0c-1.2-0.4-2.5-0.4-3.6-0.2s-2.2,0.8-3,1.6c-1.3,1.2-2.1,2.8-2.2,4.6c0,0.6,0,1.2,0.2,1.9c0,0.2,0.2,0.3,0.4,0.3
		c0.1,0,0.1,0,0.2-0.1l4.1-4.1c0.2-0.2,0.4-0.2,0.6-0.2l2.8,0.7c0.2,0.1,0.4,0.2,0.4,0.4l0.7,2.8c0.1,0.2,0,0.4-0.2,0.6l-4.1,4.1
		c-0.2,0.2-0.1,0.5,0.2,0.6c5.1,1.1,9.5-3.8,7.8-8.7c-0.1-0.3,0-0.6,0.2-0.8c0.2-0.2,2.6-2.6,5.4-5.4c0,0,0,0,0,0.1s0.1,0.1,0.1,0.2
		c0,0,0,0.1,0.1,0.1c0.1,0.1,0.1,0.2,0.2,0.3l0.8,0.8l0,0l13.8,13.8c0.7,0.7,1.8,0.7,2.4,0l3.4-3.4
		C148.2,95.5,148.2,94.4,147.5,93.7z M135.8,72.5l-3.8,3.8c-0.2,0.2-0.6,0.2-0.9,0c-0.2-0.2-0.2-0.6,0-0.9l3.8-3.8
		c0.2-0.2,0.6-0.2,0.9,0C136,71.9,136,72.2,135.8,72.5z M124.2,84l-3.8,3.8c-0.2,0.2-0.6,0.2-0.9,0c-0.2-0.2-0.2-0.6,0-0.9l3.8-3.8
		c0.2-0.2,0.6-0.2,0.9,0C124.5,83.4,124.5,83.8,124.2,84z M143.1,97.1c-0.1,0.1-0.3,0.2-0.4,0.2s-0.3-0.1-0.4-0.2l-11.2-11.2
		c-0.2-0.2-0.2-0.6,0-0.9c0.2-0.2,0.6-0.2,0.9,0l11.2,11.2C143.4,96.5,143.4,96.8,143.1,97.1z M145,95.2c-0.1,0.1-0.3,0.2-0.4,0.2
		s-0.3-0.1-0.4-0.2L133,84c-0.2-0.2-0.2-0.6,0-0.9c0.2-0.2,0.6-0.2,0.9,0L145,94.3C145.3,94.5,145.3,94.9,145,95.2z"/>
	<g>
		<path class="st18" d="M26.3,160.5H0.8c-0.4,0-0.8-0.4-0.8-0.8v-3.4c0-0.4,0.4-0.8,0.8-0.8h25.4v5H26.3z"/>
		<path class="st19" d="M24.5,155.4c-0.4,0.8-0.6,1.7-0.6,2.7l0,0c0,0.4-0.3,0.7-0.7,0.7H0v0.9c0,0.4,0.4,0.8,0.8,0.8h25.4v-5
			L24.5,155.4L24.5,155.4z"/>
		<path class="st20" d="M36.2,148.3c0-1.9-1.5-3.4-3.4-3.4s-3.4,1.5-3.4,3.4v1.6c0,1.9,1.5,3.4,3.4,3.4c1.9,0,3.4-1.5,3.4-3.4V148.3
			z"/>
		<path class="st21" d="M32.8,144.9c-0.2,0-0.5,0-0.7,0.1c1.6,0.3,2.7,1.7,2.7,3.3v1.6c0,1.6-1.2,3-2.7,3.3c0.2,0,0.5,0.1,0.7,0.1
			c1.9,0,3.4-1.5,3.4-3.4v-1.6C36.2,146.5,34.6,144.9,32.8,144.9z"/>
		<path class="st22" d="M40,159.7v-1.6c0-2.1-1.3-3.9-3.3-4.6l-1.7-0.6c-0.6-0.2-1.1-0.3-1.7-0.3h-1c-0.6,0-1.2,0.1-1.7,0.3
			l-1.7,0.6c-2,0.7-3.3,2.5-3.3,4.6v2.4h13.7C39.6,160.5,40,160.1,40,159.7z"/>
		<path class="st23" d="M36.7,153.5l-0.5-0.2c1.2,0.9,1.9,2.3,1.9,3.9v3.3h1c0.4,0,0.8-0.4,0.8-0.8v-1.6
			C40,156,38.7,154.2,36.7,153.5z"/>
		<path class="st22" d="M17.6,148.4l-1.2-0.4l0,0l-2.8,4.8l-2.8-4.8l0,0l-1.2,0.4c-2,0.7-3.3,2.5-3.3,4.6v2.4h14.5V153
			C20.9,151,19.6,149.1,17.6,148.4z"/>
		<path class="st23" d="M17.6,148.4l-0.5-0.2c1.2,0.9,1.9,2.3,1.9,3.9v3.3h1.8V153C20.9,151,19.6,149.1,17.6,148.4z"/>
		<path class="st24" d="M10.9,148l2.8,4.8l2.8-4.8l0,0l-1.4-0.5h-2.8L10.9,148L10.9,148z"/>
		<path class="st20" d="M17.1,143.3c0-1.9-1.5-3.4-3.4-3.4s-3.4,1.5-3.4,3.4v1.6c0,1.9,1.5,3.4,3.4,3.4s3.4-1.5,3.4-3.4V143.3z"/>
		<path class="st21" d="M13.7,139.9c-0.2,0-0.5,0-0.7,0.1c1.6,0.3,2.7,1.7,2.7,3.3v1.6c0,1.6-1.2,3-2.7,3.3c0.2,0,0.5,0.1,0.7,0.1
			c1.9,0,3.4-1.5,3.4-3.4v-1.6C17.1,141.4,15.5,139.9,13.7,139.9z"/>
		<path class="st25" d="M20.7,120.5H3.3c-1.8,0-3.3,1.5-3.3,3.3v8.5c0,1.8,1.5,3.3,3.3,3.3H5l3,3c0.4,0.4,1.1,0.1,1.1-0.5v-2.5h11.5
			c1.8,0,3.3-1.5,3.3-3.3v-8.5C23.9,121.9,22.4,120.5,20.7,120.5z"/>
		<path class="st25" d="M20.7,120.5H3.3c-1.8,0-3.3,1.5-3.3,3.3v8.5c0,1.8,1.5,3.3,3.3,3.3H5l3,3c0.4,0.4,1.1,0.1,1.1-0.5v-2.5h11.5
			c1.8,0,3.3-1.5,3.3-3.3v-8.5C23.9,121.9,22.4,120.5,20.7,120.5z"/>
		<path class="st26" d="M3.3,133.8c-1.8,0-3.3-1.5-3.3-3.3v1.6c0,1.8,1.5,3.3,3.3,3.3H5l3,3c0.4,0.4,1.1,0.1,1.1-0.5v-0.1l-3.6-3.6
			c-0.3-0.3-0.7-0.5-1.1-0.5H3.3V133.8z"/>
		<path class="st26" d="M20.7,120.5h-2c1.2,0,2.2,0.6,2.7,1.5c0.3,0.5,0,1.2-0.7,1.2h-1.3c-2.7,0-4.9,2.2-4.9,4.9v4.9
			c0,0.4-0.4,0.8-0.8,0.8h-2.9c-0.9,0-1.6,0.7-1.6,1.6h11.5c1.8,0,3.3-1.5,3.3-3.3v-8.5C23.9,121.9,22.4,120.5,20.7,120.5z"/>
		<path class="st27" d="M19.3,124.9h17.4c1.8,0,3.3,1.5,3.3,3.3v8.5c0,1.8-1.5,3.3-3.3,3.3h-8.4v2.5c0,0.6-0.7,0.9-1.1,0.5l-3-3h-5
			c-1.8,0-3.3-1.5-3.3-3.3v-8.5C16.1,126.3,17.6,124.9,19.3,124.9z"/>
		<g>
			<path class="st28" d="M19.3,138c-1.8,0-3.3-1.5-3.3-3.3v1.8c0,1.8,1.5,3.3,3.3,3.3h5l3,3c0.4,0.4,1.1,0.1,1.1-0.5v-0.2l-3.6-3.6
				c-0.3-0.3-0.7-0.5-1.1-0.5H19.3z"/>
			<path class="st28" d="M36.7,124.9h-2c1.8,0,3.3,1.5,3.3,3.3v8.3c0,0.9-0.7,1.6-1.6,1.6H30c-0.9,0-1.6,0.7-1.6,1.6v0.2h8.4
				c1.8,0,3.3-1.5,3.3-3.3v-8.5C40,126.3,38.5,124.9,36.7,124.9z"/>
		</g>
	</g>
	<g>
		<path class="st8" d="M144.7,153.5l-0.5-0.2l0,0l-1.3-0.4c-0.1,0-0.2,0-0.3-0.1c0.9-0.6,1.5-1.6,1.5-2.8v-1.6
			c0-1.9-1.5-3.4-3.4-3.4c-0.2,0-0.5,0-0.7,0.1l0,0l0,0c-1.6,0.3-2.7,1.7-2.7,3.3v1.6c0,1.2,0.6,2.2,1.5,2.8c-0.1,0-0.2,0-0.3,0.1
			l-1.7,0.6c-1.1,0.4-2,1.1-2.5,2.1v-0.1h-1.8h-3.6V153c0-2.1-1.3-3.9-3.3-4.6l-0.5-0.2l0,0l-0.7-0.3l0,0l-2.8,4.8l-2.8-4.8l0,0
			l-1.2,0.4c-2,0.7-3.3,2.5-3.3,4.6v2.4h-5.6c-0.4,0-0.8,0.4-0.8,0.8v2.5v0.9c0,0.4,0.4,0.8,0.8,0.8h24.7h0.7h12h1
			c0.4,0,0.8-0.4,0.8-0.8v-1.6C148,156,146.7,154.2,144.7,153.5z"/>
		<path class="st8" d="M121,148.3c0.2,0,0.5,0.1,0.7,0.1c1.9,0,3.4-1.5,3.4-3.4v-1.6c0-1.9-1.5-3.4-3.4-3.4c-0.2,0-0.5,0-0.7,0.1
			l0,0l0,0c-1.6,0.3-2.7,1.7-2.7,3.3v1.6C118.2,146.6,119.4,148,121,148.3L121,148.3L121,148.3z"/>
		<path class="st8" d="M111.3,135.4h1.8l3,3c0.4,0.4,1.1,0.1,1.1-0.5v-2.5c0-0.9,0.7-1.6,1.6-1.6h2.9c0.4,0,0.8-0.4,0.8-0.8v-4.9
			c0-2.7,2.2-4.9,4.9-4.9h1.3c0.6,0,1-0.7,0.7-1.2c-0.6-0.9-1.6-1.5-2.7-1.5h-15.4c-1.8,0-3.3,1.5-3.3,3.3v8.5
			C108,134,109.5,135.4,111.3,135.4z"/>
		<path class="st8" d="M144.7,124.9h-17.4c-1.8,0-3.3,1.5-3.3,3.3v8.5c0,1.8,1.5,3.3,3.3,3.3h5l3,3c0.4,0.4,1.1,0.1,1.1-0.5V140h8.4
			c1.8,0,3.3-1.5,3.3-3.3v-8.5C148,126.3,146.5,124.9,144.7,124.9z"/>
	</g>
	<g>
		<path class="st29" d="M56.2,201.8c-0.2-4.7-4.1-8.5-8.8-8.7c-0.9,0-1.8,0.1-2.7,0.3c-0.2,0.1-0.4-0.1-0.4-0.3l0,0
			c0-6.8-5.5-12.3-12.3-12.3c-5.6,0-10.3,3.7-11.8,8.8c-0.1,0.4-0.6,0.7-1,0.6c-2.7-0.6-5.5,0.4-7.3,2.6c-0.2,0.3-0.6,0.4-0.9,0.3
			c-5.6-1.1-10.7,3.2-11,8.7c-0.2,5.3,4,9.7,9.3,9.7h37.8C52.3,211.3,56.5,207,56.2,201.8z"/>
		<g>
			<path class="st30" d="M2.3,201.6c0.2-4.5,3.7-8.2,8.1-8.7C5,192.2,0.3,196.3,0,201.6c-0.2,5.3,4,9.7,9.3,9.7h2.3
				C6.3,211.3,2,207,2.3,201.6z"/>
			<path class="st30" d="M21.5,190.1c0.4,0.1,0.9-0.2,1-0.6c1.4-4.7,5.6-8.2,10.7-8.7c-0.4,0-0.8-0.1-1.1-0.1
				c-5.6,0-10.3,3.7-11.8,8.8c-0.1,0.2-0.2,0.3-0.3,0.5C20.4,189.9,21,190,21.5,190.1z"/>
			<path class="st30" d="M13.3,193c0.4,0.1,0.7-0.1,0.9-0.3c1.2-1.5,2.8-2.4,4.6-2.6c-2.5-0.4-5.2,0.5-6.9,2.6
				c-0.1,0.1-0.1,0.1-0.2,0.2C12.3,192.8,12.8,192.9,13.3,193z"/>
		</g>
		<path class="st31" d="M16.3,211.8c-0.3-0.3-0.3-0.7,0-1l4.8-4.8c0.6-0.6,0.6-1.5,0-2s-1.5-0.5-2,0.1l-6.2,6.2
			c-0.6,0.6-0.6,1.5,0,2l6.2,6.2c0.6,0.6,1.5,0.6,2,0.1c0.6-0.6,0.6-1.5,0-2L16.3,211.8z"/>
		<path class="st31" d="M42.3,210.3l-6.2-6.2c-0.6-0.6-1.5-0.6-2,0s-0.5,1.5,0.1,2l4.7,4.7c0.3,0.3,0.3,0.7,0,1l-4.7,4.7
			c-0.6,0.6-0.6,1.5-0.1,2c0.6,0.6,1.5,0.6,2,0l6.2-6.2C42.8,211.8,42.8,210.9,42.3,210.3z"/>
		<path class="st31" d="M23.6,220.6c-0.7-0.3-1.1-1.2-0.7-1.9l6.9-15.9c0.3-0.7,1.2-1.1,1.9-0.7c0.7,0.3,1.1,1.2,0.7,1.9l-6.9,15.9
			C25.1,220.6,24.3,220.9,23.6,220.6z"/>
		<path class="st32" d="M15.1,212.4c-0.6-0.6-0.6-1.5,0-2l6.1-6.1c0-0.1-0.1-0.1-0.1-0.1c-0.6-0.5-1.5-0.5-2,0.1l-6.2,6.2
			c-0.6,0.6-0.6,1.5,0,2l6.2,6.2c0.6,0.6,1.5,0.6,2,0.1l0.1-0.1L15.1,212.4z"/>
		<path class="st32" d="M36.3,216.6l4.7-4.7c0.3-0.3,0.3-0.7,0-1l-4.7-4.7c-0.5-0.5-0.6-1.4-0.1-1.9l-0.1-0.1c-0.6-0.6-1.5-0.6-2,0
			s-0.5,1.5,0.1,2l4.7,4.7c0.3,0.3,0.3,0.7,0,1l-4.7,4.7c-0.6,0.6-0.6,1.5-0.1,2c0.6,0.6,1.5,0.6,2,0l0.1-0.1
			C35.7,217.9,35.8,217.1,36.3,216.6z"/>
		<path class="st32" d="M25.1,218.7l6.9-15.9c0-0.1,0.1-0.2,0.2-0.3c-0.1-0.2-0.3-0.3-0.6-0.4c-0.7-0.3-1.6,0-1.9,0.7l-6.9,15.9
			c-0.3,0.7,0,1.6,0.7,1.9c0.6,0.3,1.3,0.1,1.7-0.4C24.9,219.8,24.9,219.2,25.1,218.7z"/>
	</g>
	<g>
		<path class="st8" d="M148,201.8c-0.2-4.7-4.1-8.5-8.8-8.7c-0.9,0-1.8,0.1-2.7,0.3c-0.2,0.1-0.4-0.1-0.4-0.3l0,0
			c0-6.4-4.9-11.7-11.2-12.3l0,0c-0.4,0-0.8-0.1-1.1-0.1c-5.6,0-10.3,3.7-11.8,8.8c0,0.1-0.1,0.2-0.1,0.3c0,0,0,0-0.1,0.1
			c-0.2,0.2-0.5,0.3-0.8,0.3c-0.1,0-0.3,0-0.5-0.1l0,0c-0.1,0-0.2,0-0.3,0c-0.2,0-0.3,0-0.5,0s-0.3,0-0.5,0s-0.3,0-0.5,0
			s-0.3,0-0.5,0.1c-0.2,0-0.3,0-0.5,0.1c-0.2,0-0.3,0.1-0.5,0.1c-0.1,0-0.3,0.1-0.4,0.1c-0.2,0.1-0.3,0.1-0.5,0.2
			c-0.1,0.1-0.3,0.1-0.4,0.2c-0.2,0.1-0.3,0.2-0.5,0.3c-0.1,0.1-0.2,0.1-0.3,0.2c-0.2,0.1-0.3,0.3-0.5,0.4c-0.1,0.1-0.2,0.1-0.3,0.2
			c-0.2,0.2-0.5,0.5-0.7,0.7c-0.2,0.3-0.6,0.4-0.9,0.3c-0.2,0-0.4-0.1-0.7-0.1l0,0c-0.1,0-0.1,0-0.2,0c-0.2,0-0.3,0-0.5,0
			s-0.3,0-0.5,0s-0.3,0-0.5,0s-0.3,0-0.5,0s-0.3,0-0.5,0.1c-0.2,0-0.3,0.1-0.5,0.1s-0.3,0.1-0.5,0.1s-0.3,0.1-0.5,0.1
			c-0.2,0.1-0.3,0.1-0.4,0.2c-0.1,0.1-0.3,0.1-0.4,0.2c-0.1,0.1-0.3,0.1-0.4,0.2c-0.1,0.1-0.3,0.2-0.4,0.2c-0.1,0.1-0.3,0.2-0.4,0.2
			c-0.1,0.1-0.3,0.2-0.4,0.3s-0.2,0.2-0.4,0.3c-0.1,0.1-0.2,0.2-0.4,0.3c-0.1,0.1-0.2,0.2-0.3,0.3c-0.1,0.1-0.2,0.2-0.3,0.4
			c-0.1,0.1-0.2,0.2-0.3,0.3c-0.1,0.1-0.2,0.3-0.3,0.4c-0.1,0.1-0.2,0.2-0.3,0.4c-0.1,0.1-0.2,0.3-0.3,0.4c-0.1,0.1-0.2,0.3-0.2,0.4
			c-0.1,0.2-0.1,0.3-0.2,0.5c-0.1,0.1-0.1,0.3-0.2,0.4c-0.1,0.2-0.1,0.3-0.2,0.5c0,0.1-0.1,0.3-0.1,0.4c-0.1,0.2-0.1,0.4-0.1,0.6
			c0,0.1-0.1,0.3-0.1,0.4c0,0.3-0.1,0.5-0.1,0.8c0,0.1,0,0.1,0,0.2c-0.2,4.9,3.3,8.9,7.9,9.6c0-1,0.4-2,1.1-2.7l6.2-6.2
			c1.5-1.5,4-1.6,5.5-0.1c0.8,0.7,1.2,1.7,1.2,2.8s-0.4,2.1-1.2,2.8l-3.5,3.5l0,0h5.9l4.1-9.5c0.4-1,1.2-1.7,2.2-2.1
			c1-0.4,2-0.4,3,0.1c1,0.4,1.7,1.2,2.1,2.2s0.4,2-0.1,3l-2.8,6.4h7.8l0,0l-3.4-3.4c-1.5-1.5-1.6-4-0.1-5.5c0.7-0.8,1.7-1.2,2.8-1.2
			s2.1,0.4,2.8,1.2l6.2,6.2c0.7,0.7,1.1,1.6,1.1,2.5C145.1,210.2,148.2,206.3,148,201.8z"/>
		<path class="st8" d="M105,212.2c-0.3-0.3-0.3-0.7,0-1l4.8-4.8c0.6-0.6,0.6-1.5,0-2s-1.5-0.5-2,0.1l-6.2,6.2c-0.6,0.6-0.6,1.5,0,2
			l6.2,6.2c0.6,0.6,1.5,0.6,2,0.1c0.6-0.6,0.6-1.5,0-2L105,212.2z"/>
		<path class="st8" d="M132.1,204.4c-0.6-0.6-1.5-0.6-2,0s-0.5,1.5,0.1,2l4.7,4.7c0.3,0.3,0.3,0.7,0,1l-4.7,4.7
			c-0.6,0.6-0.6,1.5-0.1,2c0.6,0.6,1.5,0.6,2,0l6.2-6.2c0.6-0.6,0.6-1.5,0-2L132.1,204.4z"/>
		<path class="st8" d="M123.7,202.5c-0.7-0.3-1.6,0-1.9,0.7l-6.9,15.9c-0.3,0.7,0,1.6,0.7,1.9c0.7,0.3,1.6,0,1.9-0.7l6.9-15.9
			C124.8,203.6,124.5,202.8,123.7,202.5z"/>
	</g>
	<g>
		<path class="st29" d="M18.7,267.3c-4.9,0-9.1-4-9.1-8.9s4-8.9,8.9-8.9c3.7,0,6.9,2.4,8.2,5.7h1.4c0.4,0,0.7,0.2,0.8,0.6l0.8,2.4
			c0.1,0.3,0.4,0.5,0.7,0.5H37v-2.3c0-0.5-0.4-0.8-0.8-0.8h-3.1c-0.4,0-0.7-0.3-0.8-0.6c-0.3-1.3-0.9-2.6-1.5-3.7
			c-0.2-0.3-0.1-0.7,0.1-1l2.2-2.2c0.3-0.3,0.3-0.8,0-1.2l-3-3c-0.3-0.3-0.8-0.3-1.2,0l-2.2,2.2c-0.3,0.3-0.7,0.3-1,0.1
			c-1.1-0.7-2.4-1.2-3.7-1.5c-0.4-0.1-0.6-0.4-0.6-0.8v-3.1c0-0.5-0.4-0.8-0.8-0.8h-4.2c-0.5,0-0.8,0.4-0.8,0.8v3.1
			c0,0.4-0.3,0.7-0.6,0.8c-1.3,0.3-2.6,0.9-3.7,1.5c-0.3,0.2-0.7,0.1-1-0.1l-2.2-2.2c-0.3-0.3-0.8-0.3-1.2,0l-3,3
			c-0.3,0.3-0.3,0.8,0,1.2l2.2,2.2c0.3,0.3,0.3,0.7,0.1,1c-0.7,1.1-1.2,2.4-1.5,3.7c-0.1,0.4-0.4,0.6-0.8,0.6H0.8
			c-0.5,0-0.8,0.4-0.8,0.8v4.2c0,0.5,0.4,0.8,0.8,0.8H4c0.4,0,0.7,0.3,0.8,0.6c0.3,1.3,0.9,2.6,1.5,3.7c0.2,0.3,0.1,0.7-0.1,1
			L4,268.9c-0.3,0.3-0.3,0.8,0,1.2l3,3c0.3,0.3,0.8,0.3,1.2,0l2.2-2.2c0.3-0.3,0.7-0.3,1-0.1c1.1,0.7,2.4,1.2,3.7,1.5
			c0.4,0.1,0.6,0.4,0.6,0.8v3.1c0,0.5,0.4,0.8,0.8,0.8h2.3L18.7,267.3L18.7,267.3z"/>
		<g>
			<path class="st30" d="M6.2,250.2c0.3,0.3,0.3,0.7,0.1,1c-0.7,1.1-1.2,2.4-1.5,3.7c-0.1,0.4-0.4,0.6-0.8,0.6h1.8
				c0.4,0,0.7-0.3,0.8-0.6c0.3-1.3,0.9-2.6,1.5-3.7c0.2-0.3,0.1-0.7-0.1-1L5.8,248c-0.3-0.3-0.3-0.8,0-1.2l2.6-2.6l-0.3-0.3
				c-0.3-0.3-0.8-0.3-1.2,0l-3,3c-0.3,0.3-0.3,0.8,0,1.2L6.2,250.2z"/>
			<path class="st30" d="M1.8,260.5v-4.2c0-0.5,0.4-0.8,0.8-0.8H0.8c-0.5,0-0.8,0.4-0.8,0.8v4.2c0,0.5,0.4,0.8,0.8,0.8h1.8
				C2.2,261.3,1.8,261,1.8,260.5z"/>
			<path class="st30" d="M5.8,270.1c-0.3-0.3-0.3-0.8,0-1.2l2.2-2.2c0.3-0.3,0.3-0.7,0.1-1c-0.7-1.1-1.2-2.4-1.5-3.7
				c-0.1-0.4-0.4-0.6-0.8-0.6H4c0.4,0,0.7,0.3,0.8,0.6c0.3,1.3,0.9,2.6,1.5,3.7c0.2,0.3,0.1,0.7-0.1,1L4,268.9
				c-0.3,0.3-0.3,0.8,0,1.2l3,3c0.3,0.3,0.8,0.3,1.2,0l0.3-0.3L5.8,270.1z"/>
			<path class="st30" d="M16.5,239.9c-0.5,0-0.8,0.4-0.8,0.8v3.1c0,0.2-0.1,0.4-0.2,0.6c0.4-0.2,0.9-0.4,1.6-0.5
				c0.3,0,0.5-0.3,0.5-0.5v-2.7c0-0.5,0.4-0.8,0.8-0.8L16.5,239.9L16.5,239.9z"/>
			<path class="st30" d="M17.5,276.2v-2.6c0-0.3-0.2-0.6-0.5-0.6c-0.6-0.1-1.1-0.3-1.4-0.4c0.1,0.1,0.1,0.3,0.1,0.5v3.1
				c0,0.5,0.4,0.8,0.8,0.8h1.8C17.9,277,17.5,276.6,17.5,276.2z"/>
		</g>
		<path class="st31" d="M44.9,258.4H30.7c-0.3,0-0.6-0.2-0.7-0.5l-0.8-2.4c-0.1-0.4-0.5-0.6-0.8-0.6h-9c-0.5,0-0.9,0.4-0.9,0.9V279
			c0,0.5,0.4,0.9,0.9,0.9h25.5c0.5,0,0.9-0.4,0.9-0.9v-19.6C45.8,258.8,45.4,258.4,44.9,258.4z"/>
		<path class="st32" d="M20.4,279c0-0.9,0-22.2,0-23.1c0-0.5,0.4-0.9,0.9-0.9h-1.8c-0.5,0-0.9,0.4-0.9,0.9V279
			c0,0.5,0.4,0.9,0.9,0.9h1.8C20.8,279.9,20.4,279.5,20.4,279z"/>
		<path class="st9" d="M39.5,269.2c0,4-3.3,7.3-7.3,7.3s-7.3-3.3-7.3-7.3s3.3-7.3,7.3-7.3C36.2,261.9,39.5,265.2,39.5,269.2z"/>
		<path class="st33" d="M30.6,272.6l-2.7-2.7c-0.5-0.5-0.5-1.3,0-1.8s1.3-0.5,1.8,0l1.8,1.8l3.2-3.2c0.5-0.5,1.3-0.5,1.8,0
			s0.5,1.3,0,1.8l-4.1,4.1C31.9,273.1,31.1,273.1,30.6,272.6z"/>
		<path class="st10" d="M26.8,269.2c0-3.7,2.8-6.7,6.3-7.2c-0.3,0-0.6-0.1-0.9-0.1c-4,0-7.3,3.3-7.3,7.3s3.3,7.3,7.3,7.3
			c0.3,0,0.6,0,0.9-0.1C29.5,275.9,26.8,272.9,26.8,269.2z"/>
		<path class="st34" d="M29.7,270c-0.5-0.5-0.5-1.3,0-1.8l0,0c-0.5-0.5-1.3-0.5-1.8,0s-0.5,1.3,0,1.8l2.7,2.7c0.5,0.5,1.3,0.5,1.8,0
			l0,0L29.7,270z"/>
		<path class="st32" d="M30.7,258.4c-0.3,0-0.6-0.2-0.7-0.5l-0.8-2.4c-0.1-0.4-0.5-0.6-0.8-0.6h-9c-0.5,0-0.9,0.4-0.9,0.9v2.6H30.7z
			"/>
		<path class="st35" d="M18.6,258.4h1.8c0-1.4,0-2.4,0-2.6c0-0.5,0.4-0.9,0.9-0.9h-1.8c-0.1,0-0.2,0-0.3,0.1h-0.1
			c-0.3,0.1-0.5,0.4-0.5,0.8V258.4z"/>
	</g>
	<g>
		<path class="st8" d="M147.1,258.4h-14.3c-0.3,0-0.6-0.2-0.7-0.5l-0.8-2.4c-0.1-0.4-0.5-0.6-0.8-0.6h-7.1l0,0h-1.8
			c-0.1,0-0.2,0-0.3,0.1h-0.1c-0.1,0-0.1,0.1-0.2,0.1l0,0c-0.1,0.1-0.1,0.1-0.1,0.2c0,0,0,0,0,0.1s-0.1,0.2-0.1,0.3v2.6V279
			c0,0.5,0.4,0.9,0.9,0.9h1.8h23.6c0.5,0,0.9-0.4,0.9-0.9v-19.6C148,258.8,147.6,258.4,147.1,258.4z M134.4,276.4
			c-4,0-7.3-3.3-7.3-7.3s3.3-7.3,7.3-7.3s7.3,3.3,7.3,7.3C141.6,273.2,138.4,276.4,134.4,276.4z"/>
		<path class="st8" d="M132.7,272.6l-2.7-2.7c-0.5-0.5-0.5-1.3,0-1.8s1.3-0.5,1.8,0l1.8,1.8l3.2-3.2c0.5-0.5,1.3-0.5,1.8,0
			s0.5,1.3,0,1.8l-4.1,4.1C134,273.1,133.2,273.1,132.7,272.6z"/>
		<path class="st8" d="M111.8,258.4c0-4.9,4-8.9,8.9-8.9c2.6,0,5,1.2,6.6,3.1h3.2c0.4,0,0.7,0.2,0.8,0.6l0.8,2.4
			c0.1,0.3,0.4,0.5,0.7,0.5h6.4c-0.1-0.3-0.4-0.6-0.8-0.6h-3.1c-0.4,0-0.7-0.3-0.8-0.6c-0.3-1.3-0.9-2.6-1.5-3.7
			c-0.2-0.3-0.1-0.7,0.1-1l2.2-2.2c0.3-0.3,0.3-0.8,0-1.2l-3-3c-0.3-0.3-0.8-0.3-1.2,0L129,246c-0.3,0.3-0.7,0.3-1,0.1
			c-1.1-0.7-2.4-1.2-3.7-1.5c-0.4-0.1-0.6-0.4-0.6-0.8v-3.1c0-0.5-0.4-0.8-0.8-0.8h-4.2c-0.5,0-0.8,0.4-0.8,0.8v3.1
			c0,0.4-0.3,0.7-0.6,0.8c-1.3,0.3-2.6,0.9-3.7,1.5c-0.3,0.2-0.7,0.1-1-0.1l-2.2-2.2c-0.3-0.3-0.8-0.3-1.2,0l-3,3
			c-0.3,0.3-0.3,0.8,0,1.2l2.2,2.2c0.3,0.3,0.3,0.7,0.1,1c-0.7,1.1-1.2,2.4-1.5,3.7c-0.1,0.4-0.4,0.6-0.8,0.6h-1.3H103
			c-0.5,0-0.8,0.4-0.8,0.8v4.2c0,0.5,0.4,0.8,0.8,0.8h1.8h1.3c0.4,0,0.7,0.3,0.8,0.6c0.2,0.7,0.4,1.4,0.7,2.1
			c0.2,0.6,0.5,1.1,0.8,1.6c0.2,0.3,0.1,0.7-0.1,1l-2.2,2.2c-0.2,0.2-0.3,0.6-0.2,0.9c0,0,0,0.1,0.1,0.1c0,0.1,0.1,0.1,0.1,0.2
			l0.5,0.5l2.5,2.5c0.3,0.3,0.8,0.3,1.2,0l0.3-0.3l0,0l1.9-1.9c0.3-0.3,0.7-0.3,1-0.1c1.1,0.7,2.4,1.2,3.7,1.5
			c0.4,0.1,0.6,0.4,0.6,0.8v3.1c0,0.5,0.4,0.8,0.8,0.8h0.1V267C114.8,266.1,111.8,262.6,111.8,258.4z"/>
	</g>
	<g>
		<path class="st14" d="M20.5,299.6H2.2c-1.2,0-2.2,1-2.2,2.2v35.5c0,1.2,1,2.2,2.2,2.2h18.2c1.2,0,2.2-1,2.2-2.2
			c0-0.3,0-33.1,0-35.5C22.7,300.6,21.7,299.6,20.5,299.6z"/>
		<path class="st11" d="M1.6,337.4c0-0.3,0-33.1,0-35.5c0-1.2,1-2.2,2.2-2.2H2.2c-1.2,0-2.2,1-2.2,2.2v35.5c0,1.2,1,2.2,2.2,2.2h1.6
			C2.6,339.6,1.6,338.6,1.6,337.4z"/>
		<path class="st36" d="M2.8,308.3v24c0,0.3,0.3,0.6,0.6,0.6h15.9c0.3,0,0.6-0.3,0.6-0.6v-24H2.8z"/>
		<path class="st11" d="M12.8,336.2c0,0.8-0.6,1.4-1.4,1.4c-0.8,0-1.4-0.6-1.4-1.4s0.6-1.4,1.4-1.4
			C12.2,334.8,12.8,335.4,12.8,336.2z"/>
		<path class="st12" d="M11.5,336.2c0-0.5,0.3-0.9,0.6-1.2c-0.2-0.2-0.5-0.2-0.8-0.2c-0.8,0-1.4,0.6-1.4,1.4s0.6,1.4,1.4,1.4
			c0.3,0,0.6-0.1,0.8-0.2C11.8,337.2,11.5,336.7,11.5,336.2z"/>
		<path class="st11" d="M13,302.9H9.7c-0.3,0-0.6-0.3-0.6-0.6c0-0.3,0.3-0.6,0.6-0.6H13c0.3,0,0.6,0.3,0.6,0.6S13.4,302.9,13,302.9z
			"/>
		<path class="st37" d="M4.4,332.3v-24H2.8v24c0,0.3,0.3,0.6,0.6,0.6H5C4.7,332.9,4.4,332.6,4.4,332.3z"/>
		<path class="st29" d="M19.3,305.2H3.4c-0.3,0-0.6,0.3-0.6,0.6v2.5H20v-2.5C19.9,305.4,19.7,305.2,19.3,305.2z"/>
		<path class="st17" d="M6.4,305.2h-3c-0.3,0-0.6,0.3-0.6,0.6v2.5h3.6V305.2z"/>
		<path class="st15" d="M5,305.2H3.4c-0.3,0-0.6,0.3-0.6,0.6v2.5h1.6v-2.5C4.4,305.4,4.7,305.2,5,305.2z"/>
		<path class="st29" d="M19.2,320.3l-1.1-1.9c0-0.1-0.1-0.1-0.2-0.1h-2.2c-0.1,0-0.2,0.1-0.2,0.1l-1.1,1.9c0,0.1,0,0.2,0,0.3
			l1.1,1.9c0,0.1,0.1,0.1,0.2,0.1h2.2c0.1,0,0.2-0.1,0.2-0.1l1.1-1.9C19.2,320.4,19.2,320.3,19.2,320.3z"/>
		<path class="st29" d="M25.9,321.2c-0.2,0-0.3-0.1-0.3-0.3v-1.1c0-0.1-0.1-0.2-0.2-0.3c-0.5-0.1-0.9-0.3-1.3-0.5
			c-0.1-0.1-0.3-0.1-0.4,0l-0.8,0.8c-0.1,0.1-0.3,0.1-0.4,0l-1-1c-0.1-0.1-0.1-0.3,0-0.4l0.8-0.8c0.1-0.1,0.1-0.2,0-0.4
			c-0.2-0.4-0.4-0.8-0.5-1.3c0-0.1-0.1-0.2-0.3-0.2h-1.1c-0.2,0-0.3-0.1-0.3-0.3v-1.5l0,0c-0.5-0.2-1-0.4-1.5-0.6
			c-0.2,0-0.3-0.2-0.3-0.4v-1.6c0-0.2-0.2-0.4-0.4-0.4h-2.1c-0.2,0-0.4,0.2-0.4,0.4v1.6c0,0.2-0.1,0.4-0.3,0.4
			c-0.7,0.2-1.3,0.4-1.9,0.8c-0.2,0.1-0.4,0.1-0.5-0.1l-1.1-1.1c-0.2-0.2-0.4-0.2-0.6,0l-1.5,1.5c-0.2,0.2-0.2,0.4,0,0.6l1.1,1.1
			c0.1,0.1,0.2,0.3,0.1,0.5c-0.3,0.6-0.6,1.2-0.8,1.9c0,0.2-0.2,0.3-0.4,0.3H7.7c-0.2,0-0.4,0.2-0.4,0.4v2.1c0,0.2,0.2,0.4,0.4,0.4
			h1.6c0.2,0,0.4,0.1,0.4,0.3c0.2,0.7,0.4,1.3,0.8,1.9c0.1,0.2,0.1,0.4-0.1,0.5l-1.1,1.1c-0.2,0.2-0.2,0.4,0,0.6l1.5,1.5
			c0.2,0.2,0.4,0.2,0.6,0l1.1-1.1c0.1-0.1,0.3-0.2,0.5-0.1c0.6,0.3,1.2,0.6,1.9,0.8c0.2,0,0.3,0.2,0.3,0.4v1.6
			c0,0.2,0.2,0.4,0.4,0.4h2.1c0.2,0,0.4-0.2,0.4-0.4v-1.6c0-0.2,0.1-0.4,0.3-0.4c0.7-0.2,1.3-0.4,1.9-0.8c0.2-0.1,0.4-0.1,0.5,0.1
			l1.1,1.1c0.2,0.2,0.4,0.2,0.6,0l1.5-1.5c0.2-0.2,0.2-0.4,0-0.6l-1.1-1.1c-0.1-0.1-0.2-0.3-0.1-0.5c0.3-0.6,0.6-1.2,0.8-1.9
			c0-0.2,0.2-0.3,0.4-0.3h1.6c0.2,0,0.4-0.2,0.4-0.4V321h-0.1V321.2z M16.8,325c-2.5,0-4.6-2-4.6-4.6c0-2.5,2-4.6,4.6-4.6
			s4.6,2,4.6,4.6C21.3,322.9,19.3,325,16.8,325z"/>
		<path class="st31" d="M32.8,313.6h-1.1c-0.1,0-0.2-0.1-0.2-0.2c-0.1-0.5-0.3-0.9-0.5-1.3c-0.1-0.1,0-0.2,0-0.3l0.8-0.8
			c0.1-0.1,0.1-0.1,0.1-0.2s0-0.2-0.1-0.2l-1-1c-0.1-0.1-0.1-0.1-0.2-0.1s-0.2,0-0.2,0.1l-0.8,0.8c-0.1,0.1-0.2,0.1-0.3,0
			c-0.4-0.2-0.9-0.4-1.3-0.5c-0.1,0-0.2-0.1-0.2-0.2v-1.1c0-0.2-0.1-0.3-0.3-0.3H26c-0.2,0-0.3,0.1-0.3,0.3v1.1
			c0,0.1-0.1,0.2-0.2,0.2c-0.5,0.1-0.9,0.3-1.3,0.5c-0.1,0.1-0.2,0-0.3,0l-0.8-0.8c-0.1-0.1-0.1-0.1-0.2-0.1s-0.2,0-0.2,0.1l-1,1
			c-0.1,0.1-0.1,0.1-0.1,0.2s0,0.2,0.1,0.2l0.8,0.8c0.1,0.1,0.1,0.2,0,0.3c-0.2,0.4-0.4,0.9-0.5,1.3c0,0.1-0.1,0.2-0.2,0.2h-1.1
			c-0.2,0-0.3,0.1-0.3,0.3v1.5c0,0.2,0.1,0.3,0.3,0.3h1.1c0.1,0,0.2,0.1,0.2,0.2c0.1,0.5,0.3,0.9,0.5,1.3c0.1,0.1,0,0.2,0,0.3
			l-0.8,0.8c-0.1,0.1-0.1,0.1-0.1,0.2s0,0.2,0.1,0.2l1,1c0.1,0.1,0.1,0.1,0.2,0.1s0.2,0,0.2-0.1l0.8-0.8c0.1-0.1,0.2-0.1,0.3,0
			c0.4,0.2,0.9,0.4,1.3,0.5c0.1,0,0.2,0.1,0.2,0.2v1.1c0,0.2,0.1,0.3,0.3,0.3h1.5c0.2,0,0.3-0.1,0.3-0.3v-1.1c0-0.1,0.1-0.2,0.2-0.2
			c0.5-0.1,0.9-0.3,1.3-0.5c0.1-0.1,0.2,0,0.3,0l0.8,0.8c0.1,0.1,0.1,0.1,0.2,0.1s0.2,0,0.2-0.1l1-1c0.1-0.1,0.1-0.1,0.1-0.2
			s0-0.2-0.1-0.2l-0.8-0.8c-0.1-0.1-0.1-0.2,0-0.3c0.2-0.4,0.4-0.9,0.5-1.3c0-0.1,0.1-0.2,0.2-0.2h1.1c0.2,0,0.3-0.1,0.3-0.3v-1.5
			C33.2,313.7,33,313.6,32.8,313.6z M29.7,314.7c0,1.7-1.4,3.1-3.1,3.1s-3.1-1.4-3.1-3.1s1.4-3.1,3.1-3.1
			C28.3,311.6,29.7,313,29.7,314.7z"/>
		<g>
			<path class="st30" d="M17.1,322.4l-1.1-1.9c0-0.1,0-0.2,0-0.3l1.1-1.9c0-0.1,0.1-0.1,0.2-0.1h-1.6c-0.1,0-0.2,0.1-0.2,0.1
				l-1.1,1.9c0,0.1,0,0.2,0,0.3l1.1,1.9c0,0.1,0.1,0.1,0.2,0.1h1.6C17.2,322.5,17.1,322.5,17.1,322.4z"/>
			<path class="st30" d="M10.4,316.2c0.1,0.1,0.2,0.3,0.1,0.5c-0.3,0.6-0.6,1.2-0.8,1.9c0,0.2-0.2,0.3-0.4,0.3h1.6
				c0.2,0,0.4-0.1,0.4-0.3c0.2-0.7,0.4-1.3,0.8-1.9c0.1-0.2,0.1-0.4-0.1-0.5l-1.1-1.1c-0.2-0.2-0.2-0.4,0-0.6l1-1l-0.5-0.5
				c-0.2-0.2-0.4-0.2-0.6,0l-1.5,1.5c-0.2,0.2-0.2,0.4,0,0.6L10.4,316.2z"/>
			<path class="st30" d="M8.9,321.5v-2.1c0-0.2,0.2-0.4,0.4-0.4H7.7c-0.2,0-0.4,0.2-0.4,0.4v2.1c0,0.2,0.2,0.4,0.4,0.4h1.6
				C9,321.9,8.9,321.7,8.9,321.5z"/>
			<path class="st30" d="M10.9,326.4c-0.2-0.2-0.2-0.4,0-0.6l1.1-1.1c0.1-0.1,0.2-0.3,0.1-0.5c-0.3-0.6-0.6-1.2-0.8-1.9
				c0-0.2-0.2-0.3-0.4-0.3H9.3c0.2,0,0.4,0.1,0.4,0.3c0.2,0.7,0.4,1.3,0.8,1.9c0.1,0.2,0.1,0.4-0.1,0.5l-1.1,1.1
				c-0.2,0.2-0.2,0.4,0,0.6l1.5,1.5c0.2,0.2,0.4,0.2,0.6,0l0.5-0.5L10.9,326.4z"/>
		</g>
		<path class="st32" d="M23.1,318.8c-0.1-0.1-0.1-0.1-0.1-0.2s0-0.2,0.1-0.2l0.8-0.8c0.1-0.1,0.1-0.2,0-0.3
			c-0.2-0.4-0.4-0.9-0.5-1.3c0-0.1-0.1-0.2-0.2-0.2H22c-0.2,0-0.3-0.1-0.3-0.3V314c0-0.2,0.1-0.3,0.3-0.3h1.1c0.1,0,0.2-0.1,0.2-0.2
			c0.1-0.5,0.3-0.9,0.5-1.3c0.1-0.1,0-0.2,0-0.3l-0.8-0.8c-0.1-0.1-0.1-0.1-0.1-0.2s0-0.2,0.1-0.2l0.5-0.5l-0.6-0.6
			c-0.1-0.1-0.1-0.1-0.2-0.1s-0.2,0-0.2,0.1l-1,1c-0.1,0.1-0.1,0.1-0.1,0.2s0,0.2,0.1,0.2l0.8,0.8c0.1,0.1,0.1,0.2,0,0.3
			c-0.2,0.4-0.4,0.9-0.5,1.3c0,0.1-0.1,0.2-0.2,0.2h-1.1c-0.2,0-0.3,0.1-0.3,0.3v1.5c0,0.2,0.1,0.3,0.3,0.3h1.1
			c0.1,0,0.2,0.1,0.2,0.2c0.1,0.5,0.3,0.9,0.5,1.3c0.1,0.1,0,0.2,0,0.3l-0.8,0.8c-0.1,0.1-0.1,0.1-0.1,0.2s0,0.2,0.1,0.2l1,1
			c0.1,0.1,0.1,0.1,0.2,0.1s0.2,0,0.2-0.1l0.6-0.6L23.1,318.8z"/>
		<path class="st32" d="M27.3,308.1h-1.5c-0.2,0-0.3,0.1-0.3,0.3v1.1c0,0.1-0.1,0.2-0.2,0.2c0,0,0.6-0.2,1.5-0.2
			c0.2,0,0.3-0.1,0.3-0.3v-0.8C27.2,308.3,27.3,308.1,27.3,308.1C27.4,308.1,27.4,308.1,27.3,308.1z"/>
		<path class="st32" d="M27.2,320.9V320c0-0.1-0.1-0.2-0.2-0.2c-0.9,0-1.3-0.1-1.5-0.2c0.1,0,0.1,0.1,0.1,0.2v1.1
			c0,0.2,0.1,0.3,0.3,0.3h1.5c0,0,0,0,0.1,0C27.3,321.2,27.2,321,27.2,320.9z"/>
		<path class="st30" d="M15.7,310.9c-0.2,0-0.4,0.2-0.4,0.4v1.6c0,0.1-0.1,0.2-0.1,0.3c0.2-0.1,0.7-0.3,1.4-0.3
			c0.2,0,0.4-0.2,0.4-0.4v-1.2c0-0.2,0.2-0.4,0.4-0.4H15.7z"/>
		<path class="st30" d="M16.9,329.5v-1.2c0-0.2-0.2-0.4-0.4-0.4c-0.7,0-1.2-0.2-1.4-0.3c0.1,0.1,0.1,0.2,0.1,0.3v1.6
			c0,0.2,0.2,0.4,0.4,0.4h1.6C17.1,329.9,16.9,329.7,16.9,329.5z"/>
	</g>
	<g>
		<path class="st8" d="M130.3,318.4l-1.1,1.9c0,0.1,0,0.2,0,0.3l1.1,1.9c0,0.1,0.1,0.1,0.2,0.1h2.2c0.1,0,0.2-0.1,0.2-0.1l1.1-1.9
			c0-0.1,0-0.2,0-0.3l-1.1-1.9c0-0.1-0.1-0.1-0.2-0.1h-2.2C130.4,318.2,130.3,318.3,130.3,318.4z"/>
		<path class="st8" d="M147.7,313.6h-1.1c-0.1,0-0.2-0.1-0.2-0.2c-0.1-0.5-0.3-0.9-0.5-1.3c-0.1-0.1,0-0.2,0-0.3l0.8-0.8
			c0.1-0.1,0.1-0.1,0.1-0.2s0-0.2-0.1-0.2l-1-1c-0.1-0.1-0.1-0.1-0.2-0.1c-0.1,0-0.2,0-0.2,0.1l-0.8,0.8c-0.1,0.1-0.2,0.1-0.3,0
			c-0.4-0.2-0.9-0.4-1.3-0.5c-0.1,0-0.2-0.1-0.2-0.2v-1.1c0-0.2-0.1-0.3-0.3-0.3h-1.5c-0.2,0-0.3,0.1-0.3,0.3v1.1
			c0,0.1-0.1,0.2-0.2,0.2c-0.5,0.1-0.9,0.3-1.3,0.5c-0.1,0.1-0.2,0-0.3,0l-0.8-0.8c-0.1-0.1-0.1-0.1-0.2-0.1l0,0c0-3.9,0-6.9,0-7.5
			c0-1.2-1-2.2-2.2-2.2H119h-1.6c-1.2,0-2.2,1-2.2,2.2v35.5c0,1.2,1,2.2,2.2,2.2h1.6h16.6c1.2,0,2.2-1,2.2-2.2c0-0.1,0-4.2,0-9.5
			l0,0l1.5-1.5c0.2-0.2,0.2-0.4,0-0.6l-1.1-1.1c-0.1-0.1-0.2-0.3-0.1-0.5c0.3-0.6,0.6-1.2,0.8-1.9c0-0.2,0.2-0.3,0.4-0.3h1.6
			c0.2,0,0.4-0.2,0.4-0.4v-0.2h1.1c0.2,0,0.3-0.1,0.3-0.3v-1.1c0-0.1,0.1-0.2,0.2-0.2c0.5-0.1,0.9-0.3,1.3-0.5c0.1-0.1,0.2,0,0.3,0
			l0.8,0.8c0.1,0.1,0.1,0.1,0.2,0.1c0.1,0,0.2,0,0.2-0.1l1-1c0.1-0.1,0.1-0.1,0.1-0.2s0-0.2-0.1-0.2l-0.8-0.8
			c-0.1-0.1-0.1-0.2,0-0.3c0.2-0.4,0.4-0.9,0.5-1.3c0-0.1,0.1-0.2,0.2-0.2h1.1c0.2,0,0.3-0.1,0.3-0.3v-1.5
			C148,313.7,147.9,313.6,147.7,313.6z M136.2,320.4c0,2.5-2,4.6-4.6,4.6s-4.6-2-4.6-4.6c0-2.5,2-4.6,4.6-4.6
			S136.2,317.9,136.2,320.4z M124.5,301.7h3.3c0.3,0,0.6,0.3,0.6,0.6c0,0.3-0.3,0.6-0.6,0.6h-3.3c-0.3,0-0.6-0.3-0.6-0.6
			C123.9,301.9,124.2,301.7,124.5,301.7z M126.2,337.7c-0.8,0-1.4-0.6-1.4-1.4s0.6-1.4,1.4-1.4s1.4,0.6,1.4,1.4
			S127,337.7,126.2,337.7z M134.2,332.9h-14.3h-1.6c-0.3,0-0.6-0.3-0.6-0.6v-24l0,0v-2.5c0-0.3,0.3-0.6,0.6-0.6h1.6h1.3h12.9
			c0.3,0,0.6,0.3,0.6,0.6v2.5l0,0v5.6c-0.4-0.2-0.9-0.4-1.4-0.5c-0.2,0-0.3-0.2-0.3-0.4v-1.6c0-0.2-0.2-0.4-0.4-0.4h-2.1
			c-0.2,0-0.4,0.2-0.4,0.4v1.6c0,0.2-0.1,0.4-0.3,0.4c-0.7,0.2-1.3,0.4-1.9,0.8c-0.2,0.1-0.4,0.1-0.5-0.1l-1.1-1.1
			c-0.2-0.2-0.4-0.2-0.6,0l-1.5,1.5c-0.2,0.2-0.2,0.4,0,0.6l1.1,1.1c0.1,0.1,0.2,0.3,0.1,0.5c-0.3,0.6-0.6,1.2-0.8,1.9
			c0,0.2-0.2,0.3-0.4,0.3h-1.6c-0.2,0-0.4,0.2-0.4,0.4v2.1c0,0.2,0.2,0.4,0.4,0.4h1.6c0.2,0,0.4,0.1,0.4,0.3
			c0.2,0.7,0.4,1.3,0.8,1.9c0.1,0.2,0.1,0.4-0.1,0.5l-1.1,1.1c-0.2,0.2-0.2,0.4,0,0.6l1.5,1.5c0.2,0.2,0.4,0.2,0.6,0l1.1-1.1
			c0.1-0.1,0.3-0.2,0.5-0.1c0.6,0.3,1.2,0.6,1.9,0.8c0.2,0,0.3,0.2,0.3,0.4v1.6c0,0.2,0.2,0.4,0.4,0.4h2.1c0.2,0,0.4-0.2,0.4-0.4
			v-1.6c0-0.2,0.1-0.4,0.3-0.4c0.5-0.1,0.9-0.3,1.4-0.5v5.4C134.8,332.6,134.5,332.9,134.2,332.9z M141.5,317.8
			c-1.7,0-3.1-1.4-3.1-3.1s1.4-3.1,3.1-3.1c1.7,0,3.1,1.4,3.1,3.1S143.2,317.8,141.5,317.8z"/>
	</g>
	<g>
		<path class="st38" d="M34.6,399.4l-23.1-40H23l23.1,40H34.6z"/>
		<path class="st39" d="M34.6,399.4l5.8-10l5.8,10H34.6L34.6,399.4z"/>
		<path class="st40" d="M28.9,389.4l5.8,10l5.8-10H28.9L28.9,389.4z"/>
		<path class="st41" d="M23.1,379.4l5.8,10l5.8-10H23.1L23.1,379.4z"/>
		<path class="st42" d="M23.1,379.4l5.8-10l5.8,10H23.1L23.1,379.4z"/>
		<path class="st43" d="M17.3,369.4l5.8,10l5.8-10H17.3L17.3,369.4z"/>
		<path class="st44" d="M17.3,369.4l5.8-10l5.8,10H17.3L17.3,369.4z"/>
		<path class="st45" d="M11.6,359.4l5.8,10l5.8-10H11.6L11.6,359.4z"/>
		<g>
			<path class="st46" d="M11.6,399.4L0,379.4l5.8-10l17.3,30H11.6L11.6,399.4z"/>
			<path class="st39" d="M11.6,399.4l5.8-10l5.8,10H11.6L11.6,399.4z"/>
			<path class="st40" d="M5.8,389.4l5.8,10l5.8-10H5.8z"/>
			<path class="st47" d="M5.8,389.4l5.8-10l5.8,10H5.8z"/>
			<path class="st41" d="M0,379.4l5.8,10l5.8-10H0L0,379.4z"/>
			<path class="st42" d="M0,379.4l5.8-10l5.8,10H0L0,379.4z"/>
		</g>
		<g>
			<path class="st48" d="M11.6,379.4l-5.8-10l5.8-10l5.8,10L11.6,379.4z"/>
			<path class="st42" d="M17.3,369.4l-5.8-10l-5.8,10H17.3L17.3,369.4z"/>
		</g>
		<g>
			<path class="st49" d="M46.2,399.4l-5.8-10l5.8-10l5.8,10L46.2,399.4L46.2,399.4z"/>
			<path class="st42" d="M52,389.4l-5.8,10l-5.8-10H52L52,389.4z"/>
		</g>
		<g>
			<path class="st50" d="M52,389.4l-17.3-30h11.5l11.5,20L52,389.4L52,389.4z"/>
			<path class="st39" d="M46.2,379.4l5.8,10l5.8-10H46.2z"/>
			<path class="st40" d="M46.2,379.4l5.8-10l5.8,10H46.2z"/>
			<path class="st41" d="M40.4,369.4l5.8-10l5.8,10H40.4L40.4,369.4z"/>
			<path class="st42" d="M34.6,359.4l5.8,10l5.8-10H34.6z"/>
		</g>
	</g>
	<polyline class="st51" points="96,369.4 90.3,379.4 100,396.3 101.8,399.4 101.8,399.4 101.8,399.4 101.8,399.4 113.4,399.4 
		107.6,389.4 107.6,389.4 107.6,389.4 107.6,389.4 104.7,384.4 101.8,379.4 107.6,369.4 124.9,399.4 136.5,399.4 142.2,389.4 
		142.2,389.4 142.2,389.4 142.2,389.4 142.2,389.4 148,379.4 136.5,359.4 136.5,359.4 136.5,359.4 124.9,359.4 130.7,369.4 
		130.7,369.4 136.5,379.4 130.7,389.4 113.4,359.4 101.8,359.4 101.8,359.4 101.8,359.4 101.8,359.4 96,369.4 	"/>
	<g>
		
			<linearGradient id="SVGID_1_" gradientUnits="userSpaceOnUse" x1="-145.6149" y1="-316.0472" x2="-135.565" y2="-326.0972" gradientTransform="matrix(3.7037 0 0 3.7037 532.6111 1626.2971)">
			<stop  offset="0.108" style="stop-color:#C757BC"/>
			<stop  offset="0.173" style="stop-color:#CD5CA9"/>
			<stop  offset="0.492" style="stop-color:#E8744F"/>
			<stop  offset="0.716" style="stop-color:#F88316"/>
			<stop  offset="0.823" style="stop-color:#FF8900"/>
		</linearGradient>
		<path class="st52" d="M20.1,419L0,440.1V459l20.1-20.1L40,419H20.1L20.1,419z"/>
		
			<linearGradient id="SVGID_2_" gradientUnits="userSpaceOnUse" x1="-140.3486" y1="-313.2271" x2="-135.4501" y2="-318.1256" gradientTransform="matrix(3.7037 0 0 3.7037 532.6111 1626.2971)">
			<stop  offset="0.296" style="stop-color:#00AFFF"/>
			<stop  offset="0.694" style="stop-color:#5282FF"/>
			<stop  offset="1" style="stop-color:#945DFF"/>
		</linearGradient>
		<path class="st53" d="M0,459l20.1-20.1L40,459H0L0,459z"/>
		
			<linearGradient id="SVGID_3_" gradientUnits="userSpaceOnUse" x1="-143.9288" y1="-322.9984" x2="-140.4924" y2="-326.4348" gradientTransform="matrix(3.7037 0 0 3.7037 532.6111 1626.2971)">
			<stop  offset="0.296" style="stop-color:#00AFFF"/>
			<stop  offset="0.694" style="stop-color:#5282FF"/>
			<stop  offset="1" style="stop-color:#945DFF"/>
		</linearGradient>
		<path class="st54" d="M0,419h20.1L0,440.1V419z"/>
	</g>
	<g>
		<path class="st8" d="M128.1,419L108,440.1V459l20.1-20.1L148,419H128.1L128.1,419z"/>
		<path class="st8" d="M108,459l20.1-20.1L148,459H108L108,459z"/>
		<path class="st8" d="M108,419h20.1L108,440.1V419z"/>
	</g>
</g>
</svg>
