<?xml version="1.0" encoding="utf-8"?>
<!-- Generator: Adobe Illustrator 24.0.1, SVG Export Plug-In . SVG Version: 6.00 Build 0)  -->
<svg version="1.1" id="_x3C_Layer_x3E_" xmlns="http://www.w3.org/2000/svg" xmlns:xlink="http://www.w3.org/1999/xlink" x="0px"
	 y="0px" viewBox="0 0 3006 1670" style="enable-background:new 0 0 3006 1670;" xml:space="preserve">
<style type="text/css">
	.st0{fill:#FFFFFF;}
	.st1{fill:#E1E2F7;}
	.st2{fill:url(#SVGID_1_);}
	.st3{fill:#99BEFF;}
	.st4{fill:#443067;}
	.st5{fill:#4F64EB;}
	.st6{fill:#5B408A;}
	.st7{fill:#5241BB;}
	.st8{fill:#7365C8;}
	.st9{fill:#ECE7EF;}
	.st10{fill:#EF0073;}
	.st11{fill:#1F170F;}
	.st12{fill:#9B190E;}
	.st13{fill:#F7931E;}
	.st14{fill:#FC7575;}
	.st15{fill:#FD5E5A;}
	.st16{fill:#780035;}
	.st17{fill:#00B1B9;}
	.st18{fill:#20C3F4;}
	.st19{fill:#3C1839;}
	.st20{fill:#40000C;}
	.st21{fill:#FC8888;}
	.st22{fill:#4F005E;}
	.st23{fill:#42004A;}
	.st24{fill:#005569;}
	.st25{fill:#890D00;}
	.st26{fill:#50314D;}
	.st27{fill:#B27091;}
	.st28{fill:#FFB9DC;}

                       
												 .move-xy {
                            animation-name: contactBlocka-4;
                            animation-duration: 2s;
                            animation-iteration-count: infinite;
                            -webkit-transform-origin: 50% 50%;
                            transform-origin: 50% 50%;
                        }
                        -webkit-@keyframes contactBlocka-4 {
                            0% {transform: translate(0, 0);}
                            50% {transform: translate(-20px, 0);}
                        }
                        @keyframes contactBlocka-4 {
                            0% {transform: translate(0, 0);}
                            50% {transform: translate(-20px, 0);}
                        }
												 .move-xy-1 {
                            animation-name: contactBlocka-5;
                            animation-duration: 4s;
                            animation-iteration-count: infinite;
                            -webkit-transform-origin: 50% 50%;
                            transform-origin: 50% 50%;
                        }
                        -webkit-@keyframes contactBlocka-5 {
                            0% {transform:rotate(0deg);}
                            50% {transform:rotate(3deg);}
                        }
                        @keyframes contactBlocka-5 {
                             0% {transform:rotate(0deg);}
                            50% {transform:rotate(3deg);}
                        }


													 .move-xy-2 {
                            animation-name: contactBlocka-7;
                            animation-duration: 4s;
                            animation-iteration-count: infinite;
                            -webkit-transform-origin: 50% 50%;
                            transform-origin: 50% 50%;
                        }
                        -webkit-@keyframes contactBlocka-7 {
                             0% {transform: translate(0, 0);}
                            50% {transform: translate(-2px, 0);}
                        }
                        @keyframes contactBlocka-7 {
                              0% {transform: translate(0, 0);}
                            50% {transform: translate(-2px, 0);}
                        }

											




</style>
<g>
	<path class="st0" d="M175.13,83.51v42.1H167v-42.1H175.13z"/>
	<path class="st0" d="M208.02,100.14c3.1,3.06,4.65,6.64,4.65,10.73c0,4.09-1.55,7.67-4.65,10.73c-3.1,3.07-6.76,4.6-10.96,4.6
		c-4.21,0-7.87-1.53-10.98-4.6c-3.11-3.06-4.67-6.64-4.67-10.73c0-4.09,1.56-7.67,4.67-10.73c3.11-3.06,6.77-4.59,10.98-4.59
		C201.27,95.55,204.92,97.08,208.02,100.14z M191.98,105.32c-1.43,1.51-2.14,3.36-2.14,5.56c0,2.2,0.71,4.05,2.14,5.54
		c1.43,1.5,3.12,2.25,5.08,2.25c1.96,0,3.65-0.75,5.08-2.25s2.14-3.35,2.14-5.54c0-2.21-0.71-4.06-2.14-5.56
		c-1.43-1.51-3.12-2.26-5.08-2.26C195.1,103.06,193.41,103.82,191.98,105.32z"/>
	<path class="st0" d="M238.83,123.2v-2.41c-0.08,0.12-0.2,0.27-0.37,0.45c-0.17,0.19-0.52,0.52-1.06,1
		c-0.54,0.48-1.12,0.91-1.73,1.29c-0.62,0.38-1.43,0.72-2.44,1.03c-1.01,0.3-2.05,0.46-3.13,0.46c-3.37,0-6.41-1.46-9.14-4.39
		c-2.73-2.93-4.1-6.38-4.1-10.35c0-3.97,1.37-7.42,4.1-10.35c2.73-2.93,5.78-4.39,9.14-4.39c1.68,0,3.26,0.35,4.73,1.06
		c1.47,0.7,2.5,1.39,3.08,2.06l0.91,1.09v-3.61h8.1v27.07c0,4.25-1.48,7.81-4.45,10.7c-2.96,2.88-6.69,4.33-11.17,4.33
		c-1.68,0-3.3-0.22-4.84-0.66c-1.55-0.44-2.83-0.96-3.85-1.55c-1.02-0.6-1.91-1.21-2.67-1.84c-0.76-0.63-1.3-1.15-1.61-1.59
		l-0.56-0.68l5.11-4.81c0.2,0.27,0.49,0.64,0.9,1.09c0.4,0.45,1.31,1.03,2.72,1.74c1.41,0.72,2.92,1.07,4.52,1.07
		c2.41,0,4.31-0.7,5.71-2.1S238.83,125.61,238.83,123.2z M227.22,105.1c-1.28,1.36-1.92,3.08-1.92,5.17c0,2.09,0.64,3.81,1.92,5.18
		c1.28,1.37,2.85,2.06,4.7,2.06c1.85,0,3.46-0.7,4.84-2.11c1.38-1.41,2.07-3.11,2.07-5.12c0-2-0.69-3.71-2.07-5.11
		c-1.38-1.4-2.99-2.1-4.84-2.1C230.07,103.06,228.5,103.74,227.22,105.1z"/>
	<path class="st0" d="M279.53,100.14c3.1,3.06,4.65,6.64,4.65,10.73c0,4.09-1.55,7.67-4.65,10.73c-3.1,3.07-6.76,4.6-10.96,4.6
		c-4.21,0-7.87-1.53-10.98-4.6c-3.11-3.06-4.67-6.64-4.67-10.73c0-4.09,1.56-7.67,4.67-10.73c3.11-3.06,6.77-4.59,10.98-4.59
		C272.78,95.55,276.43,97.08,279.53,100.14z M263.49,105.32c-1.43,1.51-2.14,3.36-2.14,5.56c0,2.2,0.71,4.05,2.14,5.54
		c1.43,1.5,3.12,2.25,5.08,2.25c1.96,0,3.65-0.75,5.08-2.25c1.43-1.5,2.14-3.35,2.14-5.54c0-2.21-0.71-4.06-2.14-5.56
		c-1.43-1.51-3.12-2.26-5.08-2.26C266.61,103.06,264.92,103.82,263.49,105.32z"/>
</g>
<path class="st1" d="M1430.82,289.24c488.35,0,884.24,270.64,884.24,604.47c0,83.56-24.8,163.16-69.64,235.55
	c125.69,39.27,213.04,125.97,213.04,226.61c0,137.52-163.08,249.01-364.25,249.01c-149.67,0-278.25-61.7-334.28-149.93
	c-101.72,27.91-212.79,43.26-329.1,43.26c-488.35,0-884.24-270.63-884.24-604.48C546.58,559.88,942.47,289.24,1430.82,289.24z"/>
<g>
	<g>
		
			<linearGradient id="SVGID_1_" gradientUnits="userSpaceOnUse" x1="-964.0416" y1="1687.4761" x2="-914.742" y2="11.3057" gradientTransform="matrix(-1 0 0 1 826.4619 0)">
			<stop  offset="0" style="stop-color:#82ACF5"/>
			<stop  offset="1" style="stop-color:#F8BDEC"/>
		</linearGradient>
		<path class="st2" d="M1131.03,718.87c0,0,7.94-4.07,21.24-9.32c60.91-18.62,189.84-12.77,237.5,7.54
			c28.44,12.12,94.68,44.13,151.39,71.89c-20.83,2.41-70.92,15.89-86.84-0.39c0,0-34.32,82.39-20.42,117.91
			c13.9,35.51,167.94,50.9,137.82,59.18c-30.11,8.29-148.25-17.29-148.25-17.29s-10.42,84.77,22,101.34
			c32.43,16.57,202.69-8.29,186.47,8.29c-16.21,16.57-171.99,33.74-189.94,15.39c0,0-3.48,101.81,53.28,112.46
			c56.75,10.65,212.06-75.77,198.69-52.09c-13.38,23.67-156.99,92.33-201,66.29c0,0,39.37,97.08,75.28,97.08
			c35.9,0,124.46-124.91,142.42-106.54c17.97,18.36-77.56,107.73-130.84,118.38c0,0,20.85,55.64,89.18,39.06
			c68.33-16.57,56.75-125.48,77.6-116.01c20.85,9.47,1.16,129.03-68.33,129.03c0,0,113.51,27.23,140.14-35.52
			c7.5-17.64,11.15-32.09,12.65-43.9c10.38,49.58,16.28,109.35,19.21,169.28h12.7c-4.22-73.18-13.37-147.46-30.61-206.79
			c8.58,4.65,23.41,11.01,41.62,12.6c0.79,70.52,1.56,136.86,2.25,194.19h13.67c-1.08-50.85-2.41-114.29-3.95-193.83
			c3.57-0.14,7.27-0.57,11.03-1.17c4.11,68.13,6.75,134.01,8.53,195h18.68c-2.7-63.02-6.34-130.57-11.14-199.05
			c13.52-4.74,22.88-10.47,32.88-23.12c-0.51,79.13-0.5,155.12-0.25,222.17h20.57c-0.48-78.43-0.71-169.05-0.18-262.45
			c10.48-33.46,11.94-70.9,9.93-89.53c31.94-8.74,71.41-32.44,86.63-42.06c-24.33,91.95-54.91,228.59-75.26,394.04h14
			c19.66-159.05,48.76-291.26,72.5-382.14c3.75,10.6,9.89,24.18,19.03,33.53c17.04,17.42,49.81-41.94,49.81-71.53
			c0-29.59-35.26-1.18-35.26-17.75c0-16.57,5.14-8.29,50.31-8.29s61.39-94.7,61.39-94.7s-68.33,8.29-68.33-4.74
			c0-13.02,54.43-5.92,89.18-15.39c34.74-9.47,54.43-86.42,54.43-86.42s-99.6,29.6-99.6,16.58c0-13.02,77.02-25.45,91.5-40.25
			c14.47-14.8,19.69-81.68,19.69-81.68s-66.02,62.74-76.44,62.74c-10.42,0,70.07-69.25,62.54-76.95
			c-7.53-7.69-10.43-40.39-10.43-40.39c-14.4,14.72-38.22-4.59-53.27,10.8c-15.06,15.39-42.27,133.18-53.28,144.42
			c-11,11.24,30.69-94.11,11.59-113.65c-19.11-19.52-70.87,29.96-81.07,40.39c-10.21,10.43,24.33,124.75,10.42,138.96
			c-13.9,14.2-11.06-100.56-22.12-111.87c-11.06-11.31-40.42,17.76-49.11,51.5c-8.69,33.74,66.88,91.44,45.17,113.64
			c-21.72,22.19-41.7-62.15-60.81-81.68c-14.12-14.44-43.39,13.81-57.72,38.86c3.35-102.16,8.5-193.16,16.24-258.1
			c15.46,42.65,95.39,93.75,151.57,35.24c11.97,9.66,26.76,13.97,45.17,7.19c66.77-24.58,72.91-41.54,58.86-48.27
			c-14.06-6.73-144.53-81.78-128.58-89.85c15.94-8.07,132.95,85.66,155.27,74.36c22.32-11.31,56.65-57.71,52.64-59.63
			c-4.02-1.93-165.99-61.68-147.92-70.83c18.08-9.15,143.31,79.1,166.89,40.12c23.58-38.98,24.6-62.58,22.4-72.02
			c-2.21-9.44-142.35-19.99-137.63-30.3c4.73-10.3,136.68,11,146.92-11.33c10.24-22.33,12.8-54.62,1.42-60.07
			c-11.38-5.45-79.65,15.28-74.53,4.11c5.12-11.16,72.05-14.72,69.57-25.34c-2.48-10.61-9.73-69.59-5.01-79.9
			c0,0-47.32-32.08-58.78-48.05c-11.46-15.96-23.82-10.36-27.76-1.77c-3.93,8.59-35.09,139.77-38.53,125.03
			c-3.45-14.74,35.81-131.57,27.79-135.41c-8.04-3.85-49.49-36.27-62.28-17.26c-12.8,19.01-17.36,192.78-31.88,194.2
			c-14.53,1.42,20.62-201.68,20.62-201.68s-48.66,2.88-66.1,24.9c-17.44,22.03,0.9,225.98-14.11,224.89
			c-15.01-1.09-7.82-214.44-7.82-214.44s-60.47,28.64-64.25,58.26c-3.77,29.61,38.18,163.33,24.9,170.06
			c-13.29,6.73-27.13-131.34-27.13-131.34s-52.64,24.01-55.67,64.46c-3.02,40.45,48.04,91.08,42.13,103.96
			c-5.9,12.88-51.45-41.53-59.14-74.4c-7.69-32.88-65.5,136.21-16.65,159.6c14.76,7.06,25.87,9.59,34.25,9.74
			c-24.19,63.73-31.41,316.4-33.42,385.09c-9.24-8.96-15.53-15.5-15.53-15.5c-12.86,5.05-20.5,21.66-24.06,43.08
			c-6.34-8.03-10.82-12.89-10.82-12.89s-5.18,17.81-13.03,41.83c-8.17-64.39-7.24-47.2-7.47-60.96c1.27-8.11,1.31-14.84-0.32-19.68
			c-6.6-410.31-4.77-384.28-6.76-386.52c0.93-28.26,10.08-277.17,43.93-344.14c35.9-71.02,59.06-153.9,59.06-153.9
			s-30.69,49.13-57.91,76.95c-27.21,27.82-50.96,33.14-50.96,58.01c0,24.86,35.91,105.36,12.75,93.52
			c-23.17-11.84-17.38-60.38-25.48-60.38c-8.11,0-41.7,111.28-41.7,117.2c0,5.92,57.91,52.08,42.85,67.48
			c-15.06,15.39-39.37-59.19-48.64-49.72c-9.27,9.47-11.59,91.15-11.59,112.47c0,21.3,44.59,10.06,24.32,30.78
			c-20.17,20.61-24.27,103.28-24.32,141.44c-48.16-112.71-91.43-141.71-162.14-184.33c15.4-0.02,34.98-4.12,51.24-20.74
			c32.03-32.74,46.76-153.63-27.12-186.95c3.27-17.85,0.97-36.1-11.97-52.76c-46.91-60.37-63.41-58.6-63.41-39.95
			c0,18.64-10.42,197.99-23.45,184.67c-13.03-13.32,18.24-187.34,0-205.98c-18.24-18.64-70.36-32.85-70.36-27.52
			c0,5.32,14.77,211.31,0,196.21c-14.76-15.09,8.69-195.32-33-201.54c-41.7-6.21-61.68,4.44-68.63,11.54
			c-6.95,7.1,39.96,164.82,29.53,164.82c-10.42,0-45.17-154.16-67.75-154.16c-22.59,0-50.38,13.32-50.38,28.41
			c0,15.09,44.3,79.02,33,79.02c-11.29,0-40.82-71.03-48.65-63.04c-7.82,7.99-53.85,45.28-64.28,45.28c0,0-7.82,67.48-16.51,87.89
			c-8.68,20.42,0.87,31.07,9.56,31.07c8.68,0,129.85-31.52,119-20.42c-10.86,11.1-123.35,26.64-123.35,37.29
			c0,10.65-10.43,71.92,10.42,76.35c20.85,4.44,166.78-77.25,173.73-62.15c6.94,15.09-175.47,78.13-175.47,78.13
			s21.72,51.5,46.9,59.49c25.19,7.99,187.07-113.64,192.13-96.77c5.06,16.87-174.75,115.42-174.75,115.42s47.77,51.5,73.83,40.84
			c26.06-10.65,120.31-122.97,131.17-111.87c10.86,11.1-98.16,94.99-98.16,94.99s40.83,45.28,75.57,28.41
			c34.74-16.86,56.46-97.66,69.49-97.66c13.03,0-14,76.68-38.22,101.42c-24.22,24.75,138.98,3.34,138.98-61.48
			c0-27.42-4.51-42.68-9.72-51.26c28.93,17.73,60.24,34.25,87.44,63.16c70.44,72.26,115.67,214.82,144.83,379.78
			c-10.06-7.08-17.84-6.34-17.84,2.52c0,15.39-36.48,175.79-54.43,157.44c-17.95-18.35,50.96-164.55,26.64-189.4
			c-14.44-14.76-48-34.02-74.4-43.59c-0.03-0.03-0.03-0.05-0.05-0.08c-11.4-11.64-46.01-23.8-35.36-57.54
			c10.65-33.74-45.39-63.93-45.39-63.93s-34.74,51.5-66.02,51.5c-31.27,0,39.96-33.74,39.96-53.27
			c0-19.53-107.71-55.05-107.71-55.05s30.22,64.78,30.05,91.31c-12.83-9.19-26.57-17.96-38.32-24.44
			c-10.17-29.11-15.3-57.51-31.68-65.09c-19.03-8.8-35.91-23.08-47.62-10.73c17.69,38.99-2.76,86.98-20.14,80.51
			c-8.41-21.69-36.43-110.62-41.69-110.62c-6.36,0-18.55,8.59-38.54,13.28c11.13,23.85,25.05,61,3.74,61
			c-21.22,0-43.53-36.85-55.76-60.72c-46.43-7.84-42.05,0.39-82.25,41.48C1156.72,677.55,1131.03,718.87,1131.03,718.87z
			 M1607.04,309.57c-4.32-4.41,25.55-34.08,41.69-70.02c-0.02,3.52,0.15,7.24,0.88,11.42
			C1653.95,275.82,1614.43,317.11,1607.04,309.57z M2089.34,567.61c5.29-2.68,14.12,37.56,33.9,66.49c-2.64-1.3-5.53-2.47-9.01-3.26
			C2093.51,626.17,2080.3,572.19,2089.34,567.61z M1969.53,943.53c0.25-10.51,0.52-20.96,0.82-31.3
			c19.81,23.03,73.41,52.79,60.6,65.89C2022.18,987.07,1993.27,964.83,1969.53,943.53z M1903.36,1130.55
			c8-9.99,19.92-22.61,30.81-37.85c6.14,7.7,9.76,7.85,13.06,8.6c-0.06,4.52-0.13,9.04-0.18,13.56
			c-13.43,18.21-29.18,39.15-41.47,40.77C1904.84,1147.25,1904.11,1138.89,1903.36,1130.55z M1870.05,865.73
			c-13.17-74.97-30.37-145.81-60.7-225.46c9.64,6.09,22.74,3.65,34.53-8.42c20.38-20.83,12-96.38,25.36-111.19
			C1867.91,551.92,1868.59,693.2,1870.05,865.73z M1868.97,961.51c2.63,19.02,2,7.57,2.59,67.12
			c-16.05,43.44-35.18,85.63-47.36,80.29C1807.57,1101.63,1847.79,1021.84,1868.97,961.51z M1677.93,824.88
			c6.87-2.03,13.95-4.2,20.7-6.45c3.24,46.71,19.02,146.07-11.1,146.07C1660.28,964.5,1678.1,875.11,1677.93,824.88z
			 M1553.42,794.99c8.4,4.13,16.46,8.09,24.1,11.85c12.47,27.77,35.75,84,17.37,79.53C1574.42,881.39,1565.42,815.72,1553.42,794.99
			z"/>
	</g>
	<path class="st3" d="M1760.1,1659.83h312.48c162.97-49,169.39-155.87,13.38-208.89h-339.23
		C1590.67,1503.97,1597.17,1610.84,1760.1,1659.83z"/>
</g>
<g>
	<path class="st4" d="M1921.91,930.09c0,0,67.79-63.59,118.08-63.59c50.29,0,115.47,94.89,134.84,156.8
		c19.38,61.91,27.7,403.19,27.7,403.19h-13.85c0,0-37.17-360.05-75.44-418.47c-38.26-58.42-90.74-30.25-108.24-30.25l-20.17-30.34
		v32.51c0,0-34.5,96.47-124.16,96.47L1921.91,930.09z"/>
	<path class="st5 move-xy-1" d="M2641.33,521.84c0,0-139.95,53.47-154.53,114.17c-14.58,60.7,0,60.7,0,82.38c0,21.68-40.82,24.57-40.82,24.57
		l40.82,10.11c0,0-18.95,23.12-46.65,50.59c-27.69,27.46-112.12,47.68-140.61,96.82c-28.49,49.13-10.52,107.63-31.97,157.77
		c-21.45,50.13-69.05,202.8-69.05,202.8h-9.12c0,0,27.71-392.37,56.87-437.17c29.15-44.8,55.4-56.36,88.93-114.17
		c33.53-57.81,34.99-108.38,103.5-154.63C2507.22,508.84,2641.33,521.84,2641.33,521.84z"/>
	<path class="st6 move-xy" d="M2223.79,990.06c0,0-3.2-234.11,28.24-319.37c31.43-85.27,30.19-167.64,30.19-167.64h-29.25l38.72-33.24
		c0,0-31.32-76.59-39.66-141.62c-8.34-65.03,80.26-112.72,80.26-112.72s-109.09-11.56-144.06,127.17
		c-34.95,138.74,18.16,189.13-21.84,221.11c-40.01,31.97,0,426.31,0,426.31l15.96,174.95h16.13L2223.79,990.06z"/>
	<path class="st7" d="M2198.53,1412.41c0,0-32.8-134.4-32.8-171.25c0-36.85-9.83-134.4-52.48-156.08l-151.97-8.67
		c0,0,78.45,39.29,118.62,79.12c40.18,39.83,60.68,34.69,70.53,99.72c9.84,65.03,38.26,171.25,38.26,171.25L2198.53,1412.41z"/>
	<path class="st5" d="M1753.54,1347.38c0,0,55.77-18.42,73.25-57.45c17.49-39.02,51.39-76.95,108.24-98.63
		c56.85-21.68,144.32-113.81,178.21-106.22c0,0-20.78-8.67-60.13-8.67c-39.35,0-56.85-15.17-91.84-15.17
		c-34.99,0-83.09,70.45-98.4,70.45c-15.31,0-50.3,40.1-66.69,78.03C1779.78,1247.66,1788.53,1324.62,1753.54,1347.38z"/>
	<path class="st6 move-xy-1" d="M2188.69,1426.5c0,0,91.92-373.34,98.68-423.33c6.75-49.99,37.98-180.53,99.8-202.26l207.74,15.62
		c0,0-113.61,39.16-175.42,85.95c-61.81,46.79-88.66,36.11-113.94,122.56c-25.27,86.44-87.69,397.84-87.69,397.84L2188.69,1426.5z"
		/>
	<path class="move-xy-1 st8" d="M2827.02,1221.51c0,0-72.26-35.03-88.84-91.12c-16.58-56.08-55.6-113.64-128.74-153.29
		c-73.15-39.64-174.92-180.37-222.28-176.19c0,0,29.77-8.02,83.16-0.93c53.39,7.09,79.9-10.34,127.36-4.04
		c47.46,6.3,99.81,110.54,120.57,113.29s60.87,63.46,76.16,117.87C2809.7,1081.52,2783.73,1184.34,2827.02,1221.51z"/>
	<path class="st7 move-xy" d="M2208.37,1211.18c0,0,17.49-224,0-320.83c-17.49-96.82-36.84-157.52-36.84-208.1
		c0-50.58-66.66-138.73-107.48-138.73c-40.82,0-224.49-15.9-236.16-27.46c-11.66-11.56-74.35,15.9-74.35,15.9
		s82.36,18.07,132.66,67.92c35.42,35.12,174.93,43.36,204.09,143.07c29.16,99.71,108.24,452.33,108.24,452.33L2208.37,1211.18z"/>
	<path class="st5" d="M1683.57,566.64c49.56-49.14,125.36-60.6,163.26-53.42c37.91,7.17,20.05,11.51,86.56,11.51
		c66.51,0,146.5,22.48,146.5,22.48s-135.39-3.69-237.43,30.99c-102.04,34.68-140.76-7.47-161.81,78.03
		c-15.21,61.75-1.46,156.08-1.46,156.08S1633.99,615.78,1683.57,566.64z"/>
	<path class="st6" d="M2174.83,1093.39c0,0-9.47,50.58,3.65,96.83c13.12,46.24,24.04,236.27,24.04,236.27l15.31-3.61
		c0,0-8.02-148.49,3.64-171.43c11.67-22.94,62.32-51.49,91.84-80.75c29.52-29.26,50.29-94.29,50.29-94.29
		s-105.69,38.66-133.39,31.43C2202.53,1100.62,2174.83,1093.39,2174.83,1093.39z"/>
	<path class="st9 move-xy-1" d="M2778.38,1170.34c-25-50.8-7-208.19-142.75-268.23c-79.32-35.88-36.66-22.75-87.24-61.73
		c-17.63-13.46-36.53-24.89-54.92-38.7c6.3,0.09,12.23-0.14,17.93-0.57c24.73,17.93,55.5,37.77,70.16,56.61
		c14.09,20.5,32.66,25.28,57.5,37.1c137.69,64.25,117.43,225.16,140.66,274.9c9.83,21.45,26.48,40.04,47.31,51.78
		C2805.95,1210.19,2788.78,1191.86,2778.38,1170.34z"/>
	<path class="st9" d="M1870.72,1162.36c13.81-12.93,29.56-23.63,46.39-32.31c31.84-16.16,41.92-6.83,99.79-58.21
		c3.95,0.97,8.05,1.86,12.39,2.6c-65.71,56.69-75.38,45.87-109.02,61.89c-32.36,15.68-63.85,40.54-78.03,73.69
		c-22.42,48.85-42.87,117.54-88.7,137.36C1785.43,1332.6,1819.86,1210.44,1870.72,1162.36z"/>
	<g>
		<path class="st9" d="M1679.09,811.56c-5.94-41.98-11.08-84.12-12.73-126.6c-0.19-10.69-0.4-21.41,0.76-32.19
			c1.89-15.4,10.16-43.6,22-60.71c37.4-55.65,105.12-44.03,184.58-71.94c4.88,1.48,9.54,2.63,18.15,3.42
			c-97.35,37.9-203.91,7.6-221.21,129.66c-4.05,31.35,1.2,92.27,5.75,134.38C1677.56,800.22,1678.73,809.02,1679.09,811.56z"/>
		<path class="st9" d="M1679.19,812.31L1679.19,812.31L1679.19,812.31L1679.19,812.31C1679.2,812.31,1679.2,812.31,1679.19,812.31z"
			/>
	</g>
	<polygon class="st10" points="2111.11,1639.58 2291.69,1638.7 2309.62,1413.22 2095.46,1413.22 	"/>
	<path class="move-xy st8" d="M2356.33,1513.2c0,0-10.21-52.74-28.43-92.48c-18.22-39.74-29.89-48.41-29.89-87.43
		c0-39.02,4.68-61.11-21.13-86.71c-25.82-25.6-10.21-71.54-24.79-85.98c-14.58-14.46-77.27-67.2-77.27-67.2
		s46.65-26.01,100.59-13.73c53.94,12.29,61.23-33.24,98.41-18.42c37.18,14.82,30.61,114.53,24.78,155.71
		c-5.83,41.19,21.86,87.43,25.51,122.84C2427.76,1375.2,2356.33,1513.2,2356.33,1513.2z"/>
	<path class="st9 move-xy" d="M2302.41,1081.1c65.77,96.84,54.85,178.57,56.44,201.86c3.43,81.99,24.45,128.6-2.52,230.24l0,0
		c24.34-102.15,2.18-147.73-3.38-229.89c-2.91-31.27,2.25-59.76-16.57-113.11c-11.14-31.5-27.21-61.7-46.92-88.51
		C2294.17,1081.95,2298.46,1081.71,2302.41,1081.1z"/>
</g>
<g>
	<polygon class="st11" points="1593.23,1638.64 1624.44,1638.64 1748.74,1202.9 1703.5,1200.97 	"/>
	<polygon class="st11" points="2099.73,1646.51 2068.52,1646.51 1944.23,1210.76 1989.47,1208.83 	"/>
	<polygon class="st11" points="1264.33,1629.06 1233.1,1629.06 1108.81,1163.86 1154.06,1161.8 	"/>
	<polygon class="st11" points="849.64,1629.06 880.86,1629.06 1005.15,1193.32 959.91,1191.38 	"/>
	<path class="st12" d="M872.78,800.9v390.33c0,30.82,29.65,55.81,66.22,55.81h1016.77c36.56,0,66.21-24.98,66.21-55.81V800.9
		c0-30.81-29.65-55.8-66.21-55.8H938.99C902.43,745.1,872.78,770.09,872.78,800.9z"/>
	<g>
		<path class="st13" d="M1540.25,1044.86c0,1.19-0.05,2.38-0.13,3.56l0.13-18.27V1044.86z"/>
		<path class="st13" d="M938.99,745.11L938.99,745.11c36.56,0,66.2,24.98,66.2,55.8v243.96c0,30.82,29.65,55.8,66.22,55.8h402.62
			c35.15,0,63.9-23.08,66.08-52.25l-1.44,198.62H938.99c-36.57,0-66.22-24.98-66.22-55.81V800.9
			C872.78,770.09,902.43,745.11,938.99,745.11z"/>
	</g>
	<path class="st14" d="M1459.97,593.95c-2.4,3.59-7.55-7.69-9.68-6.74C1423.4,599.2,1296,443.88,1281.52,427.11
		c-14.47-16.78-42.39-13.18-54.79-13.18c-12.41,0-29.98-19.77-38.26-19.77c-8.27,0,2.07,25.17,15.52,28.17
		c13.43,3,2.06,17.98-6.72,20.97c-8.79,3-41.62,11.09-54.28-3.6c-12.67-14.68-29.47-20.37-29.47-13.79
		c0,6.6,26.88,26.37,26.88,26.37s-39.29-18.58-39.29-10.79c0,7.79,34.12,19.18,34.12,19.18s-21.46-2.7-25.85,2.39
		c-4.39,5.09,55.31,20.38,66.17,20.38c10.85,0,67.72-23.37,86.33-31.76c18.6-8.39,124.58,228.91,207.29,251.09
		c0,0,15.81-24.34,33.49-58.1C1489.91,626.31,1475.15,609.34,1459.97,593.95z"/>
	<path class="st15" d="M1337,831.69c0,0-347.35-67.71-398.09-42.56l112.03,129.19l63.6,52.65l282.76-93.72L1337,831.69z"/>
	<path class="st14" d="M1432.48,841.15c-63.23,44.5-359.06,66.55-421.51,89.76c-62.45,23.21-62.3,88.43-62.3,132.91
		c0,44.49,140.9,480.54,119.43,523.11c-10.29,20.41-35.64,30.7-59.29,38.38c-25.68,8.34-49.36,13.66-49.36,26.55
		c0,6.09,161.27-6.09,161.27-6.09c4.17-8.54-0.34-8.13-0.34-53.83c0-52.09-12.68-476.85-26.58-500.79
		c-13.91-23.94-26.35-35.54-26.35-35.54s369.55,43.53,410.54,28.29c23.31-8.67,66.3-97.89,101.98-185.5L1432.48,841.15z"/>
	<path class="st15" d="M938.91,789.13c16.64-13.32,112.03,75.03,112.03,129.19s-141.29,313.81-154.16,357.72
		c-10.07,34.38-4.85,59.74,3.6,96.39c-5.87,3.99-11.93,7.8-17.34,12.27c-9.79,9.7-12.24,21.84-17.14,36.41
		c-9.84,34.15-37.28,49.77-69.04,54.91c12.85-50.9,37.89-155.89,46.45-232.28C855,1139.27,847.79,862.06,938.91,789.13z"/>
	<path class="st16" d="M897.75,1340.51c-2.04,0-14.55,2.42-25.56,29.5c-6.59,16.22-14.42,32.01-22.82,47.38
		c-8.46,15.5-17.85,32.3-33.92,41.2c-8.3,4.59-17.72,5.46-26.68,8.24c-4.66,1.45-15.66,4.54-12.98,11.4
		c0.43,1.11,1.36,2.12,2.2,2.95c10,9.91,77.05,0,77.05,0s18.83-61.39,36.14-65.83c17.32-4.45,24.3-14.99,24.3-14.99L897.75,1340.51z
		"/>
	<path class="st17" d="M1697.67,394.15c-11.13-31.19-106.59-58.47-127.47-35.23c0,0-145.38,153.58-129.77,221.28
		c15.25,66.16,53.47,209.67-3.75,257.72c-57.49-15.64-311.4-81.69-401.68-54.4c0,0,182.15,219.59,155.13,355.78
		c0,0,259-13.38,288.17-42.31c29.15-28.89,101.49-178.78,101.67-179.16l14.27-25.3c27.03-66.35,35.61-125.91,42.55-154.68
		C1652.88,671.12,1708.8,425.34,1697.67,394.15z"/>
	<path class="st18" d="M1493.14,466.55c23.24-37.13,49.7-72.66,77.05-107.62c-50.31,46.34-156.83,160.55-141.09,227.02
		c13.24,60.16,43.59,189.79,3.31,236.15c-94.92-24.95-303.71-70.08-397.42-38.56c91.1-15.73,316.47,46.04,405.18,70.07
		c1.52-4.32,50.74-21.47,39.52-141.54c-7.39-79.06-30.43-125.75-28.09-151.79C1453.06,551.9,1475.59,494.5,1493.14,466.55z"/>
	<path class="st19" d="M1525.09,54.16c0,0,50.66-67.19,129.73-20.56c79.06,46.63,20.48,81.76,38.03,99.15
		c17.55,17.39,52.37-12.03,52.37,50.05c0,62.08-33.36,17.56-28.35,39.84c5.01,22.28,32.03-23.27,38.03,30.76
		c6,54.03-6.42,72.25-66.91,72.25C1627.5,325.65,1525.09,54.16,1525.09,54.16z"/>
	<path class="st20" d="M1577.06,204.87c14.35,72.03,70.31,52.13,73.08,113.29c1.03,22.7-5.99,46.64-19.45,65.93
		c-24.06,34.46-64.92,15.72-64.92,15.72s32.06-15.07,26.65-22.88c0,0-29.53,30.79-50.6,18.99c-21.07-11.81-27.32-25.14-27.32-25.14
		s40.95,2.93,20.14-22.15c-14.51-17.47-38.05-35.63-53.39-63.24c-11.45-20.6,13.59-60.98,20.92-94.72
		c24.95-20.86,51.9-39.73,79.55-57.9C1579.59,156.76,1572.27,180.82,1577.06,204.87z"/>
	<path class="st14" d="M1525.09,281.02c0,0,25.85,25.11,29.91,58.72c2.2,18.18,3.19,41.37,0.3,55.53
		c-3.03,14.85,3.23,25.66,18.23,28.55c9.18,1.77,19.62,1.29,29.54-4.78c15.79-9.66,39.34-26.5,43.53-46.68
		c2.81-13.5-72.83-145.78-72.83-145.78L1525.09,281.02z"/>
	<path class="st15" d="M1525.09,281.02l48.68-54.44c0,0,8.89,15.55,20.47,36.54c-9.5,22.5-23.55,45.16-44.22,56.86
		C1541.24,296.77,1525.09,281.02,1525.09,281.02z"/>
	<path class="st21" d="M1514.97,69.74c0,0-20.64,9.45-30.4,33.03c-9.74,23.58,0.2,54.88-4.72,75.51
		c-4.91,20.62,10.28,127.93,63.93,116c53.65-11.92,67.58-87.6,71.58-104.36c4-16.76-5.57-80.26-30.95-100.49
		C1559.03,69.18,1514.97,69.74,1514.97,69.74z"/>
	<path class="st15" d="M1484.57,102.77c9.75-23.58,30.4-33.03,30.4-33.03s44.07-0.56,69.45,19.69
		c25.38,20.24,34.94,83.74,30.95,100.49c-3.06,12.8-11.91,60-39.85,86.88c-0.41-29.76,24.24-71.95,18.73-114.73
		c-2.72,1.35-14.19,1.66-19.91,0.93c-24.14-3.09,12.11-34.55-7.3-69.82c-12.8-11.17-13.15-12.41-21.87-15.2
		c-5.02,26.92-35.21,72.23-64.71,97.33C1483.88,154.73,1475.29,125.24,1484.57,102.77z"/>
	<g>
		<path class="st22" d="M1516.82,176.18c-2.66,13.03-7.26,28.53-11.67,41.18c3.93,2.79,9.32,4.88,14.62,4.82
			c-8.72,2.14-16.74-3.73-17.26-3.9C1505.71,207.72,1509.4,193.51,1516.82,176.18z"/>
		<path class="st22" d="M1543.51,158.72c0,0,11.12-6,22.98-5.53c11.86,0.47,25.79,16.27,25.79,16.27s-16.01-12.73-23.95-12.74
			c-7.95-0.01-16.36,3.87-16.36,3.87L1543.51,158.72z"/>
		<path class="st22" d="M1515.45,154.66c0,0-7.46-8.9-17.08-11.81c-9.62-2.91-24.57,8.28-24.57,8.28s15.89-7.65,22.26-5.42
			c6.36,2.24,12.17,8.34,12.17,8.34L1515.45,154.66z"/>
		<path class="move-xy-2 st0" d="M1541.12,245.7c-26.54,5.31-35.77,3.21-44.1,0C1507.83,257.46,1530.05,255.08,1541.12,245.7z"/>
		<path class="st22" d="M1548.25,176.87c0.35,4.15,3.63,7.26,7.31,6.95c3.69-0.31,6.4-3.93,6.04-8.07
			c-0.35-4.14-3.63-7.26-7.32-6.95C1550.6,169.11,1547.9,172.73,1548.25,176.87z"/>
		<path class="st23" d="M1578.13,182.8c-22.78-27.1-33.98-9.39-42.3-8.72c6.66,0.92,14.85-5.66,22.04-3.2
			C1563.76,172.82,1572.35,178.96,1578.13,182.8z"/>
		<path class="st22" d="M1492.18,171.05c0.3,4.15,2.88,7.28,5.77,6.98c2.89-0.29,5-3.89,4.71-8.03c-0.3-4.15-2.88-7.28-5.78-6.99
			C1493.99,163.3,1491.89,166.9,1492.18,171.05z"/>
		<path class="st23" d="M1512.96,175.52c-17.83-25.31-28.32-7.34-35.42-6.22c5.6,0.53,12.92-6.36,18.89-4.35
			C1501.32,166.52,1508.26,172.07,1512.96,175.52z"/>
		<path class="st15" d="M1543.62,216.17c0.61,7.12,8.82,12.25,18.32,11.45c9.52-0.8,16.73-7.21,16.12-14.33
			c-0.61-7.13-8.81-12.25-18.32-11.45C1550.23,202.63,1543.02,209.05,1543.62,216.17z"/>
	</g>
	<path class="st15" d="M1660.34,548.46c-49.38-91.39,5.86-160.06,5.86-160.06c71.89-43.92,135.66,218.95,178.42,338.6
		c-27.24,17.41-62.24,27.63-89.91,45.2C1756.44,733.29,1705.95,632.89,1660.34,548.46z"/>
	<g>
		<path class="st24" d="M1168.11,556.95c-125.16,0-149.97-100.12-150.21-101.13c-0.5-2.14,0.84-4.26,2.99-4.76
			c2.15-0.48,4.31,0.83,4.8,2.97c0.92,3.88,23.78,94.99,142.42,94.99c2.22,0,4,1.77,4,3.97
			C1172.11,555.18,1170.32,556.95,1168.11,556.95z"/>
	</g>
	<path class="st16" d="M1120.45,1600.87c-0.08,0.04-24.98,11.67-40.1,28.83c-12.87,14.61-58.17,0.27-71.52-4.39
		c-25.7,7.75-49.36,12.19-49.36,26.97c0,4.05,54.4,3.4,100,2.14l61.23-2.13c0.02-0.01,0.03-0.01,0.03-0.01
		C1124.62,1643.18,1127.01,1634.75,1120.45,1600.87z"/>
	<path class="st13" d="M1540.25,1030.15V800.9c0-30.81,29.65-55.8,66.21-55.8h349.31c36.56,0,66.21,24.98,66.21,55.8v390.33
		c0,30.82-29.65,55.81-66.21,55.81h-417.09L1540.25,1030.15z"/>
	<path class="st25" d="M1756,1247.03h199.77c36.56,0,66.21-24.98,66.21-55.81V800.9c0-30.81-29.65-55.8-66.21-55.8H1756
		c-36.57,0-66.21,24.99-66.21,55.8v390.33C1689.79,1222.05,1719.43,1247.03,1756,1247.03z"/>
	<path class="st26" d="M1567.03,93.17c-16.45-14.36-29.82-19.61-39.38-21.37c-4.17-0.53-7.47-0.73-9.97-0.77
		c-3.57,0.11-5.79,0.59-6.53,0.39c0-0.23,0.42-1.17,1.3-2.58c4.24-7.6,19.54-29.17,55.57-25.79c1.2,0.08,2.39,0.19,3.59,0.33
		c22.06,2.54,44.45,3.65,65.37,11.8c12.23,4.77,24.1,12.27,32.74,22.19c10.59,12.16,10.94,25.74,10.09,41.18
		c-1.55,28.23-10.06,56.52-4.99,84.79c4.86,27.07,18.95,53.09,42.39,68.59c20.39,13.5,29.7,32.85,30.7,57.14
		c1.03,25.19-5.99,51.76-19.45,73.16c-24.06,38.26-64.92,17.45-64.92,17.45s32.06-16.73,26.65-25.4c0,0-29.53,34.18-50.6,21.07
		c-21.07-13.11-27.32-27.9-27.32-27.9s40.96,3.25,20.14-24.59c-14.5-19.39-38.04-39.54-53.39-70.2
		c-8.45-16.88,2.58-43.59,12.2-73.08c0.83-3.46,2.8-9.45,5.04-16.48c4.62-16.65,7.63-33.72,5.53-50.02
		c-2.72,1.34-6.57,2.24-12.29,1.51c-13.88-1.77-13.17-10.1-12.77-22.61C1575.89,119.81,1573.45,104.85,1567.03,93.17z"/>
	<path class="st26" d="M1530.03,53.83c0,0-27.09-6.24-51.75,8.85c-24.66,15.09-32.27,82.02-21.07,96.88
		c11.2,14.85-46.35,28.81-16.28,33.59C1483.57,199.93,1555.88,62.79,1530.03,53.83z"/>
	<path class="st27" d="M1649.6,169.24c-10.49,16.3-20.45,38.51-24,56.85c-10.88,58.66,58.41,42.96,75.36,48.2
		c10.5,2.91,17.23,14.72,10.22,26.87c-5.66,10.04-13.49,11.64-18.18,15.11c-7.15,5.37-6.09,13.82-0.39,18.48
		c11.28,9.35,30.48-1.34,31.54,17.04c1.04,12.85-6.12,26.28-17.89,33.33c12.77-5.4,21.77-18.98,22.08-33.44
		c0.24-14.87-9.8-16.53-23.66-18.72c-8.56-1.43-10.68-6.17-9.37-8.59c1.74-4.92,13.92-4.1,22.87-19.2
		c6.81-10.72,5.24-24.37-4.2-33.07c-24.55-22.96-101.98,20.81-78.7-64.79C1638.73,194.26,1643.89,181.65,1649.6,169.24z"/>
	<path class="st27" d="M1520.89,62.57c-40.58-4.43-68.69,26.18-60.52,60.71c1.4,5.85,4.01,11.83,9.47,14.32l2.98-7.94
		c-2.2-0.43-4.56-6.19-5.23-8.31C1457.84,91.12,1482.05,61.28,1520.89,62.57z"/>
</g>
<path class="st14" d="M1740.99,678.46l-169.77,44.17c0,0-49.91,35.75-72.36,42.84c-22.45,7.09-49.88,31.65-44.5,39.19
	c5.38,7.54,33.58-18.06,38.16-17.28c4.58,0.78-16.57,31.08-20.01,50.94c-3.44,19.88-10.31,39.16,1.17,37.6
	c11.47-1.56,19.79-46.31,19.79-46.31s17.64-33.82,20.48-29.83c2.85,3.99-11.77,27.22-11.77,27.22s-3.47,25.11-5,33.93
	c-1.14,6.59,4.97,26.37,10.17,19.1c3.06-4.27,1.61-20.6,5.17-29.92c7.29-19.11,19.2-34.26,19.2-34.26s-12.76,57.24-4.74,58.6
	c8.02,1.36,16.31-46.05,16.31-46.05s19.59-39.48,28.14-43.01c8.55-3.52,32.05-18.55,50.23-24.81
	c18.18-6.27,93.32,14.38,126.85,14.81c33.52,0.44,87.92-20.17,92.44-46.28c1.37-7.98-3.64-16.8-11.27-25.19
	C1807.52,679.52,1773.03,670.12,1740.99,678.46z"/>
<polygon  class=" st28" points="627.76,82.1 652.53,74.32 673.03,90.14 673.22,64.38 694.74,49.93 670.09,41.79 662.87,17.05 
	647.45,37.77 621.48,36.93 636.59,57.88 "/>
<polygon class="st28" points="1062.64,281.16 1085.37,281.6 1097.89,300.41 1105.34,279.12 1127.25,273.13 1109.12,259.53 
	1110.15,237.02 1091.51,249.91 1070.22,241.99 1076.82,263.55 "/>
<polygon class="st28" points="1057.69,67.69 1083.03,74.14 1092.04,98.5 1106.06,76.6 1132.21,75.64 1115.53,55.65 1122.69,30.7 
	1098.36,40.24 1076.63,25.79 1078.27,51.67 "/>
</svg>
